<svg xmlns="http://www.w3.org/2000/svg" xmlns:xlink="http://www.w3.org/1999/xlink" xmlns:inkscape="http://www.inkscape.org/namespaces/inkscape" version="1.1" width="258" height="38" viewBox="0 0 258 38">
<defs>
<path id="font_1_2" d="M.4909973-.24700928C.4909973-.26901246 .49499513-.29101563 .49699403-.31300355 .49899293-.34100343 .5009918-.37001039 .5019989-.39801026V-.42100526C.5029907-.45100404 .5059967-.4830017 .49699403-.51200869 .49198915-.52801516 .4850006-.54200747 .47599793-.55500796 .43798829-.6040039 .36799623-.6190033 .31199647-.5980072 .2899933-.5890045 .272995-.576004 .25698854-.5600128 .2669983-.5620117 .27799989-.56100466 .28799439-.55900576 .30099488-.55700686 .31298829-.55200198 .32398988-.5450134 .37098695-.51301577 .3769989-.44100953 .33699037-.40100099 .29100038-.355011 .20698548-.37001039 .18299866-.43200685 .17799378-.44500733 .1749878-.4600067 .17599488-.47401429 .1769867-.4810028 .17799378-.4880066 .17999268-.49501039 .18499756-.52900698 .19599915-.56100466 .21998596-.5870056 .27999879-.65301516 .3899994-.65901187 .46099855-.6080017 .48098756-.5940094 .49699403-.5750122 .5079956-.55300906 .5299988-.5110016 .5279999-.4630127 .526001-.41801454V-.39401246C.5249939-.37200929 .5239868-.34901429 .5219879-.3270111 .5209961-.30900575 .5189972-.29101563 .5179901-.27301026 .5169983-.26301576 .5179901-.25201417 .5149994-.24301148 .5269928-.2420044 .5399933-.23800659 .5509949-.23400879 .57499697-.22601319 .598999-.21600342 .6199951-.20100403 .6489868-.18200684 .673996-.15901184 .69400027-.13000489 .73399356-.07400513 .7489929 0 .7350006 .066986087 .71699526 .1459961 .6609955 .21398926 .58299258 .23999024 .55999758 .24699402 .5349884 .25099183 .5109863 .25099183 .49499513 .25099183 .47999574 .25 .46398927 .24598694 .45700074 .24499512 .44999696 .24398804 .44299317 .24099732 .44299317 .25898744 .43699647 .27799989 .43399049 .29599 .42900086 .33198548 .4229889 .36698915 .41799928 .40299989 .41600038 .4149933 .4139862 .4269867 .41299439 .43899537 .4119873 .44400025 .4099884 .45199586 .41099549 .45700074 .41099549 .45999146 .4139862 .46299745 .4149933 .46598817 .41799928 .47099305 .42199708 .47499085 .4249878 .47999574 .43699647 .49899293 .44999696 .5189972 .46199037 .5379944 .49899293 .5970001 .5329895 .6559906 .5589905 .72099307 .58599856 .78900149 .6009979 .8659973 .58399966 .9379883 .58099368 .95199587 .57699587 .96598818 .57199099 .9799957 .56399539 .9980011 .5549927 1.0159912 .5479889 1.0339966 .5359955 1.0629883 .5269928 1.0939942 .5109863 1.1199951 .5039978 1.1309967 .49198915 1.1419983 .47799684 1.1380005 .47399903 1.1369934 .47099305 1.1349945 .46798707 1.1329956 .46199037 1.1299896 .45700074 1.1239929 .45199586 1.118988 .38398744 1.0479889 .35499574 .94999697 .34799195 .85398867 .34498597 .80999758 .34700013 .7639923 .34899903 .7200012 .34999085 .68699648 .35299684 .6539917 .35598756 .62098696 .35699464 .61099246 .35798646 .60198977 .35899354 .59199526 .35899354 .58799746 .36099244 .58299258 .3600006 .57899478 .35899354 .57398989 .35499574 .57099917 .35198976 .5669861 .34599305 .55999758 .34098817 .5519867 .33499146 .54499819 .31599427 .5209961 .29899598 .49598695 .2809906 .47099305 .2539978 .43299867 .22999573 .3919983 .20698548 .35099793 .18499756 .31399537 .1639862 .27598573 .1459961 .23699951 .08799744 .11099243 .115997318-.042007448 .20999146-.14300537 .23298645-.16801453 .26098634-.18901062 .2899933-.20600891 .31999208-.2230072 .35398866-.23500061 .3880005-.2420044 .41099549-.24700928 .43399049-.24900818 .45799256-.24900818 .46899415-.24900818 .47999574-.24900818 .4909973-.24700928M.3919983 .6159973C.3919983 .6380005 .3889923 .6589966 .3869934 .68099978 .3849945 .70899966 .3849945 .7369995 .38398744 .7649994 .3829956 .79100039 .3809967 .81799319 .3849945 .84399417 .3909912 .8799896 .40699769 .91400149 .4269867 .94400027 .43998719 .96398928 .45599366 .98399356 .47299195 1.0009918 .48098756 1.0089874 .4889984 1.0169983 .5009918 1.0169983 .5179901 1.0169983 .5319977 1.0039978 .54100039 .9909973 .5529938 .97099307 .5589905 .94699099 .5609894 .923996 .56199648 .9149933 .5629883 .9059906 .56199648 .8969879 .5589905 .8789978 .55599978 .86099246 .5509949 .84399417 .5319977 .7869873 .49499513 .73799136 .45700074 .69200137 .43598939 .66600039 .4149933 .6409912 .3919983 .6159973M.3619995-.0960083C.35798646-.08900452 .35198976-.08401489 .34700013-.07701111 .33699037-.06201172 .32998658-.04600525 .32598878-.029006958 .30899049 .04598999 .35699464 .12599182 .42900086 .1499939L.46899415-.08300781 .4869995-.2130127C.47399903-.21400452 .45999146-.2190094 .44699098-.22000122 .41600038-.2230072 .38398744-.22000122 .35398866-.21200562 .31900025-.20201111 .2869873-.18400574 .2599945-.16000366 .23999024-.14300537 .22299195-.12200928 .20899964-.09901428 .17799378-.044006349 .16899109 .020996094 .18798828 .08099365 .19898987 .116989139 .21998596 .15098572 .23799134 .18399048 .2679901 .23799134 .30099488 .29100038 .33499146 .34298707 .34498597 .35798646 .35499574 .37399293 .36499024 .3889923 .36999513 .397995 .3769989 .4059906 .38198854 .41600038 .38598634 .4019928 .3869934 .3869934 .3889923 .37298585 .3939972 .34298707 .39898683 .31399537 .40499879 .28399659 .40699769 .27198792 .40899659 .25898744 .41099549 .24699402 .4119873 .24299622 .4149933 .23599243 .41299439 .23199463 .4119873 .22898865 .4079895 .22799683 .4059906 .22698975 .3999939 .22399903 .3939972 .21998596 .3880005 .21598816 .36898805 .20399475 .35198976 .18899536 .33699037 .17199707 .2899933 .115997318 .27398683 .034988405 .30299378-.03300476 .30899049-.04800415 .31799317-.06100464 .32798768-.07400513 .33198548-.07901001 .33599855-.085006717 .34098817-.088012699 .34700013-.0920105 .35499574-.0940094 .3619995-.0960083M.5109863-.20401001C.5109863-.19500733 .5089874-.18501282 .5079956-.17601013 .5059967-.15501404 .5029907-.13500977 .5-.11401367 .49198915-.054000856 .48298646 .005996704 .47299195 .06599426 .46899415 .08799744 .46598817 .11099243 .46199037 .1329956 .46099855 .13798523 .45999146 .14399719 .45899964 .14898682 .45899964 .15098572 .45799256 .1539917 .45999146 .1559906 .46199037 .15899658 .46598817 .1579895 .46899415 .1579895 .47898866 .1599884 .4889984 .15899658 .49899293 .1579895 .54599 .15499878 .58799746 .12799073 .6139984 .08999634 .6230011 .07598877 .6299896 .06199646 .6359863 .04598999 .6689911-.055007936 .60798647-.16600037 .5109863-.20401001Z"/>
<path id="font_1_1" d="M.1769867 .12298584C.15899658 .11999512 .14099121 .117996219 .12298584 .11199951 .07998657 .09899902 .036987306 .070999149 .0129852299 .03199768 .005996704 .019989014 .0009918213 .0079956059-.0020141602-.005004883-.005004883-.015014648-.006011963-.026000977-.0040130617-.037002565-.0030059815-.04600525-.0010070801-.055007936 .0029907227-.06401062 .024993897-.11000061 .08299255-.1230011 .1289978-.1210022 .13598633-.1210022 .14199829-.120010379 .14898682-.119003299 .1599884-.117004398 .17098999-.11500549 .18199158-.11100769 .23298645-.09701538 .2849884-.06100464 .30699159-.011001587 .31098939-.0010070801 .31399537 .009994507 .31498719 .020996094 .31498719 .027999878 .31498719 .034988405 .31399537 .041992189 .31298829 .04899597 .31098939 .054992677 .30899049 .06098938 .29299928 .101989749 .24798584 .117996219 .20799256 .12199402 .19799805 .12298584 .18699646 .12399292 .1769867 .12298584Z"/>
</defs>
<path transform="matrix(1.00005,0,0,-1,-130.004,9)" stroke-width=".3985" stroke-linecap="butt" stroke-miterlimit="10" stroke-linejoin="miter" fill="none" stroke="#000000" d="M131.201-.743H386.593"/>
<path transform="matrix(1.00005,0,0,-1,-130.004,9)" stroke-width=".3985" stroke-linecap="butt" stroke-miterlimit="10" stroke-linejoin="miter" fill="none" stroke="#000000" d="M131.201-5.725H386.593"/>
<path transform="matrix(1.00005,0,0,-1,-130.004,9)" stroke-width=".3985" stroke-linecap="butt" stroke-miterlimit="10" stroke-linejoin="miter" fill="none" stroke="#000000" d="M131.201-10.706H386.593"/>
<path transform="matrix(1.00005,0,0,-1,-130.004,9)" stroke-width=".3985" stroke-linecap="butt" stroke-miterlimit="10" stroke-linejoin="miter" fill="none" stroke="#000000" d="M131.201-15.687H386.593"/>
<path transform="matrix(1.00005,0,0,-1,-130.004,9)" stroke-width=".3985" stroke-linecap="butt" stroke-miterlimit="10" stroke-linejoin="miter" fill="none" stroke="#000000" d="M131.201-20.668H386.593"/>
<path transform="matrix(1.00005,0,0,-1,-130.004,9)" stroke-width=".3985" stroke-linecap="butt" stroke-miterlimit="10" stroke-linejoin="miter" fill="none" stroke="#000000" d="M131.4-20.868V-.544"/>
<use data-text="G" xlink:href="#font_1_2" transform="matrix(19.926297,0,0,-19.9253,1.2035523,24.487999)"/>
<path transform="matrix(1.00005,0,0,-1,-130.004,9)" stroke-width=".797" stroke-linecap="butt" stroke-miterlimit="10" stroke-linejoin="miter" fill="none" stroke="#000000" d="M155.609-25.451H164.576"/>
<path transform="matrix(1.00005,0,0,-1,-130.004,9)" stroke-width=".3985" stroke-linecap="butt" stroke-miterlimit="10" stroke-linejoin="miter" fill="none" stroke="#000000" d="M162.882-25.451V-8.041"/>
<use data-text="&#x02c7;" xlink:href="#font_1_1" transform="matrix(19.926297,0,0,-19.9253,27.10785,34.451)"/>
<path transform="matrix(1.00005,0,0,-1,-130.004,9)" stroke-width=".3985" stroke-linecap="butt" stroke-miterlimit="10" stroke-linejoin="miter" fill="none" stroke="#000000" d="M178.155-22.96V-5.55"/>
<use data-text="&#x02c7;" xlink:href="#font_1_1" transform="matrix(19.926297,0,0,-19.9253,42.380617,31.96)"/>
<path transform="matrix(1.00005,0,0,-1,-130.004,9)" stroke-width=".3985" stroke-linecap="butt" stroke-miterlimit="10" stroke-linejoin="miter" fill="none" stroke="#000000" d="M193.427-20.469V-3.06"/>
<use data-text="&#x02c7;" xlink:href="#font_1_1" transform="matrix(19.926297,0,0,-19.9253,57.654375,29.469)"/>
<path transform="matrix(1.00005,0,0,-1,-130.004,9)" stroke-width=".3985" stroke-linecap="butt" stroke-miterlimit="10" stroke-linejoin="miter" fill="none" stroke="#000000" d="M208.7-17.979V-.569"/>
<use data-text="&#x02c7;" xlink:href="#font_1_1" transform="matrix(19.926297,0,0,-19.9253,72.92813,26.979)"/>
<path transform="matrix(1.00005,0,0,-1,-130.004,9)" stroke-width=".3985" stroke-linecap="butt" stroke-miterlimit="10" stroke-linejoin="miter" fill="none" stroke="#000000" d="M223.973-15.488V1.922"/>
<use data-text="&#x02c7;" xlink:href="#font_1_1" transform="matrix(19.926297,0,0,-19.9253,88.2009,24.487999)"/>
<path transform="matrix(1.00005,0,0,-1,-130.004,9)" stroke-width=".3985" stroke-linecap="butt" stroke-miterlimit="10" stroke-linejoin="miter" fill="none" stroke="#000000" d="M239.245-12.997V4.412"/>
<use data-text="&#x02c7;" xlink:href="#font_1_1" transform="matrix(19.926297,0,0,-19.9253,103.474658,21.997)"/>
<path transform="matrix(1.00005,0,0,-1,-130.004,9)" stroke-width=".3985" stroke-linecap="butt" stroke-miterlimit="10" stroke-linejoin="miter" fill="none" stroke="#000000" d="M248.939-27.916V-10.507"/>
<use data-text="&#x02c7;" xlink:href="#font_1_1" transform="matrix(19.926297,0,0,-19.9253,118.74843,19.507)"/>
<path transform="matrix(1.00005,0,0,-1,-130.004,9)" stroke-width=".3985" stroke-linecap="butt" stroke-miterlimit="10" stroke-linejoin="miter" fill="none" stroke="#000000" d="M264.212-25.426V-8.016"/>
<use data-text="&#x02c7;" xlink:href="#font_1_1" transform="matrix(19.926297,0,0,-19.9253,134.02118,17.015999)"/>
<path transform="matrix(1.00005,0,0,-1,-130.004,9)" stroke-width=".3985" stroke-linecap="butt" stroke-miterlimit="10" stroke-linejoin="miter" fill="none" stroke="#000000" d="M279.484-27.916V-10.507"/>
<use data-text="&#x02c7;" xlink:href="#font_1_1" transform="matrix(19.926297,0,0,-19.9253,149.29496,19.507)"/>
<path transform="matrix(1.00005,0,0,-1,-130.004,9)" stroke-width=".3985" stroke-linecap="butt" stroke-miterlimit="10" stroke-linejoin="miter" fill="none" stroke="#000000" d="M300.336-12.997V4.412"/>
<use data-text="&#x02c7;" xlink:href="#font_1_1" transform="matrix(19.926297,0,0,-19.9253,164.56873,21.997)"/>
<path transform="matrix(1.00005,0,0,-1,-130.004,9)" stroke-width=".3985" stroke-linecap="butt" stroke-miterlimit="10" stroke-linejoin="miter" fill="none" stroke="#000000" d="M315.609-15.488V1.922"/>
<use data-text="&#x02c7;" xlink:href="#font_1_1" transform="matrix(19.926297,0,0,-19.9253,179.84247,24.487999)"/>
<path transform="matrix(1.00005,0,0,-1,-130.004,9)" stroke-width=".3985" stroke-linecap="butt" stroke-miterlimit="10" stroke-linejoin="miter" fill="none" stroke="#000000" d="M330.882-17.979V-.569"/>
<use data-text="&#x02c7;" xlink:href="#font_1_1" transform="matrix(19.926297,0,0,-19.9253,195.11524,26.979)"/>
<path transform="matrix(1.00005,0,0,-1,-130.004,9)" stroke-width=".3985" stroke-linecap="butt" stroke-miterlimit="10" stroke-linejoin="miter" fill="none" stroke="#000000" d="M346.154-20.469V-3.06"/>
<use data-text="&#x02c7;" xlink:href="#font_1_1" transform="matrix(19.926297,0,0,-19.9253,210.389,29.469)"/>
<path transform="matrix(1.00005,0,0,-1,-130.004,9)" stroke-width=".3985" stroke-linecap="butt" stroke-miterlimit="10" stroke-linejoin="miter" fill="none" stroke="#000000" d="M361.427-22.96V-5.55"/>
<use data-text="&#x02c7;" xlink:href="#font_1_1" transform="matrix(19.926297,0,0,-19.9253,225.66275,31.96)"/>
<path transform="matrix(1.00005,0,0,-1,-130.004,9)" stroke-width=".797" stroke-linecap="butt" stroke-miterlimit="10" stroke-linejoin="miter" fill="none" stroke="#000000" d="M369.427-25.451H378.393"/>
<path transform="matrix(1.00005,0,0,-1,-130.004,9)" stroke-width=".3985" stroke-linecap="butt" stroke-miterlimit="10" stroke-linejoin="miter" fill="none" stroke="#000000" d="M376.7-25.451V-8.041"/>
<use data-text="&#x02c7;" xlink:href="#font_1_1" transform="matrix(19.926297,0,0,-19.9253,240.93552,34.451)"/>
<path transform="matrix(1.00005,0,0,-1,-130.004,9)" stroke-width=".3985" stroke-linecap="butt" stroke-miterlimit="10" stroke-linejoin="miter" fill="none" stroke="#000000" d="M386.393-20.868V-.544"/>
</svg>
