<svg xmlns="http://www.w3.org/2000/svg" xmlns:xlink="http://www.w3.org/1999/xlink" xmlns:inkscape="http://www.inkscape.org/namespaces/inkscape" version="1.1" width="399" height="367" viewBox="0 0 399 367">
<defs>
<path id="font_1_65" d="M.33299256 0V.0309906H.30699159C.22799683 .0309906 .22499085 .041992189 .22499085 .07795715V.6046295C.22499085 .64060977 .22799683 .6516113 .30699159 .6516113H.33299256V.6826172C.2979889 .6796112 .21899414 .6796112 .18099976 .6796112 .14199829 .6796112 .06298828 .6796112 .027999878 .6826172V.6516113H.053985597C.1329956 .6516113 .13598633 .64060977 .13598633 .6046295V.07795715C.13598633 .041992189 .1329956 .0309906 .053985597 .0309906H.027999878V0C.06298828 .0029907227 .14199829 .0029907227 .17999268 .0029907227 .21899414 .0029907227 .2979889 .0029907227 .33299256 0Z"/>
<path id="font_1_77" d="M.5349884 0V.0309906C.48298646 .0309906 .45799256 .0309906 .45700074 .061019899V.25221253C.45700074 .3383026 .45700074 .36932374 .42599488 .405365 .4119873 .42237855 .3789978 .4423828 .32099916 .4423828 .24798584 .4423828 .20098877 .39935304 .17298889 .33729554V.4423828L.03199768 .43066407V.3996582C.101989749 .3996582 .10998535 .39266969 .10998535 .34370423V.07595825C.10998535 .0309906 .09899902 .0309906 .03199768 .0309906V0L.14498902 .0029907227 .25698854 0V.0309906C.18998719 .0309906 .1789856 .0309906 .1789856 .07595825V.25978089C.1789856 .36431886 .25 .42037965 .31399537 .42037965 .3769989 .42037965 .3880005 .36631776 .3880005 .30926515V.076034549C.3880005 .0309906 .3769989 .0309906 .30999757 .0309906V0L.4229889 .0029907227 .5349884 0Z"/>
<path id="font_1_105" d="M.33198548 .12385559V.18066406H.30699159V.12585449C.30699159 .052108766 .2769928 .014251709 .23999024 .014251709 .17298889 .014251709 .17298889 .10491943 .17298889 .12187195V.3996582H.31599427V.43066407H.17298889V.6142578H.147995C.14698792 .5324249 .116989139 .42565919 .018997193 .42166139V.3996582H.10398865V.12408447C.10398865 .0012512207 .19699097-.0107421879 .23298645-.0107421879 .3039856-.0107421879 .33198548 .060180665 .33198548 .12408447V.12385559Z"/>
<path id="font_1_50" d="M.4149933 .11933899C.4149933 .12934876 .40699769 .13134766 .4019928 .13134766 .3929901 .13134766 .3909912 .12535095 .3889923 .11734009 .35398866 .014251709 .2639923 .014251709 .2539978 .014251709 .20399475 .014251709 .1639862 .044281007 .14099121 .08131409 .11099243 .12934876 .11099243 .19540406 .11099243 .23144531H.3899994C.4119873 .23144531 .4149933 .23144531 .4149933 .2524414 .4149933 .35131837 .36099244 .4482422 .23599243 .4482422 .11999512 .4482422 .027999878 .34532167 .027999878 .22042847 .027999878 .08631897 .1329956-.0107421879 .24798584-.0107421879 .36999513-.0107421879 .4149933 .10032654 .4149933 .11933899M.34899903 .2524414H.11199951C.117996219 .40126039 .20199585 .426239 .23599243 .426239 .33898927 .426239 .34899903 .2913971 .34899903 .2524414Z"/>
<path id="font_1_96" d="M.3639984 .38137818C.3639984 .41337586 .33299256 .4423828 .2899933 .4423828 .21699524 .4423828 .18099976 .37538148 .16699219 .3323822V.4423828L.027999878 .43066407V.3996582C.09799194 .3996582 .10598755 .39266969 .10598755 .34370423V.07595825C.10598755 .0309906 .09498596 .0309906 .027999878 .0309906V0L.14199829 .0029907227C.18199158 .0029907227 .22898865 .0029907227 .2689972 0V.0309906H.24798584C.17399597 .0309906 .17199707 .04197693 .17199707 .07795715V.23181153C.17199707 .33137513 .21398926 .42037965 .2899933 .42037965 .29699708 .42037965 .29899598 .42037965 .30099488 .41937257 .2979889 .41838075 .27799989 .40637208 .27799989 .3803711 .27799989 .35237123 .29899598 .33737184 .32099916 .33737184 .33898927 .33737184 .3639984 .3493805 .3639984 .38137818Z"/>
<path id="font_1_112" d="M.5079956 .3996582V.43066407C.4850006 .4286499 .45599366 .42765809 .43299867 .42765809L.34599305 .43066407V.3996582C.3829956 .39865113 .3939972 .37568666 .3939972 .35671998 .3939972 .34773255 .3919983 .34373475 .3880005 .3327484L.28599549 .078125 .17399597 .35671998C.16799927 .3697052 .16799927 .37368775 .16799927 .37368775 .16799927 .3996582 .20698548 .3996582 .22499085 .3996582V.43066407L.115997318 .42765809C.08898926 .42765809 .04899597 .4286499 .018997193 .43066407V.3996582C.08198547 .3996582 .085998538 .3936615 .09899902 .36271668L.24299622 .008224487C.24899292-.0057525637 .25099183-.0107421879 .2639923-.0107421879 .2769928-.0107421879 .2809906-.0017700195 .2849884 .008224487L.41600038 .3327484C.4249878 .3557129 .44198609 .39865113 .5079956 .3996582Z"/>
<path id="font_1_28" d="M.48298646 .08912659V.14511109H.45799256V.08912659C.45799256 .03112793 .43299867 .025131226 .42199708 .025131226 .3889923 .025131226 .3849945 .070129398 .3849945 .07511902V.27508546C.3849945 .31707765 .3849945 .3560791 .34899903 .39312745 .30999757 .43223573 .2599945 .4482422 .21199036 .4482422 .12998963 .4482422 .06098938 .40115357 .06098938 .335083 .06098938 .30508424 .08099365 .28808595 .10699463 .28808595 .1349945 .28808595 .15299988 .30807496 .15299988 .33407594 .15299988 .3460846 .147995 .37908937 .101989749 .38008119 .1289978 .41519166 .17799378 .426239 .20999146 .426239 .25898744 .426239 .31599427 .38710023 .31599427 .29808045V.26107789C.2649994 .25808717 .19499207 .25508119 .13198853 .22509766 .056991579 .19110108 .03199768 .13911438 .03199768 .09512329 .03199768 .014251709 .1289978-.0107421879 .19198609-.0107421879 .2579956-.0107421879 .3039856 .029251099 .32299806 .07624817 .32699586 .036132814 .35398866-.005859375 .40098573-.005859375 .42199708-.005859375 .48298646 .008132935 .48298646 .08912659M.31599427 .14013672C.31599427 .04525757 .24398804 .011245728 .19898987 .011245728 .1499939 .011245728 .10899353 .04624939 .10899353 .09625244 .10899353 .15124512 .15098572 .23425293 .31599427 .24024964V.14013672Z"/>
<path id="font_1_72" d="M.25498963 0V.0309906C.18798828 .0309906 .1769867 .0309906 .1769867 .07601929V.69433596L.032989503 .6826172V.6516113C.102996829 .6516113 .11099243 .64460757 .11099243 .5956421V.07595825C.11099243 .0309906 .099990848 .0309906 .032989503 .0309906V0L.14399719 .0029907227 .25498963 0Z"/>
<path id="font_1_90" d="M.72698977-.010345459C.72698977-.00033569337 .72698977 .010650635 .71598818 .010650635 .70700076 .010650635 .70599368 .0026550294 .7049866-.0073394777 .69898989-.061340333 .6569977-.09133911 .6139984-.09133911 .5669861-.09133911 .5419922-.05734253 .5179901 .006652832 .6359863 .059570314 .72099307 .1876831 .72099307 .3387909 .72099307 .5429535 .56999209 .7050781 .3880005 .7050781 .20899964 .7050781 .055999757 .54496768 .055999757 .3387909 .055999757 .13664246 .20698548-.022460938 .3889923-.022460938 .41999818-.022460938 .45498658-.016464234 .48399354-.007461548 .49899293-.1023407 .5130005-.19433594 .60598757-.19433594 .70799258-.1945343 .72698977-.061538698 .72698977-.010528564V-.010345459M.62098696 .33866883C.62098696 .2605896 .60899356 .11946106 .5029907 .04147339 .48098756 .097457889 .44898988 .14746094 .3899994 .14746094 .33898927 .14746094 .30799867 .10446167 .30799867 .06347656 .30799867 .036468507 .32099916 .017471314 .32199098 .015472412 .2679901 .035461427 .1559906 .10845947 .1559906 .33866883 .1559906 .59898379 .29599 .68006899 .3880005 .68006899 .4850006 .6794586 .62098696 .5934601 .62098696 .3384552V.33866883M.47698976 .025497437C.44299317 .0065307619 .41099549 .002532959 .3889923 .002532959 .33799745 .002532959 .32998658 .048461915 .32998658 .06347656 .32998658 .09246826 .35099793 .12545777 .3899994 .12545777 .44400025 .12545777 .46598817 .083465579 .47698976 .025497437Z"/>
<path id="font_1_109" d="M.5349884 0V.0309906C.46499635 .0309906 .45700074 .037994386 .45700074 .08705139V.4423828L.30999757 .43066407V.3996582C.37998963 .3996582 .3880005 .39266969 .3880005 .34373475V.16601563C.3880005 .07910156 .33999635 .011245728 .2669983 .011245728 .18299866 .011245728 .1789856 .058135988 .1789856 .11009216V.4423828L.03199768 .43066407V.3996582C.10998535 .3996582 .10998535 .39666749 .10998535 .3078003V.15802002C.10998535 .080093387 .10998535-.0107421879 .2619934-.0107421879 .31799317-.0107421879 .3619995 .017242432 .3909912 .07910156V-.0107421879L.5349884 0Z"/>
<path id="font_1_66" d="M.24699402 0V.0309906C.18099976 .0309906 .1769867 .035995485 .1769867 .075042728V.4423828L.036987306 .43066407V.3996582C.101989749 .3996582 .11099243 .3936615 .11099243 .3447113V.07595825C.11099243 .0309906 .099990848 .0309906 .032989503 .0309906V0L.14299011 .0029907227C.17799378 .0029907227 .21299744 .0009918213 .24699402 0M.19198609 .603775C.19198609 .6307678 .16899109 .6567688 .13899231 .6567688 .10499573 .6567688 .084991458 .6287689 .084991458 .603775 .084991458 .57676699 .10798645 .55078127 .13798523 .55078127 .17199707 .55078127 .19198609 .5787811 .19198609 .603775Z"/>
<path id="font_1_118" d="M.5079956 .3996582V.43066407C.4850006 .4286499 .45599366 .42765809 .43299867 .42765809L.34599305 .43066407V.3996582C.3769989 .39866639 .3929901 .3816681 .3929901 .35668946 .3929901 .34669496 .3919983 .34469605 .3869934 .33270265L.28599549 .08685303 .1749878 .35568238C.17098999 .36567689 .16899109 .36967469 .16899109 .3736725 .16899109 .3996582 .20599365 .3996582 .22499085 .3996582V.43066407L.115997318 .42765809C.08898926 .42765809 .04899597 .4286499 .018997193 .43066407V.3996582C.066986087 .3996582 .085998538 .3996582 .099990848 .36468507L.25-.000091552738 .22499085-.059066774C.20298767-.11407471 .1749878-.18309021 .11099243-.18309021 .10598755-.18309021 .08299255-.18309021 .06399536-.16503906 .09498596-.16104126 .102996829-.13905335 .102996829-.123046878 .102996829-.0970459 .083999637-.08103943 .06098938-.08103943 .040985109-.08103943 .018997193-.09403992 .018997193-.124053958 .018997193-.16905213 .06098938-.20507813 .11099243-.20507813 .17399597-.20507813 .21499634-.14804077 .23899842-.091049198L.4149933 .33569337C.44099427 .39865113 .49198915 .3996582 .5079956 .3996582Z"/>
<path id="font_1_76" d="M.71598818 .6516113V.6826172L.598999 .6796112 .48199464 .6826172V.6516113C.58499148 .6516113 .58499148 .6046295 .58499148 .577652V.15092469L.23199463 .6696167C.22299195 .6816101 .22200012 .6826172 .20298767 .6826172H.032989503V.6516113H.06199646C.07699585 .6516113 .09700012 .65060427 .11199951 .6496124 .1349945 .64660647 .13598633 .6456146 .13598633 .62661746V.10494995C.13598633 .07795715 .13598633 .0309906 .032989503 .0309906V0L.1499939 .0029907227 .2669983 0V.0309906C.1639862 .0309906 .1639862 .07795715 .1639862 .10494995V.62461856C.16899109 .6196289 .16999817 .6186218 .17399597 .6126251L.58200076 .0129852299C.59098818 .0009918213 .59199526 0 .598999 0 .61299136 0 .61299136 .0069885256 .61299136 .025985718V.577652C.61299136 .6046295 .61299136 .6516113 .71598818 .6516113Z"/>
<path id="font_1_81" d="M.47099305 .21424866C.47099305 .34223939 .37098695 .4482422 .25 .4482422 .125 .4482422 .027999878 .3392334 .027999878 .21424866 .027999878 .085250858 .13198853-.0107421879 .24899292-.0107421879 .36999513-.0107421879 .47099305 .087249759 .47099305 .21424866M.3880005 .22224427C.3880005 .18624878 .3880005 .13224793 .3659973 .08824158 .34399415 .04324341 .2999878 .014251709 .25 .014251709 .20698548 .014251709 .16299439 .035247804 .13598633 .08125305 .11099243 .12524414 .11099243 .18624878 .11099243 .22224427 .11099243 .26124574 .11099243 .31523133 .1349945 .35923768 .1619873 .40522767 .20899964 .426239 .24899292 .426239 .29299928 .426239 .33599855 .40423585 .3619995 .36123658 .3880005 .3182373 .3880005 .26023866 .3880005 .22224427Z"/>
<path id="font_1_98" d="M.3600006 .12823487C.3600006 .18122864 .32998658 .21122742 .31799317 .22323609 .2849884 .25523377 .24598694 .26322938 .20399475 .27124024 .147995 .28224183 .08099365 .29522706 .08099365 .35324098 .08099365 .38822938 .10699463 .42922975 .19299317 .42922975 .30299378 .42922975 .30799867 .3392334 .30999757 .30822755 .31098939 .2992401 .32199098 .2992401 .32199098 .2992401 .33499146 .2992401 .33499146 .30422975 .33499146 .32322694V.4242401C.33499146 .4412384 .33499146 .4482422 .32398988 .4482422 .31900025 .4482422 .31698609 .4482422 .3039856 .43623353 .30099488 .43223573 .29100038 .42323304 .2869873 .42022706 .24899292 .4482422 .20799256 .4482422 .19299317 .4482422 .070999149 .4482422 .032989503 .38124085 .032989503 .3252411 .032989503 .29023744 .04899597 .26223756 .07598877 .24023438 .10798645 .2142334 .13598633 .2082367 .20799256 .19422913 .22999573 .19021607 .31199647 .17422486 .31199647 .10221863 .31199647 .051223756 .2769928 .011245728 .19898987 .011245728 .114990238 .011245728 .07899475 .068222049 .05999756 .1532135 .056991579 .16621399 .055999757 .17021179 .04598999 .17021179 .032989503 .17021179 .032989503 .16322327 .032989503 .1452179V.013214111C.032989503-.003753662 .032989503-.0107421879 .04399109-.0107421879 .04899597-.0107421879 .049987794-.009750366 .068984989 .009246826 .070999149 .011245728 .070999149 .013214111 .08898926 .032226564 .1329956-.009750366 .17799378-.0107421879 .19898987-.0107421879 .31399537-.0107421879 .3600006 .05621338 .3600006 .1282196V.12823487Z"/>
<path id="font_1_80" d="M.72099307 .3387909C.72099307 .5429535 .56999209 .7050781 .3880005 .7050781 .20899964 .7050781 .055999757 .5449524 .055999757 .3387909 .055999757 .13363648 .20999146-.022460938 .3880005-.022460938 .56999209-.022460938 .72099307 .13664246 .72099307 .3387909M.6179962 .35281373C.6179962 .08760071 .48098756 .0035247803 .3889923 .0035247803 .29299928 .0035247803 .15899658 .09159851 .15899658 .35281373 .15899658 .6120148 .30499269 .68006899 .3880005 .68006899 .47499085 .68006899 .6179962 .6090088 .6179962 .35281373Z"/>
<path id="font_1_97" d="M.49899293 .18579102C.49899293 .2858429 .43299867 .36791993 .34899903 .38793946L.22099304 .4189453C.15899658 .43388368 .11999512 .48773194 .11999512 .5458069 .11999512 .61595156 .17399597 .677063 .2519989 .677063 .4189911 .677063 .44099427 .5127411 .44699098 .46777345 .44799806 .461792 .44799806 .45581056 .45899964 .45581056 .47200013 .45581056 .47200013 .46080018 .47200013 .47973634V.68107607C.47200013 .69807437 .47200013 .7050781 .46099855 .7050781 .45399476 .7050781 .45298768 .70407107 .44599916 .69207766L.41099549 .63497927C.3809967 .66404727 .33999635 .7050781 .25099183 .7050781 .13999939 .7050781 .055999757 .61694338 .055999757 .5107422 .055999757 .42790223 .10899353 .35490418 .18699646 .32788087 .19799805 .32388307 .24899292 .3118744 .31900025 .29486085 .34599305 .28785707 .37599183 .280838 .4039917 .24382019 .4249878 .2177887 .43499757 .18478394 .43499757 .1517334 .43499757 .0806427 .3849945 .008529663 .30099488 .008529663 .27198792 .008529663 .19599915 .013534546 .14299011 .06260681 .084991458 .11668396 .08198547 .18078614 .08099365 .21679688 .07998657 .22679138 .07199097 .22679138 .068984989 .22679138 .055999757 .22679138 .055999757 .2197876 .055999757 .20178223V.0015258789C.055999757-.015472412 .055999757-.022460938 .066986087-.022460938 .07398987-.022460938 .07499695-.020462037 .08198547-.009475708 .08198547-.009475708 .084991458-.0054626467 .117996219 .047592164 .14898682 .013534546 .21299744-.022460938 .3019867-.022460938 .4189911-.022460938 .49899293 .07562256 .49899293 .18579102Z"/>
<path id="font_1_122" d="M.6279907 .6349945C.6279907 .671051 .59298709 .7050781 .5369873 .7050781 .47799684 .7050781 .43399049 .66703799 .42900086 .66304019 .3999939 .70007327 .34399415 .7050781 .31698609 .7050781 .22200012 .7050781 .10598755 .65301516 .10598755 .5448456V.43066407H.026992798V.3996582H.10598755V.07595825C.10598755 .0309906 .09498596 .0309906 .027999878 .0309906V0L.13899231 .0029907227 .25 0V.0309906C.18299866 .0309906 .17199707 .0309906 .17199707 .07595825V.3996582H.38198854V.07595825C.38198854 .0309906 .37098695 .0309906 .3039856 .0309906V0L.41799928 .0029907227C.45799256 .0029907227 .5049896 .0029907227 .54499819 0V.0309906H.5239868C.44999696 .0309906 .44799806 .04197693 .44799806 .07795715V.3996582H.5629883V.43066407H.44499208V.5468445C.44499208 .6359863 .49299623 .68307498 .5379944 .68307498 .54100039 .68307498 .55599978 .68307498 .57099917 .6760559 .5589905 .6720581 .54100039 .6590271 .54100039 .6339874 .54100039 .61094668 .5569916 .59091189 .58399966 .59091189 .61299136 .59091189 .6279907 .61094668 .6279907 .6349945M.3929901 .664032C.3769989 .66104128 .35699464 .64801028 .35699464 .6199646 .35699464 .61395266 .35798646 .58891299 .3849945 .579895 .38198854 .5668793 .38198854 .5578613 .38198854 .54585269V.43066407H.16899109V.5438385C.16899109 .64100649 .25099183 .68307498 .31599427 .68307498 .36499024 .68307498 .3929901 .664032 .3929901 .664032Z"/>
<path id="font_1_75" d="M.8129883 0V.0309906C.7609863 .0309906 .73599246 .0309906 .7350006 .061019899V.25221253C.7350006 .3383026 .7350006 .36932374 .70399478 .405365 .6899872 .42237855 .6569977 .4423828 .598999 .4423828 .5149994 .4423828 .47099305 .38233949 .45399476 .34429933 .43998719 .43138124 .3659973 .4423828 .32099916 .4423828 .24798584 .4423828 .20098877 .39935304 .17298889 .33729554V.4423828L.03199768 .43066407V.3996582C.101989749 .3996582 .10998535 .39266969 .10998535 .34370423V.07595825C.10998535 .0309906 .09899902 .0309906 .03199768 .0309906V0L.14498902 .0029907227 .25698854 0V.0309906C.18998719 .0309906 .1789856 .0309906 .1789856 .07595825V.25978089C.1789856 .36431886 .25 .42037965 .31399537 .42037965 .3769989 .42037965 .3880005 .36631776 .3880005 .30926515V.076034549C.3880005 .0309906 .3769989 .0309906 .30999757 .0309906V0L.4229889 .0029907227 .5349884 0V.0309906C.46798707 .0309906 .45700074 .0309906 .45700074 .076034549V.2602234C.45700074 .36431886 .5279999 .42037965 .59199526 .42037965 .6549988 .42037965 .66600039 .36631776 .66600039 .30926515V.076034549C.66600039 .0309906 .6549988 .0309906 .58799746 .0309906V0L.70098879 .0029907227 .8129883 0Z"/>
<path id="font_1_35" d="M.5209961 .2163086C.5209961 .34335328 .4229889 .4423828 .30899049 .4423828 .23098755 .4423828 .18798828 .39537049 .17199707 .3773651V.69433596L.027999878 .68333438V.6523285C.09799194 .6523285 .10598755 .6453247 .10598755 .596344V.00024414063H.1309967L.16699219 .06227112C.18199158 .039260866 .22399903-.0107421879 .2979889-.0107421879 .4169922-.0107421879 .5209961 .08728027 .5209961 .2163086M.43798829 .21731568C.43798829 .18029785 .43598939 .120285037 .40699769 .07527161 .38598634 .044265748 .34799195 .011245728 .2939911 .011245728 .24899292 .011260986 .21299744 .03526306 .18899536 .072265628 .1749878 .09326172 .1749878 .09625244 .1749878 .11425781V.32034303C.1749878 .3393402 .1749878 .3403473 .18598938 .35635377 .22499085 .41236878 .27999879 .42037965 .3039856 .42037965 .34899903 .42037965 .3849945 .3943634 .40899659 .35635377 .43499757 .31533814 .43798829 .25831605 .43798829 .21730042V.21731568Z"/>
<path id="font_1_55" d="M.35699464 .63479617C.35699464 .6717987 .31999208 .7050781 .2669983 .7050781 .19699097 .7050781 .11199951 .65179446 .11199951 .5457611V.43066407H.032989503V.3996582H.11199951V.07595825C.11199951 .0309906 .100997928 .0309906 .033996583 .0309906V0L.147995 .0029907227C.18798828 .0029907227 .23498535 .0029907227 .2749939 0V.0309906H.2539978C.17999268 .0309906 .17799378 .04197693 .17799378 .07795715V.3996582H.2919922V.43066407H.1749878V.5467529C.1749878 .63479617 .22299195 .68307498 .2669983 .68307498 .269989 .68307498 .2849884 .68307498 .2999878 .675827 .28799439 .6717987 .269989 .6587982 .269989 .6338043 .269989 .61079409 .28599549 .5907898 .31298829 .5907898 .34199525 .5907898 .35699464 .61079409 .35699464 .63479617Z"/>
<path id="font_1_42" d="M.6649933 .23271179C.6649933 .24272156 .6649933 .24972534 .6519928 .24972534 .6409912 .24972534 .6409912 .24372864 .6399994 .23371887 .6319885 .09059143 .5249939 .008529663 .41600038 .008529663 .35499574 .008529663 .15899658 .042556764 .15899658 .34080506 .15899658 .64004519 .35398866 .67407229 .4149933 .67407229 .5239868 .67407229 .61299136 .58299258 .6329956 .4368744 .6349945 .42286683 .6349945 .41986085 .6489868 .41986085 .6649933 .41986085 .6649933 .42286683 .6649933 .44387818V.68107607C.6649933 .69807437 .6649933 .7050781 .6539917 .7050781 .6499939 .7050781 .6459961 .7050781 .6380005 .69306948L.58799746 .61901858C.5509949 .6550598 .5 .7050781 .4039917 .7050781 .21699524 .7050781 .055999757 .5459595 .055999757 .34179688 .055999757 .1346283 .21798706-.022460938 .4039917-.022460938 .5669861-.022460938 .6649933 .116622928 .6649933 .23271179Z"/>
<path id="font_1_43" d="M.4149933 .119140628C.4149933 .12911988 .40499879 .12911988 .4019928 .12911988 .3929901 .12911988 .3909912 .12512207 .3889923 .119140628 .3600006 .026229859 .29499818 .014251709 .2579956 .014251709 .20498657 .014251709 .116989139 .0572052 .116989139 .21801758 .116989139 .38093568 .19898987 .42323304 .2519989 .42323304 .26098634 .42323304 .32398988 .42222596 .35899354 .38594056 .31799317 .38293458 .31199647 .3529358 .31199647 .3399353 .31199647 .31393434 .32998658 .2939453 .35798646 .2939453 .38398744 .2939453 .4039917 .3109436 .4039917 .34094239 .4039917 .40911866 .32798768 .4482422 .25099183 .4482422 .12599182 .4482422 .033996583 .3399353 .033996583 .21601868 .033996583 .08816528 .1329956-.0107421879 .24899292-.0107421879 .3829956-.0107421879 .4149933 .10914612 .4149933 .119140628Z"/>
<path id="font_1_47" d="M.5269928 0V.0309906C.45700074 .0309906 .44898988 .038009645 .44898988 .0871582V.69433596L.30499269 .6826172V.6516113C.375 .6516113 .3829956 .64463809 .3829956 .59580996V.38035584C.35398866 .41636659 .31098939 .4423828 .25698854 .4423828 .13899231 .4423828 .033996583 .3443451 .033996583 .21531677 .033996583 .088272098 .13198853-.0107421879 .24598694-.0107421879 .30999757-.0107421879 .35499574 .023254395 .37998963 .055267335V-.0107421879L.5269928 0M.37998963 .117996219C.37998963 .099990848 .37998963 .09799194 .36898805 .08099365 .33898927 .033218385 .2939911 .011245728 .25099183 .011245728 .20599365 .011245728 .16999817 .037216188 .1459961 .075164798 .11999512 .1161499 .116989139 .17320252 .116989139 .21421814 .116989139 .25125123 .11898804 .31129457 .147995 .35632325 .16899109 .38734437 .20698548 .42037965 .26098634 .42037965 .29599 .42037965 .33799745 .405365 .36898805 .3603363 .37998963 .34332276 .37998963 .34132386 .37998963 .32330323V.117996219Z"/>
<path id="font_1_74" d="M.8789978 0V.0309906H.8549957C.7779999 .0309906 .776001 .041992189 .776001 .07795715V.6046295C.776001 .64060977 .7779999 .6516113 .8549957 .6516113H.8789978V.6826172H.70999148C.6839905 .6826172 .6839905 .6816101 .6769867 .66360476L.45799256 .10095215 .24099732 .660614C.23199463 .6826172 .22898865 .6826172 .20599365 .6826172H.036987306V.6516113H.06098938C.13798523 .6516113 .13999939 .64060977 .13999939 .6046295V.10494995C.13999939 .07795715 .13999939 .0309906 .036987306 .0309906V0L.1539917 .0029907227 .2709961 0V.0309906C.16799927 .0309906 .16799927 .07795715 .16799927 .10494995V.6436157H.16899109L.4099884 .021987915C.4149933 .008987427 .41999818 0 .42999269 0 .44099427 0 .44400025 .0079956059 .44799806 .018997193L.69400027 .6516113H.69499209V.07795715C.69499209 .041992189 .69299319 .0309906 .6159973 .0309906H.59199526V0C.6289978 .0029907227 .69699099 .0029907227 .73599246 .0029907227 .7749939 .0029907227 .84199526 .0029907227 .8789978 0Z"/>
<path id="font_1_64" d="M.27598573 .18710327V.24511719H.010986328V.18710327H.27598573Z"/>
<path id="font_1_34" d="M.651001 .18289185C.651001 .26983644 .56900027 .34480287 .45799256 .35679627 .5549927 .3757782 .6239929 .43974305 .6239929 .51368716 .6239929 .6006317 .5319977 .6826172 .4019928 .6826172H.035995485V.6516113H.05999756C.13699341 .6516113 .13899231 .64060977 .13899231 .6046295V.07795715C.13899231 .041992189 .13699341 .0309906 .05999756 .0309906H.035995485V0H.42799378C.5609894-.0002593994 .651001 .08874512 .651001 .18273926V.18289185M.5269928 .5136719C.5269928 .44970704 .47799684 .36573792 .36698915 .36573792H.22200012V.6116333C.22200012 .64460757 .22399903 .6516113 .2709961 .6516113H.394989C.49198915 .65174868 .5269928 .56674197 .5269928 .51374819V.5136719M.5509949 .18386841C.5509949 .1129303 .49899293 .0309906 .3959961 .0309906H.2709961C.22399903 .0309906 .22200012 .037994386 .22200012 .07095337V.34375H.4099884C.5089874 .34399415 .5509949 .25099183 .5509949 .18399048V.18386841Z"/>
<path id="font_1_126" d="M.5269928 0V.0309906C.45999146 .0309906 .44898988 .0309906 .44898988 .07595825V.69407656L.41299439 .6880646C.40899659 .6880646 .4079895 .68907168 .4039917 .69107058 .37199403 .7050781 .33099366 .7050781 .31999208 .7050781 .21499634 .7050781 .10598755 .6490326 .10598755 .5448456V.43066407H.026992798V.3996582H.10598755V.07595825C.10598755 .0309906 .09498596 .0309906 .027999878 .0309906V0L.13899231 .0029907227 .25 0V.0309906C.18299866 .0309906 .17199707 .0309906 .17199707 .07595825V.3996582H.3829956V.07595825C.3829956 .0309906 .37199403 .0309906 .30499269 .0309906V0L.41600038 .0029907227 .5269928 0M.3829956 .43066407H.16899109V.54385378C.16899109 .6370697 .24499512 .68307498 .31900025 .68307498 .32798768 .68307498 .35499574 .68307498 .3829956 .67407229 .37399293 .6700592 .35798646 .66004946 .35798646 .6340027 .35798646 .6159668 .3659973 .60095217 .3829956 .5949402V.43066407Z"/>
<path id="font_2_3" d="M.4909973-.24700928C.4909973-.26901246 .49499513-.29101563 .49699403-.31300355 .49899293-.34100343 .5009918-.37001039 .5019989-.39801026V-.42100526C.5029907-.45100404 .5059967-.4830017 .49699403-.51200869 .49198915-.52801516 .4850006-.54200747 .47599793-.55500796 .43798829-.6040039 .36799623-.6190033 .31199647-.5980072 .2899933-.5890045 .272995-.576004 .25698854-.5600128 .2669983-.5620117 .27799989-.56100466 .28799439-.55900576 .30099488-.55700686 .31298829-.55200198 .32398988-.5450134 .37098695-.51301577 .3769989-.44100953 .33699037-.40100099 .29100038-.355011 .20698548-.37001039 .18299866-.43200685 .17799378-.44500733 .1749878-.4600067 .17599488-.47401429 .1769867-.4810028 .17799378-.4880066 .17999268-.49501039 .18499756-.52900698 .19599915-.56100466 .21998596-.5870056 .27999879-.65301516 .3899994-.65901187 .46099855-.6080017 .48098756-.5940094 .49699403-.5750122 .5079956-.55300906 .5299988-.5110016 .5279999-.4630127 .526001-.41801454V-.39401246C.5249939-.37200929 .5239868-.34901429 .5219879-.3270111 .5209961-.30900575 .5189972-.29101563 .5179901-.27301026 .5169983-.26301576 .5179901-.25201417 .5149994-.24301148 .5269928-.2420044 .5399933-.23800659 .5509949-.23400879 .57499697-.22601319 .598999-.21600342 .6199951-.20100403 .6489868-.18200684 .673996-.15901184 .69400027-.13000489 .73399356-.07400513 .7489929 0 .7350006 .066986087 .71699526 .1459961 .6609955 .21398926 .58299258 .23999024 .55999758 .24699402 .5349884 .25099183 .5109863 .25099183 .49499513 .25099183 .47999574 .25 .46398927 .24598694 .45700074 .24499512 .44999696 .24398804 .44299317 .24099732 .44299317 .25898744 .43699647 .27799989 .43399049 .29599 .42900086 .33198548 .4229889 .36698915 .41799928 .40299989 .41600038 .4149933 .4139862 .4269867 .41299439 .43899537 .4119873 .44400025 .4099884 .45199586 .41099549 .45700074 .41099549 .45999146 .4139862 .46299745 .4149933 .46598817 .41799928 .47099305 .42199708 .47499085 .4249878 .47999574 .43699647 .49899293 .44999696 .5189972 .46199037 .5379944 .49899293 .5970001 .5329895 .6559906 .5589905 .72099307 .58599856 .78900149 .6009979 .8659973 .58399966 .9379883 .58099368 .95199587 .57699587 .96598818 .57199099 .9799957 .56399539 .9980011 .5549927 1.0159912 .5479889 1.0339966 .5359955 1.0629883 .5269928 1.0939942 .5109863 1.1199951 .5039978 1.1309967 .49198915 1.1419983 .47799684 1.1380005 .47399903 1.1369934 .47099305 1.1349945 .46798707 1.1329956 .46199037 1.1299896 .45700074 1.1239929 .45199586 1.118988 .38398744 1.0479889 .35499574 .94999697 .34799195 .85398867 .34498597 .80999758 .34700013 .7639923 .34899903 .7200012 .34999085 .68699648 .35299684 .6539917 .35598756 .62098696 .35699464 .61099246 .35798646 .60198977 .35899354 .59199526 .35899354 .58799746 .36099244 .58299258 .3600006 .57899478 .35899354 .57398989 .35499574 .57099917 .35198976 .5669861 .34599305 .55999758 .34098817 .5519867 .33499146 .54499819 .31599427 .5209961 .29899598 .49598695 .2809906 .47099305 .2539978 .43299867 .22999573 .3919983 .20698548 .35099793 .18499756 .31399537 .1639862 .27598573 .1459961 .23699951 .08799744 .11099243 .115997318-.042007448 .20999146-.14300537 .23298645-.16801453 .26098634-.18901062 .2899933-.20600891 .31999208-.2230072 .35398866-.23500061 .3880005-.2420044 .41099549-.24700928 .43399049-.24900818 .45799256-.24900818 .46899415-.24900818 .47999574-.24900818 .4909973-.24700928M.3919983 .6159973C.3919983 .6380005 .3889923 .6589966 .3869934 .68099978 .3849945 .70899966 .3849945 .7369995 .38398744 .7649994 .3829956 .79100039 .3809967 .81799319 .3849945 .84399417 .3909912 .8799896 .40699769 .91400149 .4269867 .94400027 .43998719 .96398928 .45599366 .98399356 .47299195 1.0009918 .48098756 1.0089874 .4889984 1.0169983 .5009918 1.0169983 .5179901 1.0169983 .5319977 1.0039978 .54100039 .9909973 .5529938 .97099307 .5589905 .94699099 .5609894 .923996 .56199648 .9149933 .5629883 .9059906 .56199648 .8969879 .5589905 .8789978 .55599978 .86099246 .5509949 .84399417 .5319977 .7869873 .49499513 .73799136 .45700074 .69200137 .43598939 .66600039 .4149933 .6409912 .3919983 .6159973M.3619995-.0960083C.35798646-.08900452 .35198976-.08401489 .34700013-.07701111 .33699037-.06201172 .32998658-.04600525 .32598878-.029006958 .30899049 .04598999 .35699464 .12599182 .42900086 .1499939L.46899415-.08300781 .4869995-.2130127C.47399903-.21400452 .45999146-.2190094 .44699098-.22000122 .41600038-.2230072 .38398744-.22000122 .35398866-.21200562 .31900025-.20201111 .2869873-.18400574 .2599945-.16000366 .23999024-.14300537 .22299195-.12200928 .20899964-.09901428 .17799378-.044006349 .16899109 .020996094 .18798828 .08099365 .19898987 .116989139 .21998596 .15098572 .23799134 .18399048 .2679901 .23799134 .30099488 .29100038 .33499146 .34298707 .34498597 .35798646 .35499574 .37399293 .36499024 .3889923 .36999513 .397995 .3769989 .4059906 .38198854 .41600038 .38598634 .4019928 .3869934 .3869934 .3889923 .37298585 .3939972 .34298707 .39898683 .31399537 .40499879 .28399659 .40699769 .27198792 .40899659 .25898744 .41099549 .24699402 .4119873 .24299622 .4149933 .23599243 .41299439 .23199463 .4119873 .22898865 .4079895 .22799683 .4059906 .22698975 .3999939 .22399903 .3939972 .21998596 .3880005 .21598816 .36898805 .20399475 .35198976 .18899536 .33699037 .17199707 .2899933 .115997318 .27398683 .034988405 .30299378-.03300476 .30899049-.04800415 .31799317-.06100464 .32798768-.07400513 .33198548-.07901001 .33599855-.085006717 .34098817-.088012699 .34700013-.0920105 .35499574-.0940094 .3619995-.0960083M.5109863-.20401001C.5109863-.19500733 .5089874-.18501282 .5079956-.17601013 .5059967-.15501404 .5029907-.13500977 .5-.11401367 .49198915-.054000856 .48298646 .005996704 .47299195 .06599426 .46899415 .08799744 .46598817 .11099243 .46199037 .1329956 .46099855 .13798523 .45999146 .14399719 .45899964 .14898682 .45899964 .15098572 .45799256 .1539917 .45999146 .1559906 .46199037 .15899658 .46598817 .1579895 .46899415 .1579895 .47898866 .1599884 .4889984 .15899658 .49899293 .1579895 .54599 .15499878 .58799746 .12799073 .6139984 .08999634 .6230011 .07598877 .6299896 .06199646 .6359863 .04598999 .6689911-.055007936 .60798647-.16600037 .5109863-.20401001Z"/>
<path id="font_2_1" d="M.1769867 .12298584C.15899658 .11999512 .14099121 .117996219 .12298584 .11199951 .07998657 .09899902 .036987306 .070999149 .0129852299 .03199768 .005996704 .019989014 .0009918213 .0079956059-.0020141602-.005004883-.005004883-.015014648-.006011963-.026000977-.0040130617-.037002565-.0030059815-.04600525-.0010070801-.055007936 .0029907227-.06401062 .024993897-.11000061 .08299255-.1230011 .1289978-.1210022 .13598633-.1210022 .14199829-.120010379 .14898682-.119003299 .1599884-.117004398 .17098999-.11500549 .18199158-.11100769 .23298645-.09701538 .2849884-.06100464 .30699159-.011001587 .31098939-.0010070801 .31399537 .009994507 .31498719 .020996094 .31498719 .027999878 .31498719 .034988405 .31399537 .041992189 .31298829 .04899597 .31098939 .054992677 .30899049 .06098938 .29299928 .101989749 .24798584 .117996219 .20799256 .12199402 .19799805 .12298584 .18699646 .12399292 .1769867 .12298584Z"/>
<path id="font_2_2" d="M.052993776-.16600037C.06199646-.16101074 .068984989-.15301514 .07699585-.14500427 .08699036-.13600159 .09899902-.12800598 .10998535-.1210022 .1539917-.09300232 .20399475-.071014408 .24099732-.03401184 .2579956-.01701355 .2749939 .004989624 .27799989 .0289917 .28199769 .06199646 .2579956 .08999634 .23098755 .10598755 .20999146 .11898804 .18699646 .125 .16299439 .1269989 .14399719 .1289978 .125 .12799073 .10798645 .11999512 .09399414 .11299133 .083999637 .102996829 .07398987 .09199524V.3899994L.05999756 .3789978 .053985597 .37298585 .052993776 .36099244V.33699037 .25299073-.16600037M.07398987-.11500549V.0029907227 .035995485C.07398987 .040985109 .07299805 .04699707 .07598877 .051986696 .07899475 .057998659 .083999637 .06399536 .08898926 .068984989 .11299133 .09199524 .1579895 .10398865 .18099976 .07398987 .18499756 .068984989 .18899536 .06298828 .19099427 .056991579 .19299317 .049987794 .19400025 .042999269 .19400025 .034988405 .19299317 .01399231 .17999268-.006011963 .16799927-.022003174 .14099121-.058013917 .10499573-.08401489 .07398987-.11500549Z"/>
<path id="font_1_107" d="M.44898988 .17396546H.42399598C.4189911 .14398194 .4119873 .099990848 .4019928 .084991458 .394989 .07699585 .32899476 .07699585 .30699159 .07699585H.1269989L.23298645 .17996216C.3889923 .31803895 .44898988 .37210084 .44898988 .47216798 .44898988 .5860901 .35899354 .6660156 .23699951 .6660156 .12399292 .6660156 .049987794 .57411196 .049987794 .48516847 .049987794 .4291687 .099990848 .4291687 .102996829 .4291687 .11999512 .4291687 .15499878 .44117738 .15499878 .48217774 .15499878 .5081787 .13699341 .5341797 .101989749 .5341797 .09399414 .5341797 .09199524 .5341797 .08898926 .5331726 .11199951 .59806826 .1659851 .63500979 .22399903 .63500979 .31498719 .63500979 .35798646 .5541382 .35798646 .47216798 .35798646 .39196778 .30799867 .31297303 .25299073 .25097657L.06098938 .036987306C.049987794 .025985718 .049987794 .023986817 .049987794 0H.42099L.44898988 .17396546Z"/>
<path id="font_1_106" d="M.45700074 .17037964C.45700074 .252594 .3939972 .33088685 .2899933 .35191346 .37199403 .37893678 .42999269 .4490509 .42999269 .52809146 .42999269 .6100464 .34199525 .6660156 .24598694 .6660156 .14498902 .6660156 .068984989 .60606387 .068984989 .53009036 .068984989 .49710084 .09098816 .47808839 .11999512 .47808839 .15098572 .47808839 .17098999 .50009158 .17098999 .5290985 .17098999 .57910159 .12399292 .57910159 .10899353 .57910159 .13999939 .62802127 .20599365 .64100649 .24198914 .64100649 .2829895 .64100649 .33799745 .6190338 .33799745 .5290985 .33799745 .51708987 .33599855 .45906068 .30999757 .4149933 .27999879 .36691285 .24598694 .36390687 .22099304 .36291505 .21299744 .36190797 .18899536 .35990907 .18199158 .35990907 .17399597 .35890199 .16699219 .35791017 .16699219 .3479004 .16699219 .33691407 .17399597 .33691407 .19099427 .33691407H.23498535C.31698609 .33691407 .35398866 .2686615 .35398866 .17037964 .35398866 .034469606 .2849884 .0055389406 .24099732 .0055389406 .19799805 .0055389406 .12298584 .022491456 .08799744 .08137512 .12298584 .07637024 .1539917 .09837341 .1539917 .1363678 .1539917 .17237854 .1269989 .19238281 .09799194 .19238281 .07398987 .19238281 .041992189 .17837525 .041992189 .1343689 .041992189 .043441774 .1349945-.022460938 .24398804-.022460938 .3659973-.022460938 .45700074 .06838989 .45700074 .17037964Z"/>
<path id="font_1_27" d="M.71699526 0V.0309906H.69898989C.6389923 .0309906 .625 .037979127 .6139984 .07095337L.397995 .6958008C.3929901 .7088165 .3909912 .7158203 .375 .7158203 .35899354 .7158203 .35598756 .70980837 .35099793 .6958008L.14399719 .09791565C.12599182 .04698181 .085998538 .03199768 .03199768 .0309906V0L.13398743 .0029907227 .24899292 0V.0309906C.19898987 .0309906 .17399597 .05596924 .17399597 .0819397 .17399597 .08493042 .1749878 .09492493 .17599488 .09692383L.22200012 .2277832H.46899415L.5219879 .07495117C.522995 .07095337 .5249939 .064956668 .5249939 .060958864 .5249939 .0309906 .46899415 .0309906 .44198609 .0309906V0C.47799684 .0029907227 .5479889 .0029907227 .58599856 .0029907227L.71699526 0M.45799256 .25878907H.23298645L.34498597 .58380129 .45799256 .25878907Z"/>
<path id="font_1_68" d="M.20999146-.049972536V.4423828L.057998659 .43138124V.40037538C.1349945 .40037538 .14399719 .39337159 .14399719 .34432984V-.051971437C.14399719-.09700012 .1349945-.18309021 .070999149-.18309021 .06599426-.18309021 .042999269-.18309021 .016998291-.17001343 .03199768-.16600037 .051986696-.1519928 .051986696-.125 .051986696-.09899902 .033996583-.07899475 .005996704-.07899475-.022003174-.07899475-.040008546-.09899902-.040008546-.125-.040008546-.17704773 .015991211-.20507813 .07299805-.20507813 .147995-.20507813 .20999146-.14100647 .20999146-.049972536M.20999146 .6042175C.20999146 .6312256 .18699646 .65722659 .15699768 .65722659 .12298584 .65722659 .102996829 .6292114 .102996829 .6042175 .102996829 .57722476 .12599182 .55122378 .1559906 .55122378 .18998719 .55122378 .20999146 .57922366 .20999146 .6042175Z"/>
<path id="font_1_58" d="M.7350006 .24145508V.27246095L.61299136 .26945497C.57299807 .26945497 .48799134 .26945497 .45199586 .27246095V.24145508H.48399354C.57398989 .24145508 .57699587 .23045349 .57699587 .19346619V.12948609C.57699587 .017532349 .44999696 .008529663 .42199708 .008529663 .35699464 .008529663 .15899658 .043518068 .15899658 .34155274 .15899658 .6410217 .35598756 .67407229 .41600038 .67407229 .522995 .67407229 .6139984 .5839386 .6339874 .43670655 .6359863 .42268373 .6359863 .41967774 .6499939 .41967774 .66600039 .41967774 .66600039 .42268373 .66600039 .44371034V.68107607C.66600039 .69807437 .66600039 .7050781 .6549988 .7050781 .651001 .7050781 .6469879 .7050781 .6389923 .69306948L.58898928 .61898806C.5569916 .6510315 .5029907 .7050781 .4039917 .7050781 .21798706 .7050781 .055999757 .546875 .055999757 .34155274 .055999757 .13648987 .21598816-.022460938 .4059906-.022460938 .47898866-.022460938 .5589905 .0035247803 .59298709 .06251526 .60598757 .040527345 .6459961 .0005340576 .6569977 .0005340576 .66600039 .0005340576 .66600039 .008529663 .66600039 .023529053V.19746399C.66600039 .2364502 .66999819 .24145508 .7350006 .24145508Z"/>
<path id="font_1_82" d="M.4189911 0V.0309906H.3869934C.29699708 .0309906 .2939911 .041992189 .2939911 .07902527V.64012148C.2939911 .6640167 .2939911 .6660156 .2709961 .6660156 .20899964 .60227969 .12098694 .60227969 .08898926 .60227969V.57128909C.10899353 .57128909 .16799927 .57128909 .21998596 .5972748V.07902527C.21998596 .042999269 .21699524 .0309906 .1269989 .0309906H.09498596V0C.12998963 .0029907227 .21699524 .0029907227 .25698854 .0029907227 .29699708 .0029907227 .38398744 .0029907227 .4189911 0Z"/>
<path id="font_1_54" d="M.6100006 .45477296 .58200076 .6796875H.032989503V.64868167H.056991579C.13398743 .64868167 .13598633 .63768008 .13598633 .6016998V.07797241C.13598633 .041992189 .13398743 .0309906 .056991579 .0309906H.032989503V0C.067993167 .0029907227 .1459961 .0029907227 .18499756 .0029907227 .22599793 .0029907227 .31698609 .0029907227 .35299684 0V.0309906H.31999208C.22499085 .031188965 .22499085 .044189454 .22499085 .079193118V.3251953H.31098939C.40699769 .3251953 .4169922 .29318238 .4169922 .20819092H.44198609V.4731903H.4169922C.4169922 .38919068 .40699769 .3561859 .31098939 .3561859H.22499085V.6091919C.22499085 .64167788 .22698975 .64868167 .27398683 .64868167H.3939972C.5439911 .64868167 .56900027 .5926819 .58499148 .4546814L.6100006 .45477296Z"/>
<path id="font_1_49" d="M.6519928 .2579193H.6269989C.60198977 .10397339 .57899478 .0309906 .40699769 .0309906H.27398683C.22698975 .0309906 .22499085 .037994386 .22499085 .07098389V.33789063H.31498719C.4119873 .33789063 .4229889 .30589295 .4229889 .220932H.44799806V.48606874H.4229889C.4229889 .39994813 .4119873 .36888124 .31498719 .36888124H.22499085V.6087799C.22499085 .6416931 .22698975 .64868167 .27398683 .64868167H.40299989C.55599978 .64868167 .58299258 .59381106 .598999 .45507813H.6239929L.59599307 .6796875H.032989503V.64868167H.056991579C.13398743 .64868167 .13598633 .6377106 .13598633 .6017914V.07797241C.13598633 .041992189 .13398743 .0309906 .056991579 .0309906H.032989503V0H.6100006L.6519928 .2579193Z"/>
<path id="font_1_59" d="M.4850006 .40411378C.4850006 .42111207 .47299195 .453125 .43399049 .453125 .4139862 .453125 .36999513 .44711305 .32798768 .40611268 .28599549 .43937684 .24398804 .4423828 .22200012 .4423828 .1289978 .4423828 .05999756 .37338258 .05999756 .29638673 .05999756 .25239564 .08198547 .21440125 .10699463 .19340515 .09399414 .17840576 .07598877 .14538574 .07598877 .11035156 .07598877 .07899475 .08898926 .04083252 .11999512 .020828248 .05999756 .003829956 .027999878-.039138795 .027999878-.07911682 .027999878-.15107727 .1269989-.20605469 .24899292-.20605469 .36698915-.20605469 .47099305-.15507508 .47099305-.07711792 .47099305-.042144777 .45700074 .008834839 .4059906 .036834718 .35299684 .064834598 .29499818 .064834598 .23399353 .064834598 .20899964 .064834598 .1659851 .064834598 .15899658 .065841678 .1269989 .069885257 .10598755 .101242069 .10598755 .13334656 .10598755 .13735962 .10598755 .16040039 .12298584 .18040467 .1619873 .15240479 .20298767 .14941406 .22200012 .14941406 .31498719 .14941406 .38398744 .21839905 .38398744 .2953949 .38398744 .3323822 .36799623 .36938478 .34298707 .39237977 .3789978 .42637635 .4149933 .43138124 .43299867 .43138124 .43299867 .43112184 .43998719 .43112184 .44299317 .43011476 .43199159 .42611695 .4269867 .41513063 .4269867 .40315248 .4269867 .38616944 .43998719 .37417604 .45599366 .37417604 .46598817 .37417604 .4850006 .3811798 .4850006 .4041443V.40411378M.30899049 .29626466C.30899049 .26930238 .30799867 .2373352 .29299928 .21235657 .2849884 .20037842 .2619934 .17240906 .22200012 .17240906 .1349945 .17240906 .1349945 .2722931 .1349945 .29527284 .1349945 .3222351 .13598633 .35420228 .15098572 .3791809 .15899658 .3913269 .18199158 .41937257 .22200012 .41937257 .30899049 .41937257 .30899049 .31922914 .30899049 .29618836V.29626466M.4189911-.07911682C.4189911-.13308716 .34799195-.18305969 .25-.18305969 .14898682-.18305969 .07998657-.13209534 .07998657-.07911682 .07998657-.03314209 .117996219 .003829956 .1619873 .0068359377H.22099304C.30699159 .0068359377 .4189911 .0068359377 .4189911-.07911682Z"/>
<path id="font_1_46" d="M.70700076 .33580018C.70700076 .52568057 .57199099 .6826172 .40098573 .6826172H.034988405V.6516113H.05899048C.13598633 .6516113 .13798523 .64060977 .13798523 .6046295V.07795715C.13798523 .041992189 .13598633 .0309906 .05899048 .0309906H.034988405V0H.40098573C.56900027 0 .70700076 .1479187 .70700076 .33580018M.6069946 .33580018C.6069946 .22486878 .58799746 .16490174 .5519867 .11593628 .5319977 .08895874 .47499085 .0309906 .37399293 .0309906H.272995C.22599793 .0309906 .22399903 .037994386 .22399903 .07096863V.6116333C.22399903 .64460757 .22599793 .6516113 .272995 .6516113H.37298585C.43499757 .6516113 .5039978 .6296234 .5549927 .55867007 .59799197 .49969483 .6069946 .41375733 .6069946 .33580018Z"/>
</defs>
<path transform="matrix(1.00002,0,0,-1.00002,-85.002,15.997)" stroke-width=".3985" stroke-linecap="butt" stroke-miterlimit="10" stroke-linejoin="miter" fill="none" stroke="#000000" d="M86.214 14.198H482.797"/>
<path transform="matrix(1.00002,0,0,-1.00002,-85.002,15.997)" stroke-width=".3985" stroke-linecap="butt" stroke-miterlimit="10" stroke-linejoin="miter" fill="none" stroke="#000000" d="M86.214 2.044V13.999"/>
<use data-text="I" xlink:href="#font_1_65" transform="matrix(9.962799,0,0,-9.962799,7.1918489,10.366887)"/>
<use data-text="n" xlink:href="#font_1_77" transform="matrix(9.962799,0,0,-9.962799,10.788414,10.366887)"/>
<use data-text="t" xlink:href="#font_1_105" transform="matrix(9.962799,0,0,-9.962799,16.048775,10.366887)"/>
<use data-text="e" xlink:href="#font_1_50" transform="matrix(9.962799,0,0,-9.962799,19.924302,10.366887)"/>
<use data-text="r" xlink:href="#font_1_96" transform="matrix(9.962799,0,0,-9.962799,24.347786,10.366887)"/>
<use data-text="v" xlink:href="#font_1_112" transform="matrix(9.962799,0,0,-9.962799,28.253205,10.366887)"/>
<use data-text="a" xlink:href="#font_1_28" transform="matrix(9.962799,0,0,-9.962799,32.95565,10.366887)"/>
<use data-text="l" xlink:href="#font_1_72" transform="matrix(9.962799,0,0,-9.962799,37.93705,10.366887)"/>
<path transform="matrix(1.00002,0,0,-1.00002,-85.002,15.997)" stroke-width=".3985" stroke-linecap="butt" stroke-miterlimit="10" stroke-linejoin="miter" fill="none" stroke="#000000" d="M131.684 2.044V13.999"/>
<use data-text="Q" xlink:href="#font_1_90" transform="matrix(9.962799,0,0,-9.962799,61.095933,10.366887)"/>
<use data-text="u" xlink:href="#font_1_109" transform="matrix(9.962799,0,0,-9.962799,68.846988,10.366887)"/>
<use data-text="a" xlink:href="#font_1_28" transform="matrix(9.962799,0,0,-9.962799,74.38629,10.366887)"/>
<use data-text="l" xlink:href="#font_1_72" transform="matrix(9.962799,0,0,-9.962799,79.36769,10.366887)"/>
<use data-text="i" xlink:href="#font_1_66" transform="matrix(9.962799,0,0,-9.962799,82.137348,10.366887)"/>
<use data-text="t" xlink:href="#font_1_105" transform="matrix(9.962799,0,0,-9.962799,84.90701,10.366887)"/>
<use data-text="y" xlink:href="#font_1_118" transform="matrix(9.962799,0,0,-9.962799,88.5036,10.366887)"/>
<path transform="matrix(1.00002,0,0,-1.00002,-85.002,15.997)" stroke-width=".3985" stroke-linecap="butt" stroke-miterlimit="10" stroke-linejoin="miter" fill="none" stroke="#000000" d="M193.173 2.044V13.999"/>
<use data-text="N" xlink:href="#font_1_76" transform="matrix(9.962799,0,0,-9.962799,131.76735,10.366887)"/>
<use data-text="o" xlink:href="#font_1_81" transform="matrix(9.962799,0,0,-9.962799,139.23944,10.366887)"/>
<use data-text="t" xlink:href="#font_1_105" transform="matrix(9.962799,0,0,-9.962799,144.22084,10.366887)"/>
<use data-text="e" xlink:href="#font_1_50" transform="matrix(9.962799,0,0,-9.962799,148.09638,10.366887)"/>
<use data-text="s" xlink:href="#font_1_98" transform="matrix(9.962799,0,0,-9.962799,152.51987,10.366887)"/>
<path transform="matrix(1.00002,0,0,-1.00002,-85.002,15.997)" stroke-width=".3985" stroke-linecap="butt" stroke-miterlimit="10" stroke-linejoin="miter" fill="none" stroke="#000000" d="M265.034 2.044V13.999"/>
<use data-text="O" xlink:href="#font_1_80" transform="matrix(9.962799,0,0,-9.962799,198.32369,10.366887)"/>
<use data-text="n" xlink:href="#font_1_77" transform="matrix(9.962799,0,0,-9.962799,206.07476,10.366887)"/>
<use data-text="S" xlink:href="#font_1_97" transform="matrix(9.962799,0,0,-9.962799,214.93169,10.366887)"/>
<use data-text="t" xlink:href="#font_1_105" transform="matrix(9.962799,0,0,-9.962799,220.471,10.366887)"/>
<use data-text="a" xlink:href="#font_1_28" transform="matrix(9.962799,0,0,-9.962799,224.34654,10.366887)"/>
<use data-text="f" xlink:href="#font_1_122" transform="matrix(9.962799,0,0,-9.962799,229.32793,10.366887)"/>
<path transform="matrix(1.00002,0,0,-1.00002,-85.002,15.997)" stroke-width=".3985" stroke-linecap="butt" stroke-miterlimit="10" stroke-linejoin="miter" fill="none" stroke="#000000" d="M338.419 2.044V13.999"/>
<use data-text="N" xlink:href="#font_1_76" transform="matrix(9.962799,0,0,-9.962799,259.40089,10.366887)"/>
<use data-text="u" xlink:href="#font_1_109" transform="matrix(9.962799,0,0,-9.962799,266.873,10.366887)"/>
<use data-text="m" xlink:href="#font_1_75" transform="matrix(9.962799,0,0,-9.962799,272.41236,10.366887)"/>
<use data-text="b" xlink:href="#font_1_35" transform="matrix(9.962799,0,0,-9.962799,280.44239,10.366887)"/>
<use data-text="e" xlink:href="#font_1_50" transform="matrix(9.962799,0,0,-9.962799,286.25068,10.366887)"/>
<use data-text="r" xlink:href="#font_1_96" transform="matrix(9.962799,0,0,-9.962799,290.6742,10.366887)"/>
<use data-text="o" xlink:href="#font_1_81" transform="matrix(9.962799,0,0,-9.962799,297.89717,10.366887)"/>
<use data-text="f" xlink:href="#font_1_55" transform="matrix(9.962799,0,0,-9.962799,302.8786,10.366887)"/>
<use data-text="S" xlink:href="#font_1_97" transform="matrix(9.962799,0,0,-9.962799,309.2448,10.366887)"/>
<use data-text="e" xlink:href="#font_1_50" transform="matrix(9.962799,0,0,-9.962799,314.78413,10.366887)"/>
<use data-text="m" xlink:href="#font_1_75" transform="matrix(9.962799,0,0,-9.962799,319.20759,10.366887)"/>
<use data-text="i" xlink:href="#font_1_66" transform="matrix(9.962799,0,0,-9.962799,327.50666,10.366887)"/>
<use data-text="t" xlink:href="#font_1_105" transform="matrix(9.962799,0,0,-9.962799,330.2763,10.366887)"/>
<use data-text="o" xlink:href="#font_1_81" transform="matrix(9.962799,0,0,-9.962799,334.1518,10.366887)"/>
<use data-text="n" xlink:href="#font_1_77" transform="matrix(9.962799,0,0,-9.962799,339.13319,10.366887)"/>
<use data-text="e" xlink:href="#font_1_50" transform="matrix(9.962799,0,0,-9.962799,344.67256,10.366887)"/>
<use data-text="s" xlink:href="#font_1_98" transform="matrix(9.962799,0,0,-9.962799,349.096,10.366887)"/>
<path transform="matrix(1.00002,0,0,-1.00002,-85.002,15.997)" stroke-width=".3985" stroke-linecap="butt" stroke-miterlimit="10" stroke-linejoin="miter" fill="none" stroke="#000000" d="M443.993 2.044V13.999"/>
<use data-text="C" xlink:href="#font_1_42" transform="matrix(9.962799,0,0,-9.962799,364.977,10.366887)"/>
<use data-text="o" xlink:href="#font_1_81" transform="matrix(9.962799,0,0,-9.962799,372.17018,10.366887)"/>
<use data-text="u" xlink:href="#font_1_109" transform="matrix(9.962799,0,0,-9.962799,377.15156,10.366887)"/>
<use data-text="n" xlink:href="#font_1_77" transform="matrix(9.962799,0,0,-9.962799,382.69087,10.366887)"/>
<use data-text="t" xlink:href="#font_1_105" transform="matrix(9.962799,0,0,-9.962799,387.96119,10.366887)"/>
<path transform="matrix(1.00002,0,0,-1.00002,-85.002,15.997)" stroke-width=".3985" stroke-linecap="butt" stroke-miterlimit="10" stroke-linejoin="miter" fill="none" stroke="#000000" d="M482.797 2.044V13.999"/>
<path transform="matrix(1.00002,0,0,-1.00002,-85.002,15.997)" stroke-width=".3985" stroke-linecap="butt" stroke-miterlimit="10" stroke-linejoin="miter" fill="none" stroke="#000000" d="M86.214 1.844H482.797"/>
<path transform="matrix(1.00002,0,0,-1.00002,-85.002,15.997)" stroke-width=".3985" stroke-linecap="butt" stroke-miterlimit="10" stroke-linejoin="miter" fill="none" stroke="#000000" d="M86.214-48.168V1.645"/>
<use data-text="S" xlink:href="#font_1_97" transform="matrix(9.962799,0,0,-9.962799,8.725876,41.749517)"/>
<use data-text="e" xlink:href="#font_1_50" transform="matrix(9.962799,0,0,-9.962799,14.265198,41.749517)"/>
<use data-text="c" xlink:href="#font_1_43" transform="matrix(9.962799,0,0,-9.962799,18.688675,41.749517)"/>
<use data-text="o" xlink:href="#font_1_81" transform="matrix(9.962799,0,0,-9.962799,23.11216,41.749517)"/>
<use data-text="n" xlink:href="#font_1_77" transform="matrix(9.962799,0,0,-9.962799,28.09356,41.749517)"/>
<use data-text="d" xlink:href="#font_1_47" transform="matrix(9.962799,0,0,-9.962799,33.632875,41.749517)"/>
<path transform="matrix(1.00002,0,0,-1.00002,-85.002,15.997)" stroke-width=".3985" stroke-linecap="butt" stroke-miterlimit="10" stroke-linejoin="miter" fill="none" stroke="#000000" d="M131.684-48.168V1.645"/>
<use data-text="M" xlink:href="#font_1_74" transform="matrix(9.962799,0,0,-9.962799,64.26399,41.749517)"/>
<use data-text="i" xlink:href="#font_1_66" transform="matrix(9.962799,0,0,-9.962799,73.39989,41.749517)"/>
<use data-text="n" xlink:href="#font_1_77" transform="matrix(9.962799,0,0,-9.962799,76.169559,41.749517)"/>
<use data-text="o" xlink:href="#font_1_81" transform="matrix(9.962799,0,0,-9.962799,81.70886,41.749517)"/>
<use data-text="r" xlink:href="#font_1_96" transform="matrix(9.962799,0,0,-9.962799,86.69025,41.749517)"/>
<path transform="matrix(1.00002,0,0,-1.00002,-85.002,15.997)" stroke-width=".3985" stroke-linecap="butt" stroke-miterlimit="10" stroke-linejoin="miter" fill="none" stroke="#000000" d="M193.173-48.168V1.645"/>
<use data-text="C" xlink:href="#font_1_42" transform="matrix(9.962799,0,0,-9.962799,123.14917,41.749517)"/>
<use data-text="-" xlink:href="#font_1_64" transform="matrix(9.962799,0,0,-9.962799,133.65993,41.749517)"/>
<use data-text="B" xlink:href="#font_1_34" transform="matrix(9.962799,0,0,-9.962799,140.29517,41.749517)"/>
<use data-text="f" xlink:href="#font_1_126" transform="matrix(9.962799,0,0,-9.962799,150.66645,41.749517)"/>
<use data-text="a" xlink:href="#font_1_28" transform="matrix(9.962799,0,0,-9.962799,156.20577,41.749517)"/>
<use data-text="t" xlink:href="#font_1_105" transform="matrix(9.962799,0,0,-9.962799,161.18715,41.749517)"/>
<path transform="matrix(1.00002,0,0,-1.00002,-85.002,15.997)" stroke-width=".3985" stroke-linecap="butt" stroke-miterlimit="10" stroke-linejoin="miter" fill="none" stroke="#000000" d="M265.034-48.168V1.645"/>
<path transform="matrix(1.00002,0,0,-1.00002,-85.002,15.997)" stroke-width=".3985" stroke-linecap="butt" stroke-miterlimit="10" stroke-linejoin="miter" fill="none" stroke="#000000" d="M272.471-13.498H332.635"/>
<path transform="matrix(1.00002,0,0,-1.00002,-85.002,15.997)" stroke-width=".3985" stroke-linecap="butt" stroke-miterlimit="10" stroke-linejoin="miter" fill="none" stroke="#000000" d="M272.471-18.479H332.635"/>
<path transform="matrix(1.00002,0,0,-1.00002,-85.002,15.997)" stroke-width=".3985" stroke-linecap="butt" stroke-miterlimit="10" stroke-linejoin="miter" fill="none" stroke="#000000" d="M272.471-23.461H332.635"/>
<path transform="matrix(1.00002,0,0,-1.00002,-85.002,15.997)" stroke-width=".3985" stroke-linecap="butt" stroke-miterlimit="10" stroke-linejoin="miter" fill="none" stroke="#000000" d="M272.471-28.442H332.635"/>
<path transform="matrix(1.00002,0,0,-1.00002,-85.002,15.997)" stroke-width=".3985" stroke-linecap="butt" stroke-miterlimit="10" stroke-linejoin="miter" fill="none" stroke="#000000" d="M272.471-33.423H332.635"/>
<path transform="matrix(1.00002,0,0,-1.00002,-85.002,15.997)" stroke-width=".3985" stroke-linecap="butt" stroke-miterlimit="10" stroke-linejoin="miter" fill="none" stroke="#000000" d="M272.67-33.623V-13.299"/>
<use data-text="G" xlink:href="#font_2_3" transform="matrix(19.9257,0,0,-19.9257,187.47447,44.240568)"/>
<path transform="matrix(1.00002,0,0,-1.00002,-85.002,15.997)" stroke-width=".3985" stroke-linecap="butt" stroke-miterlimit="10" stroke-linejoin="miter" fill="none" stroke="#000000" d="M298.573-38.181V-20.771"/>
<use data-text="&#x02c7;" xlink:href="#font_2_1" transform="matrix(19.9257,0,0,-19.9257,213.37798,36.768419)"/>
<use data-text="2" xlink:href="#font_2_2" transform="matrix(19.9257,0,0,-19.9257,222.67317,39.259466)"/>
<path transform="matrix(1.00002,0,0,-1.00002,-85.002,15.997)" stroke-width=".3985" stroke-linecap="butt" stroke-miterlimit="10" stroke-linejoin="miter" fill="none" stroke="#000000" d="M313.846-40.671V-23.262"/>
<use data-text="&#x02c7;" xlink:href="#font_2_1" transform="matrix(19.9257,0,0,-19.9257,228.65029,39.259466)"/>
<path transform="matrix(1.00002,0,0,-1.00002,-85.002,15.997)" stroke-width=".3985" stroke-linecap="butt" stroke-miterlimit="10" stroke-linejoin="miter" fill="none" stroke="#000000" d="M332.436-33.623V-13.299"/>
<path transform="matrix(1.00002,0,0,-1.00002,-85.002,15.997)" stroke-width=".3985" stroke-linecap="butt" stroke-miterlimit="10" stroke-linejoin="miter" fill="none" stroke="#000000" d="M338.419-48.168V1.645"/>
<use data-text="2" xlink:href="#font_1_107" transform="matrix(9.962799,0,0,-9.962799,303.72077,41.749517)"/>
<path transform="matrix(1.00002,0,0,-1.00002,-85.002,15.997)" stroke-width=".3985" stroke-linecap="butt" stroke-miterlimit="10" stroke-linejoin="miter" fill="none" stroke="#000000" d="M443.993-48.168V1.645"/>
<use data-text="3" xlink:href="#font_1_106" transform="matrix(9.962799,0,0,-9.962799,375.9112,41.749517)"/>
<path transform="matrix(1.00002,0,0,-1.00002,-85.002,15.997)" stroke-width=".3985" stroke-linecap="butt" stroke-miterlimit="10" stroke-linejoin="miter" fill="none" stroke="#000000" d="M482.797-48.168V1.645"/>
<path transform="matrix(1.00002,0,0,-1.00002,-85.002,15.997)" stroke-width=".3985" stroke-linecap="butt" stroke-miterlimit="10" stroke-linejoin="miter" fill="none" stroke="#000000" d="M86.214-48.367H482.797"/>
<path transform="matrix(1.00002,0,0,-1.00002,-85.002,15.997)" stroke-width=".3985" stroke-linecap="butt" stroke-miterlimit="10" stroke-linejoin="miter" fill="none" stroke="#000000" d="M86.214-98.38V-48.567"/>
<use data-text="S" xlink:href="#font_1_97" transform="matrix(9.962799,0,0,-9.962799,8.725876,91.96252)"/>
<use data-text="e" xlink:href="#font_1_50" transform="matrix(9.962799,0,0,-9.962799,14.265198,91.96252)"/>
<use data-text="c" xlink:href="#font_1_43" transform="matrix(9.962799,0,0,-9.962799,18.688675,91.96252)"/>
<use data-text="o" xlink:href="#font_1_81" transform="matrix(9.962799,0,0,-9.962799,23.11216,91.96252)"/>
<use data-text="n" xlink:href="#font_1_77" transform="matrix(9.962799,0,0,-9.962799,28.09356,91.96252)"/>
<use data-text="d" xlink:href="#font_1_47" transform="matrix(9.962799,0,0,-9.962799,33.632875,91.96252)"/>
<path transform="matrix(1.00002,0,0,-1.00002,-85.002,15.997)" stroke-width=".3985" stroke-linecap="butt" stroke-miterlimit="10" stroke-linejoin="miter" fill="none" stroke="#000000" d="M131.684-98.38V-48.567"/>
<use data-text="M" xlink:href="#font_1_74" transform="matrix(9.962799,0,0,-9.962799,64.26399,91.96252)"/>
<use data-text="i" xlink:href="#font_1_66" transform="matrix(9.962799,0,0,-9.962799,73.39989,91.96252)"/>
<use data-text="n" xlink:href="#font_1_77" transform="matrix(9.962799,0,0,-9.962799,76.169559,91.96252)"/>
<use data-text="o" xlink:href="#font_1_81" transform="matrix(9.962799,0,0,-9.962799,81.70886,91.96252)"/>
<use data-text="r" xlink:href="#font_1_96" transform="matrix(9.962799,0,0,-9.962799,86.69025,91.96252)"/>
<path transform="matrix(1.00002,0,0,-1.00002,-85.002,15.997)" stroke-width=".3985" stroke-linecap="butt" stroke-miterlimit="10" stroke-linejoin="miter" fill="none" stroke="#000000" d="M193.173-98.38V-48.567"/>
<use data-text="B" xlink:href="#font_1_34" transform="matrix(9.962799,0,0,-9.962799,114.152988,91.96252)"/>
<use data-text="f" xlink:href="#font_1_126" transform="matrix(9.962799,0,0,-9.962799,124.51431,91.96252)"/>
<use data-text="a" xlink:href="#font_1_28" transform="matrix(9.962799,0,0,-9.962799,130.05362,91.96252)"/>
<use data-text="t" xlink:href="#font_1_105" transform="matrix(9.962799,0,0,-9.962799,135.03502,91.96252)"/>
<use data-text="-" xlink:href="#font_1_64" transform="matrix(9.962799,0,0,-9.962799,142.22817,91.96252)"/>
<use data-text="A" xlink:href="#font_1_27" transform="matrix(9.962799,0,0,-9.962799,148.8634,91.96252)"/>
<use data-text="f" xlink:href="#font_1_126" transform="matrix(9.962799,0,0,-9.962799,159.65312,91.96252)"/>
<use data-text="a" xlink:href="#font_1_28" transform="matrix(9.962799,0,0,-9.962799,165.19243,91.96252)"/>
<use data-text="t" xlink:href="#font_1_105" transform="matrix(9.962799,0,0,-9.962799,170.17383,91.96252)"/>
<path transform="matrix(1.00002,0,0,-1.00002,-85.002,15.997)" stroke-width=".3985" stroke-linecap="butt" stroke-miterlimit="10" stroke-linejoin="miter" fill="none" stroke="#000000" d="M265.034-98.38V-48.567"/>
<path transform="matrix(1.00002,0,0,-1.00002,-85.002,15.997)" stroke-width=".3985" stroke-linecap="butt" stroke-miterlimit="10" stroke-linejoin="miter" fill="none" stroke="#000000" d="M272.471-63.71H332.635"/>
<path transform="matrix(1.00002,0,0,-1.00002,-85.002,15.997)" stroke-width=".3985" stroke-linecap="butt" stroke-miterlimit="10" stroke-linejoin="miter" fill="none" stroke="#000000" d="M272.471-68.691H332.635"/>
<path transform="matrix(1.00002,0,0,-1.00002,-85.002,15.997)" stroke-width=".3985" stroke-linecap="butt" stroke-miterlimit="10" stroke-linejoin="miter" fill="none" stroke="#000000" d="M272.471-73.673H332.635"/>
<path transform="matrix(1.00002,0,0,-1.00002,-85.002,15.997)" stroke-width=".3985" stroke-linecap="butt" stroke-miterlimit="10" stroke-linejoin="miter" fill="none" stroke="#000000" d="M272.471-78.654H332.635"/>
<path transform="matrix(1.00002,0,0,-1.00002,-85.002,15.997)" stroke-width=".3985" stroke-linecap="butt" stroke-miterlimit="10" stroke-linejoin="miter" fill="none" stroke="#000000" d="M272.471-83.635H332.635"/>
<path transform="matrix(1.00002,0,0,-1.00002,-85.002,15.997)" stroke-width=".3985" stroke-linecap="butt" stroke-miterlimit="10" stroke-linejoin="miter" fill="none" stroke="#000000" d="M272.67-83.834V-63.511"/>
<use data-text="G" xlink:href="#font_2_3" transform="matrix(19.9257,0,0,-19.9257,187.47447,94.453578)"/>
<use data-text="2" xlink:href="#font_2_2" transform="matrix(19.9257,0,0,-19.9257,207.39986,89.47147)"/>
<path transform="matrix(1.00002,0,0,-1.00002,-85.002,15.997)" stroke-width=".3985" stroke-linecap="butt" stroke-miterlimit="10" stroke-linejoin="miter" fill="none" stroke="#000000" d="M298.573-90.883V-73.473"/>
<use data-text="&#x02c7;" xlink:href="#font_2_1" transform="matrix(19.9257,0,0,-19.9257,213.37798,89.47147)"/>
<use data-text="2" xlink:href="#font_2_2" transform="matrix(19.9257,0,0,-19.9257,222.67317,91.96252)"/>
<path transform="matrix(1.00002,0,0,-1.00002,-85.002,15.997)" stroke-width=".3985" stroke-linecap="butt" stroke-miterlimit="10" stroke-linejoin="miter" fill="none" stroke="#000000" d="M319.425-75.964V-58.554"/>
<use data-text="&#x02c7;" xlink:href="#font_2_1" transform="matrix(19.9257,0,0,-19.9257,228.65029,91.96252)"/>
<path transform="matrix(1.00002,0,0,-1.00002,-85.002,15.997)" stroke-width=".3985" stroke-linecap="butt" stroke-miterlimit="10" stroke-linejoin="miter" fill="none" stroke="#000000" d="M332.436-83.834V-63.511"/>
<path transform="matrix(1.00002,0,0,-1.00002,-85.002,15.997)" stroke-width=".3985" stroke-linecap="butt" stroke-miterlimit="10" stroke-linejoin="miter" fill="none" stroke="#000000" d="M338.419-98.38V-48.567"/>
<use data-text="2" xlink:href="#font_1_107" transform="matrix(9.962799,0,0,-9.962799,303.72077,91.96252)"/>
<path transform="matrix(1.00002,0,0,-1.00002,-85.002,15.997)" stroke-width=".3985" stroke-linecap="butt" stroke-miterlimit="10" stroke-linejoin="miter" fill="none" stroke="#000000" d="M443.993-98.38V-48.567"/>
<use data-text="3" xlink:href="#font_1_106" transform="matrix(9.962799,0,0,-9.962799,375.9112,91.96252)"/>
<path transform="matrix(1.00002,0,0,-1.00002,-85.002,15.997)" stroke-width=".3985" stroke-linecap="butt" stroke-miterlimit="10" stroke-linejoin="miter" fill="none" stroke="#000000" d="M482.797-98.38V-48.567"/>
<path transform="matrix(1.00002,0,0,-1.00002,-85.002,15.997)" stroke-width=".3985" stroke-linecap="butt" stroke-miterlimit="10" stroke-linejoin="miter" fill="none" stroke="#000000" d="M86.214-98.579H482.797"/>
<path transform="matrix(1.00002,0,0,-1.00002,-85.002,15.997)" stroke-width=".3985" stroke-linecap="butt" stroke-miterlimit="10" stroke-linejoin="miter" fill="none" stroke="#000000" d="M86.214-148.592V-98.778"/>
<use data-text="S" xlink:href="#font_1_97" transform="matrix(9.962799,0,0,-9.962799,8.725876,142.17552)"/>
<use data-text="e" xlink:href="#font_1_50" transform="matrix(9.962799,0,0,-9.962799,14.265198,142.17552)"/>
<use data-text="c" xlink:href="#font_1_43" transform="matrix(9.962799,0,0,-9.962799,18.688675,142.17552)"/>
<use data-text="o" xlink:href="#font_1_81" transform="matrix(9.962799,0,0,-9.962799,23.11216,142.17552)"/>
<use data-text="n" xlink:href="#font_1_77" transform="matrix(9.962799,0,0,-9.962799,28.09356,142.17552)"/>
<use data-text="d" xlink:href="#font_1_47" transform="matrix(9.962799,0,0,-9.962799,33.632875,142.17552)"/>
<path transform="matrix(1.00002,0,0,-1.00002,-85.002,15.997)" stroke-width=".3985" stroke-linecap="butt" stroke-miterlimit="10" stroke-linejoin="miter" fill="none" stroke="#000000" d="M131.684-148.592V-98.778"/>
<use data-text="M" xlink:href="#font_1_74" transform="matrix(9.962799,0,0,-9.962799,64.26399,142.17552)"/>
<use data-text="a" xlink:href="#font_1_28" transform="matrix(9.962799,0,0,-9.962799,73.39989,142.17552)"/>
<use data-text="j" xlink:href="#font_1_68" transform="matrix(9.962799,0,0,-9.962799,78.65028,142.17552)"/>
<use data-text="o" xlink:href="#font_1_81" transform="matrix(9.962799,0,0,-9.962799,81.6989,142.17552)"/>
<use data-text="r" xlink:href="#font_1_96" transform="matrix(9.962799,0,0,-9.962799,86.68028,142.17552)"/>
<path transform="matrix(1.00002,0,0,-1.00002,-85.002,15.997)" stroke-width=".3985" stroke-linecap="butt" stroke-miterlimit="10" stroke-linejoin="miter" fill="none" stroke="#000000" d="M193.173-148.592V-98.778"/>
<use data-text="A" xlink:href="#font_1_27" transform="matrix(9.962799,0,0,-9.962799,122.62616,142.17552)"/>
<use data-text="f" xlink:href="#font_1_126" transform="matrix(9.962799,0,0,-9.962799,133.40592,142.17552)"/>
<use data-text="a" xlink:href="#font_1_28" transform="matrix(9.962799,0,0,-9.962799,138.94522,142.17552)"/>
<use data-text="t" xlink:href="#font_1_105" transform="matrix(9.962799,0,0,-9.962799,143.9266,142.17552)"/>
<use data-text="-" xlink:href="#font_1_64" transform="matrix(9.962799,0,0,-9.962799,151.11977,142.17552)"/>
<use data-text="G" xlink:href="#font_1_58" transform="matrix(9.962799,0,0,-9.962799,157.76497,142.17552)"/>
<path transform="matrix(1.00002,0,0,-1.00002,-85.002,15.997)" stroke-width=".3985" stroke-linecap="butt" stroke-miterlimit="10" stroke-linejoin="miter" fill="none" stroke="#000000" d="M265.034-148.592V-98.778"/>
<path transform="matrix(1.00002,0,0,-1.00002,-85.002,15.997)" stroke-width=".3985" stroke-linecap="butt" stroke-miterlimit="10" stroke-linejoin="miter" fill="none" stroke="#000000" d="M272.471-113.922H332.635"/>
<path transform="matrix(1.00002,0,0,-1.00002,-85.002,15.997)" stroke-width=".3985" stroke-linecap="butt" stroke-miterlimit="10" stroke-linejoin="miter" fill="none" stroke="#000000" d="M272.471-118.903H332.635"/>
<path transform="matrix(1.00002,0,0,-1.00002,-85.002,15.997)" stroke-width=".3985" stroke-linecap="butt" stroke-miterlimit="10" stroke-linejoin="miter" fill="none" stroke="#000000" d="M272.471-123.884H332.635"/>
<path transform="matrix(1.00002,0,0,-1.00002,-85.002,15.997)" stroke-width=".3985" stroke-linecap="butt" stroke-miterlimit="10" stroke-linejoin="miter" fill="none" stroke="#000000" d="M272.471-128.866H332.635"/>
<path transform="matrix(1.00002,0,0,-1.00002,-85.002,15.997)" stroke-width=".3985" stroke-linecap="butt" stroke-miterlimit="10" stroke-linejoin="miter" fill="none" stroke="#000000" d="M272.471-133.847H332.635"/>
<path transform="matrix(1.00002,0,0,-1.00002,-85.002,15.997)" stroke-width=".3985" stroke-linecap="butt" stroke-miterlimit="10" stroke-linejoin="miter" fill="none" stroke="#000000" d="M272.67-134.046V-113.722"/>
<use data-text="G" xlink:href="#font_2_3" transform="matrix(19.9257,0,0,-19.9257,187.47447,144.66558)"/>
<use data-text="2" xlink:href="#font_2_2" transform="matrix(19.9257,0,0,-19.9257,207.39986,142.17552)"/>
<path transform="matrix(1.00002,0,0,-1.00002,-85.002,15.997)" stroke-width=".3985" stroke-linecap="butt" stroke-miterlimit="10" stroke-linejoin="miter" fill="none" stroke="#000000" d="M304.152-126.176V-108.766"/>
<use data-text="&#x02c7;" xlink:href="#font_2_1" transform="matrix(19.9257,0,0,-19.9257,213.37798,142.17552)"/>
<path transform="matrix(1.00002,0,0,-1.00002,-85.002,15.997)" stroke-width=".3985" stroke-linecap="butt" stroke-miterlimit="10" stroke-linejoin="miter" fill="none" stroke="#000000" d="M319.425-128.666V-111.257"/>
<use data-text="&#x02c7;" xlink:href="#font_2_1" transform="matrix(19.9257,0,0,-19.9257,228.65029,144.66558)"/>
<path transform="matrix(1.00002,0,0,-1.00002,-85.002,15.997)" stroke-width=".3985" stroke-linecap="butt" stroke-miterlimit="10" stroke-linejoin="miter" fill="none" stroke="#000000" d="M332.436-134.046V-113.722"/>
<path transform="matrix(1.00002,0,0,-1.00002,-85.002,15.997)" stroke-width=".3985" stroke-linecap="butt" stroke-miterlimit="10" stroke-linejoin="miter" fill="none" stroke="#000000" d="M338.419-148.592V-98.778"/>
<use data-text="1" xlink:href="#font_1_82" transform="matrix(9.962799,0,0,-9.962799,303.72077,142.17552)"/>
<path transform="matrix(1.00002,0,0,-1.00002,-85.002,15.997)" stroke-width=".3985" stroke-linecap="butt" stroke-miterlimit="10" stroke-linejoin="miter" fill="none" stroke="#000000" d="M443.993-148.592V-98.778"/>
<use data-text="2" xlink:href="#font_1_107" transform="matrix(9.962799,0,0,-9.962799,375.9112,142.17552)"/>
<path transform="matrix(1.00002,0,0,-1.00002,-85.002,15.997)" stroke-width=".3985" stroke-linecap="butt" stroke-miterlimit="10" stroke-linejoin="miter" fill="none" stroke="#000000" d="M482.797-148.592V-98.778"/>
<path transform="matrix(1.00002,0,0,-1.00002,-85.002,15.997)" stroke-width=".3985" stroke-linecap="butt" stroke-miterlimit="10" stroke-linejoin="miter" fill="none" stroke="#000000" d="M86.214-148.791H482.797"/>
<path transform="matrix(1.00002,0,0,-1.00002,-85.002,15.997)" stroke-width=".3985" stroke-linecap="butt" stroke-miterlimit="10" stroke-linejoin="miter" fill="none" stroke="#000000" d="M86.214-198.803V-148.99"/>
<use data-text="S" xlink:href="#font_1_97" transform="matrix(9.962799,0,0,-9.962799,8.725876,192.38753)"/>
<use data-text="e" xlink:href="#font_1_50" transform="matrix(9.962799,0,0,-9.962799,14.265198,192.38753)"/>
<use data-text="c" xlink:href="#font_1_43" transform="matrix(9.962799,0,0,-9.962799,18.688675,192.38753)"/>
<use data-text="o" xlink:href="#font_1_81" transform="matrix(9.962799,0,0,-9.962799,23.11216,192.38753)"/>
<use data-text="n" xlink:href="#font_1_77" transform="matrix(9.962799,0,0,-9.962799,28.09356,192.38753)"/>
<use data-text="d" xlink:href="#font_1_47" transform="matrix(9.962799,0,0,-9.962799,33.632875,192.38753)"/>
<path transform="matrix(1.00002,0,0,-1.00002,-85.002,15.997)" stroke-width=".3985" stroke-linecap="butt" stroke-miterlimit="10" stroke-linejoin="miter" fill="none" stroke="#000000" d="M131.684-198.803V-148.99"/>
<use data-text="M" xlink:href="#font_1_74" transform="matrix(9.962799,0,0,-9.962799,64.26399,192.38753)"/>
<use data-text="a" xlink:href="#font_1_28" transform="matrix(9.962799,0,0,-9.962799,73.39989,192.38753)"/>
<use data-text="j" xlink:href="#font_1_68" transform="matrix(9.962799,0,0,-9.962799,78.65028,192.38753)"/>
<use data-text="o" xlink:href="#font_1_81" transform="matrix(9.962799,0,0,-9.962799,81.6989,192.38753)"/>
<use data-text="r" xlink:href="#font_1_96" transform="matrix(9.962799,0,0,-9.962799,86.68028,192.38753)"/>
<path transform="matrix(1.00002,0,0,-1.00002,-85.002,15.997)" stroke-width=".3985" stroke-linecap="butt" stroke-miterlimit="10" stroke-linejoin="miter" fill="none" stroke="#000000" d="M193.173-198.803V-148.99"/>
<use data-text="G" xlink:href="#font_1_58" transform="matrix(9.962799,0,0,-9.962799,131.96636,192.38753)"/>
<use data-text="-" xlink:href="#font_1_64" transform="matrix(9.962799,0,0,-9.962799,143.0948,192.38753)"/>
<use data-text="F" xlink:href="#font_1_54" transform="matrix(9.962799,0,0,-9.962799,149.73004,192.38753)"/>
<path transform="matrix(1.00002,0,0,-1.00002,-85.002,15.997)" stroke-width=".3985" stroke-linecap="butt" stroke-miterlimit="10" stroke-linejoin="miter" fill="none" stroke="#000000" d="M265.034-198.803V-148.99"/>
<path transform="matrix(1.00002,0,0,-1.00002,-85.002,15.997)" stroke-width=".3985" stroke-linecap="butt" stroke-miterlimit="10" stroke-linejoin="miter" fill="none" stroke="#000000" d="M272.471-164.133H332.635"/>
<path transform="matrix(1.00002,0,0,-1.00002,-85.002,15.997)" stroke-width=".3985" stroke-linecap="butt" stroke-miterlimit="10" stroke-linejoin="miter" fill="none" stroke="#000000" d="M272.471-169.115H332.635"/>
<path transform="matrix(1.00002,0,0,-1.00002,-85.002,15.997)" stroke-width=".3985" stroke-linecap="butt" stroke-miterlimit="10" stroke-linejoin="miter" fill="none" stroke="#000000" d="M272.471-174.096H332.635"/>
<path transform="matrix(1.00002,0,0,-1.00002,-85.002,15.997)" stroke-width=".3985" stroke-linecap="butt" stroke-miterlimit="10" stroke-linejoin="miter" fill="none" stroke="#000000" d="M272.471-179.077H332.635"/>
<path transform="matrix(1.00002,0,0,-1.00002,-85.002,15.997)" stroke-width=".3985" stroke-linecap="butt" stroke-miterlimit="10" stroke-linejoin="miter" fill="none" stroke="#000000" d="M272.471-184.059H332.635"/>
<path transform="matrix(1.00002,0,0,-1.00002,-85.002,15.997)" stroke-width=".3985" stroke-linecap="butt" stroke-miterlimit="10" stroke-linejoin="miter" fill="none" stroke="#000000" d="M272.67-184.258V-163.934"/>
<use data-text="G" xlink:href="#font_2_3" transform="matrix(19.9257,0,0,-19.9257,187.47447,194.87859)"/>
<path transform="matrix(1.00002,0,0,-1.00002,-85.002,15.997)" stroke-width=".3985" stroke-linecap="butt" stroke-miterlimit="10" stroke-linejoin="miter" fill="none" stroke="#000000" d="M304.152-178.878V-161.468"/>
<use data-text="&#x02c7;" xlink:href="#font_2_1" transform="matrix(19.9257,0,0,-19.9257,213.37798,194.87859)"/>
<path transform="matrix(1.00002,0,0,-1.00002,-85.002,15.997)" stroke-width=".3985" stroke-linecap="butt" stroke-miterlimit="10" stroke-linejoin="miter" fill="none" stroke="#000000" d="M319.425-181.369V-163.959"/>
<use data-text="&#x02c7;" xlink:href="#font_2_1" transform="matrix(19.9257,0,0,-19.9257,228.65029,197.36963)"/>
<path transform="matrix(1.00002,0,0,-1.00002,-85.002,15.997)" stroke-width=".3985" stroke-linecap="butt" stroke-miterlimit="10" stroke-linejoin="miter" fill="none" stroke="#000000" d="M332.436-184.258V-163.934"/>
<path transform="matrix(1.00002,0,0,-1.00002,-85.002,15.997)" stroke-width=".3985" stroke-linecap="butt" stroke-miterlimit="10" stroke-linejoin="miter" fill="none" stroke="#000000" d="M338.419-198.803V-148.99"/>
<use data-text="2" xlink:href="#font_1_107" transform="matrix(9.962799,0,0,-9.962799,303.72077,192.38753)"/>
<path transform="matrix(1.00002,0,0,-1.00002,-85.002,15.997)" stroke-width=".3985" stroke-linecap="butt" stroke-miterlimit="10" stroke-linejoin="miter" fill="none" stroke="#000000" d="M443.993-198.803V-148.99"/>
<use data-text="3" xlink:href="#font_1_106" transform="matrix(9.962799,0,0,-9.962799,375.9112,192.38753)"/>
<path transform="matrix(1.00002,0,0,-1.00002,-85.002,15.997)" stroke-width=".3985" stroke-linecap="butt" stroke-miterlimit="10" stroke-linejoin="miter" fill="none" stroke="#000000" d="M482.797-198.803V-148.99"/>
<path transform="matrix(1.00002,0,0,-1.00002,-85.002,15.997)" stroke-width=".3985" stroke-linecap="butt" stroke-miterlimit="10" stroke-linejoin="miter" fill="none" stroke="#000000" d="M86.214-199.003H482.797"/>
<path transform="matrix(1.00002,0,0,-1.00002,-85.002,15.997)" stroke-width=".3985" stroke-linecap="butt" stroke-miterlimit="10" stroke-linejoin="miter" fill="none" stroke="#000000" d="M86.214-249.015V-199.202"/>
<use data-text="S" xlink:href="#font_1_97" transform="matrix(9.962799,0,0,-9.962799,8.725876,242.60053)"/>
<use data-text="e" xlink:href="#font_1_50" transform="matrix(9.962799,0,0,-9.962799,14.265198,242.60053)"/>
<use data-text="c" xlink:href="#font_1_43" transform="matrix(9.962799,0,0,-9.962799,18.688675,242.60053)"/>
<use data-text="o" xlink:href="#font_1_81" transform="matrix(9.962799,0,0,-9.962799,23.11216,242.60053)"/>
<use data-text="n" xlink:href="#font_1_77" transform="matrix(9.962799,0,0,-9.962799,28.09356,242.60053)"/>
<use data-text="d" xlink:href="#font_1_47" transform="matrix(9.962799,0,0,-9.962799,33.632875,242.60053)"/>
<path transform="matrix(1.00002,0,0,-1.00002,-85.002,15.997)" stroke-width=".3985" stroke-linecap="butt" stroke-miterlimit="10" stroke-linejoin="miter" fill="none" stroke="#000000" d="M131.684-249.015V-199.202"/>
<use data-text="M" xlink:href="#font_1_74" transform="matrix(9.962799,0,0,-9.962799,64.26399,242.60053)"/>
<use data-text="i" xlink:href="#font_1_66" transform="matrix(9.962799,0,0,-9.962799,73.39989,242.60053)"/>
<use data-text="n" xlink:href="#font_1_77" transform="matrix(9.962799,0,0,-9.962799,76.169559,242.60053)"/>
<use data-text="o" xlink:href="#font_1_81" transform="matrix(9.962799,0,0,-9.962799,81.70886,242.60053)"/>
<use data-text="r" xlink:href="#font_1_96" transform="matrix(9.962799,0,0,-9.962799,86.69025,242.60053)"/>
<path transform="matrix(1.00002,0,0,-1.00002,-85.002,15.997)" stroke-width=".3985" stroke-linecap="butt" stroke-miterlimit="10" stroke-linejoin="miter" fill="none" stroke="#000000" d="M193.173-249.015V-199.202"/>
<use data-text="F" xlink:href="#font_1_54" transform="matrix(9.962799,0,0,-9.962799,123.62718,242.60053)"/>
<use data-text="-" xlink:href="#font_1_64" transform="matrix(9.962799,0,0,-9.962799,133.45052,242.60053)"/>
<use data-text="E" xlink:href="#font_1_49" transform="matrix(9.962799,0,0,-9.962799,140.08574,242.60053)"/>
<use data-text="f" xlink:href="#font_1_126" transform="matrix(9.962799,0,0,-9.962799,150.18804,242.60053)"/>
<use data-text="a" xlink:href="#font_1_28" transform="matrix(9.962799,0,0,-9.962799,155.72734,242.60053)"/>
<use data-text="t" xlink:href="#font_1_105" transform="matrix(9.962799,0,0,-9.962799,160.70873,242.60053)"/>
<path transform="matrix(1.00002,0,0,-1.00002,-85.002,15.997)" stroke-width=".3985" stroke-linecap="butt" stroke-miterlimit="10" stroke-linejoin="miter" fill="none" stroke="#000000" d="M265.034-249.015V-199.202"/>
<path transform="matrix(1.00002,0,0,-1.00002,-85.002,15.997)" stroke-width=".3985" stroke-linecap="butt" stroke-miterlimit="10" stroke-linejoin="miter" fill="none" stroke="#000000" d="M272.471-214.345H332.635"/>
<path transform="matrix(1.00002,0,0,-1.00002,-85.002,15.997)" stroke-width=".3985" stroke-linecap="butt" stroke-miterlimit="10" stroke-linejoin="miter" fill="none" stroke="#000000" d="M272.471-219.326H332.635"/>
<path transform="matrix(1.00002,0,0,-1.00002,-85.002,15.997)" stroke-width=".3985" stroke-linecap="butt" stroke-miterlimit="10" stroke-linejoin="miter" fill="none" stroke="#000000" d="M272.471-224.308H332.635"/>
<path transform="matrix(1.00002,0,0,-1.00002,-85.002,15.997)" stroke-width=".3985" stroke-linecap="butt" stroke-miterlimit="10" stroke-linejoin="miter" fill="none" stroke="#000000" d="M272.471-229.289H332.635"/>
<path transform="matrix(1.00002,0,0,-1.00002,-85.002,15.997)" stroke-width=".3985" stroke-linecap="butt" stroke-miterlimit="10" stroke-linejoin="miter" fill="none" stroke="#000000" d="M272.471-234.27H332.635"/>
<path transform="matrix(1.00002,0,0,-1.00002,-85.002,15.997)" stroke-width=".3985" stroke-linecap="butt" stroke-miterlimit="10" stroke-linejoin="miter" fill="none" stroke="#000000" d="M272.67-234.47V-214.146"/>
<use data-text="G" xlink:href="#font_2_3" transform="matrix(19.9257,0,0,-19.9257,187.47447,245.09159)"/>
<path transform="matrix(1.00002,0,0,-1.00002,-85.002,15.997)" stroke-width=".3985" stroke-linecap="butt" stroke-miterlimit="10" stroke-linejoin="miter" fill="none" stroke="#000000" d="M304.152-231.58V-214.171"/>
<use data-text="&#x02c7;" xlink:href="#font_2_1" transform="matrix(19.9257,0,0,-19.9257,213.37798,247.58164)"/>
<use data-text="2" xlink:href="#font_2_2" transform="matrix(19.9257,0,0,-19.9257,222.67317,250.07268)"/>
<path transform="matrix(1.00002,0,0,-1.00002,-85.002,15.997)" stroke-width=".3985" stroke-linecap="butt" stroke-miterlimit="10" stroke-linejoin="miter" fill="none" stroke="#000000" d="M319.425-234.071V-216.661"/>
<use data-text="&#x02c7;" xlink:href="#font_2_1" transform="matrix(19.9257,0,0,-19.9257,228.65029,250.07268)"/>
<path transform="matrix(1.00002,0,0,-1.00002,-85.002,15.997)" stroke-width=".3985" stroke-linecap="butt" stroke-miterlimit="10" stroke-linejoin="miter" fill="none" stroke="#000000" d="M332.436-234.47V-214.146"/>
<path transform="matrix(1.00002,0,0,-1.00002,-85.002,15.997)" stroke-width=".3985" stroke-linecap="butt" stroke-miterlimit="10" stroke-linejoin="miter" fill="none" stroke="#000000" d="M338.419-249.015V-199.202"/>
<use data-text="2" xlink:href="#font_1_107" transform="matrix(9.962799,0,0,-9.962799,303.72077,242.60053)"/>
<path transform="matrix(1.00002,0,0,-1.00002,-85.002,15.997)" stroke-width=".3985" stroke-linecap="butt" stroke-miterlimit="10" stroke-linejoin="miter" fill="none" stroke="#000000" d="M443.993-249.015V-199.202"/>
<use data-text="3" xlink:href="#font_1_106" transform="matrix(9.962799,0,0,-9.962799,375.9112,242.60053)"/>
<path transform="matrix(1.00002,0,0,-1.00002,-85.002,15.997)" stroke-width=".3985" stroke-linecap="butt" stroke-miterlimit="10" stroke-linejoin="miter" fill="none" stroke="#000000" d="M482.797-249.015V-199.202"/>
<path transform="matrix(1.00002,0,0,-1.00002,-85.002,15.997)" stroke-width=".3985" stroke-linecap="butt" stroke-miterlimit="10" stroke-linejoin="miter" fill="none" stroke="#000000" d="M86.214-249.214H482.797"/>
<path transform="matrix(1.00002,0,0,-1.00002,-85.002,15.997)" stroke-width=".3985" stroke-linecap="butt" stroke-miterlimit="10" stroke-linejoin="miter" fill="none" stroke="#000000" d="M86.214-299.227V-249.413"/>
<use data-text="S" xlink:href="#font_1_97" transform="matrix(9.962799,0,0,-9.962799,8.725876,292.81358)"/>
<use data-text="e" xlink:href="#font_1_50" transform="matrix(9.962799,0,0,-9.962799,14.265198,292.81358)"/>
<use data-text="c" xlink:href="#font_1_43" transform="matrix(9.962799,0,0,-9.962799,18.688675,292.81358)"/>
<use data-text="o" xlink:href="#font_1_81" transform="matrix(9.962799,0,0,-9.962799,23.11216,292.81358)"/>
<use data-text="n" xlink:href="#font_1_77" transform="matrix(9.962799,0,0,-9.962799,28.09356,292.81358)"/>
<use data-text="d" xlink:href="#font_1_47" transform="matrix(9.962799,0,0,-9.962799,33.632875,292.81358)"/>
<path transform="matrix(1.00002,0,0,-1.00002,-85.002,15.997)" stroke-width=".3985" stroke-linecap="butt" stroke-miterlimit="10" stroke-linejoin="miter" fill="none" stroke="#000000" d="M131.684-299.227V-249.413"/>
<use data-text="A" xlink:href="#font_1_27" transform="matrix(9.962799,0,0,-9.962799,52.66176,292.81358)"/>
<use data-text="u" xlink:href="#font_1_109" transform="matrix(9.962799,0,0,-9.962799,59.864854,292.81358)"/>
<use data-text="g" xlink:href="#font_1_59" transform="matrix(9.962799,0,0,-9.962799,65.40416,292.81358)"/>
<use data-text="m" xlink:href="#font_1_75" transform="matrix(9.962799,0,0,-9.962799,70.38556,292.81358)"/>
<use data-text="e" xlink:href="#font_1_50" transform="matrix(9.962799,0,0,-9.962799,78.68457,292.81358)"/>
<use data-text="n" xlink:href="#font_1_77" transform="matrix(9.962799,0,0,-9.962799,83.10806,292.81358)"/>
<use data-text="t" xlink:href="#font_1_105" transform="matrix(9.962799,0,0,-9.962799,88.36842,292.81358)"/>
<use data-text="e" xlink:href="#font_1_50" transform="matrix(9.962799,0,0,-9.962799,92.24396,292.81358)"/>
<use data-text="d" xlink:href="#font_1_47" transform="matrix(9.962799,0,0,-9.962799,96.667438,292.81358)"/>
<path transform="matrix(1.00002,0,0,-1.00002,-85.002,15.997)" stroke-width=".3985" stroke-linecap="butt" stroke-miterlimit="10" stroke-linejoin="miter" fill="none" stroke="#000000" d="M193.173-299.227V-249.413"/>
<use data-text="E" xlink:href="#font_1_49" transform="matrix(9.962799,0,0,-9.962799,123.07417,292.81358)"/>
<use data-text="f" xlink:href="#font_1_126" transform="matrix(9.962799,0,0,-9.962799,133.17646,292.81358)"/>
<use data-text="a" xlink:href="#font_1_28" transform="matrix(9.962799,0,0,-9.962799,138.71578,292.81358)"/>
<use data-text="t" xlink:href="#font_1_105" transform="matrix(9.962799,0,0,-9.962799,143.69716,292.81358)"/>
<use data-text="-" xlink:href="#font_1_64" transform="matrix(9.962799,0,0,-9.962799,150.89032,292.81358)"/>
<use data-text="D" xlink:href="#font_1_46" transform="matrix(9.962799,0,0,-9.962799,157.52555,292.81358)"/>
<path transform="matrix(1.00002,0,0,-1.00002,-85.002,15.997)" stroke-width=".3985" stroke-linecap="butt" stroke-miterlimit="10" stroke-linejoin="miter" fill="none" stroke="#000000" d="M265.034-299.227V-249.413"/>
<path transform="matrix(1.00002,0,0,-1.00002,-85.002,15.997)" stroke-width=".3985" stroke-linecap="butt" stroke-miterlimit="10" stroke-linejoin="miter" fill="none" stroke="#000000" d="M272.471-264.557H332.635"/>
<path transform="matrix(1.00002,0,0,-1.00002,-85.002,15.997)" stroke-width=".3985" stroke-linecap="butt" stroke-miterlimit="10" stroke-linejoin="miter" fill="none" stroke="#000000" d="M272.471-269.538H332.635"/>
<path transform="matrix(1.00002,0,0,-1.00002,-85.002,15.997)" stroke-width=".3985" stroke-linecap="butt" stroke-miterlimit="10" stroke-linejoin="miter" fill="none" stroke="#000000" d="M272.471-274.519H332.635"/>
<path transform="matrix(1.00002,0,0,-1.00002,-85.002,15.997)" stroke-width=".3985" stroke-linecap="butt" stroke-miterlimit="10" stroke-linejoin="miter" fill="none" stroke="#000000" d="M272.471-279.501H332.635"/>
<path transform="matrix(1.00002,0,0,-1.00002,-85.002,15.997)" stroke-width=".3985" stroke-linecap="butt" stroke-miterlimit="10" stroke-linejoin="miter" fill="none" stroke="#000000" d="M272.471-284.482H332.635"/>
<path transform="matrix(1.00002,0,0,-1.00002,-85.002,15.997)" stroke-width=".3985" stroke-linecap="butt" stroke-miterlimit="10" stroke-linejoin="miter" fill="none" stroke="#000000" d="M272.67-284.681V-264.357"/>
<use data-text="G" xlink:href="#font_2_3" transform="matrix(19.9257,0,0,-19.9257,187.47447,295.3036)"/>
<use data-text="2" xlink:href="#font_2_2" transform="matrix(19.9257,0,0,-19.9257,207.39986,300.2857)"/>
<path transform="matrix(1.00002,0,0,-1.00002,-85.002,15.997)" stroke-width=".3985" stroke-linecap="butt" stroke-miterlimit="10" stroke-linejoin="miter" fill="none" stroke="#000000" d="M304.152-284.283V-266.873"/>
<use data-text="&#x02c7;" xlink:href="#font_2_1" transform="matrix(19.9257,0,0,-19.9257,213.37798,300.2857)"/>
<path transform="matrix(1.00002,0,0,-1.00002,-85.002,15.997)" stroke-width=".3985" stroke-linecap="butt" stroke-miterlimit="10" stroke-linejoin="miter" fill="none" stroke="#000000" d="M319.425-286.773V-269.364"/>
<use data-text="&#x02c7;" xlink:href="#font_2_1" transform="matrix(19.9257,0,0,-19.9257,228.65029,302.77577)"/>
<path transform="matrix(1.00002,0,0,-1.00002,-85.002,15.997)" stroke-width=".3985" stroke-linecap="butt" stroke-miterlimit="10" stroke-linejoin="miter" fill="none" stroke="#000000" d="M332.436-284.681V-264.357"/>
<path transform="matrix(1.00002,0,0,-1.00002,-85.002,15.997)" stroke-width=".3985" stroke-linecap="butt" stroke-miterlimit="10" stroke-linejoin="miter" fill="none" stroke="#000000" d="M338.419-299.227V-249.413"/>
<use data-text="1" xlink:href="#font_1_82" transform="matrix(9.962799,0,0,-9.962799,303.72077,292.81358)"/>
<path transform="matrix(1.00002,0,0,-1.00002,-85.002,15.997)" stroke-width=".3985" stroke-linecap="butt" stroke-miterlimit="10" stroke-linejoin="miter" fill="none" stroke="#000000" d="M443.993-299.227V-249.413"/>
<use data-text="2" xlink:href="#font_1_107" transform="matrix(9.962799,0,0,-9.962799,375.9112,292.81358)"/>
<path transform="matrix(1.00002,0,0,-1.00002,-85.002,15.997)" stroke-width=".3985" stroke-linecap="butt" stroke-miterlimit="10" stroke-linejoin="miter" fill="none" stroke="#000000" d="M482.797-299.227V-249.413"/>
<path transform="matrix(1.00002,0,0,-1.00002,-85.002,15.997)" stroke-width=".3985" stroke-linecap="butt" stroke-miterlimit="10" stroke-linejoin="miter" fill="none" stroke="#000000" d="M86.214-299.426H482.797"/>
<path transform="matrix(1.00002,0,0,-1.00002,-85.002,15.997)" stroke-width=".3985" stroke-linecap="butt" stroke-miterlimit="10" stroke-linejoin="miter" fill="none" stroke="#000000" d="M86.214-349.438V-299.625"/>
<use data-text="S" xlink:href="#font_1_97" transform="matrix(9.962799,0,0,-9.962799,8.725876,343.02558)"/>
<use data-text="e" xlink:href="#font_1_50" transform="matrix(9.962799,0,0,-9.962799,14.265198,343.02558)"/>
<use data-text="c" xlink:href="#font_1_43" transform="matrix(9.962799,0,0,-9.962799,18.688675,343.02558)"/>
<use data-text="o" xlink:href="#font_1_81" transform="matrix(9.962799,0,0,-9.962799,23.11216,343.02558)"/>
<use data-text="n" xlink:href="#font_1_77" transform="matrix(9.962799,0,0,-9.962799,28.09356,343.02558)"/>
<use data-text="d" xlink:href="#font_1_47" transform="matrix(9.962799,0,0,-9.962799,33.632875,343.02558)"/>
<path transform="matrix(1.00002,0,0,-1.00002,-85.002,15.997)" stroke-width=".3985" stroke-linecap="butt" stroke-miterlimit="10" stroke-linejoin="miter" fill="none" stroke="#000000" d="M131.684-349.438V-299.625"/>
<use data-text="M" xlink:href="#font_1_74" transform="matrix(9.962799,0,0,-9.962799,64.26399,343.02558)"/>
<use data-text="i" xlink:href="#font_1_66" transform="matrix(9.962799,0,0,-9.962799,73.39989,343.02558)"/>
<use data-text="n" xlink:href="#font_1_77" transform="matrix(9.962799,0,0,-9.962799,76.169559,343.02558)"/>
<use data-text="o" xlink:href="#font_1_81" transform="matrix(9.962799,0,0,-9.962799,81.70886,343.02558)"/>
<use data-text="r" xlink:href="#font_1_96" transform="matrix(9.962799,0,0,-9.962799,86.69025,343.02558)"/>
<path transform="matrix(1.00002,0,0,-1.00002,-85.002,15.997)" stroke-width=".3985" stroke-linecap="butt" stroke-miterlimit="10" stroke-linejoin="miter" fill="none" stroke="#000000" d="M193.173-349.438V-299.625"/>
<use data-text="D" xlink:href="#font_1_46" transform="matrix(9.962799,0,0,-9.962799,131.72734,343.02558)"/>
<use data-text="-" xlink:href="#font_1_64" transform="matrix(9.962799,0,0,-9.962799,142.64658,343.02558)"/>
<use data-text="C" xlink:href="#font_1_42" transform="matrix(9.962799,0,0,-9.962799,149.2818,343.02558)"/>
<path transform="matrix(1.00002,0,0,-1.00002,-85.002,15.997)" stroke-width=".3985" stroke-linecap="butt" stroke-miterlimit="10" stroke-linejoin="miter" fill="none" stroke="#000000" d="M265.034-349.438V-299.625"/>
<path transform="matrix(1.00002,0,0,-1.00002,-85.002,15.997)" stroke-width=".3985" stroke-linecap="butt" stroke-miterlimit="10" stroke-linejoin="miter" fill="none" stroke="#000000" d="M272.471-314.768H332.635"/>
<path transform="matrix(1.00002,0,0,-1.00002,-85.002,15.997)" stroke-width=".3985" stroke-linecap="butt" stroke-miterlimit="10" stroke-linejoin="miter" fill="none" stroke="#000000" d="M272.471-319.75H332.635"/>
<path transform="matrix(1.00002,0,0,-1.00002,-85.002,15.997)" stroke-width=".3985" stroke-linecap="butt" stroke-miterlimit="10" stroke-linejoin="miter" fill="none" stroke="#000000" d="M272.471-324.731H332.635"/>
<path transform="matrix(1.00002,0,0,-1.00002,-85.002,15.997)" stroke-width=".3985" stroke-linecap="butt" stroke-miterlimit="10" stroke-linejoin="miter" fill="none" stroke="#000000" d="M272.471-329.712H332.635"/>
<path transform="matrix(1.00002,0,0,-1.00002,-85.002,15.997)" stroke-width=".3985" stroke-linecap="butt" stroke-miterlimit="10" stroke-linejoin="miter" fill="none" stroke="#000000" d="M272.471-334.694H332.635"/>
<path transform="matrix(1.00002,0,0,-1.00002,-85.002,15.997)" stroke-width=".3985" stroke-linecap="butt" stroke-miterlimit="10" stroke-linejoin="miter" fill="none" stroke="#000000" d="M272.67-334.893V-314.569"/>
<use data-text="G" xlink:href="#font_2_3" transform="matrix(19.9257,0,0,-19.9257,187.47447,345.5166)"/>
<path transform="matrix(1.00002,0,0,-1.00002,-85.002,15.997)" stroke-width=".3985" stroke-linecap="butt" stroke-miterlimit="10" stroke-linejoin="miter" fill="none" stroke="#000000" d="M304.152-336.985V-319.575"/>
<use data-text="&#x02c7;" xlink:href="#font_2_1" transform="matrix(19.9257,0,0,-19.9257,213.37798,352.98875)"/>
<path transform="matrix(1.00002,0,0,-1.00002,-85.002,15.997)" stroke-width=".797" stroke-linecap="butt" stroke-miterlimit="10" stroke-linejoin="miter" fill="none" stroke="#000000" d="M312.152-339.476H321.118"/>
<path transform="matrix(1.00002,0,0,-1.00002,-85.002,15.997)" stroke-width=".3985" stroke-linecap="butt" stroke-miterlimit="10" stroke-linejoin="miter" fill="none" stroke="#000000" d="M319.425-339.476V-322.066"/>
<use data-text="&#x02c7;" xlink:href="#font_2_1" transform="matrix(19.9257,0,0,-19.9257,228.65029,355.47984)"/>
<path transform="matrix(1.00002,0,0,-1.00002,-85.002,15.997)" stroke-width=".3985" stroke-linecap="butt" stroke-miterlimit="10" stroke-linejoin="miter" fill="none" stroke="#000000" d="M332.436-334.893V-314.569"/>
<path transform="matrix(1.00002,0,0,-1.00002,-85.002,15.997)" stroke-width=".3985" stroke-linecap="butt" stroke-miterlimit="10" stroke-linejoin="miter" fill="none" stroke="#000000" d="M338.419-349.438V-299.625"/>
<use data-text="2" xlink:href="#font_1_107" transform="matrix(9.962799,0,0,-9.962799,303.72077,343.02558)"/>
<path transform="matrix(1.00002,0,0,-1.00002,-85.002,15.997)" stroke-width=".3985" stroke-linecap="butt" stroke-miterlimit="10" stroke-linejoin="miter" fill="none" stroke="#000000" d="M443.993-349.438V-299.625"/>
<use data-text="3" xlink:href="#font_1_106" transform="matrix(9.962799,0,0,-9.962799,375.9112,343.02558)"/>
<path transform="matrix(1.00002,0,0,-1.00002,-85.002,15.997)" stroke-width=".3985" stroke-linecap="butt" stroke-miterlimit="10" stroke-linejoin="miter" fill="none" stroke="#000000" d="M482.797-349.438V-299.625"/>
<path transform="matrix(1.00002,0,0,-1.00002,-85.002,15.997)" stroke-width=".3985" stroke-linecap="butt" stroke-miterlimit="10" stroke-linejoin="miter" fill="none" stroke="#000000" d="M86.214-349.638H482.797"/>
</svg>
