<svg xmlns="http://www.w3.org/2000/svg" xmlns:xlink="http://www.w3.org/1999/xlink" xmlns:inkscape="http://www.inkscape.org/namespaces/inkscape" version="1.1" width="145" height="291" viewBox="0 0 145 291">
<defs>
<clipPath id="clip_1">
<path transform="matrix(1.00002,0,0,-1.00006,1.9542694,289.5454)" d="M0 0V283.4681H122.76076V0ZM122.76076 283.4681"/>
</clipPath>
<path id="font_2_42" d="M.74398806 .23434448C.74398806 .24534607 .7429962 .25334168 .72698977 .25334168 .72099307 .25334168 .71099856 .25334168 .70999148 .24034119 .70199587 .079422 .56599429 .016464234 .46699525 .016464234 .3600006 .016464234 .1769867 .0814209 .1769867 .34129334 .1769867 .61213687 .37098695 .66711428 .46499635 .66711428 .56399539 .66711428 .6819916 .6011505 .70799258 .429245 .70999148 .4172516 .71899417 .4172516 .7259979 .4172516 .74398806 .4172516 .74398806 .4232483 .74398806 .4432373V.677124C.74398806 .6941223 .74398806 .703125 .7299957 .703125 .7259979 .703125 .72099307 .703125 .71299746 .69111636L.6599884 .6151428C.6179962 .65711978 .548996 .703125 .45298768 .703125 .24299622 .703125 .069992069 .5411835 .069992069 .34228517 .069992069 .13938904 .24598694-.01953125 .45298768-.01953125 .6299896-.01953125 .74398806 .1124115 .74398806 .23434448Z"/>
<path id="font_3_2" d="M.30499269-.020904541V-.12686157C.30499269-.14485169 .30499269-.1568451 .31900025-.1568451 .33898927-.1568451 .33898927-.14285279 .33898927-.12486267V-.009902954L.37098695 .000091552738C.38398744 .0040893557 .38398744 .009094238 .38398744 .030075074V.059066774C.38398744 .07606506 .38398744 .08906555 .36999513 .08906555 .36299134 .08906555 .34498597 .08206177 .33898927 .080062869V.42092896L.37098695 .43092347C.38398744 .43492127 .38398744 .4399109 .38398744 .46090699V.48989869C.38398744 .506897 .38398744 .5198822 .36999513 .5198822 .36299134 .5198822 .34498597 .5128937 .33898927 .5108948V.68481448C.33898927 .7028198 .33898927 .7158203 .32499696 .7158203 .30499269 .7158203 .30499269 .70181277 .30499269 .68382266V.4998932L.1559906 .45191957V.6268463C.1559906 .6448364 .1559906 .65682986 .14199829 .65682986 .12199402 .65682986 .12199402 .6428375 .12199402 .6248474V.44091798C.10699463 .43692018 .101989749 .43492127 .08999634 .43092347 .07699585 .42591859 .07699585 .42292787 .07699585 .39993287V.37194825C.07699585 .35494996 .07699585 .34196473 .09098816 .34196473 .09799194 .34196473 .115997318 .34895326 .12199402 .35095216V.01008606C.10699463 .006088257 .101989749 .0040893557 .08999634 .000091552738 .07699585-.0048980715 .07699585-.007904053 .07699585-.030899048V-.058883668C.07699585-.07588196 .07699585-.08886719 .09098816-.08886719 .09799194-.08886719 .115997318-.08187866 .12199402-.07987976V-.18482971C.12199402-.20283509 .12199402-.21582031 .13598633-.21582031 .1559906-.21582031 .1559906-.201828 .1559906-.18383789V-.068878177L.30499269-.020904541M.30499269 .40992738V.06906128L.1559906 .021087647V.36195375L.30499269 .40992738Z"/>
<path id="font_2_45" d="M.23098755 .005996704C.23098755 .06599426 .20799256 .114990238 .16099549 .114990238 .12599182 .114990238 .10398865 .08799744 .10398865 .056991579 .10398865 .032989503 .11999512 0 .1619873 0 .18699646 0 .20298767 .015991211 .20298767 .015991211 .20298767-.012023926 .20298767-.09617615 .125-.16729737 .12098694-.17131043 .117996219-.1743164 .117996219-.17932129 .117996219-.18533325 .125-.19433594 .13198853-.19433594 .14498902-.19433594 .23098755-.11520386 .23098755 .005996704Z"/>
<path id="font_2_46" d="M.78900149 .33580018C.78900149 .52568057 .6380005 .6826172 .45199586 .6826172H.057998659V.64660647H.08198547C.15899658 .64660647 .16099549 .63661196 .16099549 .6016388V.080963138C.16099549 .04698181 .15899658 .035995485 .08198547 .035995485H.057998659V0H.45199586C.6359863 0 .78900149 .1479187 .78900149 .33580018M.6859894 .33580018C.6859894 .21987915 .6569977 .15991211 .621994 .11793518 .57699587 .066970828 .5049896 .035995485 .4249878 .035995485H.2999878C.25299073 .035614015 .2519989 .04360962 .2519989 .07461548V.607605C.2519989 .63861086 .25299073 .64660647 .2999878 .64660647H.42399598C.5089874 .64660647 .58299258 .6116028 .6289978 .5526123 .66999819 .49861146 .6859894 .42260743 .6859894 .3356018V.33580018Z"/>
<path id="font_3_1" d="M.11099243 .71998599C.11099243 .73999026 .11099243 .75 .09399414 .75 .07699585 .75 .07699585 .73999026 .07699585 .71899417V.010467529C.07699585-.009536743 .07699585-.01953125 .09399414-.01953125 .10899353-.01953125 .1749878 .02645874 .19499207 .04045105 .27198792 .09437561 .38398744 .18624878 .38398744 .32107545 .38398744 .40696717 .30799867 .45996095 .23399353 .45996095 .22799683 .45996095 .1579895 .45996095 .11099243 .4219513V.71998599M.11099243 .33805848C.11099243 .36102296 .11099243 .38000489 .14099121 .39697267 .15499878 .40397645 .18199158 .4139557 .21998596 .4139557 .29100038 .4139557 .29499818 .3370514 .29499818 .32107545 .29499818 .19824219 .19799805 .09536743 .11099243 .028457642V.33805848Z"/>
<path id="font_2_49" d="M.7279968 .26296998H.69400027C.66799929 .11198425 .644989 .035995485 .45999146 .035995485H.3019867C.25498963 .035995485 .2539978 .04399109 .2539978 .07498169V.33496095H.35499574C.45599366 .33496095 .47099305 .30496217 .47099305 .2179718H.5049896V.48783876H.47099305C.47099305 .40092469 .45599366 .37095643 .35499574 .37095643H.2539978V.6037445C.2539978 .6347046 .25498963 .6427002 .3019867 .6427002H.45199586C.6159973 .6427002 .644989 .58872988 .6629944 .4487915H.69699099L.6669922 .67871096H.055999757V.6427002H.07998657C.15699768 .6427002 .15899658 .6327057 .15899658 .59773257V.08097839C.15899658 .04698181 .15699768 .035995485 .07998657 .035995485H.055999757V0H.68299868L.7279968 .26296998Z"/>
<path id="font_2_54" d="M.6819916 .44908143 .6519928 .67871096H.055999757V.6427002H.07998657C.15699768 .6427002 .15899658 .63272097 .15899658 .5977936V.08103943C.15899658 .04699707 .15699768 .035995485 .07998657 .035995485H.055999757V0L.20799256 .0039978029 .3829956 0V.035995485H.34799195C.2539978 .035995485 .2539978 .04901123 .2539978 .08203125V.32226563H.35099793C.45098878 .32226563 .46499635 .29223634 .46499635 .20515442H.49899293V.47503663H.46499635C.46499635 .38919068 .45098878 .3582611 .35099793 .3582611H.2539978V.603775C.2539978 .63471987 .25498963 .6427002 .3019867 .6427002H.44198609C.6029968 .6427002 .6299896 .58880618 .647995 .44908143H.6819916Z"/>
<path id="font_2_58" d="M.82199099 .24035645V.2763672C.8149872 .2763672 .74198916 .27235414 .69299319 .27235414 .6399994 .27235414 .56399539 .27235414 .5119934 .2763672V.24035645H.5499878C.6499939 .24034119 .6499939 .22735596 .6499939 .19436646V.13040161C.6499939 .1084137 .6499939 .06942749 .59298709 .04144287 .5439911 .016464234 .48799134 .016464234 .47499085 .016464234 .3619995 .016464234 .1769867 .0814209 .1769867 .34228517 .1769867 .60813906 .36698915 .66711428 .46598817 .66711428 .5629883 .66711428 .68299868 .60214236 .70899966 .429245 .71099856 .4169922 .7200012 .4169922 .72698977 .4169922 .7449951 .4172516 .7449951 .4232483 .7449951 .4432373V.677124C.7449951 .6941223 .7449951 .703125 .73098757 .703125 .72698977 .703125 .7220001 .703125 .71398928 .69111636L.6609955 .6151428C.6119995 .66511538 .54100039 .703125 .45298768 .703125 .24499512 .703125 .069992069 .5421753 .069992069 .34228517 .069992069 .14439392 .23999024-.01953125 .45599366-.01953125 .5109863-.01953125 .621994-.009536743 .6689911 .060440065 .6859894 .034454347 .72299197 .00045776368 .73298647 .00045776368 .7449951 .00045776368 .7449951 .011459351 .7449951 .02645874V.19636536C.7449951 .24035645 .7549896 .24035645 .82199099 .24035645Z"/>
<path id="font_2_27" d="M.7969971 0V.035995485H.7769928C.70999148 .035995485 .7029877 .04597473 .69200137 .07392883L.44898988 .6898804C.44299317 .70588687 .43998719 .7128906 .42099 .7128906 .4019928 .7128906 .39898683 .70588687 .3929901 .6898804L.1619873 .104888919C.1519928 .07992554 .1349945 .035995485 .04499817 .035995485V0C.07899475 .0029907227 .11399841 .0039978029 .147995 .0039978029 .18798828 .0039978029 .2619934 0 .2679901 0V.035995485C.22399903 .035995485 .19599915 .05595398 .19599915 .08392334 .19599915 .09190369 .19699097 .09390259 .20098877 .103881839L.24899292 .22668457H.5329895L.59098818 .08091736C.59298709 .075927738 .59599307 .06893921 .59599307 .063949588 .59599307 .035995485 .5419922 .035995485 .5149994 .035995485V0L.6639862 .0039978029C.71099856 .0039978029 .7859955 .0009918213 .7969971 0M.5189972 .2626953H.2630005L.3909912 .5878296 .5189972 .2626953Z"/>
<path id="font_2_34" d="M.7279968 .1829071C.7279968 .26985169 .6399994 .34379579 .5179901 .35679627 .6159973 .37478639 .69799807 .43574525 .69799807 .5126953 .69799807 .6026459 .59298709 .6826172 .45399476 .6826172H.05999756V.64660647H.083999637C.16099549 .64660647 .16299439 .63661196 .16299439 .6016388V.080963138C.16299439 .04698181 .16099549 .035995485 .083999637 .035995485H.05999756V0H.48399354C.625-.00018310547 .7279968 .08781433 .7279968 .18281555V.1829071M.59799197 .5127106C.59799197 .4417572 .5309906 .3688202 .41600038 .3688202H.25099183V.6076355C.25099183 .63861086 .2519989 .64660647 .29899598 .64660647H.44699098C.54599 .64682009 .59799197 .57580569 .59799197 .5128174V.5127106M.625 .184906C.625 .110946658 .5589905 .035995485 .44898988 .035995485H.29899598C.2519989 .035995485 .25099183 .04399109 .25099183 .07496643V.3408203H.46398927C.56999209 .34098817 .625 .25498963 .625 .18499756V.184906Z"/>
</defs>
<g clip-path="url(#clip_1)">
<path transform="matrix(1.00002,0,0,-1.00006,1.9542694,289.5454)" stroke-width=".3985" stroke-linecap="butt" stroke-miterlimit="10" stroke-linejoin="miter" fill="none" stroke="#000000" d="M24.55214 0V283.4681"/>
<path transform="matrix(1.00002,0,0,-1.00006,1.9542694,289.5454)" stroke-width=".3985" stroke-linecap="butt" stroke-miterlimit="10" stroke-linejoin="miter" fill="none" stroke="#000000" d="M49.1043 0V283.4681"/>
<path transform="matrix(1.00002,0,0,-1.00006,1.9542694,289.5454)" stroke-width=".3985" stroke-linecap="butt" stroke-miterlimit="10" stroke-linejoin="miter" fill="none" stroke="#000000" d="M73.65645 0V283.4681"/>
<path transform="matrix(1.00002,0,0,-1.00006,1.9542694,289.5454)" stroke-width=".3985" stroke-linecap="butt" stroke-miterlimit="10" stroke-linejoin="miter" fill="none" stroke="#000000" d="M98.2086 0V283.4681"/>
<path transform="matrix(1.00002,0,0,-1.00006,1.9542694,289.5454)" stroke-width=".3985" stroke-linecap="butt" stroke-miterlimit="10" stroke-linejoin="miter" fill="none" stroke="#000000" d="M0 0 490.9825 283.4681"/>
<path transform="matrix(1.00002,0,0,-1.00006,1.9542694,289.5454)" stroke-width=".3985" stroke-linecap="butt" stroke-miterlimit="10" stroke-linejoin="miter" fill="none" stroke="#000000" d="M0 283.4681 490.9825 0"/>
<path transform="matrix(1.00002,0,0,-1.00006,1.9542694,289.5454)" stroke-width=".3985" stroke-linecap="butt" stroke-miterlimit="10" stroke-linejoin="miter" fill="none" stroke="#000000" d="M49.1043 0 540.0868 283.4681"/>
<path transform="matrix(1.00002,0,0,-1.00006,1.9542694,289.5454)" stroke-width=".3985" stroke-linecap="butt" stroke-miterlimit="10" stroke-linejoin="miter" fill="none" stroke="#000000" d="M49.1043 283.4681 540.0868 0"/>
<path transform="matrix(1.00002,0,0,-1.00006,1.9542694,289.5454)" stroke-width=".3985" stroke-linecap="butt" stroke-miterlimit="10" stroke-linejoin="miter" fill="none" stroke="#000000" d="M98.2086 0 589.1911 283.4681"/>
<path transform="matrix(1.00002,0,0,-1.00006,1.9542694,289.5454)" stroke-width=".3985" stroke-linecap="butt" stroke-miterlimit="10" stroke-linejoin="miter" fill="none" stroke="#000000" d="M98.2086 283.4681 589.1911 0"/>
<path transform="matrix(1.00002,0,0,-1.00006,1.9542694,289.5454)" stroke-width=".3985" stroke-linecap="butt" stroke-miterlimit="10" stroke-linejoin="miter" fill="none" stroke="#000000" d="M0 28.3468 122.74562 99.21382"/>
<path transform="matrix(1.00002,0,0,-1.00006,1.9542694,289.5454)" stroke-width=".3985" stroke-linecap="butt" stroke-miterlimit="10" stroke-linejoin="miter" fill="none" stroke="#000000" d="M0 28.3468 122.74562-42.5202"/>
<path transform="matrix(1.00002,0,0,-1.00006,1.9542694,289.5454)" stroke-width=".3985" stroke-linecap="butt" stroke-miterlimit="10" stroke-linejoin="miter" fill="none" stroke="#000000" d="M0 56.69362 122.74562 127.56062"/>
<path transform="matrix(1.00002,0,0,-1.00006,1.9542694,289.5454)" stroke-width=".3985" stroke-linecap="butt" stroke-miterlimit="10" stroke-linejoin="miter" fill="none" stroke="#000000" d="M0 56.69362 122.74562-14.17339"/>
<path transform="matrix(1.00002,0,0,-1.00006,1.9542694,289.5454)" stroke-width=".3985" stroke-linecap="butt" stroke-miterlimit="10" stroke-linejoin="miter" fill="none" stroke="#000000" d="M0 85.04042 122.74562 155.90744"/>
<path transform="matrix(1.00002,0,0,-1.00006,1.9542694,289.5454)" stroke-width=".3985" stroke-linecap="butt" stroke-miterlimit="10" stroke-linejoin="miter" fill="none" stroke="#000000" d="M0 85.04042 122.74562 14.1734"/>
<path transform="matrix(1.00002,0,0,-1.00006,1.9542694,289.5454)" stroke-width=".3985" stroke-linecap="butt" stroke-miterlimit="10" stroke-linejoin="miter" fill="none" stroke="#000000" d="M0 113.38724 122.74562 184.25424"/>
<path transform="matrix(1.00002,0,0,-1.00006,1.9542694,289.5454)" stroke-width=".3985" stroke-linecap="butt" stroke-miterlimit="10" stroke-linejoin="miter" fill="none" stroke="#000000" d="M0 113.38724 122.74562 42.52022"/>
<path transform="matrix(1.00002,0,0,-1.00006,1.9542694,289.5454)" stroke-width=".3985" stroke-linecap="butt" stroke-miterlimit="10" stroke-linejoin="miter" fill="none" stroke="#000000" d="M0 141.73404 122.74562 212.60106"/>
<path transform="matrix(1.00002,0,0,-1.00006,1.9542694,289.5454)" stroke-width=".3985" stroke-linecap="butt" stroke-miterlimit="10" stroke-linejoin="miter" fill="none" stroke="#000000" d="M0 141.73404 122.74562 70.86702"/>
<path transform="matrix(1.00002,0,0,-1.00006,1.9542694,289.5454)" stroke-width=".3985" stroke-linecap="butt" stroke-miterlimit="10" stroke-linejoin="miter" fill="none" stroke="#000000" d="M0 170.08086 122.74562 240.94788"/>
<path transform="matrix(1.00002,0,0,-1.00006,1.9542694,289.5454)" stroke-width=".3985" stroke-linecap="butt" stroke-miterlimit="10" stroke-linejoin="miter" fill="none" stroke="#000000" d="M0 170.08086 122.74562 99.21384"/>
<path transform="matrix(1.00002,0,0,-1.00006,1.9542694,289.5454)" stroke-width=".3985" stroke-linecap="butt" stroke-miterlimit="10" stroke-linejoin="miter" fill="none" stroke="#000000" d="M0 198.42766 122.74562 269.29469"/>
<path transform="matrix(1.00002,0,0,-1.00006,1.9542694,289.5454)" stroke-width=".3985" stroke-linecap="butt" stroke-miterlimit="10" stroke-linejoin="miter" fill="none" stroke="#000000" d="M0 198.42766 122.74562 127.56064"/>
<path transform="matrix(1.00002,0,0,-1.00006,1.9542694,289.5454)" stroke-width=".3985" stroke-linecap="butt" stroke-miterlimit="10" stroke-linejoin="miter" fill="none" stroke="#000000" d="M0 226.77448 122.74562 297.6415"/>
<path transform="matrix(1.00002,0,0,-1.00006,1.9542694,289.5454)" stroke-width=".3985" stroke-linecap="butt" stroke-miterlimit="10" stroke-linejoin="miter" fill="none" stroke="#000000" d="M0 226.77448 122.74562 155.90746"/>
<path transform="matrix(1.00002,0,0,-1.00006,1.9542694,289.5454)" stroke-width=".3985" stroke-linecap="butt" stroke-miterlimit="10" stroke-linejoin="miter" fill="none" stroke="#000000" d="M0 255.12128 122.74562 325.9883"/>
<path transform="matrix(1.00002,0,0,-1.00006,1.9542694,289.5454)" stroke-width=".3985" stroke-linecap="butt" stroke-miterlimit="10" stroke-linejoin="miter" fill="none" stroke="#000000" d="M0 255.12128 122.74562 184.25426"/>
</g>
<path transform="matrix(1.00002,0,0,-1.00006,1.9542694,289.5454)" stroke-width=".3985" stroke-linecap="butt" stroke-miterlimit="10" stroke-linejoin="miter" fill="none" stroke="#7f807f" d="M0 0V283.4681H122.76076V0ZM122.76076 283.4681"/>
<path transform="matrix(1.00002,0,0,-1.00006,1.9542694,289.5454)" d="M116.64557 56.69362C116.64557 66.87619 108.39117 75.13057 98.2086 75.13057 88.02603 75.13057 79.77164 66.87619 79.77164 56.69362 79.77164 46.51103 88.02603 38.25665 98.2086 38.25665 108.39117 38.25665 116.64557 46.51103 116.64557 56.69362ZM98.2086 56.69362" fill="#f2f2f2"/>
<path transform="matrix(1.00002,0,0,-1.00006,1.9542694,289.5454)" stroke-width=".3985" stroke-linecap="butt" stroke-miterlimit="10" stroke-linejoin="miter" fill="none" stroke="#7f807f" d="M116.64557 56.69362C116.64557 66.87619 108.39117 75.13057 98.2086 75.13057 88.02603 75.13057 79.77164 66.87619 79.77164 56.69362 79.77164 46.51103 88.02603 38.25665 98.2086 38.25665 108.39117 38.25665 116.64557 46.51103 116.64557 56.69362ZM98.2086 56.69362"/>
<use data-text="C" xlink:href="#font_2_42" transform="matrix(6.97394,0,0,-6.9742186,88.808,234.78614)"/>
<use data-text="&#x266f;" xlink:href="#font_3_2" transform="matrix(6.97394,0,0,-6.9742186,94.499118,234.78614)"/>
<use data-text="," xlink:href="#font_2_45" transform="matrix(6.97394,0,0,-6.9742186,97.72318,234.78614)"/>
<use data-text="D" xlink:href="#font_2_46" transform="matrix(6.97394,0,0,-6.9742186,102.29809,234.78614)"/>
<use data-text="&#x266d;" xlink:href="#font_3_1" transform="matrix(6.97394,0,0,-6.9742186,108.297389,234.78614)"/>
<path transform="matrix(1.00002,0,0,-1.00006,1.9542694,289.5454)" d="M91.87401 70.867C91.87401 80.9284 83.71785 89.08458 73.65645 89.08458 63.59505 89.08458 55.43889 80.9284 55.43889 70.867 55.43889 60.8056 63.59505 52.64944 73.65645 52.64944 83.71785 52.64944 91.87401 60.8056 91.87401 70.867ZM73.65645 70.867" fill="#f2f2f2"/>
<path transform="matrix(1.00002,0,0,-1.00006,1.9542694,289.5454)" stroke-width=".3985" stroke-linecap="butt" stroke-miterlimit="10" stroke-linejoin="miter" fill="none" stroke="#7f807f" d="M91.87401 70.867C91.87401 80.9284 83.71785 89.08458 73.65645 89.08458 63.59505 89.08458 55.43889 80.9284 55.43889 70.867 55.43889 60.8056 63.59505 52.64944 73.65645 52.64944 83.71785 52.64944 91.87401 60.8056 91.87401 70.867ZM73.65645 70.867"/>
<use data-text="D" xlink:href="#font_2_46" transform="matrix(6.97394,0,0,-6.9742186,72.61368,221.0563)"/>
<path transform="matrix(1.00002,0,0,-1.00006,1.9542694,289.5454)" d="M67.54126 85.04042C67.54126 95.22299 59.28687 103.47739 49.1043 103.47739 38.92172 103.47739 30.66734 95.22299 30.66734 85.04042 30.66734 74.85785 38.92172 66.60347 49.1043 66.60347 59.28687 66.60347 67.54126 74.85785 67.54126 85.04042ZM49.1043 85.04042" fill="#f2f2f2"/>
<path transform="matrix(1.00002,0,0,-1.00006,1.9542694,289.5454)" stroke-width=".3985" stroke-linecap="butt" stroke-miterlimit="10" stroke-linejoin="miter" fill="none" stroke="#7f807f" d="M67.54126 85.04042C67.54126 95.22299 59.28687 103.47739 49.1043 103.47739 38.92172 103.47739 30.66734 95.22299 30.66734 85.04042 30.66734 74.85785 38.92172 66.60347 49.1043 66.60347 59.28687 66.60347 67.54126 74.85785 67.54126 85.04042ZM49.1043 85.04042"/>
<use data-text="E" xlink:href="#font_2_49" transform="matrix(6.97394,0,0,-6.9742186,39.870019,206.43744)"/>
<use data-text="&#x266d;" xlink:href="#font_3_1" transform="matrix(6.97394,0,0,-6.9742186,45.226129,206.43744)"/>
<use data-text="," xlink:href="#font_2_45" transform="matrix(6.97394,0,0,-6.9742186,48.450189,206.43744)"/>
<use data-text="D" xlink:href="#font_2_46" transform="matrix(6.97394,0,0,-6.9742186,53.0251,206.43744)"/>
<use data-text="&#x266f;" xlink:href="#font_3_2" transform="matrix(6.97394,0,0,-6.9742186,59.025407,206.43744)"/>
<path transform="matrix(1.00002,0,0,-1.00006,1.9542694,289.5454)" d="M42.76971 99.21382C42.76971 109.27522 34.61354 117.43138 24.55214 117.43138 14.49075 117.43138 6.33458 109.27522 6.33458 99.21382 6.33458 89.15242 14.49075 80.99626 24.55214 80.99626 34.61354 80.99626 42.76971 89.15242 42.76971 99.21382ZM24.55214 99.21382" fill="#f2f2f2"/>
<path transform="matrix(1.00002,0,0,-1.00006,1.9542694,289.5454)" stroke-width=".3985" stroke-linecap="butt" stroke-miterlimit="10" stroke-linejoin="miter" fill="none" stroke="#7f807f" d="M42.76971 99.21382C42.76971 109.27522 34.61354 117.43138 24.55214 117.43138 14.49075 117.43138 6.33458 109.27522 6.33458 99.21382 6.33458 89.15242 14.49075 80.99626 24.55214 80.99626 34.61354 80.99626 42.76971 89.15242 42.76971 99.21382ZM24.55214 99.21382"/>
<use data-text="E" xlink:href="#font_2_49" transform="matrix(6.97394,0,0,-6.9742186,23.827698,192.6936)"/>
<path transform="matrix(1.00002,0,0,-1.00006,1.9542694,289.5454)" d="M141.19773 70.867C141.19773 81.04958 132.94333 89.30397 122.76076 89.30397 112.57819 89.30397 104.32379 81.04958 104.32379 70.867 104.32379 60.68443 112.57819 52.43005 122.76076 52.43005 132.94333 52.43005 141.19773 60.68443 141.19773 70.867ZM122.76076 70.867" fill="#f2f2f2"/>
<path transform="matrix(1.00002,0,0,-1.00006,1.9542694,289.5454)" stroke-width=".3985" stroke-linecap="butt" stroke-miterlimit="10" stroke-linejoin="miter" fill="none" stroke="#7f807f" d="M141.19773 70.867C141.19773 81.04958 132.94333 89.30397 122.76076 89.30397 112.57819 89.30397 104.32379 81.04958 104.32379 70.867 104.32379 60.68443 112.57819 52.43005 122.76076 52.43005 132.94333 52.43005 141.19773 60.68443 141.19773 70.867ZM122.76076 70.867"/>
<use data-text="E" xlink:href="#font_2_49" transform="matrix(6.97394,0,0,-6.9742186,113.5275,220.61127)"/>
<use data-text="&#x266d;" xlink:href="#font_3_1" transform="matrix(6.97394,0,0,-6.9742186,118.883609,220.61127)"/>
<use data-text="," xlink:href="#font_2_45" transform="matrix(6.97394,0,0,-6.9742186,122.107669,220.61127)"/>
<use data-text="D" xlink:href="#font_2_46" transform="matrix(6.97394,0,0,-6.9742186,126.68258,220.61127)"/>
<use data-text="&#x266f;" xlink:href="#font_3_2" transform="matrix(6.97394,0,0,-6.9742186,132.68289,220.61127)"/>
<path transform="matrix(1.00002,0,0,-1.00006,1.9542694,289.5454)" d="M116.42616 85.04042C116.42616 95.10182 108.27 103.25798 98.2086 103.25798 88.1472 103.25798 79.99104 95.10182 79.99104 85.04042 79.99104 74.97902 88.1472 66.82286 98.2086 66.82286 108.27 66.82286 116.42616 74.97902 116.42616 85.04042ZM98.2086 85.04042" fill="#f2f2f2"/>
<path transform="matrix(1.00002,0,0,-1.00006,1.9542694,289.5454)" stroke-width=".3985" stroke-linecap="butt" stroke-miterlimit="10" stroke-linejoin="miter" fill="none" stroke="#7f807f" d="M116.42616 85.04042C116.42616 95.10182 108.27 103.25798 98.2086 103.25798 88.1472 103.25798 79.99104 95.10182 79.99104 85.04042 79.99104 74.97902 88.1472 66.82286 98.2086 66.82286 108.27 66.82286 116.42616 74.97902 116.42616 85.04042ZM98.2086 85.04042"/>
<use data-text="E" xlink:href="#font_2_49" transform="matrix(6.97394,0,0,-6.9742186,97.486179,206.86746)"/>
<path transform="matrix(1.00002,0,0,-1.00006,1.9542694,289.5454)" d="M91.87401 99.21382C91.87401 109.27522 83.71785 117.43138 73.65645 117.43138 63.59505 117.43138 55.43889 109.27522 55.43889 99.21382 55.43889 89.15242 63.59505 80.99626 73.65645 80.99626 83.71785 80.99626 91.87401 89.15242 91.87401 99.21382ZM73.65645 99.21382" fill="#f2f2f2"/>
<path transform="matrix(1.00002,0,0,-1.00006,1.9542694,289.5454)" stroke-width=".3985" stroke-linecap="butt" stroke-miterlimit="10" stroke-linejoin="miter" fill="none" stroke="#7f807f" d="M91.87401 99.21382C91.87401 109.27522 83.71785 117.43138 73.65645 117.43138 63.59505 117.43138 55.43889 109.27522 55.43889 99.21382 55.43889 89.15242 63.59505 80.99626 73.65645 80.99626 83.71785 80.99626 91.87401 89.15242 91.87401 99.21382ZM73.65645 99.21382"/>
<use data-text="F" xlink:href="#font_2_54" transform="matrix(6.97394,0,0,-6.9742186,73.04269,192.6936)"/>
<path transform="matrix(1.00002,0,0,-1.00006,1.9542694,289.5454)" d="M67.54126 113.38724C67.54126 123.56981 59.28687 131.82419 49.1043 131.82419 38.92172 131.82419 30.66734 123.56981 30.66734 113.38724 30.66734 103.20465 38.92172 94.95027 49.1043 94.95027 59.28687 94.95027 67.54126 103.20465 67.54126 113.38724ZM49.1043 113.38724" fill="#f2f2f2"/>
<path transform="matrix(1.00002,0,0,-1.00006,1.9542694,289.5454)" stroke-width=".3985" stroke-linecap="butt" stroke-miterlimit="10" stroke-linejoin="miter" fill="none" stroke="#7f807f" d="M67.54126 113.38724C67.54126 123.56981 59.28687 131.82419 49.1043 131.82419 38.92172 131.82419 30.66734 123.56981 30.66734 113.38724 30.66734 103.20465 38.92172 94.95027 49.1043 94.95027 59.28687 94.95027 67.54126 103.20465 67.54126 113.38724ZM49.1043 113.38724"/>
<use data-text="G" xlink:href="#font_2_58" transform="matrix(6.97394,0,0,-6.9742186,39.89502,178.08873)"/>
<use data-text="&#x266d;" xlink:href="#font_3_1" transform="matrix(6.97394,0,0,-6.9742186,46.060144,178.08873)"/>
<use data-text="," xlink:href="#font_2_45" transform="matrix(6.97394,0,0,-6.9742186,49.28421,178.08873)"/>
<use data-text="F" xlink:href="#font_2_54" transform="matrix(6.97394,0,0,-6.9742186,53.859117,178.08873)"/>
<use data-text="&#x266f;" xlink:href="#font_3_2" transform="matrix(6.97394,0,0,-6.9742186,59.000413,178.08873)"/>
<path transform="matrix(1.00002,0,0,-1.00006,1.9542694,289.5454)" d="M42.76971 127.56062C42.76971 137.62203 34.61354 145.7782 24.55214 145.7782 14.49075 145.7782 6.33458 137.62203 6.33458 127.56062 6.33458 117.49924 14.49075 109.34306 24.55214 109.34306 34.61354 109.34306 42.76971 117.49924 42.76971 127.56062ZM24.55214 127.56062" fill="#f2f2f2"/>
<path transform="matrix(1.00002,0,0,-1.00006,1.9542694,289.5454)" stroke-width=".3985" stroke-linecap="butt" stroke-miterlimit="10" stroke-linejoin="miter" fill="none" stroke="#7f807f" d="M42.76971 127.56062C42.76971 137.62203 34.61354 145.7782 24.55214 145.7782 14.49075 145.7782 6.33458 137.62203 6.33458 127.56062 6.33458 117.49924 14.49075 109.34306 24.55214 109.34306 34.61354 109.34306 42.76971 117.49924 42.76971 127.56062ZM24.55214 127.56062"/>
<use data-text="G" xlink:href="#font_2_58" transform="matrix(6.97394,0,0,-6.9742186,23.42369,164.3589)"/>
<path transform="matrix(1.00002,0,0,-1.00006,1.9542694,289.5454)" d="M141.19773 99.21382C141.19773 109.3964 132.94333 117.65077 122.76076 117.65077 112.57819 117.65077 104.32379 109.3964 104.32379 99.21382 104.32379 89.03125 112.57819 80.77686 122.76076 80.77686 132.94333 80.77686 141.19773 89.03125 141.19773 99.21382ZM122.76076 99.21382" fill="#f2f2f2"/>
<path transform="matrix(1.00002,0,0,-1.00006,1.9542694,289.5454)" stroke-width=".3985" stroke-linecap="butt" stroke-miterlimit="10" stroke-linejoin="miter" fill="none" stroke="#7f807f" d="M141.19773 99.21382C141.19773 109.3964 132.94333 117.65077 122.76076 117.65077 112.57819 117.65077 104.32379 109.3964 104.32379 99.21382 104.32379 89.03125 112.57819 80.77686 122.76076 80.77686 132.94333 80.77686 141.19773 89.03125 141.19773 99.21382ZM122.76076 99.21382"/>
<use data-text="G" xlink:href="#font_2_58" transform="matrix(6.97394,0,0,-6.9742186,113.5525,192.26258)"/>
<use data-text="&#x266d;" xlink:href="#font_3_1" transform="matrix(6.97394,0,0,-6.9742186,119.71762,192.26258)"/>
<use data-text="," xlink:href="#font_2_45" transform="matrix(6.97394,0,0,-6.9742186,122.94169,192.26258)"/>
<use data-text="F" xlink:href="#font_2_54" transform="matrix(6.97394,0,0,-6.9742186,127.516597,192.26258)"/>
<use data-text="&#x266f;" xlink:href="#font_3_2" transform="matrix(6.97394,0,0,-6.9742186,132.6579,192.26258)"/>
<path transform="matrix(1.00002,0,0,-1.00006,1.9542694,289.5454)" d="M116.42616 113.38724C116.42616 123.44862 108.27 131.6048 98.2086 131.6048 88.1472 131.6048 79.99104 123.44862 79.99104 113.38724 79.99104 103.32584 88.1472 95.16966 98.2086 95.16966 108.27 95.16966 116.42616 103.32584 116.42616 113.38724ZM98.2086 113.38724" fill="#f2f2f2"/>
<path transform="matrix(1.00002,0,0,-1.00006,1.9542694,289.5454)" stroke-width=".3985" stroke-linecap="butt" stroke-miterlimit="10" stroke-linejoin="miter" fill="none" stroke="#7f807f" d="M116.42616 113.38724C116.42616 123.44862 108.27 131.6048 98.2086 131.6048 88.1472 131.6048 79.99104 123.44862 79.99104 113.38724 79.99104 103.32584 88.1472 95.16966 98.2086 95.16966 108.27 95.16966 116.42616 103.32584 116.42616 113.38724ZM98.2086 113.38724"/>
<use data-text="G" xlink:href="#font_2_58" transform="matrix(6.97394,0,0,-6.9742186,97.08217,178.53276)"/>
<path transform="matrix(1.00002,0,0,-1.00006,1.9542694,289.5454)" d="M92.09341 127.56062C92.09341 137.74321 83.83902 145.99759 73.65645 145.99759 63.47388 145.99759 55.2195 137.74321 55.2195 127.56062 55.2195 117.37805 63.47388 109.12367 73.65645 109.12367 83.83902 109.12367 92.09341 117.37805 92.09341 127.56062ZM73.65645 127.56062" fill="#f2f2f2"/>
<path transform="matrix(1.00002,0,0,-1.00006,1.9542694,289.5454)" stroke-width=".3985" stroke-linecap="butt" stroke-miterlimit="10" stroke-linejoin="miter" fill="none" stroke="#7f807f" d="M92.09341 127.56062C92.09341 137.74321 83.83902 145.99759 73.65645 145.99759 63.47388 145.99759 55.2195 137.74321 55.2195 127.56062 55.2195 117.37805 63.47388 109.12367 73.65645 109.12367 83.83902 109.12367 92.09341 117.37805 92.09341 127.56062ZM73.65645 127.56062"/>
<use data-text="A" xlink:href="#font_2_27" transform="matrix(6.97394,0,0,-6.9742186,64.077518,163.91489)"/>
<use data-text="&#x266d;" xlink:href="#font_3_1" transform="matrix(6.97394,0,0,-6.9742186,69.95663,163.91489)"/>
<use data-text="," xlink:href="#font_2_45" transform="matrix(6.97394,0,0,-6.9742186,73.180698,163.91489)"/>
<use data-text="G" xlink:href="#font_2_58" transform="matrix(6.97394,0,0,-6.9742186,77.75559,163.91489)"/>
<use data-text="&#x266f;" xlink:href="#font_3_2" transform="matrix(6.97394,0,0,-6.9742186,83.922908,163.91489)"/>
<path transform="matrix(1.00002,0,0,-1.00006,1.9542694,289.5454)" d="M67.32187 141.73404C67.32187 151.79544 59.1657 159.9516 49.1043 159.9516 39.0429 159.9516 30.88673 151.79544 30.88673 141.73404 30.88673 131.67264 39.0429 123.51648 49.1043 123.51648 59.1657 123.51648 67.32187 131.67264 67.32187 141.73404ZM49.1043 141.73404" fill="#f2f2f2"/>
<path transform="matrix(1.00002,0,0,-1.00006,1.9542694,289.5454)" stroke-width=".3985" stroke-linecap="butt" stroke-miterlimit="10" stroke-linejoin="miter" fill="none" stroke="#7f807f" d="M67.32187 141.73404C67.32187 151.79544 59.1657 159.9516 49.1043 159.9516 39.0429 159.9516 30.88673 151.79544 30.88673 141.73404 30.88673 131.67264 39.0429 123.51648 49.1043 123.51648 59.1657 123.51648 67.32187 131.67264 67.32187 141.73404ZM49.1043 141.73404"/>
<use data-text="A" xlink:href="#font_2_27" transform="matrix(6.97394,0,0,-6.9742186,48.12018,150.28907)"/>
<path transform="matrix(1.00002,0,0,-1.00006,1.9542694,289.5454)" d="M42.9891 155.90744C42.9891 166.09001 34.73473 174.34439 24.55214 174.34439 14.36957 174.34439 6.11519 166.09001 6.11519 155.90744 6.11519 145.72487 14.36957 137.47048 24.55214 137.47048 34.73473 137.47048 42.9891 145.72487 42.9891 155.90744ZM24.55214 155.90744" fill="#f2f2f2"/>
<path transform="matrix(1.00002,0,0,-1.00006,1.9542694,289.5454)" stroke-width=".3985" stroke-linecap="butt" stroke-miterlimit="10" stroke-linejoin="miter" fill="none" stroke="#7f807f" d="M42.9891 155.90744C42.9891 166.09001 34.73473 174.34439 24.55214 174.34439 14.36957 174.34439 6.11519 166.09001 6.11519 155.90744 6.11519 145.72487 14.36957 137.47048 24.55214 137.47048 34.73473 137.47048 42.9891 145.72487 42.9891 155.90744ZM24.55214 155.90744"/>
<use data-text="B" xlink:href="#font_2_34" transform="matrix(6.97394,0,0,-6.9742186,15.267525,135.56618)"/>
<use data-text="&#x266d;" xlink:href="#font_3_1" transform="matrix(6.97394,0,0,-6.9742186,20.840638,135.56618)"/>
<use data-text="," xlink:href="#font_2_45" transform="matrix(6.97394,0,0,-6.9742186,24.064705,135.56618)"/>
<use data-text="A" xlink:href="#font_2_27" transform="matrix(6.97394,0,0,-6.9742186,28.63961,135.56618)"/>
<use data-text="&#x266f;" xlink:href="#font_3_2" transform="matrix(6.97394,0,0,-6.9742186,34.519906,135.56618)"/>
<path transform="matrix(1.00002,0,0,-1.00006,1.9542694,289.5454)" d="M140.97832 127.56062C140.97832 137.62203 132.82216 145.7782 122.76076 145.7782 112.69936 145.7782 104.5432 137.62203 104.5432 127.56062 104.5432 117.49924 112.69936 109.34306 122.76076 109.34306 132.82216 109.34306 140.97832 117.49924 140.97832 127.56062ZM122.76076 127.56062" fill="#f2f2f2"/>
<path transform="matrix(1.00002,0,0,-1.00006,1.9542694,289.5454)" stroke-width=".3985" stroke-linecap="butt" stroke-miterlimit="10" stroke-linejoin="miter" fill="none" stroke="#7f807f" d="M140.97832 127.56062C140.97832 137.62203 132.82216 145.7782 122.76076 145.7782 112.69936 145.7782 104.5432 137.62203 104.5432 127.56062 104.5432 117.49924 112.69936 109.34306 122.76076 109.34306 132.82216 109.34306 140.97832 117.49924 140.97832 127.56062ZM122.76076 127.56062"/>
<use data-text="A" xlink:href="#font_2_27" transform="matrix(6.97394,0,0,-6.9742186,121.77766,164.46392)"/>
<path transform="matrix(1.00002,0,0,-1.00006,1.9542694,289.5454)" d="M116.64557 141.73404C116.64557 151.91661 108.39117 160.171 98.2086 160.171 88.02603 160.171 79.77164 151.91661 79.77164 141.73404 79.77164 131.55147 88.02603 123.29709 98.2086 123.29709 108.39117 123.29709 116.64557 131.55147 116.64557 141.73404ZM98.2086 141.73404" fill="#f2f2f2"/>
<path transform="matrix(1.00002,0,0,-1.00006,1.9542694,289.5454)" stroke-width=".3985" stroke-linecap="butt" stroke-miterlimit="10" stroke-linejoin="miter" fill="none" stroke="#7f807f" d="M116.64557 141.73404C116.64557 151.91661 108.39117 160.171 98.2086 160.171 88.02603 160.171 79.77164 151.91661 79.77164 141.73404 79.77164 131.55147 88.02603 123.29709 98.2086 123.29709 108.39117 123.29709 116.64557 131.55147 116.64557 141.73404ZM98.2086 141.73404"/>
<use data-text="B" xlink:href="#font_2_34" transform="matrix(6.97394,0,0,-6.9742186,88.926,149.74004)"/>
<use data-text="&#x266d;" xlink:href="#font_3_1" transform="matrix(6.97394,0,0,-6.9742186,94.499118,149.74004)"/>
<use data-text="," xlink:href="#font_2_45" transform="matrix(6.97394,0,0,-6.9742186,97.72318,149.74004)"/>
<use data-text="A" xlink:href="#font_2_27" transform="matrix(6.97394,0,0,-6.9742186,102.29809,149.74004)"/>
<use data-text="&#x266f;" xlink:href="#font_3_2" transform="matrix(6.97394,0,0,-6.9742186,108.17838,149.74004)"/>
<path transform="matrix(1.00002,0,0,-1.00006,1.9542694,289.5454)" d="M91.87401 155.90744C91.87401 165.96884 83.71785 174.125 73.65645 174.125 63.59505 174.125 55.43889 165.96884 55.43889 155.90744 55.43889 145.84604 63.59505 137.68988 73.65645 137.68988 83.71785 137.68988 91.87401 145.84604 91.87401 155.90744ZM73.65645 155.90744" fill="#f2f2f2"/>
<path transform="matrix(1.00002,0,0,-1.00006,1.9542694,289.5454)" stroke-width=".3985" stroke-linecap="butt" stroke-miterlimit="10" stroke-linejoin="miter" fill="none" stroke="#7f807f" d="M91.87401 155.90744C91.87401 165.96884 83.71785 174.125 73.65645 174.125 63.59505 174.125 55.43889 165.96884 55.43889 155.90744 55.43889 145.84604 63.59505 137.68988 73.65645 137.68988 83.71785 137.68988 91.87401 145.84604 91.87401 155.90744ZM73.65645 155.90744"/>
<use data-text="B" xlink:href="#font_2_34" transform="matrix(6.97394,0,0,-6.9742186,72.82568,136.01021)"/>
<path transform="matrix(1.00002,0,0,-1.00006,1.9542694,289.5454)" d="M67.32187 170.08086C67.32187 180.14226 59.1657 188.29842 49.1043 188.29842 39.0429 188.29842 30.88673 180.14226 30.88673 170.08086 30.88673 160.01946 39.0429 151.86328 49.1043 151.86328 59.1657 151.86328 67.32187 160.01946 67.32187 170.08086ZM49.1043 170.08086" fill="#f2f2f2"/>
<path transform="matrix(1.00002,0,0,-1.00006,1.9542694,289.5454)" stroke-width=".3985" stroke-linecap="butt" stroke-miterlimit="10" stroke-linejoin="miter" fill="none" stroke="#7f807f" d="M67.32187 170.08086C67.32187 180.14226 59.1657 188.29842 49.1043 188.29842 39.0429 188.29842 30.88673 180.14226 30.88673 170.08086 30.88673 160.01946 39.0429 151.86328 49.1043 151.86328 59.1657 151.86328 67.32187 160.01946 67.32187 170.08086ZM49.1043 170.08086"/>
<use data-text="C" xlink:href="#font_2_42" transform="matrix(6.97394,0,0,-6.9742186,48.21418,121.83635)"/>
<path transform="matrix(1.00002,0,0,-1.00006,1.9542694,289.5454)" d="M42.9891 184.25424C42.9891 194.43683 34.73473 202.69121 24.55214 202.69121 14.36957 202.69121 6.11519 194.43683 6.11519 184.25424 6.11519 174.07167 14.36957 165.81729 24.55214 165.81729 34.73473 165.81729 42.9891 174.07167 42.9891 184.25424ZM24.55214 184.25424" fill="#f2f2f2"/>
<path transform="matrix(1.00002,0,0,-1.00006,1.9542694,289.5454)" stroke-width=".3985" stroke-linecap="butt" stroke-miterlimit="10" stroke-linejoin="miter" fill="none" stroke="#7f807f" d="M42.9891 184.25424C42.9891 194.43683 34.73473 202.69121 24.55214 202.69121 14.36957 202.69121 6.11519 194.43683 6.11519 184.25424 6.11519 174.07167 14.36957 165.81729 24.55214 165.81729 34.73473 165.81729 42.9891 174.07167 42.9891 184.25424ZM24.55214 184.25424"/>
<use data-text="C" xlink:href="#font_2_42" transform="matrix(6.97394,0,0,-6.9742186,15.149521,107.21748)"/>
<use data-text="&#x266f;" xlink:href="#font_3_2" transform="matrix(6.97394,0,0,-6.9742186,20.840638,107.21748)"/>
<use data-text="," xlink:href="#font_2_45" transform="matrix(6.97394,0,0,-6.9742186,24.064705,107.21748)"/>
<use data-text="D" xlink:href="#font_2_46" transform="matrix(6.97394,0,0,-6.9742186,28.63961,107.21748)"/>
<use data-text="&#x266d;" xlink:href="#font_3_1" transform="matrix(6.97394,0,0,-6.9742186,34.63891,107.21748)"/>
<path transform="matrix(1.00002,0,0,-1.00006,1.9542694,289.5454)" d="M140.97832 155.90744C140.97832 165.96884 132.82216 174.125 122.76076 174.125 112.69936 174.125 104.5432 165.96884 104.5432 155.90744 104.5432 145.84604 112.69936 137.68988 122.76076 137.68988 132.82216 137.68988 140.97832 145.84604 140.97832 155.90744ZM122.76076 155.90744" fill="#f2f2f2"/>
<path transform="matrix(1.00002,0,0,-1.00006,1.9542694,289.5454)" stroke-width=".3985" stroke-linecap="butt" stroke-miterlimit="10" stroke-linejoin="miter" fill="none" stroke="#7f807f" d="M140.97832 155.90744C140.97832 165.96884 132.82216 174.125 122.76076 174.125 112.69936 174.125 104.5432 165.96884 104.5432 155.90744 104.5432 145.84604 112.69936 137.68988 122.76076 137.68988 132.82216 137.68988 140.97832 145.84604 140.97832 155.90744ZM122.76076 155.90744"/>
<use data-text="C" xlink:href="#font_2_42" transform="matrix(6.97394,0,0,-6.9742186,121.87166,136.01021)"/>
<path transform="matrix(1.00002,0,0,-1.00006,1.9542694,289.5454)" d="M116.64557 170.08086C116.64557 180.26343 108.39117 188.5178 98.2086 188.5178 88.02603 188.5178 79.77164 180.26343 79.77164 170.08086 79.77164 159.89829 88.02603 151.64389 98.2086 151.64389 108.39117 151.64389 116.64557 159.89829 116.64557 170.08086ZM98.2086 170.08086" fill="#f2f2f2"/>
<path transform="matrix(1.00002,0,0,-1.00006,1.9542694,289.5454)" stroke-width=".3985" stroke-linecap="butt" stroke-miterlimit="10" stroke-linejoin="miter" fill="none" stroke="#7f807f" d="M116.64557 170.08086C116.64557 180.26343 108.39117 188.5178 98.2086 188.5178 88.02603 188.5178 79.77164 180.26343 79.77164 170.08086 79.77164 159.89829 88.02603 151.64389 98.2086 151.64389 108.39117 151.64389 116.64557 159.89829 116.64557 170.08086ZM98.2086 170.08086"/>
<use data-text="C" xlink:href="#font_2_42" transform="matrix(6.97394,0,0,-6.9742186,88.808,121.39133)"/>
<use data-text="&#x266f;" xlink:href="#font_3_2" transform="matrix(6.97394,0,0,-6.9742186,94.499118,121.39133)"/>
<use data-text="," xlink:href="#font_2_45" transform="matrix(6.97394,0,0,-6.9742186,97.72318,121.39133)"/>
<use data-text="D" xlink:href="#font_2_46" transform="matrix(6.97394,0,0,-6.9742186,102.29809,121.39133)"/>
<use data-text="&#x266d;" xlink:href="#font_3_1" transform="matrix(6.97394,0,0,-6.9742186,108.297389,121.39133)"/>
<path transform="matrix(1.00002,0,0,-1.00006,1.9542694,289.5454)" d="M91.87401 184.25424C91.87401 194.31565 83.71785 202.47182 73.65645 202.47182 63.59505 202.47182 55.43889 194.31565 55.43889 184.25424 55.43889 174.19286 63.59505 166.03668 73.65645 166.03668 83.71785 166.03668 91.87401 174.19286 91.87401 184.25424ZM73.65645 184.25424" fill="#f2f2f2"/>
<path transform="matrix(1.00002,0,0,-1.00006,1.9542694,289.5454)" stroke-width=".3985" stroke-linecap="butt" stroke-miterlimit="10" stroke-linejoin="miter" fill="none" stroke="#7f807f" d="M91.87401 184.25424C91.87401 194.31565 83.71785 202.47182 73.65645 202.47182 63.59505 202.47182 55.43889 194.31565 55.43889 184.25424 55.43889 174.19286 63.59505 166.03668 73.65645 166.03668 83.71785 166.03668 91.87401 174.19286 91.87401 184.25424ZM73.65645 184.25424"/>
<use data-text="D" xlink:href="#font_2_46" transform="matrix(6.97394,0,0,-6.9742186,72.61368,107.6615)"/>
<path transform="matrix(1.00002,0,0,-1.00006,1.9542694,289.5454)" d="M67.54126 198.42766C67.54126 208.61023 59.28687 216.86463 49.1043 216.86463 38.92172 216.86463 30.66734 208.61023 30.66734 198.42766 30.66734 188.24509 38.92172 179.9907 49.1043 179.9907 59.28687 179.9907 67.54126 188.24509 67.54126 198.42766ZM49.1043 198.42766" fill="#f2f2f2"/>
<path transform="matrix(1.00002,0,0,-1.00006,1.9542694,289.5454)" stroke-width=".3985" stroke-linecap="butt" stroke-miterlimit="10" stroke-linejoin="miter" fill="none" stroke="#7f807f" d="M67.54126 198.42766C67.54126 208.61023 59.28687 216.86463 49.1043 216.86463 38.92172 216.86463 30.66734 208.61023 30.66734 198.42766 30.66734 188.24509 38.92172 179.9907 49.1043 179.9907 59.28687 179.9907 67.54126 188.24509 67.54126 198.42766ZM49.1043 198.42766"/>
<use data-text="E" xlink:href="#font_2_49" transform="matrix(6.97394,0,0,-6.9742186,39.870019,93.043628)"/>
<use data-text="&#x266d;" xlink:href="#font_3_1" transform="matrix(6.97394,0,0,-6.9742186,45.226129,93.043628)"/>
<use data-text="," xlink:href="#font_2_45" transform="matrix(6.97394,0,0,-6.9742186,48.450189,93.043628)"/>
<use data-text="D" xlink:href="#font_2_46" transform="matrix(6.97394,0,0,-6.9742186,53.0251,93.043628)"/>
<use data-text="&#x266f;" xlink:href="#font_3_2" transform="matrix(6.97394,0,0,-6.9742186,59.025407,93.043628)"/>
<path transform="matrix(1.00002,0,0,-1.00006,1.9542694,289.5454)" d="M42.76971 212.60106C42.76971 222.66246 34.61354 230.81862 24.55214 230.81862 14.49075 230.81862 6.33458 222.66246 6.33458 212.60106 6.33458 202.53966 14.49075 194.3835 24.55214 194.3835 34.61354 194.3835 42.76971 202.53966 42.76971 212.60106ZM24.55214 212.60106" fill="#f2f2f2"/>
<path transform="matrix(1.00002,0,0,-1.00006,1.9542694,289.5454)" stroke-width=".3985" stroke-linecap="butt" stroke-miterlimit="10" stroke-linejoin="miter" fill="none" stroke="#7f807f" d="M42.76971 212.60106C42.76971 222.66246 34.61354 230.81862 24.55214 230.81862 14.49075 230.81862 6.33458 222.66246 6.33458 212.60106 6.33458 202.53966 14.49075 194.3835 24.55214 194.3835 34.61354 194.3835 42.76971 202.53966 42.76971 212.60106ZM24.55214 212.60106"/>
<use data-text="E" xlink:href="#font_2_49" transform="matrix(6.97394,0,0,-6.9742186,23.827698,79.299808)"/>
<path transform="matrix(1.00002,0,0,-1.00006,1.9542694,289.5454)" d="M141.19773 184.25424C141.19773 194.43683 132.94333 202.69121 122.76076 202.69121 112.57819 202.69121 104.32379 194.43683 104.32379 184.25424 104.32379 174.07167 112.57819 165.81729 122.76076 165.81729 132.94333 165.81729 141.19773 174.07167 141.19773 184.25424ZM122.76076 184.25424" fill="#f2f2f2"/>
<path transform="matrix(1.00002,0,0,-1.00006,1.9542694,289.5454)" stroke-width=".3985" stroke-linecap="butt" stroke-miterlimit="10" stroke-linejoin="miter" fill="none" stroke="#7f807f" d="M141.19773 184.25424C141.19773 194.43683 132.94333 202.69121 122.76076 202.69121 112.57819 202.69121 104.32379 194.43683 104.32379 184.25424 104.32379 174.07167 112.57819 165.81729 122.76076 165.81729 132.94333 165.81729 141.19773 174.07167 141.19773 184.25424ZM122.76076 184.25424"/>
<use data-text="E" xlink:href="#font_2_49" transform="matrix(6.97394,0,0,-6.9742186,113.5275,107.21748)"/>
<use data-text="&#x266d;" xlink:href="#font_3_1" transform="matrix(6.97394,0,0,-6.9742186,118.883609,107.21748)"/>
<use data-text="," xlink:href="#font_2_45" transform="matrix(6.97394,0,0,-6.9742186,122.107669,107.21748)"/>
<use data-text="D" xlink:href="#font_2_46" transform="matrix(6.97394,0,0,-6.9742186,126.68258,107.21748)"/>
<use data-text="&#x266f;" xlink:href="#font_3_2" transform="matrix(6.97394,0,0,-6.9742186,132.68289,107.21748)"/>
<path transform="matrix(1.00002,0,0,-1.00006,1.9542694,289.5454)" d="M116.42616 198.42766C116.42616 208.48906 108.27 216.64524 98.2086 216.64524 88.1472 216.64524 79.99104 208.48906 79.99104 198.42766 79.99104 188.36626 88.1472 180.2101 98.2086 180.2101 108.27 180.2101 116.42616 188.36626 116.42616 198.42766ZM98.2086 198.42766" fill="#f2f2f2"/>
<path transform="matrix(1.00002,0,0,-1.00006,1.9542694,289.5454)" stroke-width=".3985" stroke-linecap="butt" stroke-miterlimit="10" stroke-linejoin="miter" fill="none" stroke="#7f807f" d="M116.42616 198.42766C116.42616 208.48906 108.27 216.64524 98.2086 216.64524 88.1472 216.64524 79.99104 208.48906 79.99104 198.42766 79.99104 188.36626 88.1472 180.2101 98.2086 180.2101 108.27 180.2101 116.42616 188.36626 116.42616 198.42766ZM98.2086 198.42766"/>
<use data-text="E" xlink:href="#font_2_49" transform="matrix(6.97394,0,0,-6.9742186,97.486179,93.47366)"/>
<path transform="matrix(1.00002,0,0,-1.00006,1.9542694,289.5454)" d="M91.87401 212.60106C91.87401 222.66246 83.71785 230.81862 73.65645 230.81862 63.59505 230.81862 55.43889 222.66246 55.43889 212.60106 55.43889 202.53966 63.59505 194.3835 73.65645 194.3835 83.71785 194.3835 91.87401 202.53966 91.87401 212.60106ZM73.65645 212.60106" fill="#f2f2f2"/>
<path transform="matrix(1.00002,0,0,-1.00006,1.9542694,289.5454)" stroke-width=".3985" stroke-linecap="butt" stroke-miterlimit="10" stroke-linejoin="miter" fill="none" stroke="#7f807f" d="M91.87401 212.60106C91.87401 222.66246 83.71785 230.81862 73.65645 230.81862 63.59505 230.81862 55.43889 222.66246 55.43889 212.60106 55.43889 202.53966 63.59505 194.3835 73.65645 194.3835 83.71785 194.3835 91.87401 202.53966 91.87401 212.60106ZM73.65645 212.60106"/>
<use data-text="F" xlink:href="#font_2_54" transform="matrix(6.97394,0,0,-6.9742186,73.04269,79.299808)"/>
<path transform="matrix(1.00002,0,0,-1.00006,1.9542694,289.5454)" d="M67.54126 226.77448C67.54126 236.95705 59.28687 245.21143 49.1043 245.21143 38.92172 245.21143 30.66734 236.95705 30.66734 226.77448 30.66734 216.5919 38.92172 208.33751 49.1043 208.33751 59.28687 208.33751 67.54126 216.5919 67.54126 226.77448ZM49.1043 226.77448" fill="#f2f2f2"/>
<path transform="matrix(1.00002,0,0,-1.00006,1.9542694,289.5454)" stroke-width=".3985" stroke-linecap="butt" stroke-miterlimit="10" stroke-linejoin="miter" fill="none" stroke="#7f807f" d="M67.54126 226.77448C67.54126 236.95705 59.28687 245.21143 49.1043 245.21143 38.92172 245.21143 30.66734 236.95705 30.66734 226.77448 30.66734 216.5919 38.92172 208.33751 49.1043 208.33751 59.28687 208.33751 67.54126 216.5919 67.54126 226.77448ZM49.1043 226.77448"/>
<use data-text="G" xlink:href="#font_2_58" transform="matrix(6.97394,0,0,-6.9742186,39.89502,64.694919)"/>
<use data-text="&#x266d;" xlink:href="#font_3_1" transform="matrix(6.97394,0,0,-6.9742186,46.060144,64.694919)"/>
<use data-text="," xlink:href="#font_2_45" transform="matrix(6.97394,0,0,-6.9742186,49.28421,64.694919)"/>
<use data-text="F" xlink:href="#font_2_54" transform="matrix(6.97394,0,0,-6.9742186,53.859117,64.694919)"/>
<use data-text="&#x266f;" xlink:href="#font_3_2" transform="matrix(6.97394,0,0,-6.9742186,59.000413,64.694919)"/>
<path transform="matrix(1.00002,0,0,-1.00006,1.9542694,289.5454)" d="M42.76971 240.94788C42.76971 251.00926 34.61354 259.16545 24.55214 259.16545 14.49075 259.16545 6.33458 251.00926 6.33458 240.94788 6.33458 230.88648 14.49075 222.7303 24.55214 222.7303 34.61354 222.7303 42.76971 230.88648 42.76971 240.94788ZM24.55214 240.94788" fill="#f2f2f2"/>
<path transform="matrix(1.00002,0,0,-1.00006,1.9542694,289.5454)" stroke-width=".3985" stroke-linecap="butt" stroke-miterlimit="10" stroke-linejoin="miter" fill="none" stroke="#7f807f" d="M42.76971 240.94788C42.76971 251.00926 34.61354 259.16545 24.55214 259.16545 14.49075 259.16545 6.33458 251.00926 6.33458 240.94788 6.33458 230.88648 14.49075 222.7303 24.55214 222.7303 34.61354 222.7303 42.76971 230.88648 42.76971 240.94788ZM24.55214 240.94788"/>
<use data-text="G" xlink:href="#font_2_58" transform="matrix(6.97394,0,0,-6.9742186,23.42369,50.96512)"/>
<path transform="matrix(1.00002,0,0,-1.00006,1.9542694,289.5454)" d="M141.19773 212.60106C141.19773 222.78363 132.94333 231.03803 122.76076 231.03803 112.57819 231.03803 104.32379 222.78363 104.32379 212.60106 104.32379 202.41849 112.57819 194.1641 122.76076 194.1641 132.94333 194.1641 141.19773 202.41849 141.19773 212.60106ZM122.76076 212.60106" fill="#f2f2f2"/>
<path transform="matrix(1.00002,0,0,-1.00006,1.9542694,289.5454)" stroke-width=".3985" stroke-linecap="butt" stroke-miterlimit="10" stroke-linejoin="miter" fill="none" stroke="#7f807f" d="M141.19773 212.60106C141.19773 222.78363 132.94333 231.03803 122.76076 231.03803 112.57819 231.03803 104.32379 222.78363 104.32379 212.60106 104.32379 202.41849 112.57819 194.1641 122.76076 194.1641 132.94333 194.1641 141.19773 202.41849 141.19773 212.60106ZM122.76076 212.60106"/>
<use data-text="G" xlink:href="#font_2_58" transform="matrix(6.97394,0,0,-6.9742186,113.5525,78.868778)"/>
<use data-text="&#x266d;" xlink:href="#font_3_1" transform="matrix(6.97394,0,0,-6.9742186,119.71762,78.868778)"/>
<use data-text="," xlink:href="#font_2_45" transform="matrix(6.97394,0,0,-6.9742186,122.94169,78.868778)"/>
<use data-text="F" xlink:href="#font_2_54" transform="matrix(6.97394,0,0,-6.9742186,127.516597,78.868778)"/>
<use data-text="&#x266f;" xlink:href="#font_3_2" transform="matrix(6.97394,0,0,-6.9742186,132.6579,78.868778)"/>
<path transform="matrix(1.00002,0,0,-1.00006,1.9542694,289.5454)" d="M116.42616 226.77448C116.42616 236.83588 108.27 244.99204 98.2086 244.99204 88.1472 244.99204 79.99104 236.83588 79.99104 226.77448 79.99104 216.71308 88.1472 208.5569 98.2086 208.5569 108.27 208.5569 116.42616 216.71308 116.42616 226.77448ZM98.2086 226.77448" fill="#f2f2f2"/>
<path transform="matrix(1.00002,0,0,-1.00006,1.9542694,289.5454)" stroke-width=".3985" stroke-linecap="butt" stroke-miterlimit="10" stroke-linejoin="miter" fill="none" stroke="#7f807f" d="M116.42616 226.77448C116.42616 236.83588 108.27 244.99204 98.2086 244.99204 88.1472 244.99204 79.99104 236.83588 79.99104 226.77448 79.99104 216.71308 88.1472 208.5569 98.2086 208.5569 108.27 208.5569 116.42616 216.71308 116.42616 226.77448ZM98.2086 226.77448"/>
<use data-text="G" xlink:href="#font_2_58" transform="matrix(6.97394,0,0,-6.9742186,97.08217,65.13895)"/>
<path transform="matrix(1.00002,0,0,-1.00006,1.9542694,289.5454)" d="M92.09341 240.94788C92.09341 251.13045 83.83902 259.38484 73.65645 259.38484 63.47388 259.38484 55.2195 251.13045 55.2195 240.94788 55.2195 230.76529 63.47388 222.51091 73.65645 222.51091 83.83902 222.51091 92.09341 230.76529 92.09341 240.94788ZM73.65645 240.94788" fill="#f2f2f2"/>
<path transform="matrix(1.00002,0,0,-1.00006,1.9542694,289.5454)" stroke-width=".3985" stroke-linecap="butt" stroke-miterlimit="10" stroke-linejoin="miter" fill="none" stroke="#7f807f" d="M92.09341 240.94788C92.09341 251.13045 83.83902 259.38484 73.65645 259.38484 63.47388 259.38484 55.2195 251.13045 55.2195 240.94788 55.2195 230.76529 63.47388 222.51091 73.65645 222.51091 83.83902 222.51091 92.09341 230.76529 92.09341 240.94788ZM73.65645 240.94788"/>
<use data-text="A" xlink:href="#font_2_27" transform="matrix(6.97394,0,0,-6.9742186,64.077518,50.52008)"/>
<use data-text="&#x266d;" xlink:href="#font_3_1" transform="matrix(6.97394,0,0,-6.9742186,69.95663,50.52008)"/>
<use data-text="," xlink:href="#font_2_45" transform="matrix(6.97394,0,0,-6.9742186,73.180698,50.52008)"/>
<use data-text="G" xlink:href="#font_2_58" transform="matrix(6.97394,0,0,-6.9742186,77.75559,50.52008)"/>
<use data-text="&#x266f;" xlink:href="#font_3_2" transform="matrix(6.97394,0,0,-6.9742186,83.922908,50.52008)"/>
<path transform="matrix(1.00002,0,0,-1.00006,1.9542694,289.5454)" d="M67.32187 255.12128C67.32187 265.18269 59.1657 273.33885 49.1043 273.33885 39.0429 273.33885 30.88673 265.18269 30.88673 255.12128 30.88673 245.05988 39.0429 236.90372 49.1043 236.90372 59.1657 236.90372 67.32187 245.05988 67.32187 255.12128ZM49.1043 255.12128" fill="#f2f2f2"/>
<path transform="matrix(1.00002,0,0,-1.00006,1.9542694,289.5454)" stroke-width=".3985" stroke-linecap="butt" stroke-miterlimit="10" stroke-linejoin="miter" fill="none" stroke="#7f807f" d="M67.32187 255.12128C67.32187 265.18269 59.1657 273.33885 49.1043 273.33885 39.0429 273.33885 30.88673 265.18269 30.88673 255.12128 30.88673 245.05988 39.0429 236.90372 49.1043 236.90372 59.1657 236.90372 67.32187 245.05988 67.32187 255.12128ZM49.1043 255.12128"/>
<use data-text="A" xlink:href="#font_2_27" transform="matrix(6.97394,0,0,-6.9742186,48.12018,36.895265)"/>
<path transform="matrix(1.00002,0,0,-1.00006,1.9542694,289.5454)" d="M42.9891 269.29469C42.9891 279.47727 34.73473 287.73164 24.55214 287.73164 14.36957 287.73164 6.11519 279.47727 6.11519 269.29469 6.11519 259.1121 14.36957 250.85771 24.55214 250.85771 34.73473 250.85771 42.9891 259.1121 42.9891 269.29469ZM24.55214 269.29469" fill="#f2f2f2"/>
<path transform="matrix(1.00002,0,0,-1.00006,1.9542694,289.5454)" stroke-width=".3985" stroke-linecap="butt" stroke-miterlimit="10" stroke-linejoin="miter" fill="none" stroke="#7f807f" d="M42.9891 269.29469C42.9891 279.47727 34.73473 287.73164 24.55214 287.73164 14.36957 287.73164 6.11519 279.47727 6.11519 269.29469 6.11519 259.1121 14.36957 250.85771 24.55214 250.85771 34.73473 250.85771 42.9891 259.1121 42.9891 269.29469ZM24.55214 269.29469"/>
<use data-text="B" xlink:href="#font_2_34" transform="matrix(6.97394,0,0,-6.9742186,15.267525,22.172394)"/>
<use data-text="&#x266d;" xlink:href="#font_3_1" transform="matrix(6.97394,0,0,-6.9742186,20.840638,22.172394)"/>
<use data-text="," xlink:href="#font_2_45" transform="matrix(6.97394,0,0,-6.9742186,24.064705,22.172394)"/>
<use data-text="A" xlink:href="#font_2_27" transform="matrix(6.97394,0,0,-6.9742186,28.63961,22.172394)"/>
<use data-text="&#x266f;" xlink:href="#font_3_2" transform="matrix(6.97394,0,0,-6.9742186,34.519906,22.172394)"/>
</svg>
