<svg xmlns="http://www.w3.org/2000/svg" xmlns:xlink="http://www.w3.org/1999/xlink" xmlns:inkscape="http://www.inkscape.org/namespaces/inkscape" version="1.1" width="274" height="146" viewBox="0 0 274 146">
<defs>
<path id="font_1_2" d="M.1659851 .07398987C.1769867 .101989749 .19099427 .12799073 .21099854 .15098572 .24299622 .18598938 .28599549 .20698548 .33299256 .21199036 .3639984 .21499634 .394989 .20799256 .41999818 .18899536 .43299867 .1789856 .44299317 .1659851 .45199586 .15299988 .4889984 .09399414 .49798585 .018997193 .49798585-.04901123 .49798585-.20300293 .43199159-.3570099 .31098939-.45401 .2849884-.4750061 .2559967-.49301148 .22599793-.5070038 .19499207-.5220032 .1619873-.53300479 .12799073-.54000857 .114990238-.5430145 .100997928-.54600527 .08799744-.54600527 .09199524-.54901126 .09700012-.54901126 .100997928-.55000308 .11399841-.55200198 .12799073-.54901126 .14099121-.5470123 .18798828-.5410156 .23298645-.52801516 .2769928-.51200869 .4269867-.4560089 .5569916-.3380127 .6049957-.18301392 .61698916-.14500427 .6230011-.10600281 .625-.06600952 .6289978 .023986817 .59599307 .11898804 .5279999 .17999268 .45498658 .24598694 .34700013 .272995 .25498963 .23098755 .23699951 .22200012 .21998596 .21099854 .20498657 .19898987 .18798828 .18399048 .17199707 .16699219 .1599884 .147995 .1349945 .10998535 .11999512 .066986087 .116989139 .021987915 .115997318 .0069885256 .114990238-.008010864 .11999512-.023010254 .12298584-.035003663 .1289978-.045013429 .13798523-.054000856 .17098999-.088012699 .22898865-.08300781 .25698854-.04600525 .2849884-.009002686 .27198792 .04798889 .23098755 .069992069 .21099854 .08099365 .18699646 .08099365 .1659851 .07398987M.70399478 .14898682C.69599917 .14698792 .6879883 .14399719 .68099978 .13999939 .6559906 .12298584 .6519928 .084991458 .67099 .06199646 .6819916 .04798889 .70098879 .040985109 .71899417 .042999269 .72698977 .04499817 .7350006 .04798889 .74198916 .051986696 .7669983 .068984989 .7709961 .10699463 .7519989 .12998963 .7409973 .14399719 .7220001 .15098572 .70399478 .14898682M.70399478-.041000368C.69599917-.043014528 .6879883-.04600525 .68099978-.05000305 .6559906-.06700134 .6519928-.10501099 .67099-.12800598 .6819916-.14201355 .70098879-.14900208 .71899417-.14700318 .72698977-.14500427 .7350006-.14201355 .74198916-.13800049 .7669983-.1210022 .7709961-.08300781 .7519989-.060012819 .7409973-.04600525 .7220001-.039001466 .70399478-.041000368Z"/>
<path id="font_1_1" d="M.1769867 .12298584C.15899658 .11999512 .14099121 .117996219 .12298584 .11199951 .07998657 .09899902 .036987306 .070999149 .0129852299 .03199768 .005996704 .019989014 .0009918213 .0079956059-.0020141602-.005004883-.005004883-.015014648-.006011963-.026000977-.0040130617-.037002565-.0030059815-.04600525-.0010070801-.055007936 .0029907227-.06401062 .024993897-.11000061 .08299255-.1230011 .1289978-.1210022 .13598633-.1210022 .14199829-.120010379 .14898682-.119003299 .1599884-.117004398 .17098999-.11500549 .18199158-.11100769 .23298645-.09701538 .2849884-.06100464 .30699159-.011001587 .31098939-.0010070801 .31399537 .009994507 .31498719 .020996094 .31498719 .027999878 .31498719 .034988405 .31399537 .041992189 .31298829 .04899597 .31098939 .054992677 .30899049 .06098938 .29299928 .101989749 .24798584 .117996219 .20799256 .12199402 .19799805 .12298584 .18699646 .12399292 .1769867 .12298584Z"/>
<path id="font_2_82" d="M.43199159 0V.0309906H.3999939C.30699159 .0309906 .3039856 .042999269 .3039856 .08001709V.63912966C.3039856 .6640167 .30299378 .6660156 .27799989 .6660156 .21598816 .60227969 .12399292 .60227969 .09298706 .60227969V.57128909C.11199951 .57128909 .17298889 .57128909 .22698975 .5972748V.08001709C.22698975 .042999269 .22399903 .0309906 .1309967 .0309906H.09899902V0C.1349945 .0029907227 .22399903 .0029907227 .2649994 .0029907227 .30599977 .0029907227 .3959961 .0029907227 .43199159 0Z"/>
<path id="font_2_107" d="M.46199037 .17704773H.43399049C.43199159 .16404724 .42399598 .10501099 .41099549 .08900452 .40499879 .07998657 .33599855 .07998657 .31599427 .07998657H.13798523L.23699951 .17404175C.40098573 .3161316 .46199037 .36915589 .46199037 .4711914 .46199037 .5860901 .36698915 .6660156 .24398804 .6660156 .1289978 .6660156 .050994874 .575119 .050994874 .4841919 .050994874 .43418885 .09399414 .42919923 .102996829 .42919923 .125 .42919923 .15499878 .44519044 .15499878 .48120118 .15499878 .51119998 .13398743 .5332031 .102996829 .5332031 .09799194 .5332031 .09498596 .5332031 .09098816 .53219607 .114990238 .6030731 .1789856 .63500979 .23298645 .63500979 .33499146 .63500979 .36999513 .5401764 .36999513 .4711914 .36999513 .36915589 .29299928 .28611756 .24499512 .23408509L.06199646 .035995485C.050994874 .024993897 .050994874 .022994996 .050994874 0H.43399049L.46199037 .17704773Z"/>
<path id="font_2_106" d="M.46998597 .17008972C.46998597 .25709535 .40098573 .33110047 .30499269 .35209657 .397995 .38710023 .44198609 .46009828 .44198609 .5290985 .44198609 .60606387 .35699464 .6660156 .25299073 .6660156 .14898682 .6660156 .070999149 .60705569 .070999149 .5310974 .070999149 .49809266 .09298706 .47909547 .12199402 .47909547 .15098572 .47909547 .17199707 .50009158 .17199707 .5290985 .17199707 .5640869 .147995 .57910159 .11399841 .57910159 .13999939 .6210327 .20098877 .64100649 .25 .64100649 .33299256 .64100649 .34899903 .5750885 .34899903 .52809146 .34899903 .49809266 .34298707 .45005799 .31799317 .41201783 .2869873 .36695863 .2519989 .36495973 .22299195 .36296083 .19799805 .36094667 .19599915 .36094667 .18798828 .36094667 .1789856 .35995484 .17098999 .35894776 .17098999 .34794618 .17098999 .33496095 .1789856 .33496095 .19599915 .33496095H.24299622C.32998658 .33496095 .36799623 .2646637 .36799623 .16937256 .36799623 .04145813 .2999878 .0055389406 .24899292 .0055389406 .22999573 .0055389406 .1329956 .010528564 .08799744 .0843811 .12399292 .07939148 .1519928 .10437012 .1519928 .13838196 .1519928 .17137146 .1269989 .19238281 .09799194 .19238281 .07299805 .19238281 .042999269 .17736817 .042999269 .13537598 .042999269 .046447755 .13598633-.022460938 .2519989-.022460938 .3769989-.022460938 .46998597 .06741333 .46998597 .16937256V.17008972Z"/>
<path id="font_2_57" d="M.48399354 .16503906V.19602967H.38198854V.649765C.38198854 .669754 .38198854 .6767578 .36299134 .6767578 .35099793 .6767578 .34999085 .67575076 .34098817 .6617584L.0289917 .19602967V.16503906H.3019867V.07901001C.3019867 .041992189 .29899598 .0309906 .22399903 .0309906H.20199585V0C.2649994 .0029907227 .33499146 .0029907227 .34199525 .0029907227 .34700013 .0029907227 .4189911 .0029907227 .48199464 0V.0309906H.45999146C.3849945 .0309906 .38198854 .041992189 .38198854 .07901001V.16503906H.48399354M.30799867 .19602967H.06098938L.30799867 .56581118V.19602967Z"/>
<path id="font_2_56" d="M.46199037 .19992066C.46199037 .3209076 .37599183 .41992188 .2669983 .41992188 .21899414 .41992188 .16999817 .4039154 .1349945 .36791993V.5647888C.16499329 .55578616 .19599915 .55078127 .22698975 .55078127 .34999085 .55078127 .42199708 .63983157 .42199708 .6529236 .42199708 .6619873 .41600038 .6660156 .41099549 .6660156 .41099549 .6660156 .40699769 .6660156 .397995 .6609802 .35099793 .6418457 .30499269 .63378909 .2630005 .63378909 .21998596 .63378909 .1749878 .6418457 .1289978 .6609802 .11898804 .6660156 .115997318 .6660156 .115997318 .6660156 .10398865 .6660156 .10398865 .6559448 .10398865 .63882449V.34490968C.10398865 .32699586 .10398865 .31599427 .117996219 .31599427 .12599182 .31562806 .1289978 .3196411 .1349945 .32867433 .16499329 .37083436 .21299744 .39491273 .2649994 .39491273 .37199403 .39491273 .37199403 .24035645 .37199403 .20422364 .37199403 .17321778 .37199403 .11122131 .34399415 .06636047 .31698609 .024475098 .2749939 .0055389406 .23599243 .0055389406 .1769867 .0055389406 .10998535 .042419435 .085998538 .11621094 .085998538 .116882327 .09298706 .11488342 .099990848 .11488342 .11999512 .11488342 .14898682 .12788391 .14898682 .1638794 .14898682 .19488526 .1269989 .21289063 .099990848 .21289063 .07899475 .21289063 .050994874 .20088196 .050994874 .16088867 .050994874 .069732669 .1269989-.022460938 .23799134-.022460938 .35899354-.02279663 .46199037 .07521057 .46199037 .19921875V.19992066Z"/>
<path id="font_3_104" d="M.7789917 .4308777 .7569885 .6738281H.06498718L.042999269 .4308777H.09399414C.10398865 .5418396 .11299133 .6248169 .2599945 .6248169H.33898927V.04899597H.18598938V0C.22999573 .0029907227 .3600006 .0029907227 .4119873 .0029907227 .46398927 .0029907227 .59298709 .0029907227 .6369934 0V.04899597H.48399354V.6248169H.5629883C.70999148 .6248169 .71798709 .5398407 .7279968 .4308777H.7789917Z"/>
<path id="font_3_80" d="M.82199099 .33924867C.82199099 .5482483 .68099978 .6982422 .44400025 .6982422 .20599365 .6982422 .06599426 .5472412 .06599426 .33924867 .06599426 .13726807 .20498657-.01171875 .44400025-.01171875 .68299868-.01171875 .82199099 .13626099 .82199099 .33924867M.6649933 .35424806C.6649933 .2652588 .6559906 .20126343 .625 .14027405 .58799746 .0712738 .5169983 .03427124 .44400025 .03427124 .38198854 .03427124 .31098939 .061279298 .2679901 .13226319 .22698975 .2002716 .22299195 .28825379 .22299195 .35424806 .22299195 .44325257 .23199463 .5182495 .2809906 .5822449 .30699159 .6152344 .3639984 .65522769 .44400025 .65522769 .5099945 .65522769 .57299807 .62823489 .6119995 .5752411 .6609955 .5102539 .6649933 .42425538 .6649933 .35424806Z"/>
<path id="font_3_83" d="M.7409973 .48965455C.7409973 .5995636 .6399994 .6855469 .46899415 .6855469H.041992189V.63653567H.1499939V.04899597H.041992189V0C.07699585 .0029907227 .18099976 .0029907227 .22200012 .0029907227 .2630005 .0029907227 .36799623 .0029907227 .40299989 0V.04899597H.29499818V.2987671H.47898866C.621994 .2987671 .7409973 .37174989 .7409973 .48965455M.58399966 .48965455C.58399966 .41970826 .58399966 .34277345 .42999269 .34277345H.2889862V.63653567H.43099977C.58399966 .63653567 .58399966 .56059268 .58399966 .48965455Z"/>
</defs>
<path transform="matrix(1.00006,0,0,-1,-82.005,6)" stroke-width=".3985" stroke-linecap="butt" stroke-miterlimit="10" stroke-linejoin="miter" fill="none" stroke="#000000" d="M83.719-.743H339.111"/>
<path transform="matrix(1.00006,0,0,-1,-82.005,6)" stroke-width=".3985" stroke-linecap="butt" stroke-miterlimit="10" stroke-linejoin="miter" fill="none" stroke="#000000" d="M83.719-5.725H339.111"/>
<path transform="matrix(1.00006,0,0,-1,-82.005,6)" stroke-width=".3985" stroke-linecap="butt" stroke-miterlimit="10" stroke-linejoin="miter" fill="none" stroke="#000000" d="M83.719-10.706H339.111"/>
<path transform="matrix(1.00006,0,0,-1,-82.005,6)" stroke-width=".3985" stroke-linecap="butt" stroke-miterlimit="10" stroke-linejoin="miter" fill="none" stroke="#000000" d="M83.719-15.687H339.111"/>
<path transform="matrix(1.00006,0,0,-1,-82.005,6)" stroke-width=".3985" stroke-linecap="butt" stroke-miterlimit="10" stroke-linejoin="miter" fill="none" stroke="#000000" d="M83.719-20.668H339.111"/>
<path transform="matrix(1.00006,0,0,-1,-82.005,6)" stroke-width=".3985" stroke-linecap="butt" stroke-miterlimit="10" stroke-linejoin="miter" fill="none" stroke="#000000" d="M83.918-20.868V-.544"/>
<use data-text="I" xlink:href="#font_1_2" transform="matrix(19.926495,0,0,-19.9253,1.7190247,11.525)"/>
<path transform="matrix(1.00006,0,0,-1,-82.005,6)" stroke-width=".797" stroke-linecap="butt" stroke-miterlimit="10" stroke-linejoin="miter" fill="none" stroke="#000000" d="M108.127-25.451H117.094"/>
<path transform="matrix(1.00006,0,0,-1,-82.005,6)" stroke-width=".797" stroke-linecap="butt" stroke-miterlimit="10" stroke-linejoin="miter" fill="none" stroke="#000000" d="M108.127-30.432H117.094"/>
<path transform="matrix(1.00006,0,0,-1,-82.005,6)" stroke-width=".3985" stroke-linecap="butt" stroke-miterlimit="10" stroke-linejoin="miter" fill="none" stroke="#000000" d="M115.4-30.432V-10.507"/>
<use data-text="&#x02c7;" xlink:href="#font_1_1" transform="matrix(19.926495,0,0,-19.9253,27.62358,36.432)"/>
<path transform="matrix(1.00006,0,0,-1,-82.005,6)" stroke-width=".797" stroke-linecap="butt" stroke-miterlimit="10" stroke-linejoin="miter" fill="none" stroke="#000000" d="M123.4-25.451H132.366"/>
<path transform="matrix(1.00006,0,0,-1,-82.005,6)" stroke-width=".3985" stroke-linecap="butt" stroke-miterlimit="10" stroke-linejoin="miter" fill="none" stroke="#000000" d="M130.673-27.941V-10.507"/>
<use data-text="&#x02c7;" xlink:href="#font_1_1" transform="matrix(19.926495,0,0,-19.9253,42.896493,33.941)"/>
<path transform="matrix(1.00006,0,0,-1,-82.005,6)" stroke-width=".797" stroke-linecap="butt" stroke-miterlimit="10" stroke-linejoin="miter" fill="none" stroke="#000000" d="M138.673-25.451H147.639"/>
<path transform="matrix(1.00006,0,0,-1,-82.005,6)" stroke-width=".3985" stroke-linecap="butt" stroke-miterlimit="10" stroke-linejoin="miter" fill="none" stroke="#000000" d="M145.945-25.451V-8.041"/>
<use data-text="&#x02c7;" xlink:href="#font_1_1" transform="matrix(19.926495,0,0,-19.9253,58.170419,31.451)"/>
<path transform="matrix(1.00006,0,0,-1,-82.005,6)" stroke-width=".3985" stroke-linecap="butt" stroke-miterlimit="10" stroke-linejoin="miter" fill="none" stroke="#000000" d="M161.218-22.96V-5.55"/>
<use data-text="&#x02c7;" xlink:href="#font_1_1" transform="matrix(19.926495,0,0,-19.9253,73.44433,28.96)"/>
<path transform="matrix(1.00006,0,0,-1,-82.005,6)" stroke-width=".3985" stroke-linecap="butt" stroke-miterlimit="10" stroke-linejoin="miter" fill="none" stroke="#000000" d="M176.491-20.469V-3.06"/>
<use data-text="&#x02c7;" xlink:href="#font_1_1" transform="matrix(19.926495,0,0,-19.9253,88.71725,26.469)"/>
<path transform="matrix(1.00006,0,0,-1,-82.005,6)" stroke-width=".3985" stroke-linecap="butt" stroke-miterlimit="10" stroke-linejoin="miter" fill="none" stroke="#000000" d="M191.763-17.979V-.569"/>
<use data-text="&#x02c7;" xlink:href="#font_1_1" transform="matrix(19.926495,0,0,-19.9253,103.99116,23.979)"/>
<path transform="matrix(1.00006,0,0,-1,-82.005,6)" stroke-width=".3985" stroke-linecap="butt" stroke-miterlimit="10" stroke-linejoin="miter" fill="none" stroke="#000000" d="M207.036-15.488V1.922"/>
<use data-text="&#x02c7;" xlink:href="#font_1_1" transform="matrix(19.926495,0,0,-19.9253,119.26507,21.487999)"/>
<path transform="matrix(1.00006,0,0,-1,-82.005,6)" stroke-width=".3985" stroke-linecap="butt" stroke-miterlimit="10" stroke-linejoin="miter" fill="none" stroke="#000000" d="M222.309-12.997V4.412"/>
<use data-text="&#x02c7;" xlink:href="#font_1_1" transform="matrix(19.926495,0,0,-19.9253,134.539,18.997)"/>
<path transform="matrix(1.00006,0,0,-1,-82.005,6)" stroke-width=".3985" stroke-linecap="butt" stroke-miterlimit="10" stroke-linejoin="miter" fill="none" stroke="#000000" d="M237.582-15.488V1.922"/>
<use data-text="&#x02c7;" xlink:href="#font_1_1" transform="matrix(19.926495,0,0,-19.9253,149.81189,21.487999)"/>
<path transform="matrix(1.00006,0,0,-1,-82.005,6)" stroke-width=".3985" stroke-linecap="butt" stroke-miterlimit="10" stroke-linejoin="miter" fill="none" stroke="#000000" d="M252.854-17.979V-.569"/>
<use data-text="&#x02c7;" xlink:href="#font_1_1" transform="matrix(19.926495,0,0,-19.9253,165.08582,23.979)"/>
<path transform="matrix(1.00006,0,0,-1,-82.005,6)" stroke-width=".3985" stroke-linecap="butt" stroke-miterlimit="10" stroke-linejoin="miter" fill="none" stroke="#000000" d="M268.127-20.469V-3.06"/>
<use data-text="&#x02c7;" xlink:href="#font_1_1" transform="matrix(19.926495,0,0,-19.9253,180.35971,26.469)"/>
<path transform="matrix(1.00006,0,0,-1,-82.005,6)" stroke-width=".3985" stroke-linecap="butt" stroke-miterlimit="10" stroke-linejoin="miter" fill="none" stroke="#000000" d="M283.4-22.96V-5.55"/>
<use data-text="&#x02c7;" xlink:href="#font_1_1" transform="matrix(19.926495,0,0,-19.9253,195.63263,28.96)"/>
<path transform="matrix(1.00006,0,0,-1,-82.005,6)" stroke-width=".797" stroke-linecap="butt" stroke-miterlimit="10" stroke-linejoin="miter" fill="none" stroke="#000000" d="M291.4-25.451H300.366"/>
<path transform="matrix(1.00006,0,0,-1,-82.005,6)" stroke-width=".3985" stroke-linecap="butt" stroke-miterlimit="10" stroke-linejoin="miter" fill="none" stroke="#000000" d="M298.672-25.451V-8.041"/>
<use data-text="&#x02c7;" xlink:href="#font_1_1" transform="matrix(19.926495,0,0,-19.9253,210.90656,31.451)"/>
<path transform="matrix(1.00006,0,0,-1,-82.005,6)" stroke-width=".797" stroke-linecap="butt" stroke-miterlimit="10" stroke-linejoin="miter" fill="none" stroke="#000000" d="M306.672-25.451H315.639"/>
<path transform="matrix(1.00006,0,0,-1,-82.005,6)" stroke-width=".3985" stroke-linecap="butt" stroke-miterlimit="10" stroke-linejoin="miter" fill="none" stroke="#000000" d="M313.945-27.941V-10.507"/>
<use data-text="&#x02c7;" xlink:href="#font_1_1" transform="matrix(19.926495,0,0,-19.9253,226.18045,33.941)"/>
<path transform="matrix(1.00006,0,0,-1,-82.005,6)" stroke-width=".797" stroke-linecap="butt" stroke-miterlimit="10" stroke-linejoin="miter" fill="none" stroke="#000000" d="M321.945-25.451H330.911"/>
<path transform="matrix(1.00006,0,0,-1,-82.005,6)" stroke-width=".797" stroke-linecap="butt" stroke-miterlimit="10" stroke-linejoin="miter" fill="none" stroke="#000000" d="M321.945-30.432H330.911"/>
<path transform="matrix(1.00006,0,0,-1,-82.005,6)" stroke-width=".3985" stroke-linecap="butt" stroke-miterlimit="10" stroke-linejoin="miter" fill="none" stroke="#000000" d="M329.218-30.432V-10.507"/>
<use data-text="&#x02c7;" xlink:href="#font_1_1" transform="matrix(19.926495,0,0,-19.9253,241.4534,36.432)"/>
<path transform="matrix(1.00006,0,0,-1,-82.005,6)" stroke-width=".3985" stroke-linecap="butt" stroke-miterlimit="10" stroke-linejoin="miter" fill="none" stroke="#000000" d="M338.911-20.868V-.544"/>
<path transform="matrix(1.00006,0,0,-1,7.870392,144.028)" stroke-width=".19925" stroke-linecap="butt" stroke-miterlimit="10" stroke-linejoin="miter" fill="none" stroke="#7f807f" d="M15.21613 0V99.62769"/>
<path transform="matrix(1.00006,0,0,-1,7.870392,144.028)" stroke-width=".19925" stroke-linecap="butt" stroke-miterlimit="10" stroke-linejoin="miter" fill="none" stroke="#7f807f" d="M22.8237 0V99.62769"/>
<path transform="matrix(1.00006,0,0,-1,7.870392,144.028)" stroke-width=".19925" stroke-linecap="butt" stroke-miterlimit="10" stroke-linejoin="miter" fill="none" stroke="#7f807f" d="M30.43127 0V99.62769"/>
<path transform="matrix(1.00006,0,0,-1,7.870392,144.028)" stroke-width=".19925" stroke-linecap="butt" stroke-miterlimit="10" stroke-linejoin="miter" fill="none" stroke="#7f807f" d="M38.03883 0V99.62769"/>
<path transform="matrix(1.00006,0,0,-1,7.870392,144.028)" stroke-width=".19925" stroke-linecap="butt" stroke-miterlimit="10" stroke-linejoin="miter" fill="none" stroke="#7f807f" d="M45.64641 0V99.62769"/>
<path transform="matrix(1.00006,0,0,-1,7.870392,144.028)" stroke-width=".19925" stroke-linecap="butt" stroke-miterlimit="10" stroke-linejoin="miter" fill="none" stroke="#7f807f" d="M53.25398 0V99.62769"/>
<path transform="matrix(1.00006,0,0,-1,7.870392,144.028)" stroke-width=".19925" stroke-linecap="butt" stroke-miterlimit="10" stroke-linejoin="miter" fill="none" stroke="#7f807f" d="M60.86156 0V99.62769"/>
<path transform="matrix(1.00006,0,0,-1,7.870392,144.028)" stroke-width=".19925" stroke-linecap="butt" stroke-miterlimit="10" stroke-linejoin="miter" fill="none" stroke="#7f807f" d="M68.46913 0V99.62769"/>
<path transform="matrix(1.00006,0,0,-1,7.870392,144.028)" stroke-width=".19925" stroke-linecap="butt" stroke-miterlimit="10" stroke-linejoin="miter" fill="none" stroke="#7f807f" d="M76.07669 0V99.62769"/>
<path transform="matrix(1.00006,0,0,-1,7.870392,144.028)" stroke-width=".19925" stroke-linecap="butt" stroke-miterlimit="10" stroke-linejoin="miter" fill="none" stroke="#7f807f" d="M83.68427 0V99.62769"/>
<path transform="matrix(1.00006,0,0,-1,7.870392,144.028)" stroke-width=".19925" stroke-linecap="butt" stroke-miterlimit="10" stroke-linejoin="miter" fill="none" stroke="#7f807f" d="M91.29184 0V99.62769"/>
<path transform="matrix(1.00006,0,0,-1,7.870392,144.028)" stroke-width=".19925" stroke-linecap="butt" stroke-miterlimit="10" stroke-linejoin="miter" fill="none" stroke="#7f807f" d="M98.89941 0V99.62769"/>
<path transform="matrix(1.00006,0,0,-1,7.870392,144.028)" stroke-width=".19925" stroke-linecap="butt" stroke-miterlimit="10" stroke-linejoin="miter" fill="none" stroke="#7f807f" d="M106.50699 0V99.62769"/>
<path transform="matrix(1.00006,0,0,-1,7.870392,144.028)" stroke-width=".19925" stroke-linecap="butt" stroke-miterlimit="10" stroke-linejoin="miter" fill="none" stroke="#7f807f" d="M114.11455 0V99.62769"/>
<path transform="matrix(1.00006,0,0,-1,7.870392,144.028)" stroke-width=".19925" stroke-linecap="butt" stroke-miterlimit="10" stroke-linejoin="miter" fill="none" stroke="#7f807f" d="M121.72212 0V99.62769"/>
<path transform="matrix(1.00006,0,0,-1,7.870392,144.028)" stroke-width=".19925" stroke-linecap="butt" stroke-miterlimit="10" stroke-linejoin="miter" fill="none" stroke="#7f807f" d="M129.3297 0V99.62769"/>
<path transform="matrix(1.00006,0,0,-1,7.870392,144.028)" stroke-width=".19925" stroke-linecap="butt" stroke-miterlimit="10" stroke-linejoin="miter" fill="none" stroke="#7f807f" d="M136.93727 0V99.62769"/>
<path transform="matrix(1.00006,0,0,-1,7.870392,144.028)" stroke-width=".19925" stroke-linecap="butt" stroke-miterlimit="10" stroke-linejoin="miter" fill="none" stroke="#7f807f" d="M144.54485 0V99.62769"/>
<path transform="matrix(1.00006,0,0,-1,7.870392,144.028)" stroke-width=".19925" stroke-linecap="butt" stroke-miterlimit="10" stroke-linejoin="miter" fill="none" stroke="#7f807f" d="M152.15242 0V99.62769"/>
<path transform="matrix(1.00006,0,0,-1,7.870392,144.028)" stroke-width=".19925" stroke-linecap="butt" stroke-miterlimit="10" stroke-linejoin="miter" fill="none" stroke="#7f807f" d="M159.75998 0V99.62769"/>
<path transform="matrix(1.00006,0,0,-1,7.870392,144.028)" stroke-width=".19925" stroke-linecap="butt" stroke-miterlimit="10" stroke-linejoin="miter" fill="none" stroke="#7f807f" d="M167.36756 0V99.62769"/>
<path transform="matrix(1.00006,0,0,-1,7.870392,144.028)" stroke-width=".19925" stroke-linecap="butt" stroke-miterlimit="10" stroke-linejoin="miter" fill="none" stroke="#7f807f" d="M174.97513 0V99.62769"/>
<path transform="matrix(1.00006,0,0,-1,7.870392,144.028)" stroke-width=".19925" stroke-linecap="butt" stroke-miterlimit="10" stroke-linejoin="miter" fill="none" stroke="#7f807f" d="M182.5827 0V99.62769"/>
<path transform="matrix(1.00006,0,0,-1,7.870392,144.028)" stroke-width=".19925" stroke-linecap="butt" stroke-miterlimit="10" stroke-linejoin="miter" fill="none" stroke="#7f807f" d="M190.19028 0V99.62769"/>
<path transform="matrix(1.00006,0,0,-1,7.870392,144.028)" stroke-width=".19925" stroke-linecap="butt" stroke-miterlimit="10" stroke-linejoin="miter" fill="none" stroke="#7f807f" d="M197.79784 0V99.62769"/>
<path transform="matrix(1.00006,0,0,-1,7.870392,144.028)" stroke-width=".19925" stroke-linecap="butt" stroke-miterlimit="10" stroke-linejoin="miter" fill="none" stroke="#7f807f" d="M205.40541 0V99.62769"/>
<path transform="matrix(1.00006,0,0,-1,7.870392,144.028)" stroke-width=".19925" stroke-linecap="butt" stroke-miterlimit="10" stroke-linejoin="miter" fill="none" stroke="#7f807f" d="M213.01299 0V99.62769"/>
<path transform="matrix(1.00006,0,0,-1,7.870392,144.028)" stroke-width=".19925" stroke-linecap="butt" stroke-miterlimit="10" stroke-linejoin="miter" fill="none" stroke="#7f807f" d="M220.62056 0V99.62769"/>
<path transform="matrix(1.00006,0,0,-1,7.870392,144.028)" stroke-width=".19925" stroke-linecap="butt" stroke-miterlimit="10" stroke-linejoin="miter" fill="none" stroke="#7f807f" d="M228.22814 0V99.62769"/>
<path transform="matrix(1.00006,0,0,-1,7.870392,144.028)" stroke-width=".19925" stroke-linecap="butt" stroke-miterlimit="10" stroke-linejoin="miter" fill="none" stroke="#7f807f" d="M235.83571 0V99.62769"/>
<path transform="matrix(1.00006,0,0,-1,7.870392,144.028)" stroke-width=".19925" stroke-linecap="butt" stroke-miterlimit="10" stroke-linejoin="miter" fill="none" stroke="#7f807f" d="M243.44327 0V99.62769"/>
<path transform="matrix(1.00006,0,0,-1,7.870392,144.028)" stroke-width=".19925" stroke-linecap="butt" stroke-miterlimit="10" stroke-linejoin="miter" fill="none" stroke="#7f807f" d="M15.21613 0H243.45818"/>
<path transform="matrix(1.00006,0,0,-1,7.870392,144.028)" stroke-width=".19925" stroke-linecap="butt" stroke-miterlimit="10" stroke-linejoin="miter" fill="none" stroke="#7f807f" d="M15.21613 9.96277H243.45818"/>
<path transform="matrix(1.00006,0,0,-1,7.870392,144.028)" stroke-width=".19925" stroke-linecap="butt" stroke-miterlimit="10" stroke-linejoin="miter" fill="none" stroke="#7f807f" d="M15.21613 19.92554H243.45818"/>
<path transform="matrix(1.00006,0,0,-1,7.870392,144.028)" stroke-width=".19925" stroke-linecap="butt" stroke-miterlimit="10" stroke-linejoin="miter" fill="none" stroke="#7f807f" d="M15.21613 29.8883H243.45818"/>
<path transform="matrix(1.00006,0,0,-1,7.870392,144.028)" stroke-width=".19925" stroke-linecap="butt" stroke-miterlimit="10" stroke-linejoin="miter" fill="none" stroke="#7f807f" d="M15.21613 39.85107H243.45818"/>
<path transform="matrix(1.00006,0,0,-1,7.870392,144.028)" stroke-width=".19925" stroke-linecap="butt" stroke-miterlimit="10" stroke-linejoin="miter" fill="none" stroke="#7f807f" d="M15.21613 49.81384H243.45818"/>
<path transform="matrix(1.00006,0,0,-1,7.870392,144.028)" stroke-width=".19925" stroke-linecap="butt" stroke-miterlimit="10" stroke-linejoin="miter" fill="none" stroke="#7f807f" d="M15.21613 59.77661H243.45818"/>
<path transform="matrix(1.00006,0,0,-1,7.870392,144.028)" stroke-width=".19925" stroke-linecap="butt" stroke-miterlimit="10" stroke-linejoin="miter" fill="none" stroke="#7f807f" d="M15.21613 69.73938H243.45818"/>
<path transform="matrix(1.00006,0,0,-1,7.870392,144.028)" stroke-width=".19925" stroke-linecap="butt" stroke-miterlimit="10" stroke-linejoin="miter" fill="none" stroke="#7f807f" d="M15.21613 79.70215H243.45818"/>
<path transform="matrix(1.00006,0,0,-1,7.870392,144.028)" stroke-width=".19925" stroke-linecap="butt" stroke-miterlimit="10" stroke-linejoin="miter" fill="none" stroke="#7f807f" d="M15.21613 89.66492H243.45818"/>
<path transform="matrix(1.00006,0,0,-1,7.870392,144.028)" stroke-width=".19925" stroke-linecap="butt" stroke-miterlimit="10" stroke-linejoin="miter" fill="none" stroke="#7f807f" d="M15.21613 99.62769H243.45818"/>
<path transform="matrix(1.00006,0,0,-1,7.870392,144.028)" stroke-width=".3985" stroke-linecap="butt" stroke-miterlimit="10" stroke-linejoin="miter" fill="none" stroke="#7f807f" d="M15.21613 0V99.62769"/>
<path transform="matrix(1.00006,0,0,-1,7.870392,144.028)" stroke-width=".3985" stroke-linecap="butt" stroke-miterlimit="10" stroke-linejoin="miter" fill="none" stroke="#7f807f" d="M30.43225 0V99.62769"/>
<path transform="matrix(1.00006,0,0,-1,7.870392,144.028)" stroke-width=".3985" stroke-linecap="butt" stroke-miterlimit="10" stroke-linejoin="miter" fill="none" stroke="#7f807f" d="M45.64839 0V99.62769"/>
<path transform="matrix(1.00006,0,0,-1,7.870392,144.028)" stroke-width=".3985" stroke-linecap="butt" stroke-miterlimit="10" stroke-linejoin="miter" fill="none" stroke="#7f807f" d="M60.86452 0V99.62769"/>
<path transform="matrix(1.00006,0,0,-1,7.870392,144.028)" stroke-width=".3985" stroke-linecap="butt" stroke-miterlimit="10" stroke-linejoin="miter" fill="none" stroke="#7f807f" d="M76.08064 0V99.62769"/>
<path transform="matrix(1.00006,0,0,-1,7.870392,144.028)" stroke-width=".3985" stroke-linecap="butt" stroke-miterlimit="10" stroke-linejoin="miter" fill="none" stroke="#7f807f" d="M91.29678 0V99.62769"/>
<path transform="matrix(1.00006,0,0,-1,7.870392,144.028)" stroke-width=".3985" stroke-linecap="butt" stroke-miterlimit="10" stroke-linejoin="miter" fill="none" stroke="#7f807f" d="M106.51291 0V99.62769"/>
<path transform="matrix(1.00006,0,0,-1,7.870392,144.028)" stroke-width=".3985" stroke-linecap="butt" stroke-miterlimit="10" stroke-linejoin="miter" fill="none" stroke="#7f807f" d="M121.72905 0V99.62769"/>
<path transform="matrix(1.00006,0,0,-1,7.870392,144.028)" stroke-width=".3985" stroke-linecap="butt" stroke-miterlimit="10" stroke-linejoin="miter" fill="none" stroke="#7f807f" d="M136.94518 0V99.62769"/>
<path transform="matrix(1.00006,0,0,-1,7.870392,144.028)" stroke-width=".3985" stroke-linecap="butt" stroke-miterlimit="10" stroke-linejoin="miter" fill="none" stroke="#7f807f" d="M152.1613 0V99.62769"/>
<path transform="matrix(1.00006,0,0,-1,7.870392,144.028)" stroke-width=".3985" stroke-linecap="butt" stroke-miterlimit="10" stroke-linejoin="miter" fill="none" stroke="#7f807f" d="M167.37744 0V99.62769"/>
<path transform="matrix(1.00006,0,0,-1,7.870392,144.028)" stroke-width=".3985" stroke-linecap="butt" stroke-miterlimit="10" stroke-linejoin="miter" fill="none" stroke="#7f807f" d="M182.59357 0V99.62769"/>
<path transform="matrix(1.00006,0,0,-1,7.870392,144.028)" stroke-width=".3985" stroke-linecap="butt" stroke-miterlimit="10" stroke-linejoin="miter" fill="none" stroke="#7f807f" d="M197.80971 0V99.62769"/>
<path transform="matrix(1.00006,0,0,-1,7.870392,144.028)" stroke-width=".3985" stroke-linecap="butt" stroke-miterlimit="10" stroke-linejoin="miter" fill="none" stroke="#7f807f" d="M213.02584 0V99.62769"/>
<path transform="matrix(1.00006,0,0,-1,7.870392,144.028)" stroke-width=".3985" stroke-linecap="butt" stroke-miterlimit="10" stroke-linejoin="miter" fill="none" stroke="#7f807f" d="M228.24196 0V99.62769"/>
<path transform="matrix(1.00006,0,0,-1,7.870392,144.028)" stroke-width=".3985" stroke-linecap="butt" stroke-miterlimit="10" stroke-linejoin="miter" fill="none" stroke="#7f807f" d="M243.4581 0V99.62769"/>
<path transform="matrix(1.00006,0,0,-1,7.870392,144.028)" stroke-width=".3985" stroke-linecap="butt" stroke-miterlimit="10" stroke-linejoin="miter" fill="none" stroke="#7f807f" d="M15.21613 0H243.45818"/>
<path transform="matrix(1.00006,0,0,-1,7.870392,144.028)" stroke-width=".3985" stroke-linecap="butt" stroke-miterlimit="10" stroke-linejoin="miter" fill="none" stroke="#7f807f" d="M15.21613 19.92554H243.45818"/>
<path transform="matrix(1.00006,0,0,-1,7.870392,144.028)" stroke-width=".3985" stroke-linecap="butt" stroke-miterlimit="10" stroke-linejoin="miter" fill="none" stroke="#7f807f" d="M15.21613 39.85107H243.45818"/>
<path transform="matrix(1.00006,0,0,-1,7.870392,144.028)" stroke-width=".3985" stroke-linecap="butt" stroke-miterlimit="10" stroke-linejoin="miter" fill="none" stroke="#7f807f" d="M15.21613 59.77661H243.45818"/>
<path transform="matrix(1.00006,0,0,-1,7.870392,144.028)" stroke-width=".3985" stroke-linecap="butt" stroke-miterlimit="10" stroke-linejoin="miter" fill="none" stroke="#7f807f" d="M15.21613 79.70215H243.45818"/>
<path transform="matrix(1.00006,0,0,-1,7.870392,144.028)" stroke-width=".3985" stroke-linecap="butt" stroke-miterlimit="10" stroke-linejoin="miter" fill="none" stroke="#7f807f" d="M15.21613 99.62769H243.45818"/>
<use data-text="1" xlink:href="#font_2_82" transform="matrix(8.966938,0,0,-8.9664,256.48933,137.051)"/>
<use data-text="2" xlink:href="#font_2_107" transform="matrix(8.966938,0,0,-8.9664,256.48933,117.126)"/>
<use data-text="3" xlink:href="#font_2_106" transform="matrix(8.966938,0,0,-8.9664,256.48933,97.101)"/>
<use data-text="4" xlink:href="#font_2_57" transform="matrix(8.966938,0,0,-8.9664,256.48933,77.324)"/>
<use data-text="5" xlink:href="#font_2_56" transform="matrix(8.966938,0,0,-8.9664,256.48933,57.25)"/>
<use data-text="T" xlink:href="#font_3_104" transform="matrix(0,-8.9664,-8.966938,-0,271.9862,105.51299)"/>
<use data-text="O" xlink:href="#font_3_80" transform="matrix(0,-8.9664,-8.966938,-0,271.9862,98.133647)"/>
<use data-text="P" xlink:href="#font_3_83" transform="matrix(0,-8.9664,-8.966938,-0,271.9862,90.16251)"/>
</svg>
