<svg xmlns="http://www.w3.org/2000/svg" xmlns:xlink="http://www.w3.org/1999/xlink" xmlns:inkscape="http://www.inkscape.org/namespaces/inkscape" version="1.1" width="350" height="192" viewBox="0 0 350 192">
<defs>
<clipPath id="clip_1">
<path transform="matrix(1.00003,0,0,-1.00005,30.976548,176.58057)" d="M-.21246-.21246V83.07549H303.169V-.21246ZM303.169 83.07549"/>
</clipPath>
<path id="font_2_42" d="M.70700076 .23370362C.70700076 .24371338 .70700076 .25273133 .69099429 .25273133 .6799927 .25273133 .6769867 .24772644 .6759949 .23771668 .66799929 .08357239 .5439911 .011505127 .43798829 .011505127 .35299684 .011505127 .16299439 .06355286 .16299439 .34179688 .16299439 .6110382 .34298707 .6710968 .43798829 .6710968 .5319977 .6710968 .647995 .6040344 .673996 .43188478 .6749878 .4238739 .6759949 .41687013 .6899872 .41687013 .70700076 .41687013 .70700076 .4238739 .70700076 .4429016V.6781006C.70700076 .6940918 .70700076 .70410159 .69400027 .70410159 .68699648 .70410159 .6859894 .7030945 .6769867 .690094L.6259918 .6160431C.58999636 .65509036 .5239868 .70410159 .42799378 .70410159 .22698975 .70410159 .05899048 .542984 .05899048 .34179688 .05899048 .13961792 .22599793-.021484375 .42900086-.021484375 .5970001-.021484375 .70700076 .11160278 .70700076 .23370362Z"/>
<path id="font_2_49" d="M.69200137 .25993348H.6609955C.6349945 .10997009 .6139984 .032989503 .43399049 .032989503H.2849884C.23899842 .032989503 .23699951 .039993287 .23699951 .07397461V.33691407H.33399964C.43299867 .33691407 .44699098 .30691529 .44699098 .21994019H.47799684V.4868164H.44699098C.44699098 .39988709 .43299867 .36990357 .33399964 .36990357H.23699951V.6057129C.23699951 .63967898 .23899842 .64668276 .2849884 .64668276H.4269867C.59298709 .64668276 .6139984 .5867157 .6319885 .45277406H.6629944L.6339874 .6796875H.04399109V.64668276H.06599426C.14299011 .64668276 .14498902 .63568118 .14498902 .5987091V.080963138C.14498902 .04399109 .14299011 .032989503 .06599426 .032989503H.04399109V0H.647995L.69200137 .25993348Z"/>
<path id="font_3_1" d="M.08999634 .71998599C.08999634 .73799136 .08999634 .75 .07499695 .75 .05899048 .75 .05899048 .7389984 .05899048 .71899417V.008514404C.05899048-.010498047 .05899048-.021484375 .07499695-.021484375 .08799744-.021484375 .15499878 .027542115 .17298889 .04055786 .2579956 .102630618 .35299684 .19572449 .35299684 .31987 .35299684 .3989563 .29100038 .45898438 .20799256 .45898438 .1599884 .45898438 .117996219 .44396974 .08999634 .4199829V.71998599M.08999634 .33888246C.08999634 .36190797 .08999634 .38293458 .125 .4009552 .15699768 .41697694 .19898987 .41697694 .19999695 .41697694 .24299622 .41697694 .2659912 .37191773 .2659912 .32086183 .2659912 .19772339 .17298889 .09361267 .08999634 .024536133V.33888246Z"/>
<path id="font_2_54" d="M.647995 .45303346 .61898806 .6796875H.04399109V.64668276H.06599426C.14299011 .64668276 .14498902 .6356964 .14498902 .59877017V.08102417C.14498902 .044006349 .14299011 .032989503 .06599426 .032989503H.04399109V0L.19799805 .0029907227C.24499512 .0029907227 .31799317 .0029907227 .36299134 0V.032989503H.33099366C.23699951 .032989503 .23699951 .04699707 .23699951 .08203125V.32421876H.32998658C.42799378 .32421876 .43998719 .29318238 .43998719 .2071228H.47099305V.47399903H.43998719C.43998719 .38916017 .42799378 .35720826 .32998658 .35720826H.23699951V.60575869C.23699951 .6396942 .23899842 .64668276 .2849884 .64668276H.41799928C.58099368 .64668276 .59999087 .58380129 .61698916 .45303346H.647995Z"/>
<path id="font_3_2" d="M.2789917-.019897461V-.1278534C.2789917-.14485169 .2789917-.15783692 .29299928-.15783692 .30999757-.15783692 .30999757-.1438446 .30999757-.12686157V-.009902954L.34199525 .000091552738C.35299684 .0040893557 .35299684 .01008606 .35299684 .030075074V.05706787C.35299684 .07406616 .35299684 .08706665 .33898927 .08706665 .33399964 .08706665 .31599427 .080062869 .30999757 .078063968V.42092896L.34199525 .43092347C.35299684 .43492127 .35299684 .44091798 .35299684 .46090699V.48789979C.35299684 .5048981 .35299684 .5178833 .33898927 .5178833 .33399964 .5178833 .31599427 .5108948 .30999757 .5088959V.68481448C.30999757 .7028198 .30999757 .7158203 .29599 .7158203 .2789917 .7158203 .2789917 .7028198 .2789917 .68481448V.49890138L.1329956 .45091249V.62783816C.1329956 .6448364 .1329956 .6578369 .11898804 .6578369 .101989749 .6578369 .101989749 .64382937 .101989749 .6268463V.44091798C.09799194 .4399109 .07499695 .43191529 .069992069 .43092347 .05899048 .42591859 .05899048 .42092896 .05899048 .39993287V.37394715C.05899048 .35694886 .05899048 .34396363 .07299805 .34396363 .07798767 .34396363 .09599304 .35095216 .101989749 .35295106V.01008606C.09799194 .009094238 .07499695 .0010986328 .069992069 .000091552738 .05899048-.0048980715 .05899048-.009902954 .05899048-.030899048V-.056884767C.05899048-.07388306 .05899048-.086868289 .07299805-.086868289 .07798767-.086868289 .09599304-.07987976 .101989749-.07788086V-.18482971C.101989749-.20283509 .101989749-.21582031 .115997318-.21582031 .1329956-.21582031 .1329956-.20283509 .1329956-.18482971V-.067871097L.2789917-.019897461M.2789917 .41093446V.06806946L.1329956 .020080567V.36294557L.2789917 .41093446Z"/>
<path id="font_2_27" d="M.7589874 0V.032989503H.74198916C.67900088 .032989503 .6689911 .04197693 .6569977 .07392883L.4229889 .69184878C.41799928 .7048645 .4149933 .7138672 .397995 .7138672 .37998963 .7138672 .3769989 .7058563 .37199403 .69184878L.14898682 .102890018C.13899231 .075927738 .117996219 .032989503 .035995485 .032989503V0C.067993167 .0029907227 .12098694 .0029907227 .13899231 .0029907227 .17098999 .0029907227 .20098877 .0029907227 .25 0V.032989503C.20599365 .033996583 .17999268 .053955079 .17999268 .08291626 .17999268 .089904788 .17999268 .09190369 .18499756 .103897098L.23199463 .22871399H.5039978L.55999758 .08091736C.5649872 .06893921 .5649872 .062942508 .5649872 .062942508 .5649872 .032989503 .5130005 .032989503 .4850006 .032989503V0L.6269989 .0029907227C.68299868 .0029907227 .70098879 .0029907227 .7589874 0M.4909973 .26171876H.24398804L.36799623 .5888214 .4909973 .26171876Z"/>
<path id="font_2_58" d="M.7819977 .24238587V.27539063C.73098757 .27238465 .7029877 .27238465 .6459961 .27238465 .6029968 .27238465 .5219879 .27238465 .48298646 .27539063V.24238587H.5179901C.61299136 .24272156 .6159973 .23069763 .6159973 .19366455V.12960816C.6159973 .10958862 .6159973 .06855774 .5629883 .039535524 .5130005 .011505127 .45700074 .011505127 .44499208 .011505127 .34298707 .011505127 .16299439 .07356262 .16299439 .34179688 .16299439 .61305239 .34599305 .6710968 .43798829 .6710968 .5379944 .6710968 .6499939 .5980377 .6749878 .43289186 .6759949 .42288209 .6769867 .41687013 .69099429 .41687013 .70799258 .41687013 .70799258 .4238739 .70799258 .4429016V.6781006C.70799258 .6940918 .70799258 .70410159 .69499209 .70410159 .6879883 .70410159 .68699648 .7030945 .6779938 .690094L.6269989 .6160431C.58399966 .6620941 .5179901 .70410159 .42799378 .70410159 .22799683 .70410159 .05899048 .542984 .05899048 .34179688 .05899048 .1426239 .22299195-.021484375 .43099977-.021484375 .5079956-.021484375 .59399417 .0015106201 .6339874 .060546876 .6519928 .03253174 .6859894-.00048828127 .69599917-.00048828127 .70799258 0 .70799258 .010986328 .70799258 .025985718V.19799805C.70799258 .23738098 .71199038 .24238587 .7819977 .24238587Z"/>
<path id="font_2_34" d="M.69200137 .18299866C.69200137 .2639923 .61499026 .34298707 .48999024 .35699464 .598999 .379776 .6619873 .44573976 .6619873 .51368716 .6619873 .6026306 .56199648 .6826172 .42799378 .6826172H.04798889V.6496124H.069992069C.14698792 .6496124 .14898682 .63861086 .14898682 .6016388V.080963138C.14898682 .04399109 .14698792 .032989503 .069992069 .032989503H.04798889V0H.45599366C.59399417-.00018310547 .69200137 .08781433 .69200137 .18281555V.18299866M.5649872 .5137024C.5649872 .445755 .5049896 .3688202 .3909912 .3688202H.23399353V.6086426C.23399353 .64260867 .23599243 .6496124 .28199769 .6496124H.42099C.519989 .6498108 .5649872 .57281497 .5649872 .5138092V.5137024M.59098818 .18389893C.59098818 .10295105 .5239868 .032989503 .42199708 .032989503H.28199769C.23599243 .032989503 .23399353 .039993287 .23399353 .07397461V.3408203H.43699647C.5339966 .34098817 .59098818 .2630005 .59098818 .18399048V.18389893Z"/>
<path id="font_2_46" d="M.7509918 .33480836C.7509918 .52767947 .6049957 .6826172 .42599488 .6826172H.04598999V.6496124H.067993167C.14498902 .6496124 .14698792 .63861086 .14698792 .6016388V.080963138C.14698792 .04399109 .14498902 .032989503 .067993167 .032989503H.04598999V0H.42599488C.60598757 0 .7509918 .1499176 .7509918 .33480836M.6499939 .33580018C.6499939 .28483583 .6499939 .18688965 .58699038 .11294556 .5519867 .07197571 .48799134 .032989503 .39898683 .032989503H.28399659C.23799134 .032608034 .23599243 .039611818 .23599243 .0736084V.60861209C.23599243 .64260867 .23799134 .6496124 .28399659 .6496124H.39898683C.47698976 .6496124 .5419922 .61761477 .58599856 .5676117 .6499939 .49160768 .6499939 .38461305 .6499939 .3356018V.33580018Z"/>
<path id="font_4_104" d="M.7789917 .4308777 .7569885 .6738281H.06498718L.042999269 .4308777H.09399414C.10398865 .5418396 .11299133 .6248169 .2599945 .6248169H.33898927V.04899597H.18598938V0C.22999573 .0029907227 .3600006 .0029907227 .4119873 .0029907227 .46398927 .0029907227 .59298709 .0029907227 .6369934 0V.04899597H.48399354V.6248169H.5629883C.70999148 .6248169 .71798709 .5398407 .7279968 .4308777H.7789917Z"/>
<path id="font_4_80" d="M.82199099 .33924867C.82199099 .5482483 .68099978 .6982422 .44400025 .6982422 .20599365 .6982422 .06599426 .5472412 .06599426 .33924867 .06599426 .13726807 .20498657-.01171875 .44400025-.01171875 .68299868-.01171875 .82199099 .13626099 .82199099 .33924867M.6649933 .35424806C.6649933 .2652588 .6559906 .20126343 .625 .14027405 .58799746 .0712738 .5169983 .03427124 .44400025 .03427124 .38198854 .03427124 .31098939 .061279298 .2679901 .13226319 .22698975 .2002716 .22299195 .28825379 .22299195 .35424806 .22299195 .44325257 .23199463 .5182495 .2809906 .5822449 .30699159 .6152344 .3639984 .65522769 .44400025 .65522769 .5099945 .65522769 .57299807 .62823489 .6119995 .5752411 .6609955 .5102539 .6649933 .42425538 .6649933 .35424806Z"/>
<path id="font_4_83" d="M.7409973 .48965455C.7409973 .5995636 .6399994 .6855469 .46899415 .6855469H.041992189V.63653567H.1499939V.04899597H.041992189V0C.07699585 .0029907227 .18099976 .0029907227 .22200012 .0029907227 .2630005 .0029907227 .36799623 .0029907227 .40299989 0V.04899597H.29499818V.2987671H.47898866C.621994 .2987671 .7409973 .37174989 .7409973 .48965455M.58399966 .48965455C.58399966 .41970826 .58399966 .34277345 .42999269 .34277345H.2889862V.63653567H.43099977C.58399966 .63653567 .58399966 .56059268 .58399966 .48965455Z"/>
<path id="font_5_1" d="M.1659851 .07398987C.1769867 .101989749 .19099427 .12799073 .21099854 .15098572 .24299622 .18598938 .28599549 .20698548 .33299256 .21199036 .3639984 .21499634 .394989 .20799256 .41999818 .18899536 .43299867 .1789856 .44299317 .1659851 .45199586 .15299988 .4889984 .09399414 .49798585 .018997193 .49798585-.04901123 .49798585-.20300293 .43199159-.3570099 .31098939-.45401 .2849884-.4750061 .2559967-.49301148 .22599793-.5070038 .19499207-.5220032 .1619873-.53300479 .12799073-.54000857 .114990238-.5430145 .100997928-.54600527 .08799744-.54600527 .09199524-.54901126 .09700012-.54901126 .100997928-.55000308 .11399841-.55200198 .12799073-.54901126 .14099121-.5470123 .18798828-.5410156 .23298645-.52801516 .2769928-.51200869 .4269867-.4560089 .5569916-.3380127 .6049957-.18301392 .61698916-.14500427 .6230011-.10600281 .625-.06600952 .6289978 .023986817 .59599307 .11898804 .5279999 .17999268 .45498658 .24598694 .34700013 .272995 .25498963 .23098755 .23699951 .22200012 .21998596 .21099854 .20498657 .19898987 .18798828 .18399048 .17199707 .16699219 .1599884 .147995 .1349945 .10998535 .11999512 .066986087 .116989139 .021987915 .115997318 .0069885256 .114990238-.008010864 .11999512-.023010254 .12298584-.035003663 .1289978-.045013429 .13798523-.054000856 .17098999-.088012699 .22898865-.08300781 .25698854-.04600525 .2849884-.009002686 .27198792 .04798889 .23098755 .069992069 .21099854 .08099365 .18699646 .08099365 .1659851 .07398987M.70399478 .14898682C.69599917 .14698792 .6879883 .14399719 .68099978 .13999939 .6559906 .12298584 .6519928 .084991458 .67099 .06199646 .6819916 .04798889 .70098879 .040985109 .71899417 .042999269 .72698977 .04499817 .7350006 .04798889 .74198916 .051986696 .7669983 .068984989 .7709961 .10699463 .7519989 .12998963 .7409973 .14399719 .7220001 .15098572 .70399478 .14898682M.70399478-.041000368C.69599917-.043014528 .6879883-.04600525 .68099978-.05000305 .6559906-.06700134 .6519928-.10501099 .67099-.12800598 .6819916-.14201355 .70098879-.14900208 .71899417-.14700318 .72698977-.14500427 .7350006-.14201355 .74198916-.13800049 .7669983-.1210022 .7709961-.08300781 .7519989-.060012819 .7409973-.04600525 .7220001-.039001466 .70399478-.041000368Z"/>
</defs>
<g clip-path="url(#clip_1)">
<path transform="matrix(1.00003,0,0,-1.00005,30.976548,176.58057)" stroke-width=".3985" stroke-linecap="butt" stroke-miterlimit="10" stroke-linejoin="miter" fill="none" stroke="#7f807f" d="M0 0H302.9565"/>
<path transform="matrix(1.00003,0,0,-1.00005,30.976548,176.58057)" stroke-width=".3985" stroke-linecap="butt" stroke-miterlimit="10" stroke-linejoin="miter" fill="none" stroke="#7f807f" d="M0 27.621H302.9565"/>
<path transform="matrix(1.00003,0,0,-1.00005,30.976548,176.58057)" stroke-width=".3985" stroke-linecap="butt" stroke-miterlimit="10" stroke-linejoin="miter" fill="none" stroke="#7f807f" d="M0 55.242H302.9565"/>
<path transform="matrix(1.00003,0,0,-1.00005,30.976548,176.58057)" stroke-width=".3985" stroke-linecap="butt" stroke-miterlimit="10" stroke-linejoin="miter" fill="none" stroke="#7f807f" d="M0 82.863H302.9565"/>
<path transform="matrix(1.00003,0,0,-1.00005,30.976548,176.58057)" stroke-width=".19925" stroke-linecap="butt" stroke-miterlimit="10" stroke-linejoin="miter" fill="none" stroke="#bfbfbf" d="M302.9565 0V82.863"/>
<path transform="matrix(1.00003,0,0,-1.00005,30.976548,176.58057)" stroke-width=".19925" stroke-linecap="butt" stroke-miterlimit="10" stroke-linejoin="miter" fill="none" stroke="#bfbfbf" d="M287.01145 0V82.863"/>
<path transform="matrix(1.00003,0,0,-1.00005,30.976548,176.58057)" stroke-width=".19925" stroke-linecap="butt" stroke-miterlimit="10" stroke-linejoin="miter" fill="none" stroke="#bfbfbf" d="M271.06636 0V82.863"/>
<path transform="matrix(1.00003,0,0,-1.00005,30.976548,176.58057)" stroke-width=".19925" stroke-linecap="butt" stroke-miterlimit="10" stroke-linejoin="miter" fill="none" stroke="#bfbfbf" d="M255.12128 0V82.863"/>
<path transform="matrix(1.00003,0,0,-1.00005,30.976548,176.58057)" stroke-width=".19925" stroke-linecap="butt" stroke-miterlimit="10" stroke-linejoin="miter" fill="none" stroke="#bfbfbf" d="M239.17618 0V82.863"/>
<path transform="matrix(1.00003,0,0,-1.00005,30.976548,176.58057)" stroke-width=".19925" stroke-linecap="butt" stroke-miterlimit="10" stroke-linejoin="miter" fill="none" stroke="#bfbfbf" d="M223.23111 0V82.863"/>
<path transform="matrix(1.00003,0,0,-1.00005,30.976548,176.58057)" stroke-width=".19925" stroke-linecap="butt" stroke-miterlimit="10" stroke-linejoin="miter" fill="none" stroke="#bfbfbf" d="M207.28604 0V82.863"/>
<path transform="matrix(1.00003,0,0,-1.00005,30.976548,176.58057)" stroke-width=".19925" stroke-linecap="butt" stroke-miterlimit="10" stroke-linejoin="miter" fill="none" stroke="#bfbfbf" d="M191.34096 0V82.863"/>
<path transform="matrix(1.00003,0,0,-1.00005,30.976548,176.58057)" stroke-width=".19925" stroke-linecap="butt" stroke-miterlimit="10" stroke-linejoin="miter" fill="none" stroke="#bfbfbf" d="M175.39586 0V82.863"/>
<path transform="matrix(1.00003,0,0,-1.00005,30.976548,176.58057)" stroke-width=".19925" stroke-linecap="butt" stroke-miterlimit="10" stroke-linejoin="miter" fill="none" stroke="#bfbfbf" d="M159.45079 0V82.863"/>
<path transform="matrix(1.00003,0,0,-1.00005,30.976548,176.58057)" stroke-width=".19925" stroke-linecap="butt" stroke-miterlimit="10" stroke-linejoin="miter" fill="none" stroke="#bfbfbf" d="M143.5057 0V82.863"/>
<path transform="matrix(1.00003,0,0,-1.00005,30.976548,176.58057)" stroke-width=".19925" stroke-linecap="butt" stroke-miterlimit="10" stroke-linejoin="miter" fill="none" stroke="#bfbfbf" d="M127.56062 0V82.863"/>
<path transform="matrix(1.00003,0,0,-1.00005,30.976548,176.58057)" stroke-width=".19925" stroke-linecap="butt" stroke-miterlimit="10" stroke-linejoin="miter" fill="none" stroke="#bfbfbf" d="M111.61555 0V82.863"/>
<path transform="matrix(1.00003,0,0,-1.00005,30.976548,176.58057)" stroke-width=".19925" stroke-linecap="butt" stroke-miterlimit="10" stroke-linejoin="miter" fill="none" stroke="#bfbfbf" d="M95.67047 0V82.863"/>
<path transform="matrix(1.00003,0,0,-1.00005,30.976548,176.58057)" stroke-width=".19925" stroke-linecap="butt" stroke-miterlimit="10" stroke-linejoin="miter" fill="none" stroke="#bfbfbf" d="M79.72539 0V82.863"/>
<path transform="matrix(1.00003,0,0,-1.00005,30.976548,176.58057)" stroke-width=".19925" stroke-linecap="butt" stroke-miterlimit="10" stroke-linejoin="miter" fill="none" stroke="#bfbfbf" d="M63.7803 0V82.863"/>
<path transform="matrix(1.00003,0,0,-1.00005,30.976548,176.58057)" stroke-width=".19925" stroke-linecap="butt" stroke-miterlimit="10" stroke-linejoin="miter" fill="none" stroke="#bfbfbf" d="M47.83522 0V82.863"/>
<path transform="matrix(1.00003,0,0,-1.00005,30.976548,176.58057)" stroke-width=".19925" stroke-linecap="butt" stroke-miterlimit="10" stroke-linejoin="miter" fill="none" stroke="#bfbfbf" d="M31.89014 0V82.863"/>
<path transform="matrix(1.00003,0,0,-1.00005,30.976548,176.58057)" stroke-width=".19925" stroke-linecap="butt" stroke-miterlimit="10" stroke-linejoin="miter" fill="none" stroke="#bfbfbf" d="M15.94505 0V82.863"/>
<path transform="matrix(1.00003,0,0,-1.00005,30.976548,176.58057)" stroke-width=".19925" stroke-linecap="butt" stroke-miterlimit="10" stroke-linejoin="miter" fill="none" stroke="#bfbfbf" d="M0 0V82.863"/>
<path transform="matrix(1.00003,0,0,-1.00005,30.976548,176.58057)" stroke-width=".19925" stroke-linecap="butt" stroke-miterlimit="10" stroke-linejoin="miter" fill="none" stroke="#bfbfbf" d="M0 0 313.28227 542.62228"/>
<path transform="matrix(1.00003,0,0,-1.00005,30.976548,176.58057)" stroke-width=".19925" stroke-linecap="butt" stroke-miterlimit="10" stroke-linejoin="miter" fill="none" stroke="#bfbfbf" d="M31.89014 0 345.17247 542.62228"/>
<path transform="matrix(1.00003,0,0,-1.00005,30.976548,176.58057)" stroke-width=".19925" stroke-linecap="butt" stroke-miterlimit="10" stroke-linejoin="miter" fill="none" stroke="#bfbfbf" d="M63.7803 0 377.0626 542.62228"/>
<path transform="matrix(1.00003,0,0,-1.00005,30.976548,176.58057)" stroke-width=".19925" stroke-linecap="butt" stroke-miterlimit="10" stroke-linejoin="miter" fill="none" stroke="#bfbfbf" d="M95.67047 0 408.95277 542.62228"/>
<path transform="matrix(1.00003,0,0,-1.00005,30.976548,176.58057)" stroke-width=".19925" stroke-linecap="butt" stroke-miterlimit="10" stroke-linejoin="miter" fill="none" stroke="#bfbfbf" d="M127.56062 0 440.84294 542.62228"/>
<path transform="matrix(1.00003,0,0,-1.00005,30.976548,176.58057)" stroke-width=".19925" stroke-linecap="butt" stroke-miterlimit="10" stroke-linejoin="miter" fill="none" stroke="#bfbfbf" d="M159.45079 0 472.7331 542.62228"/>
<path transform="matrix(1.00003,0,0,-1.00005,30.976548,176.58057)" stroke-width=".19925" stroke-linecap="butt" stroke-miterlimit="10" stroke-linejoin="miter" fill="none" stroke="#bfbfbf" d="M191.34096 0 504.62324 542.62228"/>
<path transform="matrix(1.00003,0,0,-1.00005,30.976548,176.58057)" stroke-width=".19925" stroke-linecap="butt" stroke-miterlimit="10" stroke-linejoin="miter" fill="none" stroke="#bfbfbf" d="M223.23111 0 536.5134 542.62228"/>
<path transform="matrix(1.00003,0,0,-1.00005,30.976548,176.58057)" stroke-width=".19925" stroke-linecap="butt" stroke-miterlimit="10" stroke-linejoin="miter" fill="none" stroke="#bfbfbf" d="M255.12128 0 568.40359 542.62228"/>
<path transform="matrix(1.00003,0,0,-1.00005,30.976548,176.58057)" stroke-width=".19925" stroke-linecap="butt" stroke-miterlimit="10" stroke-linejoin="miter" fill="none" stroke="#bfbfbf" d="M287.01145 0 600.2937 542.62228"/>
<path transform="matrix(1.00003,0,0,-1.00005,30.976548,176.58057)" stroke-width=".19925" stroke-linecap="butt" stroke-miterlimit="10" stroke-linejoin="miter" fill="none" stroke="#bfbfbf" d="M318.9016 0 632.1839 542.62228"/>
<path transform="matrix(1.00003,0,0,-1.00005,30.976548,176.58057)" stroke-width=".19925" stroke-linecap="butt" stroke-miterlimit="10" stroke-linejoin="miter" fill="none" stroke="#bfbfbf" d="M0 0 313.28227 542.62228"/>
<path transform="matrix(1.00003,0,0,-1.00005,30.976548,176.58057)" stroke-width=".19925" stroke-linecap="butt" stroke-miterlimit="10" stroke-linejoin="miter" fill="none" stroke="#bfbfbf" d="M0 27.621 313.28227 570.2433"/>
<path transform="matrix(1.00003,0,0,-1.00005,30.976548,176.58057)" stroke-width=".19925" stroke-linecap="butt" stroke-miterlimit="10" stroke-linejoin="miter" fill="none" stroke="#bfbfbf" d="M0 55.242 313.28227 597.86428"/>
<path transform="matrix(1.00003,0,0,-1.00005,30.976548,176.58057)" stroke-width=".19925" stroke-linecap="butt" stroke-miterlimit="10" stroke-linejoin="miter" fill="none" stroke="#bfbfbf" d="M0 82.863 313.28227 625.4853"/>
<path transform="matrix(1.00003,0,0,-1.00005,30.976548,176.58057)" stroke-width=".19925" stroke-linecap="butt" stroke-miterlimit="10" stroke-linejoin="miter" fill="none" stroke="#bfbfbf" d="M0 82.863 313.28227-459.75923"/>
<path transform="matrix(1.00003,0,0,-1.00005,30.976548,176.58057)" stroke-width=".19925" stroke-linecap="butt" stroke-miterlimit="10" stroke-linejoin="miter" fill="none" stroke="#bfbfbf" d="M31.89014 82.863 345.17247-459.75923"/>
<path transform="matrix(1.00003,0,0,-1.00005,30.976548,176.58057)" stroke-width=".19925" stroke-linecap="butt" stroke-miterlimit="10" stroke-linejoin="miter" fill="none" stroke="#bfbfbf" d="M63.7803 82.863 377.0626-459.75923"/>
<path transform="matrix(1.00003,0,0,-1.00005,30.976548,176.58057)" stroke-width=".19925" stroke-linecap="butt" stroke-miterlimit="10" stroke-linejoin="miter" fill="none" stroke="#bfbfbf" d="M95.67047 82.863 408.95277-459.75923"/>
<path transform="matrix(1.00003,0,0,-1.00005,30.976548,176.58057)" stroke-width=".19925" stroke-linecap="butt" stroke-miterlimit="10" stroke-linejoin="miter" fill="none" stroke="#bfbfbf" d="M127.56062 82.863 440.84294-459.75923"/>
<path transform="matrix(1.00003,0,0,-1.00005,30.976548,176.58057)" stroke-width=".19925" stroke-linecap="butt" stroke-miterlimit="10" stroke-linejoin="miter" fill="none" stroke="#bfbfbf" d="M159.45079 82.863 472.7331-459.75923"/>
<path transform="matrix(1.00003,0,0,-1.00005,30.976548,176.58057)" stroke-width=".19925" stroke-linecap="butt" stroke-miterlimit="10" stroke-linejoin="miter" fill="none" stroke="#bfbfbf" d="M191.34096 82.863 504.62324-459.75923"/>
<path transform="matrix(1.00003,0,0,-1.00005,30.976548,176.58057)" stroke-width=".19925" stroke-linecap="butt" stroke-miterlimit="10" stroke-linejoin="miter" fill="none" stroke="#bfbfbf" d="M223.23111 82.863 536.5134-459.75923"/>
<path transform="matrix(1.00003,0,0,-1.00005,30.976548,176.58057)" stroke-width=".19925" stroke-linecap="butt" stroke-miterlimit="10" stroke-linejoin="miter" fill="none" stroke="#bfbfbf" d="M255.12128 82.863 568.40359-459.75923"/>
<path transform="matrix(1.00003,0,0,-1.00005,30.976548,176.58057)" stroke-width=".19925" stroke-linecap="butt" stroke-miterlimit="10" stroke-linejoin="miter" fill="none" stroke="#bfbfbf" d="M287.01145 82.863 600.2937-459.75923"/>
<path transform="matrix(1.00003,0,0,-1.00005,30.976548,176.58057)" stroke-width=".19925" stroke-linecap="butt" stroke-miterlimit="10" stroke-linejoin="miter" fill="none" stroke="#bfbfbf" d="M318.9016 82.863 632.1839-459.75923"/>
<path transform="matrix(1.00003,0,0,-1.00005,30.976548,176.58057)" stroke-width=".19925" stroke-linecap="butt" stroke-miterlimit="10" stroke-linejoin="miter" fill="none" stroke="#bfbfbf" d="M350.79176 82.863 664.07406-459.75923"/>
<path transform="matrix(1.00003,0,0,-1.00005,30.976548,176.58057)" stroke-width=".19925" stroke-linecap="butt" stroke-miterlimit="10" stroke-linejoin="miter" fill="none" stroke="#bfbfbf" d="M0 82.863 313.28227-459.75923"/>
<path transform="matrix(1.00003,0,0,-1.00005,30.976548,176.58057)" stroke-width=".19925" stroke-linecap="butt" stroke-miterlimit="10" stroke-linejoin="miter" fill="none" stroke="#bfbfbf" d="M0 110.48402 313.28227-432.1382"/>
<path transform="matrix(1.00003,0,0,-1.00005,30.976548,176.58057)" stroke-width=".19925" stroke-linecap="butt" stroke-miterlimit="10" stroke-linejoin="miter" fill="none" stroke="#bfbfbf" d="M0 138.10503 313.28227-404.51719"/>
<path transform="matrix(1.00003,0,0,-1.00005,30.976548,176.58057)" stroke-width=".19925" stroke-linecap="butt" stroke-miterlimit="10" stroke-linejoin="miter" fill="none" stroke="#bfbfbf" d="M0 165.72605 313.28227-376.89619"/>
</g>
<path transform="matrix(1.00003,0,0,-1.00005,30.976548,176.58057)" d="M317.15348 0C317.15348 7.84084 310.79737 14.19695 302.9565 14.19695 295.11567 14.19695 288.75959 7.84084 288.75959 0 288.75959-7.84084 295.11567-14.19695 302.9565-14.19695 310.79737-14.19695 317.15348-7.84084 317.15348 0ZM302.9565 0" fill="#bfbfbf"/>
<path transform="matrix(1.00003,0,0,-1.00005,30.976548,176.58057)" stroke-width=".3985" stroke-linecap="butt" stroke-miterlimit="10" stroke-linejoin="miter" fill="none" stroke="#7f807f" d="M317.15348 0C317.15348 7.84084 310.79737 14.19695 302.9565 14.19695 295.11567 14.19695 288.75959 7.84084 288.75959 0 288.75959-7.84084 295.11567-14.19695 302.9565-14.19695 310.79737-14.19695 317.15348-7.84084 317.15348 0ZM302.9565 0"/>
<use data-text="C" xlink:href="#font_2_42" transform="matrix(5.9777548,0,0,-5.9778735,331.6498,178.6224)"/>
<path transform="matrix(1.00003,0,0,-1.00005,30.976548,176.58057)" d="M285.26329 0C285.26329 7.84084 278.9072 14.19695 271.06636 14.19695 263.2255 14.19695 256.8694 7.84084 256.8694 0 256.8694-7.84084 263.2255-14.19695 271.06636-14.19695 278.9072-14.19695 285.26329-7.84084 285.26329 0ZM271.06636 0" fill="#f2f2f2"/>
<path transform="matrix(1.00003,0,0,-1.00005,30.976548,176.58057)" stroke-width=".3985" stroke-linecap="butt" stroke-miterlimit="10" stroke-linejoin="miter" fill="none" stroke="#7f807f" d="M285.26329 0C285.26329 7.84084 278.9072 14.19695 271.06636 14.19695 263.2255 14.19695 256.8694 7.84084 256.8694 0 256.8694-7.84084 263.2255-14.19695 271.06636-14.19695 278.9072-14.19695 285.26329-7.84084 285.26329 0ZM271.06636 0"/>
<use data-text="E" xlink:href="#font_2_49" transform="matrix(5.9777548,0,0,-5.9778735,298.65486,178.82242)"/>
<use data-text="&#x266d;" xlink:href="#font_3_1" transform="matrix(5.9777548,0,0,-5.9778735,302.97724,178.82242)"/>
<path transform="matrix(1.00003,0,0,-1.00005,30.976548,176.58057)" d="M253.37313 0C253.37313 7.84084 247.01703 14.19695 239.17618 14.19695 231.33535 14.19695 224.97924 7.84084 224.97924 0 224.97924-7.84084 231.33535-14.19695 239.17618-14.19695 247.01703-14.19695 253.37313-7.84084 253.37313 0ZM239.17618 0" fill="#f2f2f2"/>
<path transform="matrix(1.00003,0,0,-1.00005,30.976548,176.58057)" stroke-width=".3985" stroke-linecap="butt" stroke-miterlimit="10" stroke-linejoin="miter" fill="none" stroke="#7f807f" d="M253.37313 0C253.37313 7.84084 247.01703 14.19695 239.17618 14.19695 231.33535 14.19695 224.97924 7.84084 224.97924 0 224.97924-7.84084 231.33535-14.19695 239.17618-14.19695 247.01703-14.19695 253.37313-7.84084 253.37313 0ZM239.17618 0"/>
<use data-text="F" xlink:href="#font_2_54" transform="matrix(5.9777548,0,0,-5.9778735,266.85389,178.07538)"/>
<use data-text="&#x266f;" xlink:href="#font_3_2" transform="matrix(5.9777548,0,0,-5.9778735,270.997,178.07538)"/>
<path transform="matrix(1.00003,0,0,-1.00005,30.976548,176.58057)" d="M221.48299 0C221.48299 7.84084 215.12688 14.19695 207.28604 14.19695 199.44519 14.19695 193.0891 7.84084 193.0891 0 193.0891-7.84084 199.44519-14.19695 207.28604-14.19695 215.12688-14.19695 221.48299-7.84084 221.48299 0ZM207.28604 0" fill="#f2f2f2"/>
<path transform="matrix(1.00003,0,0,-1.00005,30.976548,176.58057)" stroke-width=".3985" stroke-linecap="butt" stroke-miterlimit="10" stroke-linejoin="miter" fill="none" stroke="#7f807f" d="M221.48299 0C221.48299 7.84084 215.12688 14.19695 207.28604 14.19695 199.44519 14.19695 193.0891 7.84084 193.0891 0 193.0891-7.84084 199.44519-14.19695 207.28604-14.19695 215.12688-14.19695 221.48299-7.84084 221.48299 0ZM207.28604 0"/>
<use data-text="A" xlink:href="#font_2_27" transform="matrix(5.9777548,0,0,-5.9778735,235.88996,178.71442)"/>
<path transform="matrix(1.00003,0,0,-1.00005,30.976548,176.58057)" d="M189.5928 0C189.5928 7.84084 183.23671 14.19695 175.39586 14.19695 167.55501 14.19695 161.19892 7.84084 161.19892 0 161.19892-7.84084 167.55501-14.19695 175.39586-14.19695 183.23671-14.19695 189.5928-7.84084 189.5928 0ZM175.39586 0" fill="#bfbfbf"/>
<path transform="matrix(1.00003,0,0,-1.00005,30.976548,176.58057)" stroke-width=".3985" stroke-linecap="butt" stroke-miterlimit="10" stroke-linejoin="miter" fill="none" stroke="#7f807f" d="M189.5928 0C189.5928 7.84084 183.23671 14.19695 175.39586 14.19695 167.55501 14.19695 161.19892 7.84084 161.19892 0 161.19892-7.84084 167.55501-14.19695 175.39586-14.19695 183.23671-14.19695 189.5928-7.84084 189.5928 0ZM175.39586 0"/>
<use data-text="C" xlink:href="#font_2_42" transform="matrix(5.9777548,0,0,-5.9778735,204.08499,178.6224)"/>
<path transform="matrix(1.00003,0,0,-1.00005,30.976548,176.58057)" d="M157.70265 0C157.70265 7.84084 151.34656 14.19695 143.5057 14.19695 135.66487 14.19695 129.30876 7.84084 129.30876 0 129.30876-7.84084 135.66487-14.19695 143.5057-14.19695 151.34656-14.19695 157.70265-7.84084 157.70265 0ZM143.5057 0" fill="#f2f2f2"/>
<path transform="matrix(1.00003,0,0,-1.00005,30.976548,176.58057)" stroke-width=".3985" stroke-linecap="butt" stroke-miterlimit="10" stroke-linejoin="miter" fill="none" stroke="#7f807f" d="M157.70265 0C157.70265 7.84084 151.34656 14.19695 143.5057 14.19695 135.66487 14.19695 129.30876 7.84084 129.30876 0 129.30876-7.84084 135.66487-14.19695 143.5057-14.19695 151.34656-14.19695 157.70265-7.84084 157.70265 0ZM143.5057 0"/>
<use data-text="E" xlink:href="#font_2_49" transform="matrix(5.9777548,0,0,-5.9778735,171.091,178.82242)"/>
<use data-text="&#x266d;" xlink:href="#font_3_1" transform="matrix(5.9777548,0,0,-5.9778735,175.41339,178.82242)"/>
<path transform="matrix(1.00003,0,0,-1.00005,30.976548,176.58057)" d="M125.8125 0C125.8125 7.84084 119.45639 14.19695 111.61555 14.19695 103.7747 14.19695 97.41861 7.84084 97.41861 0 97.41861-7.84084 103.7747-14.19695 111.61555-14.19695 119.45639-14.19695 125.8125-7.84084 125.8125 0ZM111.61555 0" fill="#f2f2f2"/>
<path transform="matrix(1.00003,0,0,-1.00005,30.976548,176.58057)" stroke-width=".3985" stroke-linecap="butt" stroke-miterlimit="10" stroke-linejoin="miter" fill="none" stroke="#7f807f" d="M125.8125 0C125.8125 7.84084 119.45639 14.19695 111.61555 14.19695 103.7747 14.19695 97.41861 7.84084 97.41861 0 97.41861-7.84084 103.7747-14.19695 111.61555-14.19695 119.45639-14.19695 125.8125-7.84084 125.8125 0ZM111.61555 0"/>
<use data-text="F" xlink:href="#font_2_54" transform="matrix(5.9777548,0,0,-5.9778735,139.28903,178.07538)"/>
<use data-text="&#x266f;" xlink:href="#font_3_2" transform="matrix(5.9777548,0,0,-5.9778735,143.43216,178.07538)"/>
<path transform="matrix(1.00003,0,0,-1.00005,30.976548,176.58057)" d="M93.92233 0C93.92233 7.84084 87.56622 14.19695 79.72539 14.19695 71.88454 14.19695 65.52844 7.84084 65.52844 0 65.52844-7.84084 71.88454-14.19695 79.72539-14.19695 87.56622-14.19695 93.92233-7.84084 93.92233 0ZM79.72539 0" fill="#f2f2f2"/>
<path transform="matrix(1.00003,0,0,-1.00005,30.976548,176.58057)" stroke-width=".3985" stroke-linecap="butt" stroke-miterlimit="10" stroke-linejoin="miter" fill="none" stroke="#7f807f" d="M93.92233 0C93.92233 7.84084 87.56622 14.19695 79.72539 14.19695 71.88454 14.19695 65.52844 7.84084 65.52844 0 65.52844-7.84084 71.88454-14.19695 79.72539-14.19695 87.56622-14.19695 93.92233-7.84084 93.92233 0ZM79.72539 0"/>
<use data-text="A" xlink:href="#font_2_27" transform="matrix(5.9777548,0,0,-5.9778735,108.32512,178.71442)"/>
<path transform="matrix(1.00003,0,0,-1.00005,30.976548,176.58057)" d="M62.03217 0C62.03217 7.84084 55.67607 14.19695 47.83522 14.19695 39.99437 14.19695 33.63828 7.84084 33.63828 0 33.63828-7.84084 39.99437-14.19695 47.83522-14.19695 55.67607-14.19695 62.03217-7.84084 62.03217 0ZM47.83522 0" fill="#bfbfbf"/>
<path transform="matrix(1.00003,0,0,-1.00005,30.976548,176.58057)" stroke-width=".3985" stroke-linecap="butt" stroke-miterlimit="10" stroke-linejoin="miter" fill="none" stroke="#7f807f" d="M62.03217 0C62.03217 7.84084 55.67607 14.19695 47.83522 14.19695 39.99437 14.19695 33.63828 7.84084 33.63828 0 33.63828-7.84084 39.99437-14.19695 47.83522-14.19695 55.67607-14.19695 62.03217-7.84084 62.03217 0ZM47.83522 0"/>
<use data-text="C" xlink:href="#font_2_42" transform="matrix(5.9777548,0,0,-5.9778735,76.521167,178.6224)"/>
<path transform="matrix(1.00003,0,0,-1.00005,30.976548,176.58057)" d="M301.20838 27.621C301.20838 35.46184 294.8523 41.81795 287.01145 41.81795 279.1706 41.81795 272.81449 35.46184 272.81449 27.621 272.81449 19.78015 279.1706 13.42406 287.01145 13.42406 294.8523 13.42406 301.20838 19.78015 301.20838 27.621ZM287.01145 27.621" fill="#f2f2f2"/>
<path transform="matrix(1.00003,0,0,-1.00005,30.976548,176.58057)" stroke-width=".3985" stroke-linecap="butt" stroke-miterlimit="10" stroke-linejoin="miter" fill="none" stroke="#7f807f" d="M301.20838 27.621C301.20838 35.46184 294.8523 41.81795 287.01145 41.81795 279.1706 41.81795 272.81449 35.46184 272.81449 27.621 272.81449 19.78015 279.1706 13.42406 287.01145 13.42406 294.8523 13.42406 301.20838 19.78015 301.20838 27.621ZM287.01145 27.621"/>
<use data-text="C" xlink:href="#font_2_42" transform="matrix(5.9777548,0,0,-5.9778735,314.4693,150.481)"/>
<use data-text="&#x266f;" xlink:href="#font_3_2" transform="matrix(5.9777548,0,0,-5.9778735,319.0542,150.481)"/>
<path transform="matrix(1.00003,0,0,-1.00005,30.976548,176.58057)" d="M269.3182 27.621C269.3182 35.46184 262.96214 41.81795 255.12128 41.81795 247.28044 41.81795 240.92433 35.46184 240.92433 27.621 240.92433 19.78015 247.28044 13.42406 255.12128 13.42406 262.96214 13.42406 269.3182 19.78015 269.3182 27.621ZM255.12128 27.621" fill="#bfbfbf"/>
<path transform="matrix(1.00003,0,0,-1.00005,30.976548,176.58057)" stroke-width=".3985" stroke-linecap="butt" stroke-miterlimit="10" stroke-linejoin="miter" fill="none" stroke="#7f807f" d="M269.3182 27.621C269.3182 35.46184 262.96214 41.81795 255.12128 41.81795 247.28044 41.81795 240.92433 35.46184 240.92433 27.621 240.92433 19.78015 247.28044 13.42406 255.12128 13.42406 262.96214 13.42406 269.3182 19.78015 269.3182 27.621ZM255.12128 27.621"/>
<use data-text="E" xlink:href="#font_2_49" transform="matrix(5.9777548,0,0,-5.9778735,283.9444,150.99103)"/>
<path transform="matrix(1.00003,0,0,-1.00005,30.976548,176.58057)" d="M237.42806 27.621C237.42806 35.46184 231.07195 41.81795 223.23111 41.81795 215.39026 41.81795 209.03417 35.46184 209.03417 27.621 209.03417 19.78015 215.39026 13.42406 223.23111 13.42406 231.07195 13.42406 237.42806 19.78015 237.42806 27.621ZM223.23111 27.621" fill="#bfbfbf"/>
<path transform="matrix(1.00003,0,0,-1.00005,30.976548,176.58057)" stroke-width=".3985" stroke-linecap="butt" stroke-miterlimit="10" stroke-linejoin="miter" fill="none" stroke="#7f807f" d="M237.42806 27.621C237.42806 35.46184 231.07195 41.81795 223.23111 41.81795 215.39026 41.81795 209.03417 35.46184 209.03417 27.621 209.03417 19.78015 215.39026 13.42406 223.23111 13.42406 231.07195 13.42406 237.42806 19.78015 237.42806 27.621ZM223.23111 27.621"/>
<use data-text="G" xlink:href="#font_2_58" transform="matrix(5.9777548,0,0,-5.9778735,251.72144,151.00003)"/>
<path transform="matrix(1.00003,0,0,-1.00005,30.976548,176.58057)" d="M205.5379 27.621C205.5379 35.46184 199.18181 41.81795 191.34096 41.81795 183.5001 41.81795 177.14402 35.46184 177.14402 27.621 177.14402 19.78015 183.5001 13.42406 191.34096 13.42406 199.18181 13.42406 205.5379 19.78015 205.5379 27.621ZM191.34096 27.621" fill="#f2f2f2"/>
<path transform="matrix(1.00003,0,0,-1.00005,30.976548,176.58057)" stroke-width=".3985" stroke-linecap="butt" stroke-miterlimit="10" stroke-linejoin="miter" fill="none" stroke="#7f807f" d="M205.5379 27.621C205.5379 35.46184 199.18181 41.81795 191.34096 41.81795 183.5001 41.81795 177.14402 35.46184 177.14402 27.621 177.14402 19.78015 183.5001 13.42406 191.34096 13.42406 199.18181 13.42406 205.5379 19.78015 205.5379 27.621ZM191.34096 27.621"/>
<use data-text="B" xlink:href="#font_2_34" transform="matrix(5.9777548,0,0,-5.9778735,218.84046,151.20005)"/>
<use data-text="&#x266d;" xlink:href="#font_3_1" transform="matrix(5.9777548,0,0,-5.9778735,223.33609,151.20005)"/>
<path transform="matrix(1.00003,0,0,-1.00005,30.976548,176.58057)" d="M173.64774 27.621C173.64774 35.46184 167.29164 41.81795 159.45079 41.81795 151.60994 41.81795 145.25385 35.46184 145.25385 27.621 145.25385 19.78015 151.60994 13.42406 159.45079 13.42406 167.29164 13.42406 173.64774 19.78015 173.64774 27.621ZM159.45079 27.621" fill="#f2f2f2"/>
<path transform="matrix(1.00003,0,0,-1.00005,30.976548,176.58057)" stroke-width=".3985" stroke-linecap="butt" stroke-miterlimit="10" stroke-linejoin="miter" fill="none" stroke="#7f807f" d="M173.64774 27.621C173.64774 35.46184 167.29164 41.81795 159.45079 41.81795 151.60994 41.81795 145.25385 35.46184 145.25385 27.621 145.25385 19.78015 151.60994 13.42406 159.45079 13.42406 167.29164 13.42406 173.64774 19.78015 173.64774 27.621ZM159.45079 27.621"/>
<use data-text="C" xlink:href="#font_2_42" transform="matrix(5.9777548,0,0,-5.9778735,186.90448,150.481)"/>
<use data-text="&#x266f;" xlink:href="#font_3_2" transform="matrix(5.9777548,0,0,-5.9778735,191.48938,150.481)"/>
<path transform="matrix(1.00003,0,0,-1.00005,30.976548,176.58057)" d="M141.75757 27.621C141.75757 35.46184 135.40148 41.81795 127.56062 41.81795 119.71979 41.81795 113.36368 35.46184 113.36368 27.621 113.36368 19.78015 119.71979 13.42406 127.56062 13.42406 135.40148 13.42406 141.75757 19.78015 141.75757 27.621ZM127.56062 27.621" fill="#bfbfbf"/>
<path transform="matrix(1.00003,0,0,-1.00005,30.976548,176.58057)" stroke-width=".3985" stroke-linecap="butt" stroke-miterlimit="10" stroke-linejoin="miter" fill="none" stroke="#7f807f" d="M141.75757 27.621C141.75757 35.46184 135.40148 41.81795 127.56062 41.81795 119.71979 41.81795 113.36368 35.46184 113.36368 27.621 113.36368 19.78015 119.71979 13.42406 127.56062 13.42406 135.40148 13.42406 141.75757 19.78015 141.75757 27.621ZM127.56062 27.621"/>
<use data-text="E" xlink:href="#font_2_49" transform="matrix(5.9777548,0,0,-5.9778735,156.38056,150.99103)"/>
<path transform="matrix(1.00003,0,0,-1.00005,30.976548,176.58057)" d="M109.86742 27.621C109.86742 35.46184 103.5113 41.81795 95.67047 41.81795 87.82962 41.81795 81.47353 35.46184 81.47353 27.621 81.47353 19.78015 87.82962 13.42406 95.67047 13.42406 103.5113 13.42406 109.86742 19.78015 109.86742 27.621ZM95.67047 27.621" fill="#bfbfbf"/>
<path transform="matrix(1.00003,0,0,-1.00005,30.976548,176.58057)" stroke-width=".3985" stroke-linecap="butt" stroke-miterlimit="10" stroke-linejoin="miter" fill="none" stroke="#7f807f" d="M109.86742 27.621C109.86742 35.46184 103.5113 41.81795 95.67047 41.81795 87.82962 41.81795 81.47353 35.46184 81.47353 27.621 81.47353 19.78015 87.82962 13.42406 95.67047 13.42406 103.5113 13.42406 109.86742 19.78015 109.86742 27.621ZM95.67047 27.621"/>
<use data-text="G" xlink:href="#font_2_58" transform="matrix(5.9777548,0,0,-5.9778735,124.15759,151.00003)"/>
<path transform="matrix(1.00003,0,0,-1.00005,30.976548,176.58057)" d="M77.97725 27.621C77.97725 35.46184 71.62115 41.81795 63.7803 41.81795 55.93945 41.81795 49.58336 35.46184 49.58336 27.621 49.58336 19.78015 55.93945 13.42406 63.7803 13.42406 71.62115 13.42406 77.97725 19.78015 77.97725 27.621ZM63.7803 27.621" fill="#f2f2f2"/>
<path transform="matrix(1.00003,0,0,-1.00005,30.976548,176.58057)" stroke-width=".3985" stroke-linecap="butt" stroke-miterlimit="10" stroke-linejoin="miter" fill="none" stroke="#7f807f" d="M77.97725 27.621C77.97725 35.46184 71.62115 41.81795 63.7803 41.81795 55.93945 41.81795 49.58336 35.46184 49.58336 27.621 49.58336 19.78015 55.93945 13.42406 63.7803 13.42406 71.62115 13.42406 77.97725 19.78015 77.97725 27.621ZM63.7803 27.621"/>
<use data-text="B" xlink:href="#font_2_34" transform="matrix(5.9777548,0,0,-5.9778735,91.27661,151.20005)"/>
<use data-text="&#x266d;" xlink:href="#font_3_1" transform="matrix(5.9777548,0,0,-5.9778735,95.77225,151.20005)"/>
<path transform="matrix(1.00003,0,0,-1.00005,30.976548,176.58057)" d="M46.08708 27.621C46.08708 35.46184 39.73099 41.81795 31.89014 41.81795 24.0493 41.81795 17.69319 35.46184 17.69319 27.621 17.69319 19.78015 24.0493 13.42406 31.89014 13.42406 39.73099 13.42406 46.08708 19.78015 46.08708 27.621ZM31.89014 27.621" fill="#f2f2f2"/>
<path transform="matrix(1.00003,0,0,-1.00005,30.976548,176.58057)" stroke-width=".3985" stroke-linecap="butt" stroke-miterlimit="10" stroke-linejoin="miter" fill="none" stroke="#7f807f" d="M46.08708 27.621C46.08708 35.46184 39.73099 41.81795 31.89014 41.81795 24.0493 41.81795 17.69319 35.46184 17.69319 27.621 17.69319 19.78015 24.0493 13.42406 31.89014 13.42406 39.73099 13.42406 46.08708 19.78015 46.08708 27.621ZM31.89014 27.621"/>
<use data-text="C" xlink:href="#font_2_42" transform="matrix(5.9777548,0,0,-5.9778735,59.34065,150.481)"/>
<use data-text="&#x266f;" xlink:href="#font_3_2" transform="matrix(5.9777548,0,0,-5.9778735,63.925535,150.481)"/>
<path transform="matrix(1.00003,0,0,-1.00005,30.976548,176.58057)" d="M285.26329 55.242C285.26329 63.08286 278.9072 69.43895 271.06636 69.43895 263.2255 69.43895 256.8694 63.08286 256.8694 55.242 256.8694 47.40115 263.2255 41.04506 271.06636 41.04506 278.9072 41.04506 285.26329 47.40115 285.26329 55.242ZM271.06636 55.242" fill="#f2f2f2"/>
<path transform="matrix(1.00003,0,0,-1.00005,30.976548,176.58057)" stroke-width=".3985" stroke-linecap="butt" stroke-miterlimit="10" stroke-linejoin="miter" fill="none" stroke="#7f807f" d="M285.26329 55.242C285.26329 63.08286 278.9072 69.43895 271.06636 69.43895 263.2255 69.43895 256.8694 63.08286 256.8694 55.242 256.8694 47.40115 263.2255 41.04506 271.06636 41.04506 278.9072 41.04506 285.26329 47.40115 285.26329 55.242ZM271.06636 55.242"/>
<use data-text="D" xlink:href="#font_2_46" transform="matrix(5.9777548,0,0,-5.9778735,299.62684,123.377658)"/>
<path transform="matrix(1.00003,0,0,-1.00005,30.976548,176.58057)" d="M253.37313 55.242C253.37313 63.08286 247.01703 69.43895 239.17618 69.43895 231.33535 69.43895 224.97924 63.08286 224.97924 55.242 224.97924 47.40115 231.33535 41.04506 239.17618 41.04506 247.01703 41.04506 253.37313 47.40115 253.37313 55.242ZM239.17618 55.242" fill="#f2f2f2"/>
<path transform="matrix(1.00003,0,0,-1.00005,30.976548,176.58057)" stroke-width=".3985" stroke-linecap="butt" stroke-miterlimit="10" stroke-linejoin="miter" fill="none" stroke="#7f807f" d="M253.37313 55.242C253.37313 63.08286 247.01703 69.43895 239.17618 69.43895 231.33535 69.43895 224.97924 63.08286 224.97924 55.242 224.97924 47.40115 231.33535 41.04506 239.17618 41.04506 247.01703 41.04506 253.37313 47.40115 253.37313 55.242ZM239.17618 55.242"/>
<use data-text="F" xlink:href="#font_2_54" transform="matrix(5.9777548,0,0,-5.9778735,268.0889,123.36865)"/>
<path transform="matrix(1.00003,0,0,-1.00005,30.976548,176.58057)" d="M221.48299 55.242C221.48299 63.08286 215.12688 69.43895 207.28604 69.43895 199.44519 69.43895 193.0891 63.08286 193.0891 55.242 193.0891 47.40115 199.44519 41.04506 207.28604 41.04506 215.12688 41.04506 221.48299 47.40115 221.48299 55.242ZM207.28604 55.242" fill="#f2f2f2"/>
<path transform="matrix(1.00003,0,0,-1.00005,30.976548,176.58057)" stroke-width=".3985" stroke-linecap="butt" stroke-miterlimit="10" stroke-linejoin="miter" fill="none" stroke="#7f807f" d="M221.48299 55.242C221.48299 63.08286 215.12688 69.43895 207.28604 69.43895 199.44519 69.43895 193.0891 63.08286 193.0891 55.242 193.0891 47.40115 199.44519 41.04506 207.28604 41.04506 215.12688 41.04506 221.48299 47.40115 221.48299 55.242ZM207.28604 55.242"/>
<use data-text="A" xlink:href="#font_2_27" transform="matrix(5.9777548,0,0,-5.9778735,234.6549,123.57766)"/>
<use data-text="&#x266d;" xlink:href="#font_3_1" transform="matrix(5.9777548,0,0,-5.9778735,239.41306,123.57766)"/>
<path transform="matrix(1.00003,0,0,-1.00005,30.976548,176.58057)" d="M189.5928 55.242C189.5928 63.08286 183.23671 69.43895 175.39586 69.43895 167.55501 69.43895 161.19892 63.08286 161.19892 55.242 161.19892 47.40115 167.55501 41.04506 175.39586 41.04506 183.23671 41.04506 189.5928 47.40115 189.5928 55.242ZM175.39586 55.242" fill="#f2f2f2"/>
<path transform="matrix(1.00003,0,0,-1.00005,30.976548,176.58057)" stroke-width=".3985" stroke-linecap="butt" stroke-miterlimit="10" stroke-linejoin="miter" fill="none" stroke="#7f807f" d="M189.5928 55.242C189.5928 63.08286 183.23671 69.43895 175.39586 69.43895 167.55501 69.43895 161.19892 63.08286 161.19892 55.242 161.19892 47.40115 167.55501 41.04506 175.39586 41.04506 183.23671 41.04506 189.5928 47.40115 189.5928 55.242ZM175.39586 55.242"/>
<use data-text="B" xlink:href="#font_2_34" transform="matrix(5.9777548,0,0,-5.9778735,204.13,123.377658)"/>
<path transform="matrix(1.00003,0,0,-1.00005,30.976548,176.58057)" d="M157.70265 55.242C157.70265 63.08286 151.34656 69.43895 143.5057 69.43895 135.66487 69.43895 129.30876 63.08286 129.30876 55.242 129.30876 47.40115 135.66487 41.04506 143.5057 41.04506 151.34656 41.04506 157.70265 47.40115 157.70265 55.242ZM143.5057 55.242" fill="#f2f2f2"/>
<path transform="matrix(1.00003,0,0,-1.00005,30.976548,176.58057)" stroke-width=".3985" stroke-linecap="butt" stroke-miterlimit="10" stroke-linejoin="miter" fill="none" stroke="#7f807f" d="M157.70265 55.242C157.70265 63.08286 151.34656 69.43895 143.5057 69.43895 135.66487 69.43895 129.30876 63.08286 129.30876 55.242 129.30876 47.40115 135.66487 41.04506 143.5057 41.04506 151.34656 41.04506 157.70265 47.40115 157.70265 55.242ZM143.5057 55.242"/>
<use data-text="D" xlink:href="#font_2_46" transform="matrix(5.9777548,0,0,-5.9778735,172.06305,123.377658)"/>
<path transform="matrix(1.00003,0,0,-1.00005,30.976548,176.58057)" d="M125.8125 55.242C125.8125 63.08286 119.45639 69.43895 111.61555 69.43895 103.7747 69.43895 97.41861 63.08286 97.41861 55.242 97.41861 47.40115 103.7747 41.04506 111.61555 41.04506 119.45639 41.04506 125.8125 47.40115 125.8125 55.242ZM111.61555 55.242" fill="#f2f2f2"/>
<path transform="matrix(1.00003,0,0,-1.00005,30.976548,176.58057)" stroke-width=".3985" stroke-linecap="butt" stroke-miterlimit="10" stroke-linejoin="miter" fill="none" stroke="#7f807f" d="M125.8125 55.242C125.8125 63.08286 119.45639 69.43895 111.61555 69.43895 103.7747 69.43895 97.41861 63.08286 97.41861 55.242 97.41861 47.40115 103.7747 41.04506 111.61555 41.04506 119.45639 41.04506 125.8125 47.40115 125.8125 55.242ZM111.61555 55.242"/>
<use data-text="F" xlink:href="#font_2_54" transform="matrix(5.9777548,0,0,-5.9778735,140.52408,123.36865)"/>
<path transform="matrix(1.00003,0,0,-1.00005,30.976548,176.58057)" d="M93.92233 55.242C93.92233 63.08286 87.56622 69.43895 79.72539 69.43895 71.88454 69.43895 65.52844 63.08286 65.52844 55.242 65.52844 47.40115 71.88454 41.04506 79.72539 41.04506 87.56622 41.04506 93.92233 47.40115 93.92233 55.242ZM79.72539 55.242" fill="#f2f2f2"/>
<path transform="matrix(1.00003,0,0,-1.00005,30.976548,176.58057)" stroke-width=".3985" stroke-linecap="butt" stroke-miterlimit="10" stroke-linejoin="miter" fill="none" stroke="#7f807f" d="M93.92233 55.242C93.92233 63.08286 87.56622 69.43895 79.72539 69.43895 71.88454 69.43895 65.52844 63.08286 65.52844 55.242 65.52844 47.40115 71.88454 41.04506 79.72539 41.04506 87.56622 41.04506 93.92233 47.40115 93.92233 55.242ZM79.72539 55.242"/>
<use data-text="A" xlink:href="#font_2_27" transform="matrix(5.9777548,0,0,-5.9778735,107.09009,123.57766)"/>
<use data-text="&#x266d;" xlink:href="#font_3_1" transform="matrix(5.9777548,0,0,-5.9778735,111.84823,123.57766)"/>
<path transform="matrix(1.00003,0,0,-1.00005,30.976548,176.58057)" d="M62.03217 55.242C62.03217 63.08286 55.67607 69.43895 47.83522 69.43895 39.99437 69.43895 33.63828 63.08286 33.63828 55.242 33.63828 47.40115 39.99437 41.04506 47.83522 41.04506 55.67607 41.04506 62.03217 47.40115 62.03217 55.242ZM47.83522 55.242" fill="#f2f2f2"/>
<path transform="matrix(1.00003,0,0,-1.00005,30.976548,176.58057)" stroke-width=".3985" stroke-linecap="butt" stroke-miterlimit="10" stroke-linejoin="miter" fill="none" stroke="#7f807f" d="M62.03217 55.242C62.03217 63.08286 55.67607 69.43895 47.83522 69.43895 39.99437 69.43895 33.63828 63.08286 33.63828 55.242 33.63828 47.40115 39.99437 41.04506 47.83522 41.04506 55.67607 41.04506 62.03217 47.40115 62.03217 55.242ZM47.83522 55.242"/>
<use data-text="B" xlink:href="#font_2_34" transform="matrix(5.9777548,0,0,-5.9778735,76.56517,123.377658)"/>
<path transform="matrix(1.00003,0,0,-1.00005,30.976548,176.58057)" d="M30.142 55.242C30.142 63.08286 23.7859 69.43895 15.94505 69.43895 8.10422 69.43895 1.74811 63.08286 1.74811 55.242 1.74811 47.40115 8.10422 41.04506 15.94505 41.04506 23.7859 41.04506 30.142 47.40115 30.142 55.242ZM15.94505 55.242" fill="#f2f2f2"/>
<path transform="matrix(1.00003,0,0,-1.00005,30.976548,176.58057)" stroke-width=".3985" stroke-linecap="butt" stroke-miterlimit="10" stroke-linejoin="miter" fill="none" stroke="#7f807f" d="M30.142 55.242C30.142 63.08286 23.7859 69.43895 15.94505 69.43895 8.10422 69.43895 1.74811 63.08286 1.74811 55.242 1.74811 47.40115 8.10422 41.04506 15.94505 41.04506 23.7859 41.04506 30.142 47.40115 30.142 55.242ZM15.94505 55.242"/>
<use data-text="D" xlink:href="#font_2_46" transform="matrix(5.9777548,0,0,-5.9778735,44.498205,123.377658)"/>
<path transform="matrix(1.00003,0,0,-1.00005,30.976548,176.58057)" d="M269.3182 82.863C269.3182 90.70386 262.96214 97.05995 255.12128 97.05995 247.28044 97.05995 240.92433 90.70386 240.92433 82.863 240.92433 75.02217 247.28044 68.66606 255.12128 68.66606 262.96214 68.66606 269.3182 75.02217 269.3182 82.863ZM255.12128 82.863" fill="#f2f2f2"/>
<path transform="matrix(1.00003,0,0,-1.00005,30.976548,176.58057)" stroke-width=".3985" stroke-linecap="butt" stroke-miterlimit="10" stroke-linejoin="miter" fill="none" stroke="#7f807f" d="M269.3182 82.863C269.3182 90.70386 262.96214 97.05995 255.12128 97.05995 247.28044 97.05995 240.92433 90.70386 240.92433 82.863 240.92433 75.02217 247.28044 68.66606 255.12128 68.66606 262.96214 68.66606 269.3182 75.02217 269.3182 82.863ZM255.12128 82.863"/>
<use data-text="E" xlink:href="#font_2_49" transform="matrix(5.9777548,0,0,-5.9778735,282.70936,95.95528)"/>
<use data-text="&#x266d;" xlink:href="#font_3_1" transform="matrix(5.9777548,0,0,-5.9778735,287.03175,95.95528)"/>
<path transform="matrix(1.00003,0,0,-1.00005,30.976548,176.58057)" d="M237.42806 82.863C237.42806 90.70386 231.07195 97.05995 223.23111 97.05995 215.39026 97.05995 209.03417 90.70386 209.03417 82.863 209.03417 75.02217 215.39026 68.66606 223.23111 68.66606 231.07195 68.66606 237.42806 75.02217 237.42806 82.863ZM223.23111 82.863" fill="#f2f2f2"/>
<path transform="matrix(1.00003,0,0,-1.00005,30.976548,176.58057)" stroke-width=".3985" stroke-linecap="butt" stroke-miterlimit="10" stroke-linejoin="miter" fill="none" stroke="#7f807f" d="M237.42806 82.863C237.42806 90.70386 231.07195 97.05995 223.23111 97.05995 215.39026 97.05995 209.03417 90.70386 209.03417 82.863 209.03417 75.02217 215.39026 68.66606 223.23111 68.66606 231.07195 68.66606 237.42806 75.02217 237.42806 82.863ZM223.23111 82.863"/>
<use data-text="F" xlink:href="#font_2_54" transform="matrix(5.9777548,0,0,-5.9778735,250.90842,95.208248)"/>
<use data-text="&#x266f;" xlink:href="#font_3_2" transform="matrix(5.9777548,0,0,-5.9778735,255.05153,95.208248)"/>
<path transform="matrix(1.00003,0,0,-1.00005,30.976548,176.58057)" d="M205.5379 82.863C205.5379 90.70386 199.18181 97.05995 191.34096 97.05995 183.5001 97.05995 177.14402 90.70386 177.14402 82.863 177.14402 75.02217 183.5001 68.66606 191.34096 68.66606 199.18181 68.66606 205.5379 75.02217 205.5379 82.863ZM191.34096 82.863" fill="#f2f2f2"/>
<path transform="matrix(1.00003,0,0,-1.00005,30.976548,176.58057)" stroke-width=".3985" stroke-linecap="butt" stroke-miterlimit="10" stroke-linejoin="miter" fill="none" stroke="#7f807f" d="M205.5379 82.863C205.5379 90.70386 199.18181 97.05995 191.34096 97.05995 183.5001 97.05995 177.14402 90.70386 177.14402 82.863 177.14402 75.02217 183.5001 68.66606 191.34096 68.66606 199.18181 68.66606 205.5379 75.02217 205.5379 82.863ZM191.34096 82.863"/>
<use data-text="A" xlink:href="#font_2_27" transform="matrix(5.9777548,0,0,-5.9778735,219.94446,95.847278)"/>
<path transform="matrix(1.00003,0,0,-1.00005,30.976548,176.58057)" d="M173.64774 82.863C173.64774 90.70386 167.29164 97.05995 159.45079 97.05995 151.60994 97.05995 145.25385 90.70386 145.25385 82.863 145.25385 75.02217 151.60994 68.66606 159.45079 68.66606 167.29164 68.66606 173.64774 75.02217 173.64774 82.863ZM159.45079 82.863" fill="#bfbfbf"/>
<path transform="matrix(1.00003,0,0,-1.00005,30.976548,176.58057)" stroke-width=".3985" stroke-linecap="butt" stroke-miterlimit="10" stroke-linejoin="miter" fill="none" stroke="#7f807f" d="M173.64774 82.863C173.64774 90.70386 167.29164 97.05995 159.45079 97.05995 151.60994 97.05995 145.25385 90.70386 145.25385 82.863 145.25385 75.02217 151.60994 68.66606 159.45079 68.66606 167.29164 68.66606 173.64774 75.02217 173.64774 82.863ZM159.45079 82.863"/>
<use data-text="C" xlink:href="#font_2_42" transform="matrix(5.9777548,0,0,-5.9778735,188.1395,95.75527)"/>
<path transform="matrix(1.00003,0,0,-1.00005,30.976548,176.58057)" d="M141.75757 82.863C141.75757 90.70386 135.40148 97.05995 127.56062 97.05995 119.71979 97.05995 113.36368 90.70386 113.36368 82.863 113.36368 75.02217 119.71979 68.66606 127.56062 68.66606 135.40148 68.66606 141.75757 75.02217 141.75757 82.863ZM127.56062 82.863" fill="#f2f2f2"/>
<path transform="matrix(1.00003,0,0,-1.00005,30.976548,176.58057)" stroke-width=".3985" stroke-linecap="butt" stroke-miterlimit="10" stroke-linejoin="miter" fill="none" stroke="#7f807f" d="M141.75757 82.863C141.75757 90.70386 135.40148 97.05995 127.56062 97.05995 119.71979 97.05995 113.36368 90.70386 113.36368 82.863 113.36368 75.02217 119.71979 68.66606 127.56062 68.66606 135.40148 68.66606 141.75757 75.02217 141.75757 82.863ZM127.56062 82.863"/>
<use data-text="E" xlink:href="#font_2_49" transform="matrix(5.9777548,0,0,-5.9778735,155.14554,95.95528)"/>
<use data-text="&#x266d;" xlink:href="#font_3_1" transform="matrix(5.9777548,0,0,-5.9778735,159.46791,95.95528)"/>
<path transform="matrix(1.00003,0,0,-1.00005,30.976548,176.58057)" d="M109.86742 82.863C109.86742 90.70386 103.5113 97.05995 95.67047 97.05995 87.82962 97.05995 81.47353 90.70386 81.47353 82.863 81.47353 75.02217 87.82962 68.66606 95.67047 68.66606 103.5113 68.66606 109.86742 75.02217 109.86742 82.863ZM95.67047 82.863" fill="#f2f2f2"/>
<path transform="matrix(1.00003,0,0,-1.00005,30.976548,176.58057)" stroke-width=".3985" stroke-linecap="butt" stroke-miterlimit="10" stroke-linejoin="miter" fill="none" stroke="#7f807f" d="M109.86742 82.863C109.86742 90.70386 103.5113 97.05995 95.67047 97.05995 87.82962 97.05995 81.47353 90.70386 81.47353 82.863 81.47353 75.02217 87.82962 68.66606 95.67047 68.66606 103.5113 68.66606 109.86742 75.02217 109.86742 82.863ZM95.67047 82.863"/>
<use data-text="F" xlink:href="#font_2_54" transform="matrix(5.9777548,0,0,-5.9778735,123.343578,95.208248)"/>
<use data-text="&#x266f;" xlink:href="#font_3_2" transform="matrix(5.9777548,0,0,-5.9778735,127.486698,95.208248)"/>
<path transform="matrix(1.00003,0,0,-1.00005,30.976548,176.58057)" d="M77.97725 82.863C77.97725 90.70386 71.62115 97.05995 63.7803 97.05995 55.93945 97.05995 49.58336 90.70386 49.58336 82.863 49.58336 75.02217 55.93945 68.66606 63.7803 68.66606 71.62115 68.66606 77.97725 75.02217 77.97725 82.863ZM63.7803 82.863" fill="#f2f2f2"/>
<path transform="matrix(1.00003,0,0,-1.00005,30.976548,176.58057)" stroke-width=".3985" stroke-linecap="butt" stroke-miterlimit="10" stroke-linejoin="miter" fill="none" stroke="#7f807f" d="M77.97725 82.863C77.97725 90.70386 71.62115 97.05995 63.7803 97.05995 55.93945 97.05995 49.58336 90.70386 49.58336 82.863 49.58336 75.02217 55.93945 68.66606 63.7803 68.66606 71.62115 68.66606 77.97725 75.02217 77.97725 82.863ZM63.7803 82.863"/>
<use data-text="A" xlink:href="#font_2_27" transform="matrix(5.9777548,0,0,-5.9778735,92.37964,95.847278)"/>
<path transform="matrix(1.00003,0,0,-1.00005,30.976548,176.58057)" d="M46.08708 82.863C46.08708 90.70386 39.73099 97.05995 31.89014 97.05995 24.0493 97.05995 17.69319 90.70386 17.69319 82.863 17.69319 75.02217 24.0493 68.66606 31.89014 68.66606 39.73099 68.66606 46.08708 75.02217 46.08708 82.863ZM31.89014 82.863" fill="#bfbfbf"/>
<path transform="matrix(1.00003,0,0,-1.00005,30.976548,176.58057)" stroke-width=".3985" stroke-linecap="butt" stroke-miterlimit="10" stroke-linejoin="miter" fill="none" stroke="#7f807f" d="M46.08708 82.863C46.08708 90.70386 39.73099 97.05995 31.89014 97.05995 24.0493 97.05995 17.69319 90.70386 17.69319 82.863 17.69319 75.02217 24.0493 68.66606 31.89014 68.66606 39.73099 68.66606 46.08708 75.02217 46.08708 82.863ZM31.89014 82.863"/>
<use data-text="C" xlink:href="#font_2_42" transform="matrix(5.9777548,0,0,-5.9778735,60.575685,95.75527)"/>
<path transform="matrix(1.00003,0,0,-1.00005,30.976548,176.58057)" d="M14.19695 82.863C14.19695 90.70386 7.84084 97.05995 0 97.05995-7.84084 97.05995-14.19695 90.70386-14.19695 82.863-14.19695 75.02217-7.84084 68.66606 0 68.66606 7.84084 68.66606 14.19695 75.02217 14.19695 82.863ZM0 82.863" fill="#f2f2f2"/>
<path transform="matrix(1.00003,0,0,-1.00005,30.976548,176.58057)" stroke-width=".3985" stroke-linecap="butt" stroke-miterlimit="10" stroke-linejoin="miter" fill="none" stroke="#7f807f" d="M14.19695 82.863C14.19695 90.70386 7.84084 97.05995 0 97.05995-7.84084 97.05995-14.19695 90.70386-14.19695 82.863-14.19695 75.02217-7.84084 68.66606 0 68.66606 7.84084 68.66606 14.19695 75.02217 14.19695 82.863ZM0 82.863"/>
<use data-text="E" xlink:href="#font_2_49" transform="matrix(5.9777548,0,0,-5.9778735,27.580697,95.95528)"/>
<use data-text="&#x266d;" xlink:href="#font_3_1" transform="matrix(5.9777548,0,0,-5.9778735,31.903077,95.95528)"/>
<use data-text="T" xlink:href="#font_4_104" transform="matrix(0,6.725136,6.7250025,0,343.3292,126.673328)"/>
<use data-text="O" xlink:href="#font_4_80" transform="matrix(0,6.725136,6.7250025,0,343.3292,132.20812)"/>
<use data-text="P" xlink:href="#font_4_83" transform="matrix(0,6.725136,6.7250025,0,343.3292,138.18675)"/>
<path transform="matrix(1.00003,0,0,-1.00005,30.976548,176.58057)" stroke-width=".3985" stroke-linecap="butt" stroke-miterlimit="10" stroke-linejoin="miter" fill="none" stroke="#000000" d="M-29.764 146.64334H303.8068"/>
<path transform="matrix(1.00003,0,0,-1.00005,30.976548,176.58057)" stroke-width=".3985" stroke-linecap="butt" stroke-miterlimit="10" stroke-linejoin="miter" fill="none" stroke="#000000" d="M-29.764 151.95836H303.8068"/>
<path transform="matrix(1.00003,0,0,-1.00005,30.976548,176.58057)" stroke-width=".3985" stroke-linecap="butt" stroke-miterlimit="10" stroke-linejoin="miter" fill="none" stroke="#000000" d="M-29.764 157.27338H303.8068"/>
<path transform="matrix(1.00003,0,0,-1.00005,30.976548,176.58057)" stroke-width=".3985" stroke-linecap="butt" stroke-miterlimit="10" stroke-linejoin="miter" fill="none" stroke="#000000" d="M-29.764 162.58843H303.8068"/>
<path transform="matrix(1.00003,0,0,-1.00005,30.976548,176.58057)" stroke-width=".3985" stroke-linecap="butt" stroke-miterlimit="10" stroke-linejoin="miter" fill="none" stroke="#000000" d="M-29.764 167.90345H303.8068"/>
<use data-text="I" xlink:href="#font_5_1" transform="matrix(14.944425,0,0,-14.944721,2.2109299,14.1961979)"/>
<path transform="matrix(1.00003,0,0,-1.00005,30.976548,176.58057)" stroke-width=".3985" stroke-linecap="butt" stroke-miterlimit="10" stroke-linejoin="miter" fill="none" stroke="#000000" d="M298.70454 141.32833H307.20848"/>
<path transform="matrix(1.00003,0,0,-1.00005,30.976548,176.58057)" stroke-width=".3985" stroke-linecap="butt" stroke-miterlimit="10" stroke-linejoin="miter" fill="none" stroke="#000000" d="M298.70454 136.01328H307.20848"/>
<path transform="matrix(1.00003,0,0,-1.00005,30.976548,176.58057)" d="M305.9329 136.01328C305.9329 137.06998 304.60035 137.9266 302.9565 137.9266 301.31269 137.9266 299.98014 137.06998 299.98014 136.01328 299.98014 134.95658 301.31269 134.09996 302.9565 134.09996 304.60035 134.09996 305.9329 134.95658 305.9329 136.01328ZM302.9565 136.01328"/>
<path transform="matrix(1.00003,0,0,-1.00005,30.976548,176.58057)" stroke-width=".3985" stroke-linecap="butt" stroke-miterlimit="10" stroke-linejoin="miter" fill="none" stroke="#000000" d="M305.9329 136.01328C305.9329 137.06998 304.60035 137.9266 302.9565 137.9266 301.31269 137.9266 299.98014 137.06998 299.98014 136.01328 299.98014 134.95658 301.31269 134.09996 302.9565 134.09996 304.60035 134.09996 305.9329 134.95658 305.9329 136.01328ZM302.9565 136.01328"/>
<path transform="matrix(1.00003,0,0,-1.00005,30.976548,176.58057)" stroke-width=".3985" stroke-linecap="butt" stroke-miterlimit="10" stroke-linejoin="miter" fill="none" stroke="#000000" d="M305.72044 136.01328V155.14725"/>
<path transform="matrix(1.00003,0,0,-1.00005,30.976548,176.58057)" stroke-width=".3985" stroke-linecap="butt" stroke-miterlimit="10" stroke-linejoin="miter" fill="none" stroke="#000000" d="M250.86931 141.32833H259.37324"/>
<path transform="matrix(1.00003,0,0,-1.00005,30.976548,176.58057)" d="M258.09767 141.32833C258.09767 142.38503 256.7651 143.24164 255.12128 143.24164 253.47747 143.24164 252.1449 142.38503 252.1449 141.32833 252.1449 140.2716 253.47747 139.415 255.12128 139.415 256.7651 139.415 258.09767 140.2716 258.09767 141.32833ZM255.12128 141.32833"/>
<path transform="matrix(1.00003,0,0,-1.00005,30.976548,176.58057)" stroke-width=".3985" stroke-linecap="butt" stroke-miterlimit="10" stroke-linejoin="miter" fill="none" stroke="#000000" d="M258.09767 141.32833C258.09767 142.38503 256.7651 143.24164 255.12128 143.24164 253.47747 143.24164 252.1449 142.38503 252.1449 141.32833 252.1449 140.2716 253.47747 139.415 255.12128 139.415 256.7651 139.415 258.09767 140.2716 258.09767 141.32833ZM255.12128 141.32833"/>
<path transform="matrix(1.00003,0,0,-1.00005,30.976548,176.58057)" stroke-width=".3985" stroke-linecap="butt" stroke-miterlimit="10" stroke-linejoin="miter" fill="none" stroke="#000000" d="M257.8852 141.32833V160.46228"/>
<path transform="matrix(1.00003,0,0,-1.00005,30.976548,176.58057)" d="M226.20749 146.64334C226.20749 147.70005 224.87493 148.55666 223.23111 148.55666 221.58728 148.55666 220.25473 147.70005 220.25473 146.64334 220.25473 145.58664 221.58728 144.73001 223.23111 144.73001 224.87493 144.73001 226.20749 145.58664 226.20749 146.64334ZM223.23111 146.64334"/>
<path transform="matrix(1.00003,0,0,-1.00005,30.976548,176.58057)" stroke-width=".3985" stroke-linecap="butt" stroke-miterlimit="10" stroke-linejoin="miter" fill="none" stroke="#000000" d="M226.20749 146.64334C226.20749 147.70005 224.87493 148.55666 223.23111 148.55666 221.58728 148.55666 220.25473 147.70005 220.25473 146.64334 220.25473 145.58664 221.58728 144.73001 223.23111 144.73001 224.87493 144.73001 226.20749 145.58664 226.20749 146.64334ZM223.23111 146.64334"/>
<path transform="matrix(1.00003,0,0,-1.00005,30.976548,176.58057)" stroke-width=".3985" stroke-linecap="butt" stroke-miterlimit="10" stroke-linejoin="miter" fill="none" stroke="#000000" d="M225.99503 146.64334V165.7773"/>
<path transform="matrix(1.00003,0,0,-1.00005,30.976548,176.58057)" d="M178.37224 154.61588C178.37224 155.67258 177.03968 156.5292 175.39586 156.5292 173.75205 156.5292 172.41948 155.67258 172.41948 154.61588 172.41948 153.55918 173.75205 152.70256 175.39586 152.70256 177.03968 152.70256 178.37224 153.55918 178.37224 154.61588ZM175.39586 154.61588"/>
<path transform="matrix(1.00003,0,0,-1.00005,30.976548,176.58057)" stroke-width=".3985" stroke-linecap="butt" stroke-miterlimit="10" stroke-linejoin="miter" fill="none" stroke="#000000" d="M178.37224 154.61588C178.37224 155.67258 177.03968 156.5292 175.39586 156.5292 173.75205 156.5292 172.41948 155.67258 172.41948 154.61588 172.41948 153.55918 173.75205 152.70256 175.39586 152.70256 177.03968 152.70256 178.37224 153.55918 178.37224 154.61588ZM175.39586 154.61588"/>
<path transform="matrix(1.00003,0,0,-1.00005,30.976548,176.58057)" stroke-width=".3985" stroke-linecap="butt" stroke-miterlimit="10" stroke-linejoin="miter" fill="none" stroke="#000000" d="M178.15979 154.61588V173.74985"/>
<path transform="matrix(1.00003,0,0,-1.00005,30.976548,176.58057)" d="M162.42717 154.61588C162.42717 155.67258 161.09462 156.5292 159.45079 156.5292 157.80698 156.5292 156.47441 155.67258 156.47441 154.61588 156.47441 153.55918 157.80698 152.70256 159.45079 152.70256 161.09462 152.70256 162.42717 153.55918 162.42717 154.61588ZM159.45079 154.61588"/>
<path transform="matrix(1.00003,0,0,-1.00005,30.976548,176.58057)" stroke-width=".3985" stroke-linecap="butt" stroke-miterlimit="10" stroke-linejoin="miter" fill="none" stroke="#000000" d="M162.42717 154.61588C162.42717 155.67258 161.09462 156.5292 159.45079 156.5292 157.80698 156.5292 156.47441 155.67258 156.47441 154.61588 156.47441 153.55918 157.80698 152.70256 159.45079 152.70256 161.09462 152.70256 162.42717 153.55918 162.42717 154.61588ZM159.45079 154.61588"/>
<path transform="matrix(1.00003,0,0,-1.00005,30.976548,176.58057)" stroke-width=".3985" stroke-linecap="butt" stroke-miterlimit="10" stroke-linejoin="miter" fill="none" stroke="#000000" d="M162.21469 154.61588V173.74985"/>
<path transform="matrix(1.00003,0,0,-1.00005,30.976548,176.58057)" d="M130.537 159.93091C130.537 160.98761 129.20446 161.84423 127.56062 161.84423 125.91681 161.84423 124.58424 160.98761 124.58424 159.93091 124.58424 158.87419 125.91681 158.01758 127.56062 158.01758 129.20446 158.01758 130.537 158.87419 130.537 159.93091ZM127.56062 159.93091"/>
<path transform="matrix(1.00003,0,0,-1.00005,30.976548,176.58057)" stroke-width=".3985" stroke-linecap="butt" stroke-miterlimit="10" stroke-linejoin="miter" fill="none" stroke="#000000" d="M130.537 159.93091C130.537 160.98761 129.20446 161.84423 127.56062 161.84423 125.91681 161.84423 124.58424 160.98761 124.58424 159.93091 124.58424 158.87419 125.91681 158.01758 127.56062 158.01758 129.20446 158.01758 130.537 158.87419 130.537 159.93091ZM127.56062 159.93091"/>
<path transform="matrix(1.00003,0,0,-1.00005,30.976548,176.58057)" stroke-width=".3985" stroke-linecap="butt" stroke-miterlimit="10" stroke-linejoin="miter" fill="none" stroke="#000000" d="M124.7967 159.93091V140.79694"/>
<path transform="matrix(1.00003,0,0,-1.00005,30.976548,176.58057)" d="M98.64685 165.24594C98.64685 166.30265 97.31429 167.15926 95.67047 167.15926 94.02664 167.15926 92.69409 166.30265 92.69409 165.24594 92.69409 164.18924 94.02664 163.33261 95.67047 163.33261 97.31429 163.33261 98.64685 164.18924 98.64685 165.24594ZM95.67047 165.24594"/>
<path transform="matrix(1.00003,0,0,-1.00005,30.976548,176.58057)" stroke-width=".3985" stroke-linecap="butt" stroke-miterlimit="10" stroke-linejoin="miter" fill="none" stroke="#000000" d="M98.64685 165.24594C98.64685 166.30265 97.31429 167.15926 95.67047 167.15926 94.02664 167.15926 92.69409 166.30265 92.69409 165.24594 92.69409 164.18924 94.02664 163.33261 95.67047 163.33261 97.31429 163.33261 98.64685 164.18924 98.64685 165.24594ZM95.67047 165.24594"/>
<path transform="matrix(1.00003,0,0,-1.00005,30.976548,176.58057)" stroke-width=".3985" stroke-linecap="butt" stroke-miterlimit="10" stroke-linejoin="miter" fill="none" stroke="#000000" d="M92.90656 165.24594V146.11197"/>
<path transform="matrix(1.00003,0,0,-1.00005,30.976548,176.58057)" stroke-width=".3985" stroke-linecap="butt" stroke-miterlimit="10" stroke-linejoin="miter" fill="none" stroke="#000000" d="M43.58325 173.21846H52.08717"/>
<path transform="matrix(1.00003,0,0,-1.00005,30.976548,176.58057)" d="M50.8116 173.21846C50.8116 174.27516 49.47903 175.13179 47.83522 175.13179 46.1914 175.13179 44.85884 174.27516 44.85884 173.21846 44.85884 172.16176 46.1914 171.30515 47.83522 171.30515 49.47903 171.30515 50.8116 172.16176 50.8116 173.21846ZM47.83522 173.21846"/>
<path transform="matrix(1.00003,0,0,-1.00005,30.976548,176.58057)" stroke-width=".3985" stroke-linecap="butt" stroke-miterlimit="10" stroke-linejoin="miter" fill="none" stroke="#000000" d="M50.8116 173.21846C50.8116 174.27516 49.47903 175.13179 47.83522 175.13179 46.1914 175.13179 44.85884 174.27516 44.85884 173.21846 44.85884 172.16176 46.1914 171.30515 47.83522 171.30515 49.47903 171.30515 50.8116 172.16176 50.8116 173.21846ZM47.83522 173.21846"/>
<path transform="matrix(1.00003,0,0,-1.00005,30.976548,176.58057)" stroke-width=".3985" stroke-linecap="butt" stroke-miterlimit="10" stroke-linejoin="miter" fill="none" stroke="#000000" d="M45.0713 173.21846V154.0845"/>
<path transform="matrix(1.00003,0,0,-1.00005,30.976548,176.58057)" stroke-width=".3985" stroke-linecap="butt" stroke-miterlimit="10" stroke-linejoin="miter" fill="none" stroke="#000000" d="M27.6382 173.21846H36.1421"/>
<path transform="matrix(1.00003,0,0,-1.00005,30.976548,176.58057)" d="M34.86652 173.21846C34.86652 174.27516 33.53397 175.13179 31.89014 175.13179 30.24632 175.13179 28.91376 174.27516 28.91376 173.21846 28.91376 172.16176 30.24632 171.30515 31.89014 171.30515 33.53397 171.30515 34.86652 172.16176 34.86652 173.21846ZM31.89014 173.21846"/>
<path transform="matrix(1.00003,0,0,-1.00005,30.976548,176.58057)" stroke-width=".3985" stroke-linecap="butt" stroke-miterlimit="10" stroke-linejoin="miter" fill="none" stroke="#000000" d="M34.86652 173.21846C34.86652 174.27516 33.53397 175.13179 31.89014 175.13179 30.24632 175.13179 28.91376 174.27516 28.91376 173.21846 28.91376 172.16176 30.24632 171.30515 31.89014 171.30515 33.53397 171.30515 34.86652 172.16176 34.86652 173.21846ZM31.89014 173.21846"/>
<path transform="matrix(1.00003,0,0,-1.00005,30.976548,176.58057)" stroke-width=".3985" stroke-linecap="butt" stroke-miterlimit="10" stroke-linejoin="miter" fill="none" stroke="#000000" d="M29.12622 173.21846V154.0845"/>
<path transform="matrix(1.00003,0,0,-1.00005,30.976548,176.58057)" stroke-width=".19925" stroke-linecap="butt" stroke-miterlimit="10" stroke-linejoin="miter" fill="none" stroke="#d9d9d9" d="M302.9565 82.863V131.76134"/>
<path transform="matrix(1.00003,0,0,-1.00005,30.976548,176.58057)" stroke-width=".19925" stroke-linecap="butt" stroke-miterlimit="10" stroke-linejoin="miter" fill="none" stroke="#d9d9d9" d="M287.01145 82.863V131.76134"/>
<path transform="matrix(1.00003,0,0,-1.00005,30.976548,176.58057)" stroke-width=".19925" stroke-linecap="butt" stroke-miterlimit="10" stroke-linejoin="miter" fill="none" stroke="#d9d9d9" d="M271.06636 82.863V131.76134"/>
<path transform="matrix(1.00003,0,0,-1.00005,30.976548,176.58057)" stroke-width=".19925" stroke-linecap="butt" stroke-miterlimit="10" stroke-linejoin="miter" fill="none" stroke="#d9d9d9" d="M255.12128 82.863V131.76134"/>
<path transform="matrix(1.00003,0,0,-1.00005,30.976548,176.58057)" stroke-width=".19925" stroke-linecap="butt" stroke-miterlimit="10" stroke-linejoin="miter" fill="none" stroke="#d9d9d9" d="M239.17618 82.863V131.76134"/>
<path transform="matrix(1.00003,0,0,-1.00005,30.976548,176.58057)" stroke-width=".19925" stroke-linecap="butt" stroke-miterlimit="10" stroke-linejoin="miter" fill="none" stroke="#d9d9d9" d="M223.23111 82.863V131.76134"/>
<path transform="matrix(1.00003,0,0,-1.00005,30.976548,176.58057)" stroke-width=".19925" stroke-linecap="butt" stroke-miterlimit="10" stroke-linejoin="miter" fill="none" stroke="#d9d9d9" d="M207.28604 82.863V131.76134"/>
<path transform="matrix(1.00003,0,0,-1.00005,30.976548,176.58057)" stroke-width=".19925" stroke-linecap="butt" stroke-miterlimit="10" stroke-linejoin="miter" fill="none" stroke="#d9d9d9" d="M191.34096 82.863V131.76134"/>
<path transform="matrix(1.00003,0,0,-1.00005,30.976548,176.58057)" stroke-width=".19925" stroke-linecap="butt" stroke-miterlimit="10" stroke-linejoin="miter" fill="none" stroke="#d9d9d9" d="M175.39586 82.863V131.76134"/>
<path transform="matrix(1.00003,0,0,-1.00005,30.976548,176.58057)" stroke-width=".19925" stroke-linecap="butt" stroke-miterlimit="10" stroke-linejoin="miter" fill="none" stroke="#d9d9d9" d="M159.45079 82.863V131.76134"/>
<path transform="matrix(1.00003,0,0,-1.00005,30.976548,176.58057)" stroke-width=".19925" stroke-linecap="butt" stroke-miterlimit="10" stroke-linejoin="miter" fill="none" stroke="#d9d9d9" d="M143.5057 82.863V131.76134"/>
<path transform="matrix(1.00003,0,0,-1.00005,30.976548,176.58057)" stroke-width=".19925" stroke-linecap="butt" stroke-miterlimit="10" stroke-linejoin="miter" fill="none" stroke="#d9d9d9" d="M127.56062 82.863V131.76134"/>
<path transform="matrix(1.00003,0,0,-1.00005,30.976548,176.58057)" stroke-width=".19925" stroke-linecap="butt" stroke-miterlimit="10" stroke-linejoin="miter" fill="none" stroke="#d9d9d9" d="M111.61555 82.863V131.76134"/>
<path transform="matrix(1.00003,0,0,-1.00005,30.976548,176.58057)" stroke-width=".19925" stroke-linecap="butt" stroke-miterlimit="10" stroke-linejoin="miter" fill="none" stroke="#d9d9d9" d="M95.67047 82.863V131.76134"/>
<path transform="matrix(1.00003,0,0,-1.00005,30.976548,176.58057)" stroke-width=".19925" stroke-linecap="butt" stroke-miterlimit="10" stroke-linejoin="miter" fill="none" stroke="#d9d9d9" d="M79.72539 82.863V131.76134"/>
<path transform="matrix(1.00003,0,0,-1.00005,30.976548,176.58057)" stroke-width=".19925" stroke-linecap="butt" stroke-miterlimit="10" stroke-linejoin="miter" fill="none" stroke="#d9d9d9" d="M63.7803 82.863V131.76134"/>
<path transform="matrix(1.00003,0,0,-1.00005,30.976548,176.58057)" stroke-width=".19925" stroke-linecap="butt" stroke-miterlimit="10" stroke-linejoin="miter" fill="none" stroke="#d9d9d9" d="M47.83522 82.863V131.76134"/>
<path transform="matrix(1.00003,0,0,-1.00005,30.976548,176.58057)" stroke-width=".19925" stroke-linecap="butt" stroke-miterlimit="10" stroke-linejoin="miter" fill="none" stroke="#d9d9d9" d="M31.89014 82.863V131.76134"/>
<path transform="matrix(1.00003,0,0,-1.00005,30.976548,176.58057)" stroke-width=".19925" stroke-linecap="butt" stroke-miterlimit="10" stroke-linejoin="miter" fill="none" stroke="#d9d9d9" d="M15.94505 82.863V131.76134"/>
<path transform="matrix(1.00003,0,0,-1.00005,30.976548,176.58057)" stroke-width=".19925" stroke-linecap="butt" stroke-miterlimit="10" stroke-linejoin="miter" fill="none" stroke="#d9d9d9" d="M0 82.863V131.76134"/>
</svg>
