<svg xmlns="http://www.w3.org/2000/svg" xmlns:xlink="http://www.w3.org/1999/xlink" xmlns:inkscape="http://www.inkscape.org/namespaces/inkscape" version="1.1" width="342" height="204" viewBox="0 0 342 204">
<defs>
<clipPath id="clip_1">
<path transform="matrix(1.00006,0,0,-1.00005,39.375406,188.25716)" d="M-.21246-.21246V110.69652H287.2239V-.21246ZM287.2239 110.69652"/>
</clipPath>
<path id="font_2_42" d="M.70700076 .23370362C.70700076 .24371338 .70700076 .25273133 .69099429 .25273133 .6799927 .25273133 .6769867 .24772644 .6759949 .23771668 .66799929 .08357239 .5439911 .011505127 .43798829 .011505127 .35299684 .011505127 .16299439 .06355286 .16299439 .34179688 .16299439 .6110382 .34298707 .6710968 .43798829 .6710968 .5319977 .6710968 .647995 .6040344 .673996 .43188478 .6749878 .4238739 .6759949 .41687013 .6899872 .41687013 .70700076 .41687013 .70700076 .4238739 .70700076 .4429016V.6781006C.70700076 .6940918 .70700076 .70410159 .69400027 .70410159 .68699648 .70410159 .6859894 .7030945 .6769867 .690094L.6259918 .6160431C.58999636 .65509036 .5239868 .70410159 .42799378 .70410159 .22698975 .70410159 .05899048 .542984 .05899048 .34179688 .05899048 .13961792 .22599793-.021484375 .42900086-.021484375 .5970001-.021484375 .70700076 .11160278 .70700076 .23370362Z"/>
<path id="font_2_49" d="M.69200137 .25993348H.6609955C.6349945 .10997009 .6139984 .032989503 .43399049 .032989503H.2849884C.23899842 .032989503 .23699951 .039993287 .23699951 .07397461V.33691407H.33399964C.43299867 .33691407 .44699098 .30691529 .44699098 .21994019H.47799684V.4868164H.44699098C.44699098 .39988709 .43299867 .36990357 .33399964 .36990357H.23699951V.6057129C.23699951 .63967898 .23899842 .64668276 .2849884 .64668276H.4269867C.59298709 .64668276 .6139984 .5867157 .6319885 .45277406H.6629944L.6339874 .6796875H.04399109V.64668276H.06599426C.14299011 .64668276 .14498902 .63568118 .14498902 .5987091V.080963138C.14498902 .04399109 .14299011 .032989503 .06599426 .032989503H.04399109V0H.647995L.69200137 .25993348Z"/>
<path id="font_3_1" d="M.08999634 .71998599C.08999634 .73799136 .08999634 .75 .07499695 .75 .05899048 .75 .05899048 .7389984 .05899048 .71899417V.008514404C.05899048-.010498047 .05899048-.021484375 .07499695-.021484375 .08799744-.021484375 .15499878 .027542115 .17298889 .04055786 .2579956 .102630618 .35299684 .19572449 .35299684 .31987 .35299684 .3989563 .29100038 .45898438 .20799256 .45898438 .1599884 .45898438 .117996219 .44396974 .08999634 .4199829V.71998599M.08999634 .33888246C.08999634 .36190797 .08999634 .38293458 .125 .4009552 .15699768 .41697694 .19898987 .41697694 .19999695 .41697694 .24299622 .41697694 .2659912 .37191773 .2659912 .32086183 .2659912 .19772339 .17298889 .09361267 .08999634 .024536133V.33888246Z"/>
<path id="font_2_54" d="M.647995 .45303346 .61898806 .6796875H.04399109V.64668276H.06599426C.14299011 .64668276 .14498902 .6356964 .14498902 .59877017V.08102417C.14498902 .044006349 .14299011 .032989503 .06599426 .032989503H.04399109V0L.19799805 .0029907227C.24499512 .0029907227 .31799317 .0029907227 .36299134 0V.032989503H.33099366C.23699951 .032989503 .23699951 .04699707 .23699951 .08203125V.32421876H.32998658C.42799378 .32421876 .43998719 .29318238 .43998719 .2071228H.47099305V.47399903H.43998719C.43998719 .38916017 .42799378 .35720826 .32998658 .35720826H.23699951V.60575869C.23699951 .6396942 .23899842 .64668276 .2849884 .64668276H.41799928C.58099368 .64668276 .59999087 .58380129 .61698916 .45303346H.647995Z"/>
<path id="font_3_2" d="M.2789917-.019897461V-.1278534C.2789917-.14485169 .2789917-.15783692 .29299928-.15783692 .30999757-.15783692 .30999757-.1438446 .30999757-.12686157V-.009902954L.34199525 .000091552738C.35299684 .0040893557 .35299684 .01008606 .35299684 .030075074V.05706787C.35299684 .07406616 .35299684 .08706665 .33898927 .08706665 .33399964 .08706665 .31599427 .080062869 .30999757 .078063968V.42092896L.34199525 .43092347C.35299684 .43492127 .35299684 .44091798 .35299684 .46090699V.48789979C.35299684 .5048981 .35299684 .5178833 .33898927 .5178833 .33399964 .5178833 .31599427 .5108948 .30999757 .5088959V.68481448C.30999757 .7028198 .30999757 .7158203 .29599 .7158203 .2789917 .7158203 .2789917 .7028198 .2789917 .68481448V.49890138L.1329956 .45091249V.62783816C.1329956 .6448364 .1329956 .6578369 .11898804 .6578369 .101989749 .6578369 .101989749 .64382937 .101989749 .6268463V.44091798C.09799194 .4399109 .07499695 .43191529 .069992069 .43092347 .05899048 .42591859 .05899048 .42092896 .05899048 .39993287V.37394715C.05899048 .35694886 .05899048 .34396363 .07299805 .34396363 .07798767 .34396363 .09599304 .35095216 .101989749 .35295106V.01008606C.09799194 .009094238 .07499695 .0010986328 .069992069 .000091552738 .05899048-.0048980715 .05899048-.009902954 .05899048-.030899048V-.056884767C.05899048-.07388306 .05899048-.086868289 .07299805-.086868289 .07798767-.086868289 .09599304-.07987976 .101989749-.07788086V-.18482971C.101989749-.20283509 .101989749-.21582031 .115997318-.21582031 .1329956-.21582031 .1329956-.20283509 .1329956-.18482971V-.067871097L.2789917-.019897461M.2789917 .41093446V.06806946L.1329956 .020080567V.36294557L.2789917 .41093446Z"/>
<path id="font_2_27" d="M.7589874 0V.032989503H.74198916C.67900088 .032989503 .6689911 .04197693 .6569977 .07392883L.4229889 .69184878C.41799928 .7048645 .4149933 .7138672 .397995 .7138672 .37998963 .7138672 .3769989 .7058563 .37199403 .69184878L.14898682 .102890018C.13899231 .075927738 .117996219 .032989503 .035995485 .032989503V0C.067993167 .0029907227 .12098694 .0029907227 .13899231 .0029907227 .17098999 .0029907227 .20098877 .0029907227 .25 0V.032989503C.20599365 .033996583 .17999268 .053955079 .17999268 .08291626 .17999268 .089904788 .17999268 .09190369 .18499756 .103897098L.23199463 .22871399H.5039978L.55999758 .08091736C.5649872 .06893921 .5649872 .062942508 .5649872 .062942508 .5649872 .032989503 .5130005 .032989503 .4850006 .032989503V0L.6269989 .0029907227C.68299868 .0029907227 .70098879 .0029907227 .7589874 0M.4909973 .26171876H.24398804L.36799623 .5888214 .4909973 .26171876Z"/>
<path id="font_2_58" d="M.7819977 .24238587V.27539063C.73098757 .27238465 .7029877 .27238465 .6459961 .27238465 .6029968 .27238465 .5219879 .27238465 .48298646 .27539063V.24238587H.5179901C.61299136 .24272156 .6159973 .23069763 .6159973 .19366455V.12960816C.6159973 .10958862 .6159973 .06855774 .5629883 .039535524 .5130005 .011505127 .45700074 .011505127 .44499208 .011505127 .34298707 .011505127 .16299439 .07356262 .16299439 .34179688 .16299439 .61305239 .34599305 .6710968 .43798829 .6710968 .5379944 .6710968 .6499939 .5980377 .6749878 .43289186 .6759949 .42288209 .6769867 .41687013 .69099429 .41687013 .70799258 .41687013 .70799258 .4238739 .70799258 .4429016V.6781006C.70799258 .6940918 .70799258 .70410159 .69499209 .70410159 .6879883 .70410159 .68699648 .7030945 .6779938 .690094L.6269989 .6160431C.58399966 .6620941 .5179901 .70410159 .42799378 .70410159 .22799683 .70410159 .05899048 .542984 .05899048 .34179688 .05899048 .1426239 .22299195-.021484375 .43099977-.021484375 .5079956-.021484375 .59399417 .0015106201 .6339874 .060546876 .6519928 .03253174 .6859894-.00048828127 .69599917-.00048828127 .70799258 0 .70799258 .010986328 .70799258 .025985718V.19799805C.70799258 .23738098 .71199038 .24238587 .7819977 .24238587Z"/>
<path id="font_2_34" d="M.69200137 .18299866C.69200137 .2639923 .61499026 .34298707 .48999024 .35699464 .598999 .379776 .6619873 .44573976 .6619873 .51368716 .6619873 .6026306 .56199648 .6826172 .42799378 .6826172H.04798889V.6496124H.069992069C.14698792 .6496124 .14898682 .63861086 .14898682 .6016388V.080963138C.14898682 .04399109 .14698792 .032989503 .069992069 .032989503H.04798889V0H.45599366C.59399417-.00018310547 .69200137 .08781433 .69200137 .18281555V.18299866M.5649872 .5137024C.5649872 .445755 .5049896 .3688202 .3909912 .3688202H.23399353V.6086426C.23399353 .64260867 .23599243 .6496124 .28199769 .6496124H.42099C.519989 .6498108 .5649872 .57281497 .5649872 .5138092V.5137024M.59098818 .18389893C.59098818 .10295105 .5239868 .032989503 .42199708 .032989503H.28199769C.23599243 .032989503 .23399353 .039993287 .23399353 .07397461V.3408203H.43699647C.5339966 .34098817 .59098818 .2630005 .59098818 .18399048V.18389893Z"/>
<path id="font_2_46" d="M.7509918 .33480836C.7509918 .52767947 .6049957 .6826172 .42599488 .6826172H.04598999V.6496124H.067993167C.14498902 .6496124 .14698792 .63861086 .14698792 .6016388V.080963138C.14698792 .04399109 .14498902 .032989503 .067993167 .032989503H.04598999V0H.42599488C.60598757 0 .7509918 .1499176 .7509918 .33480836M.6499939 .33580018C.6499939 .28483583 .6499939 .18688965 .58699038 .11294556 .5519867 .07197571 .48799134 .032989503 .39898683 .032989503H.28399659C.23799134 .032608034 .23599243 .039611818 .23599243 .0736084V.60861209C.23599243 .64260867 .23799134 .6496124 .28399659 .6496124H.39898683C.47698976 .6496124 .5419922 .61761477 .58599856 .5676117 .6499939 .49160768 .6499939 .38461305 .6499939 .3356018V.33580018Z"/>
<path id="font_4_56" d="M.46199037 .19992066C.46199037 .3209076 .37599183 .41992188 .2669983 .41992188 .21899414 .41992188 .16999817 .4039154 .1349945 .36791993V.5647888C.16499329 .55578616 .19599915 .55078127 .22698975 .55078127 .34999085 .55078127 .42199708 .63983157 .42199708 .6529236 .42199708 .6619873 .41600038 .6660156 .41099549 .6660156 .41099549 .6660156 .40699769 .6660156 .397995 .6609802 .35099793 .6418457 .30499269 .63378909 .2630005 .63378909 .21998596 .63378909 .1749878 .6418457 .1289978 .6609802 .11898804 .6660156 .115997318 .6660156 .115997318 .6660156 .10398865 .6660156 .10398865 .6559448 .10398865 .63882449V.34490968C.10398865 .32699586 .10398865 .31599427 .117996219 .31599427 .12599182 .31562806 .1289978 .3196411 .1349945 .32867433 .16499329 .37083436 .21299744 .39491273 .2649994 .39491273 .37199403 .39491273 .37199403 .24035645 .37199403 .20422364 .37199403 .17321778 .37199403 .11122131 .34399415 .06636047 .31698609 .024475098 .2749939 .0055389406 .23599243 .0055389406 .1769867 .0055389406 .10998535 .042419435 .085998538 .11621094 .085998538 .116882327 .09298706 .11488342 .099990848 .11488342 .11999512 .11488342 .14898682 .12788391 .14898682 .1638794 .14898682 .19488526 .1269989 .21289063 .099990848 .21289063 .07899475 .21289063 .050994874 .20088196 .050994874 .16088867 .050994874 .069732669 .1269989-.022460938 .23799134-.022460938 .35899354-.02279663 .46199037 .07521057 .46199037 .19921875V.19992066Z"/>
<path id="font_4_57" d="M.48399354 .16503906V.19602967H.38198854V.649765C.38198854 .669754 .38198854 .6767578 .36299134 .6767578 .35099793 .6767578 .34999085 .67575076 .34098817 .6617584L.0289917 .19602967V.16503906H.3019867V.07901001C.3019867 .041992189 .29899598 .0309906 .22399903 .0309906H.20199585V0C.2649994 .0029907227 .33499146 .0029907227 .34199525 .0029907227 .34700013 .0029907227 .4189911 .0029907227 .48199464 0V.0309906H.45999146C.3849945 .0309906 .38198854 .041992189 .38198854 .07901001V.16503906H.48399354M.30799867 .19602967H.06098938L.30799867 .56581118V.19602967Z"/>
<path id="font_4_106" d="M.46998597 .17008972C.46998597 .25709535 .40098573 .33110047 .30499269 .35209657 .397995 .38710023 .44198609 .46009828 .44198609 .5290985 .44198609 .60606387 .35699464 .6660156 .25299073 .6660156 .14898682 .6660156 .070999149 .60705569 .070999149 .5310974 .070999149 .49809266 .09298706 .47909547 .12199402 .47909547 .15098572 .47909547 .17199707 .50009158 .17199707 .5290985 .17199707 .5640869 .147995 .57910159 .11399841 .57910159 .13999939 .6210327 .20098877 .64100649 .25 .64100649 .33299256 .64100649 .34899903 .5750885 .34899903 .52809146 .34899903 .49809266 .34298707 .45005799 .31799317 .41201783 .2869873 .36695863 .2519989 .36495973 .22299195 .36296083 .19799805 .36094667 .19599915 .36094667 .18798828 .36094667 .1789856 .35995484 .17098999 .35894776 .17098999 .34794618 .17098999 .33496095 .1789856 .33496095 .19599915 .33496095H.24299622C.32998658 .33496095 .36799623 .2646637 .36799623 .16937256 .36799623 .04145813 .2999878 .0055389406 .24899292 .0055389406 .22999573 .0055389406 .1329956 .010528564 .08799744 .0843811 .12399292 .07939148 .1519928 .10437012 .1519928 .13838196 .1519928 .17137146 .1269989 .19238281 .09799194 .19238281 .07299805 .19238281 .042999269 .17736817 .042999269 .13537598 .042999269 .046447755 .13598633-.022460938 .2519989-.022460938 .3769989-.022460938 .46998597 .06741333 .46998597 .16937256V.17008972Z"/>
<path id="font_4_107" d="M.46199037 .17704773H.43399049C.43199159 .16404724 .42399598 .10501099 .41099549 .08900452 .40499879 .07998657 .33599855 .07998657 .31599427 .07998657H.13798523L.23699951 .17404175C.40098573 .3161316 .46199037 .36915589 .46199037 .4711914 .46199037 .5860901 .36698915 .6660156 .24398804 .6660156 .1289978 .6660156 .050994874 .575119 .050994874 .4841919 .050994874 .43418885 .09399414 .42919923 .102996829 .42919923 .125 .42919923 .15499878 .44519044 .15499878 .48120118 .15499878 .51119998 .13398743 .5332031 .102996829 .5332031 .09799194 .5332031 .09498596 .5332031 .09098816 .53219607 .114990238 .6030731 .1789856 .63500979 .23298645 .63500979 .33499146 .63500979 .36999513 .5401764 .36999513 .4711914 .36999513 .36915589 .29299928 .28611756 .24499512 .23408509L.06199646 .035995485C.050994874 .024993897 .050994874 .022994996 .050994874 0H.43399049L.46199037 .17704773Z"/>
<path id="font_4_82" d="M.43199159 0V.0309906H.3999939C.30699159 .0309906 .3039856 .042999269 .3039856 .08001709V.63912966C.3039856 .6640167 .30299378 .6660156 .27799989 .6660156 .21598816 .60227969 .12399292 .60227969 .09298706 .60227969V.57128909C.11199951 .57128909 .17298889 .57128909 .22698975 .5972748V.08001709C.22698975 .042999269 .22399903 .0309906 .1309967 .0309906H.09899902V0C.1349945 .0029907227 .22399903 .0029907227 .2649994 .0029907227 .30599977 .0029907227 .3959961 .0029907227 .43199159 0Z"/>
<path id="font_5_104" d="M.7789917 .4308777 .7569885 .6738281H.06498718L.042999269 .4308777H.09399414C.10398865 .5418396 .11299133 .6248169 .2599945 .6248169H.33898927V.04899597H.18598938V0C.22999573 .0029907227 .3600006 .0029907227 .4119873 .0029907227 .46398927 .0029907227 .59298709 .0029907227 .6369934 0V.04899597H.48399354V.6248169H.5629883C.70999148 .6248169 .71798709 .5398407 .7279968 .4308777H.7789917Z"/>
<path id="font_5_80" d="M.82199099 .33924867C.82199099 .5482483 .68099978 .6982422 .44400025 .6982422 .20599365 .6982422 .06599426 .5472412 .06599426 .33924867 .06599426 .13726807 .20498657-.01171875 .44400025-.01171875 .68299868-.01171875 .82199099 .13626099 .82199099 .33924867M.6649933 .35424806C.6649933 .2652588 .6559906 .20126343 .625 .14027405 .58799746 .0712738 .5169983 .03427124 .44400025 .03427124 .38198854 .03427124 .31098939 .061279298 .2679901 .13226319 .22698975 .2002716 .22299195 .28825379 .22299195 .35424806 .22299195 .44325257 .23199463 .5182495 .2809906 .5822449 .30699159 .6152344 .3639984 .65522769 .44400025 .65522769 .5099945 .65522769 .57299807 .62823489 .6119995 .5752411 .6609955 .5102539 .6649933 .42425538 .6649933 .35424806Z"/>
<path id="font_5_83" d="M.7409973 .48965455C.7409973 .5995636 .6399994 .6855469 .46899415 .6855469H.041992189V.63653567H.1499939V.04899597H.041992189V0C.07699585 .0029907227 .18099976 .0029907227 .22200012 .0029907227 .2630005 .0029907227 .36799623 .0029907227 .40299989 0V.04899597H.29499818V.2987671H.47898866C.621994 .2987671 .7409973 .37174989 .7409973 .48965455M.58399966 .48965455C.58399966 .41970826 .58399966 .34277345 .42999269 .34277345H.2889862V.63653567H.43099977C.58399966 .63653567 .58399966 .56059268 .58399966 .48965455Z"/>
<path id="font_6_1" d="M.4909973-.24700928C.4909973-.26901246 .49499513-.29101563 .49699403-.31300355 .49899293-.34100343 .5009918-.37001039 .5019989-.39801026V-.42100526C.5029907-.45100404 .5059967-.4830017 .49699403-.51200869 .49198915-.52801516 .4850006-.54200747 .47599793-.55500796 .43798829-.6040039 .36799623-.6190033 .31199647-.5980072 .2899933-.5890045 .272995-.576004 .25698854-.5600128 .2669983-.5620117 .27799989-.56100466 .28799439-.55900576 .30099488-.55700686 .31298829-.55200198 .32398988-.5450134 .37098695-.51301577 .3769989-.44100953 .33699037-.40100099 .29100038-.355011 .20698548-.37001039 .18299866-.43200685 .17799378-.44500733 .1749878-.4600067 .17599488-.47401429 .1769867-.4810028 .17799378-.4880066 .17999268-.49501039 .18499756-.52900698 .19599915-.56100466 .21998596-.5870056 .27999879-.65301516 .3899994-.65901187 .46099855-.6080017 .48098756-.5940094 .49699403-.5750122 .5079956-.55300906 .5299988-.5110016 .5279999-.4630127 .526001-.41801454V-.39401246C.5249939-.37200929 .5239868-.34901429 .5219879-.3270111 .5209961-.30900575 .5189972-.29101563 .5179901-.27301026 .5169983-.26301576 .5179901-.25201417 .5149994-.24301148 .5269928-.2420044 .5399933-.23800659 .5509949-.23400879 .57499697-.22601319 .598999-.21600342 .6199951-.20100403 .6489868-.18200684 .673996-.15901184 .69400027-.13000489 .73399356-.07400513 .7489929 0 .7350006 .066986087 .71699526 .1459961 .6609955 .21398926 .58299258 .23999024 .55999758 .24699402 .5349884 .25099183 .5109863 .25099183 .49499513 .25099183 .47999574 .25 .46398927 .24598694 .45700074 .24499512 .44999696 .24398804 .44299317 .24099732 .44299317 .25898744 .43699647 .27799989 .43399049 .29599 .42900086 .33198548 .4229889 .36698915 .41799928 .40299989 .41600038 .4149933 .4139862 .4269867 .41299439 .43899537 .4119873 .44400025 .4099884 .45199586 .41099549 .45700074 .41099549 .45999146 .4139862 .46299745 .4149933 .46598817 .41799928 .47099305 .42199708 .47499085 .4249878 .47999574 .43699647 .49899293 .44999696 .5189972 .46199037 .5379944 .49899293 .5970001 .5329895 .6559906 .5589905 .72099307 .58599856 .78900149 .6009979 .8659973 .58399966 .9379883 .58099368 .95199587 .57699587 .96598818 .57199099 .9799957 .56399539 .9980011 .5549927 1.0159912 .5479889 1.0339966 .5359955 1.0629883 .5269928 1.0939942 .5109863 1.1199951 .5039978 1.1309967 .49198915 1.1419983 .47799684 1.1380005 .47399903 1.1369934 .47099305 1.1349945 .46798707 1.1329956 .46199037 1.1299896 .45700074 1.1239929 .45199586 1.118988 .38398744 1.0479889 .35499574 .94999697 .34799195 .85398867 .34498597 .80999758 .34700013 .7639923 .34899903 .7200012 .34999085 .68699648 .35299684 .6539917 .35598756 .62098696 .35699464 .61099246 .35798646 .60198977 .35899354 .59199526 .35899354 .58799746 .36099244 .58299258 .3600006 .57899478 .35899354 .57398989 .35499574 .57099917 .35198976 .5669861 .34599305 .55999758 .34098817 .5519867 .33499146 .54499819 .31599427 .5209961 .29899598 .49598695 .2809906 .47099305 .2539978 .43299867 .22999573 .3919983 .20698548 .35099793 .18499756 .31399537 .1639862 .27598573 .1459961 .23699951 .08799744 .11099243 .115997318-.042007448 .20999146-.14300537 .23298645-.16801453 .26098634-.18901062 .2899933-.20600891 .31999208-.2230072 .35398866-.23500061 .3880005-.2420044 .41099549-.24700928 .43399049-.24900818 .45799256-.24900818 .46899415-.24900818 .47999574-.24900818 .4909973-.24700928M.3919983 .6159973C.3919983 .6380005 .3889923 .6589966 .3869934 .68099978 .3849945 .70899966 .3849945 .7369995 .38398744 .7649994 .3829956 .79100039 .3809967 .81799319 .3849945 .84399417 .3909912 .8799896 .40699769 .91400149 .4269867 .94400027 .43998719 .96398928 .45599366 .98399356 .47299195 1.0009918 .48098756 1.0089874 .4889984 1.0169983 .5009918 1.0169983 .5179901 1.0169983 .5319977 1.0039978 .54100039 .9909973 .5529938 .97099307 .5589905 .94699099 .5609894 .923996 .56199648 .9149933 .5629883 .9059906 .56199648 .8969879 .5589905 .8789978 .55599978 .86099246 .5509949 .84399417 .5319977 .7869873 .49499513 .73799136 .45700074 .69200137 .43598939 .66600039 .4149933 .6409912 .3919983 .6159973M.3619995-.0960083C.35798646-.08900452 .35198976-.08401489 .34700013-.07701111 .33699037-.06201172 .32998658-.04600525 .32598878-.029006958 .30899049 .04598999 .35699464 .12599182 .42900086 .1499939L.46899415-.08300781 .4869995-.2130127C.47399903-.21400452 .45999146-.2190094 .44699098-.22000122 .41600038-.2230072 .38398744-.22000122 .35398866-.21200562 .31900025-.20201111 .2869873-.18400574 .2599945-.16000366 .23999024-.14300537 .22299195-.12200928 .20899964-.09901428 .17799378-.044006349 .16899109 .020996094 .18798828 .08099365 .19898987 .116989139 .21998596 .15098572 .23799134 .18399048 .2679901 .23799134 .30099488 .29100038 .33499146 .34298707 .34498597 .35798646 .35499574 .37399293 .36499024 .3889923 .36999513 .397995 .3769989 .4059906 .38198854 .41600038 .38598634 .4019928 .3869934 .3869934 .3889923 .37298585 .3939972 .34298707 .39898683 .31399537 .40499879 .28399659 .40699769 .27198792 .40899659 .25898744 .41099549 .24699402 .4119873 .24299622 .4149933 .23599243 .41299439 .23199463 .4119873 .22898865 .4079895 .22799683 .4059906 .22698975 .3999939 .22399903 .3939972 .21998596 .3880005 .21598816 .36898805 .20399475 .35198976 .18899536 .33699037 .17199707 .2899933 .115997318 .27398683 .034988405 .30299378-.03300476 .30899049-.04800415 .31799317-.06100464 .32798768-.07400513 .33198548-.07901001 .33599855-.085006717 .34098817-.088012699 .34700013-.0920105 .35499574-.0940094 .3619995-.0960083M.5109863-.20401001C.5109863-.19500733 .5089874-.18501282 .5079956-.17601013 .5059967-.15501404 .5029907-.13500977 .5-.11401367 .49198915-.054000856 .48298646 .005996704 .47299195 .06599426 .46899415 .08799744 .46598817 .11099243 .46199037 .1329956 .46099855 .13798523 .45999146 .14399719 .45899964 .14898682 .45899964 .15098572 .45799256 .1539917 .45999146 .1559906 .46199037 .15899658 .46598817 .1579895 .46899415 .1579895 .47898866 .1599884 .4889984 .15899658 .49899293 .1579895 .54599 .15499878 .58799746 .12799073 .6139984 .08999634 .6230011 .07598877 .6299896 .06199646 .6359863 .04598999 .6689911-.055007936 .60798647-.16600037 .5109863-.20401001Z"/>
</defs>
<g clip-path="url(#clip_1)">
<path transform="matrix(1.00006,0,0,-1.00005,39.375406,188.25716)" stroke-width=".3985" stroke-linecap="butt" stroke-miterlimit="10" stroke-linejoin="miter" fill="none" stroke="#7f807f" d="M0 110.48402H287.01145"/>
<path transform="matrix(1.00006,0,0,-1.00005,39.375406,188.25716)" stroke-width=".3985" stroke-linecap="butt" stroke-miterlimit="10" stroke-linejoin="miter" fill="none" stroke="#7f807f" d="M0 82.863H287.01145"/>
<path transform="matrix(1.00006,0,0,-1.00005,39.375406,188.25716)" stroke-width=".3985" stroke-linecap="butt" stroke-miterlimit="10" stroke-linejoin="miter" fill="none" stroke="#7f807f" d="M0 55.242H287.01145"/>
<path transform="matrix(1.00006,0,0,-1.00005,39.375406,188.25716)" stroke-width=".3985" stroke-linecap="butt" stroke-miterlimit="10" stroke-linejoin="miter" fill="none" stroke="#7f807f" d="M0 27.621H287.01145"/>
<path transform="matrix(1.00006,0,0,-1.00005,39.375406,188.25716)" stroke-width=".3985" stroke-linecap="butt" stroke-miterlimit="10" stroke-linejoin="miter" fill="none" stroke="#7f807f" d="M0 0H287.01145"/>
<path transform="matrix(1.00006,0,0,-1.00005,39.375406,188.25716)" stroke-width=".19925" stroke-linecap="butt" stroke-miterlimit="10" stroke-linejoin="miter" fill="none" stroke="#bfbfbf" d="M0 0V110.48402"/>
<path transform="matrix(1.00006,0,0,-1.00005,39.375406,188.25716)" stroke-width=".19925" stroke-linecap="butt" stroke-miterlimit="10" stroke-linejoin="miter" fill="none" stroke="#bfbfbf" d="M15.94505 0V110.48402"/>
<path transform="matrix(1.00006,0,0,-1.00005,39.375406,188.25716)" stroke-width=".19925" stroke-linecap="butt" stroke-miterlimit="10" stroke-linejoin="miter" fill="none" stroke="#bfbfbf" d="M31.89014 0V110.48402"/>
<path transform="matrix(1.00006,0,0,-1.00005,39.375406,188.25716)" stroke-width=".19925" stroke-linecap="butt" stroke-miterlimit="10" stroke-linejoin="miter" fill="none" stroke="#bfbfbf" d="M47.83522 0V110.48402"/>
<path transform="matrix(1.00006,0,0,-1.00005,39.375406,188.25716)" stroke-width=".19925" stroke-linecap="butt" stroke-miterlimit="10" stroke-linejoin="miter" fill="none" stroke="#bfbfbf" d="M63.7803 0V110.48402"/>
<path transform="matrix(1.00006,0,0,-1.00005,39.375406,188.25716)" stroke-width=".19925" stroke-linecap="butt" stroke-miterlimit="10" stroke-linejoin="miter" fill="none" stroke="#bfbfbf" d="M79.72539 0V110.48402"/>
<path transform="matrix(1.00006,0,0,-1.00005,39.375406,188.25716)" stroke-width=".19925" stroke-linecap="butt" stroke-miterlimit="10" stroke-linejoin="miter" fill="none" stroke="#bfbfbf" d="M95.67047 0V110.48402"/>
<path transform="matrix(1.00006,0,0,-1.00005,39.375406,188.25716)" stroke-width=".19925" stroke-linecap="butt" stroke-miterlimit="10" stroke-linejoin="miter" fill="none" stroke="#bfbfbf" d="M111.61555 0V110.48402"/>
<path transform="matrix(1.00006,0,0,-1.00005,39.375406,188.25716)" stroke-width=".19925" stroke-linecap="butt" stroke-miterlimit="10" stroke-linejoin="miter" fill="none" stroke="#bfbfbf" d="M127.56062 0V110.48402"/>
<path transform="matrix(1.00006,0,0,-1.00005,39.375406,188.25716)" stroke-width=".19925" stroke-linecap="butt" stroke-miterlimit="10" stroke-linejoin="miter" fill="none" stroke="#bfbfbf" d="M143.5057 0V110.48402"/>
<path transform="matrix(1.00006,0,0,-1.00005,39.375406,188.25716)" stroke-width=".19925" stroke-linecap="butt" stroke-miterlimit="10" stroke-linejoin="miter" fill="none" stroke="#bfbfbf" d="M159.45079 0V110.48402"/>
<path transform="matrix(1.00006,0,0,-1.00005,39.375406,188.25716)" stroke-width=".19925" stroke-linecap="butt" stroke-miterlimit="10" stroke-linejoin="miter" fill="none" stroke="#bfbfbf" d="M175.39586 0V110.48402"/>
<path transform="matrix(1.00006,0,0,-1.00005,39.375406,188.25716)" stroke-width=".19925" stroke-linecap="butt" stroke-miterlimit="10" stroke-linejoin="miter" fill="none" stroke="#bfbfbf" d="M191.34096 0V110.48402"/>
<path transform="matrix(1.00006,0,0,-1.00005,39.375406,188.25716)" stroke-width=".19925" stroke-linecap="butt" stroke-miterlimit="10" stroke-linejoin="miter" fill="none" stroke="#bfbfbf" d="M207.28604 0V110.48402"/>
<path transform="matrix(1.00006,0,0,-1.00005,39.375406,188.25716)" stroke-width=".19925" stroke-linecap="butt" stroke-miterlimit="10" stroke-linejoin="miter" fill="none" stroke="#bfbfbf" d="M223.23111 0V110.48402"/>
<path transform="matrix(1.00006,0,0,-1.00005,39.375406,188.25716)" stroke-width=".19925" stroke-linecap="butt" stroke-miterlimit="10" stroke-linejoin="miter" fill="none" stroke="#bfbfbf" d="M239.17618 0V110.48402"/>
<path transform="matrix(1.00006,0,0,-1.00005,39.375406,188.25716)" stroke-width=".19925" stroke-linecap="butt" stroke-miterlimit="10" stroke-linejoin="miter" fill="none" stroke="#bfbfbf" d="M255.12128 0V110.48402"/>
<path transform="matrix(1.00006,0,0,-1.00005,39.375406,188.25716)" stroke-width=".19925" stroke-linecap="butt" stroke-miterlimit="10" stroke-linejoin="miter" fill="none" stroke="#bfbfbf" d="M271.06636 0V110.48402"/>
<path transform="matrix(1.00006,0,0,-1.00005,39.375406,188.25716)" stroke-width=".19925" stroke-linecap="butt" stroke-miterlimit="10" stroke-linejoin="miter" fill="none" stroke="#bfbfbf" d="M287.01145 0V110.48402"/>
<path transform="matrix(1.00006,0,0,-1.00005,39.375406,188.25716)" stroke-width=".19925" stroke-linecap="butt" stroke-miterlimit="10" stroke-linejoin="miter" fill="none" stroke="#bfbfbf" d="M0 0 322.0392 557.78976"/>
<path transform="matrix(1.00006,0,0,-1.00005,39.375406,188.25716)" stroke-width=".19925" stroke-linecap="butt" stroke-miterlimit="10" stroke-linejoin="miter" fill="none" stroke="#bfbfbf" d="M31.89014 0 353.92939 557.78976"/>
<path transform="matrix(1.00006,0,0,-1.00005,39.375406,188.25716)" stroke-width=".19925" stroke-linecap="butt" stroke-miterlimit="10" stroke-linejoin="miter" fill="none" stroke="#bfbfbf" d="M63.7803 0 385.81956 557.78976"/>
<path transform="matrix(1.00006,0,0,-1.00005,39.375406,188.25716)" stroke-width=".19925" stroke-linecap="butt" stroke-miterlimit="10" stroke-linejoin="miter" fill="none" stroke="#bfbfbf" d="M95.67047 0 417.7097 557.78976"/>
<path transform="matrix(1.00006,0,0,-1.00005,39.375406,188.25716)" stroke-width=".19925" stroke-linecap="butt" stroke-miterlimit="10" stroke-linejoin="miter" fill="none" stroke="#bfbfbf" d="M127.56062 0 449.59986 557.78976"/>
<path transform="matrix(1.00006,0,0,-1.00005,39.375406,188.25716)" stroke-width=".19925" stroke-linecap="butt" stroke-miterlimit="10" stroke-linejoin="miter" fill="none" stroke="#bfbfbf" d="M159.45079 0 481.49006 557.78976"/>
<path transform="matrix(1.00006,0,0,-1.00005,39.375406,188.25716)" stroke-width=".19925" stroke-linecap="butt" stroke-miterlimit="10" stroke-linejoin="miter" fill="none" stroke="#bfbfbf" d="M191.34096 0 513.3802 557.78976"/>
<path transform="matrix(1.00006,0,0,-1.00005,39.375406,188.25716)" stroke-width=".19925" stroke-linecap="butt" stroke-miterlimit="10" stroke-linejoin="miter" fill="none" stroke="#bfbfbf" d="M223.23111 0 545.2703 557.78976"/>
<path transform="matrix(1.00006,0,0,-1.00005,39.375406,188.25716)" stroke-width=".19925" stroke-linecap="butt" stroke-miterlimit="10" stroke-linejoin="miter" fill="none" stroke="#bfbfbf" d="M255.12128 0 577.1605 557.78976"/>
<path transform="matrix(1.00006,0,0,-1.00005,39.375406,188.25716)" stroke-width=".19925" stroke-linecap="butt" stroke-miterlimit="10" stroke-linejoin="miter" fill="none" stroke="#bfbfbf" d="M287.01145 0 609.05068 557.78976"/>
<path transform="matrix(1.00006,0,0,-1.00005,39.375406,188.25716)" stroke-width=".19925" stroke-linecap="butt" stroke-miterlimit="10" stroke-linejoin="miter" fill="none" stroke="#bfbfbf" d="M318.9016 0 640.94088 557.78976"/>
<path transform="matrix(1.00006,0,0,-1.00005,39.375406,188.25716)" stroke-width=".19925" stroke-linecap="butt" stroke-miterlimit="10" stroke-linejoin="miter" fill="none" stroke="#bfbfbf" d="M350.79176 0 672.831 557.78976"/>
<path transform="matrix(1.00006,0,0,-1.00005,39.375406,188.25716)" stroke-width=".19925" stroke-linecap="butt" stroke-miterlimit="10" stroke-linejoin="miter" fill="none" stroke="#bfbfbf" d="M0 0 322.0392 557.78976"/>
<path transform="matrix(1.00006,0,0,-1.00005,39.375406,188.25716)" stroke-width=".19925" stroke-linecap="butt" stroke-miterlimit="10" stroke-linejoin="miter" fill="none" stroke="#bfbfbf" d="M0 27.621 322.0392 585.41079"/>
<path transform="matrix(1.00006,0,0,-1.00005,39.375406,188.25716)" stroke-width=".19925" stroke-linecap="butt" stroke-miterlimit="10" stroke-linejoin="miter" fill="none" stroke="#bfbfbf" d="M0 55.242 322.0392 613.03176"/>
<path transform="matrix(1.00006,0,0,-1.00005,39.375406,188.25716)" stroke-width=".19925" stroke-linecap="butt" stroke-miterlimit="10" stroke-linejoin="miter" fill="none" stroke="#bfbfbf" d="M0 82.863 322.0392 640.6528"/>
<path transform="matrix(1.00006,0,0,-1.00005,39.375406,188.25716)" stroke-width=".19925" stroke-linecap="butt" stroke-miterlimit="10" stroke-linejoin="miter" fill="none" stroke="#bfbfbf" d="M0 110.48402 322.0392 668.27377"/>
<path transform="matrix(1.00006,0,0,-1.00005,39.375406,188.25716)" stroke-width=".19925" stroke-linecap="butt" stroke-miterlimit="10" stroke-linejoin="miter" fill="none" stroke="#bfbfbf" d="M0 110.48402 322.0392-447.3057"/>
<path transform="matrix(1.00006,0,0,-1.00005,39.375406,188.25716)" stroke-width=".19925" stroke-linecap="butt" stroke-miterlimit="10" stroke-linejoin="miter" fill="none" stroke="#bfbfbf" d="M31.89014 110.48402 353.92939-447.3057"/>
<path transform="matrix(1.00006,0,0,-1.00005,39.375406,188.25716)" stroke-width=".19925" stroke-linecap="butt" stroke-miterlimit="10" stroke-linejoin="miter" fill="none" stroke="#bfbfbf" d="M63.7803 110.48402 385.81956-447.3057"/>
<path transform="matrix(1.00006,0,0,-1.00005,39.375406,188.25716)" stroke-width=".19925" stroke-linecap="butt" stroke-miterlimit="10" stroke-linejoin="miter" fill="none" stroke="#bfbfbf" d="M95.67047 110.48402 417.7097-447.3057"/>
<path transform="matrix(1.00006,0,0,-1.00005,39.375406,188.25716)" stroke-width=".19925" stroke-linecap="butt" stroke-miterlimit="10" stroke-linejoin="miter" fill="none" stroke="#bfbfbf" d="M127.56062 110.48402 449.59986-447.3057"/>
<path transform="matrix(1.00006,0,0,-1.00005,39.375406,188.25716)" stroke-width=".19925" stroke-linecap="butt" stroke-miterlimit="10" stroke-linejoin="miter" fill="none" stroke="#bfbfbf" d="M159.45079 110.48402 481.49006-447.3057"/>
<path transform="matrix(1.00006,0,0,-1.00005,39.375406,188.25716)" stroke-width=".19925" stroke-linecap="butt" stroke-miterlimit="10" stroke-linejoin="miter" fill="none" stroke="#bfbfbf" d="M191.34096 110.48402 513.3802-447.3057"/>
<path transform="matrix(1.00006,0,0,-1.00005,39.375406,188.25716)" stroke-width=".19925" stroke-linecap="butt" stroke-miterlimit="10" stroke-linejoin="miter" fill="none" stroke="#bfbfbf" d="M223.23111 110.48402 545.2703-447.3057"/>
<path transform="matrix(1.00006,0,0,-1.00005,39.375406,188.25716)" stroke-width=".19925" stroke-linecap="butt" stroke-miterlimit="10" stroke-linejoin="miter" fill="none" stroke="#bfbfbf" d="M255.12128 110.48402 577.1605-447.3057"/>
<path transform="matrix(1.00006,0,0,-1.00005,39.375406,188.25716)" stroke-width=".19925" stroke-linecap="butt" stroke-miterlimit="10" stroke-linejoin="miter" fill="none" stroke="#bfbfbf" d="M287.01145 110.48402 609.05068-447.3057"/>
<path transform="matrix(1.00006,0,0,-1.00005,39.375406,188.25716)" stroke-width=".19925" stroke-linecap="butt" stroke-miterlimit="10" stroke-linejoin="miter" fill="none" stroke="#bfbfbf" d="M318.9016 110.48402 640.94088-447.3057"/>
<path transform="matrix(1.00006,0,0,-1.00005,39.375406,188.25716)" stroke-width=".19925" stroke-linecap="butt" stroke-miterlimit="10" stroke-linejoin="miter" fill="none" stroke="#bfbfbf" d="M350.79176 110.48402 672.831-447.3057"/>
<path transform="matrix(1.00006,0,0,-1.00005,39.375406,188.25716)" stroke-width=".19925" stroke-linecap="butt" stroke-miterlimit="10" stroke-linejoin="miter" fill="none" stroke="#bfbfbf" d="M382.68193 110.48402 704.7211-447.3057"/>
<path transform="matrix(1.00006,0,0,-1.00005,39.375406,188.25716)" stroke-width=".19925" stroke-linecap="butt" stroke-miterlimit="10" stroke-linejoin="miter" fill="none" stroke="#bfbfbf" d="M0 110.48402 322.0392-447.3057"/>
<path transform="matrix(1.00006,0,0,-1.00005,39.375406,188.25716)" stroke-width=".19925" stroke-linecap="butt" stroke-miterlimit="10" stroke-linejoin="miter" fill="none" stroke="#bfbfbf" d="M0 138.10503 322.0392-419.6847"/>
<path transform="matrix(1.00006,0,0,-1.00005,39.375406,188.25716)" stroke-width=".19925" stroke-linecap="butt" stroke-miterlimit="10" stroke-linejoin="miter" fill="none" stroke="#bfbfbf" d="M0 165.72605 322.0392-392.06367"/>
<path transform="matrix(1.00006,0,0,-1.00005,39.375406,188.25716)" stroke-width=".19925" stroke-linecap="butt" stroke-miterlimit="10" stroke-linejoin="miter" fill="none" stroke="#bfbfbf" d="M0 193.34706 322.0392-364.44264"/>
<path transform="matrix(1.00006,0,0,-1.00005,39.375406,188.25716)" stroke-width=".19925" stroke-linecap="butt" stroke-miterlimit="10" stroke-linejoin="miter" fill="none" stroke="#bfbfbf" d="M0 220.96808 322.0392-336.82164"/>
</g>
<path transform="matrix(1.00006,0,0,-1.00005,39.375406,188.25716)" d="M14.19695 0C14.19695 7.84084 7.84084 14.19695 0 14.19695-7.84084 14.19695-14.19695 7.84084-14.19695 0-14.19695-7.84084-7.84084-14.19695 0-14.19695 7.84084-14.19695 14.19695-7.84084 14.19695 0ZM0 0" fill="#bfbfbf"/>
<path transform="matrix(1.00006,0,0,-1.00005,39.375406,188.25716)" stroke-width=".3985" stroke-linecap="butt" stroke-miterlimit="10" stroke-linejoin="miter" fill="none" stroke="#7f807f" d="M14.19695 0C14.19695 7.84084 7.84084 14.19695 0 14.19695-7.84084 14.19695-14.19695 7.84084-14.19695 0-14.19695-7.84084-7.84084-14.19695 0-14.19695 7.84084-14.19695 14.19695-7.84084 14.19695 0ZM0 0"/>
<use data-text="C" xlink:href="#font_2_42" transform="matrix(5.977933,0,0,-5.9778735,37.083009,190.29877)"/>
<path transform="matrix(1.00006,0,0,-1.00005,39.375406,188.25716)" d="M46.08708 0C46.08708 7.84084 39.73099 14.19695 31.89014 14.19695 24.0493 14.19695 17.69319 7.84084 17.69319 0 17.69319-7.84084 24.0493-14.19695 31.89014-14.19695 39.73099-14.19695 46.08708-7.84084 46.08708 0ZM31.89014 0" fill="#f2f2f2"/>
<path transform="matrix(1.00006,0,0,-1.00005,39.375406,188.25716)" stroke-width=".3985" stroke-linecap="butt" stroke-miterlimit="10" stroke-linejoin="miter" fill="none" stroke="#7f807f" d="M46.08708 0C46.08708 7.84084 39.73099 14.19695 31.89014 14.19695 24.0493 14.19695 17.69319 7.84084 17.69319 0 17.69319-7.84084 24.0493-14.19695 31.89014-14.19695 39.73099-14.19695 46.08708-7.84084 46.08708 0ZM31.89014 0"/>
<use data-text="E" xlink:href="#font_2_49" transform="matrix(5.977933,0,0,-5.9778735,67.87186,190.49877)"/>
<use data-text="&#x266d;" xlink:href="#font_3_1" transform="matrix(5.977933,0,0,-5.9778735,72.19437,190.49877)"/>
<path transform="matrix(1.00006,0,0,-1.00005,39.375406,188.25716)" d="M77.97725 0C77.97725 7.84084 71.62115 14.19695 63.7803 14.19695 55.93945 14.19695 49.58336 7.84084 49.58336 0 49.58336-7.84084 55.93945-14.19695 63.7803-14.19695 71.62115-14.19695 77.97725-7.84084 77.97725 0ZM63.7803 0" fill="#f2f2f2"/>
<path transform="matrix(1.00006,0,0,-1.00005,39.375406,188.25716)" stroke-width=".3985" stroke-linecap="butt" stroke-miterlimit="10" stroke-linejoin="miter" fill="none" stroke="#7f807f" d="M77.97725 0C77.97725 7.84084 71.62115 14.19695 63.7803 14.19695 55.93945 14.19695 49.58336 7.84084 49.58336 0 49.58336-7.84084 55.93945-14.19695 63.7803-14.19695 71.62115-14.19695 77.97725-7.84084 77.97725 0ZM63.7803 0"/>
<use data-text="F" xlink:href="#font_2_54" transform="matrix(5.977933,0,0,-5.9778735,99.852779,189.75173)"/>
<use data-text="&#x266f;" xlink:href="#font_3_2" transform="matrix(5.977933,0,0,-5.9778735,103.99527,189.75173)"/>
<path transform="matrix(1.00006,0,0,-1.00005,39.375406,188.25716)" d="M109.86742 0C109.86742 7.84084 103.5113 14.19695 95.67047 14.19695 87.82962 14.19695 81.47353 7.84084 81.47353 0 81.47353-7.84084 87.82962-14.19695 95.67047-14.19695 103.5113-14.19695 109.86742-7.84084 109.86742 0ZM95.67047 0" fill="#f2f2f2"/>
<path transform="matrix(1.00006,0,0,-1.00005,39.375406,188.25716)" stroke-width=".3985" stroke-linecap="butt" stroke-miterlimit="10" stroke-linejoin="miter" fill="none" stroke="#7f807f" d="M109.86742 0C109.86742 7.84084 103.5113 14.19695 95.67047 14.19695 87.82962 14.19695 81.47353 7.84084 81.47353 0 81.47353-7.84084 87.82962-14.19695 95.67047-14.19695 103.5113-14.19695 109.86742-7.84084 109.86742 0ZM95.67047 0"/>
<use data-text="A" xlink:href="#font_2_27" transform="matrix(5.977933,0,0,-5.9778735,132.67275,190.39076)"/>
<path transform="matrix(1.00006,0,0,-1.00005,39.375406,188.25716)" d="M141.75757 0C141.75757 7.84084 135.40148 14.19695 127.56062 14.19695 119.71979 14.19695 113.36368 7.84084 113.36368 0 113.36368-7.84084 119.71979-14.19695 127.56062-14.19695 135.40148-14.19695 141.75757-7.84084 141.75757 0ZM127.56062 0" fill="#bfbfbf"/>
<path transform="matrix(1.00006,0,0,-1.00005,39.375406,188.25716)" stroke-width=".3985" stroke-linecap="butt" stroke-miterlimit="10" stroke-linejoin="miter" fill="none" stroke="#7f807f" d="M141.75757 0C141.75757 7.84084 135.40148 14.19695 127.56062 14.19695 119.71979 14.19695 113.36368 7.84084 113.36368 0 113.36368-7.84084 119.71979-14.19695 127.56062-14.19695 135.40148-14.19695 141.75757-7.84084 141.75757 0ZM127.56062 0"/>
<use data-text="C" xlink:href="#font_2_42" transform="matrix(5.977933,0,0,-5.9778735,164.65064,190.29877)"/>
<path transform="matrix(1.00006,0,0,-1.00005,39.375406,188.25716)" d="M173.64774 0C173.64774 7.84084 167.29164 14.19695 159.45079 14.19695 151.60994 14.19695 145.25385 7.84084 145.25385 0 145.25385-7.84084 151.60994-14.19695 159.45079-14.19695 167.29164-14.19695 173.64774-7.84084 173.64774 0ZM159.45079 0" fill="#f2f2f2"/>
<path transform="matrix(1.00006,0,0,-1.00005,39.375406,188.25716)" stroke-width=".3985" stroke-linecap="butt" stroke-miterlimit="10" stroke-linejoin="miter" fill="none" stroke="#7f807f" d="M173.64774 0C173.64774 7.84084 167.29164 14.19695 159.45079 14.19695 151.60994 14.19695 145.25385 7.84084 145.25385 0 145.25385-7.84084 151.60994-14.19695 159.45079-14.19695 167.29164-14.19695 173.64774-7.84084 173.64774 0ZM159.45079 0"/>
<use data-text="E" xlink:href="#font_2_49" transform="matrix(5.977933,0,0,-5.9778735,195.43949,190.49877)"/>
<use data-text="&#x266d;" xlink:href="#font_3_1" transform="matrix(5.977933,0,0,-5.9778735,199.762,190.49877)"/>
<path transform="matrix(1.00006,0,0,-1.00005,39.375406,188.25716)" d="M205.5379 0C205.5379 7.84084 199.18181 14.19695 191.34096 14.19695 183.5001 14.19695 177.14402 7.84084 177.14402 0 177.14402-7.84084 183.5001-14.19695 191.34096-14.19695 199.18181-14.19695 205.5379-7.84084 205.5379 0ZM191.34096 0" fill="#f2f2f2"/>
<path transform="matrix(1.00006,0,0,-1.00005,39.375406,188.25716)" stroke-width=".3985" stroke-linecap="butt" stroke-miterlimit="10" stroke-linejoin="miter" fill="none" stroke="#7f807f" d="M205.5379 0C205.5379 7.84084 199.18181 14.19695 191.34096 14.19695 183.5001 14.19695 177.14402 7.84084 177.14402 0 177.14402-7.84084 183.5001-14.19695 191.34096-14.19695 199.18181-14.19695 205.5379-7.84084 205.5379 0ZM191.34096 0"/>
<use data-text="F" xlink:href="#font_2_54" transform="matrix(5.977933,0,0,-5.9778735,227.42144,189.75173)"/>
<use data-text="&#x266f;" xlink:href="#font_3_2" transform="matrix(5.977933,0,0,-5.9778735,231.56394,189.75173)"/>
<path transform="matrix(1.00006,0,0,-1.00005,39.375406,188.25716)" d="M237.42806 0C237.42806 7.84084 231.07195 14.19695 223.23111 14.19695 215.39026 14.19695 209.03417 7.84084 209.03417 0 209.03417-7.84084 215.39026-14.19695 223.23111-14.19695 231.07195-14.19695 237.42806-7.84084 237.42806 0ZM223.23111 0" fill="#f2f2f2"/>
<path transform="matrix(1.00006,0,0,-1.00005,39.375406,188.25716)" stroke-width=".3985" stroke-linecap="butt" stroke-miterlimit="10" stroke-linejoin="miter" fill="none" stroke="#7f807f" d="M237.42806 0C237.42806 7.84084 231.07195 14.19695 223.23111 14.19695 215.39026 14.19695 209.03417 7.84084 209.03417 0 209.03417-7.84084 215.39026-14.19695 223.23111-14.19695 231.07195-14.19695 237.42806-7.84084 237.42806 0ZM223.23111 0"/>
<use data-text="A" xlink:href="#font_2_27" transform="matrix(5.977933,0,0,-5.9778735,260.24043,190.39076)"/>
<path transform="matrix(1.00006,0,0,-1.00005,39.375406,188.25716)" d="M269.3182 0C269.3182 7.84084 262.96214 14.19695 255.12128 14.19695 247.28044 14.19695 240.92433 7.84084 240.92433 0 240.92433-7.84084 247.28044-14.19695 255.12128-14.19695 262.96214-14.19695 269.3182-7.84084 269.3182 0ZM255.12128 0" fill="#bfbfbf"/>
<path transform="matrix(1.00006,0,0,-1.00005,39.375406,188.25716)" stroke-width=".3985" stroke-linecap="butt" stroke-miterlimit="10" stroke-linejoin="miter" fill="none" stroke="#7f807f" d="M269.3182 0C269.3182 7.84084 262.96214 14.19695 255.12128 14.19695 247.28044 14.19695 240.92433 7.84084 240.92433 0 240.92433-7.84084 247.28044-14.19695 255.12128-14.19695 262.96214-14.19695 269.3182-7.84084 269.3182 0ZM255.12128 0"/>
<use data-text="C" xlink:href="#font_2_42" transform="matrix(5.977933,0,0,-5.9778735,292.2193,190.29877)"/>
<path transform="matrix(1.00006,0,0,-1.00005,39.375406,188.25716)" d="M301.20838 0C301.20838 7.84084 294.8523 14.19695 287.01145 14.19695 279.1706 14.19695 272.81449 7.84084 272.81449 0 272.81449-7.84084 279.1706-14.19695 287.01145-14.19695 294.8523-14.19695 301.20838-7.84084 301.20838 0ZM287.01145 0" fill="#f2f2f2"/>
<path transform="matrix(1.00006,0,0,-1.00005,39.375406,188.25716)" stroke-width=".3985" stroke-linecap="butt" stroke-miterlimit="10" stroke-linejoin="miter" fill="none" stroke="#7f807f" d="M301.20838 0C301.20838 7.84084 294.8523 14.19695 287.01145 14.19695 279.1706 14.19695 272.81449 7.84084 272.81449 0 272.81449-7.84084 279.1706-14.19695 287.01145-14.19695 294.8523-14.19695 301.20838-7.84084 301.20838 0ZM287.01145 0"/>
<use data-text="E" xlink:href="#font_2_49" transform="matrix(5.977933,0,0,-5.9778735,323.00819,190.49877)"/>
<use data-text="&#x266d;" xlink:href="#font_3_1" transform="matrix(5.977933,0,0,-5.9778735,327.3307,190.49877)"/>
<path transform="matrix(1.00006,0,0,-1.00005,39.375406,188.25716)" d="M30.142 27.621C30.142 35.46184 23.7859 41.81795 15.94505 41.81795 8.10422 41.81795 1.74811 35.46184 1.74811 27.621 1.74811 19.78015 8.10422 13.42406 15.94505 13.42406 23.7859 13.42406 30.142 19.78015 30.142 27.621ZM15.94505 27.621" fill="#f2f2f2"/>
<path transform="matrix(1.00006,0,0,-1.00005,39.375406,188.25716)" stroke-width=".3985" stroke-linecap="butt" stroke-miterlimit="10" stroke-linejoin="miter" fill="none" stroke="#7f807f" d="M30.142 27.621C30.142 35.46184 23.7859 41.81795 15.94505 41.81795 8.10422 41.81795 1.74811 35.46184 1.74811 27.621 1.74811 19.78015 8.10422 13.42406 15.94505 13.42406 23.7859 13.42406 30.142 19.78015 30.142 27.621ZM15.94505 27.621"/>
<use data-text="C" xlink:href="#font_2_42" transform="matrix(5.977933,0,0,-5.9778735,51.79389,162.15735)"/>
<use data-text="&#x266f;" xlink:href="#font_3_2" transform="matrix(5.977933,0,0,-5.9778735,56.37892,162.15735)"/>
<path transform="matrix(1.00006,0,0,-1.00005,39.375406,188.25716)" d="M62.03217 27.621C62.03217 35.46184 55.67607 41.81795 47.83522 41.81795 39.99437 41.81795 33.63828 35.46184 33.63828 27.621 33.63828 19.78015 39.99437 13.42406 47.83522 13.42406 55.67607 13.42406 62.03217 19.78015 62.03217 27.621ZM47.83522 27.621" fill="#bfbfbf"/>
<path transform="matrix(1.00006,0,0,-1.00005,39.375406,188.25716)" stroke-width=".3985" stroke-linecap="butt" stroke-miterlimit="10" stroke-linejoin="miter" fill="none" stroke="#7f807f" d="M62.03217 27.621C62.03217 35.46184 55.67607 41.81795 47.83522 41.81795 39.99437 41.81795 33.63828 35.46184 33.63828 27.621 33.63828 19.78015 39.99437 13.42406 47.83522 13.42406 55.67607 13.42406 62.03217 19.78015 62.03217 27.621ZM47.83522 27.621"/>
<use data-text="E" xlink:href="#font_2_49" transform="matrix(5.977933,0,0,-5.9778735,85.05288,162.66738)"/>
<path transform="matrix(1.00006,0,0,-1.00005,39.375406,188.25716)" d="M93.92233 27.621C93.92233 35.46184 87.56622 41.81795 79.72539 41.81795 71.88454 41.81795 65.52844 35.46184 65.52844 27.621 65.52844 19.78015 71.88454 13.42406 79.72539 13.42406 87.56622 13.42406 93.92233 19.78015 93.92233 27.621ZM79.72539 27.621" fill="#bfbfbf"/>
<path transform="matrix(1.00006,0,0,-1.00005,39.375406,188.25716)" stroke-width=".3985" stroke-linecap="butt" stroke-miterlimit="10" stroke-linejoin="miter" fill="none" stroke="#7f807f" d="M93.92233 27.621C93.92233 35.46184 87.56622 41.81795 79.72539 41.81795 71.88454 41.81795 65.52844 35.46184 65.52844 27.621 65.52844 19.78015 71.88454 13.42406 79.72539 13.42406 87.56622 13.42406 93.92233 19.78015 93.92233 27.621ZM79.72539 27.621"/>
<use data-text="G" xlink:href="#font_2_58" transform="matrix(5.977933,0,0,-5.9778735,116.61277,162.67638)"/>
<path transform="matrix(1.00006,0,0,-1.00005,39.375406,188.25716)" d="M125.8125 27.621C125.8125 35.46184 119.45639 41.81795 111.61555 41.81795 103.7747 41.81795 97.41861 35.46184 97.41861 27.621 97.41861 19.78015 103.7747 13.42406 111.61555 13.42406 119.45639 13.42406 125.8125 19.78015 125.8125 27.621ZM111.61555 27.621" fill="#f2f2f2"/>
<path transform="matrix(1.00006,0,0,-1.00005,39.375406,188.25716)" stroke-width=".3985" stroke-linecap="butt" stroke-miterlimit="10" stroke-linejoin="miter" fill="none" stroke="#7f807f" d="M125.8125 27.621C125.8125 35.46184 119.45639 41.81795 111.61555 41.81795 103.7747 41.81795 97.41861 35.46184 97.41861 27.621 97.41861 19.78015 103.7747 13.42406 111.61555 13.42406 119.45639 13.42406 125.8125 19.78015 125.8125 27.621ZM111.61555 27.621"/>
<use data-text="B" xlink:href="#font_2_34" transform="matrix(5.977933,0,0,-5.9778735,147.51462,162.87639)"/>
<use data-text="&#x266d;" xlink:href="#font_3_1" transform="matrix(5.977933,0,0,-5.9778735,152.0104,162.87639)"/>
<path transform="matrix(1.00006,0,0,-1.00005,39.375406,188.25716)" d="M157.70265 27.621C157.70265 35.46184 151.34656 41.81795 143.5057 41.81795 135.66487 41.81795 129.30876 35.46184 129.30876 27.621 129.30876 19.78015 135.66487 13.42406 143.5057 13.42406 151.34656 13.42406 157.70265 19.78015 157.70265 27.621ZM143.5057 27.621" fill="#f2f2f2"/>
<path transform="matrix(1.00006,0,0,-1.00005,39.375406,188.25716)" stroke-width=".3985" stroke-linecap="butt" stroke-miterlimit="10" stroke-linejoin="miter" fill="none" stroke="#7f807f" d="M157.70265 27.621C157.70265 35.46184 151.34656 41.81795 143.5057 41.81795 135.66487 41.81795 129.30876 35.46184 129.30876 27.621 129.30876 19.78015 135.66487 13.42406 143.5057 13.42406 151.34656 13.42406 157.70265 19.78015 157.70265 27.621ZM143.5057 27.621"/>
<use data-text="C" xlink:href="#font_2_42" transform="matrix(5.977933,0,0,-5.9778735,179.36255,162.15735)"/>
<use data-text="&#x266f;" xlink:href="#font_3_2" transform="matrix(5.977933,0,0,-5.9778735,183.94757,162.15735)"/>
<path transform="matrix(1.00006,0,0,-1.00005,39.375406,188.25716)" d="M189.5928 27.621C189.5928 35.46184 183.23671 41.81795 175.39586 41.81795 167.55501 41.81795 161.19892 35.46184 161.19892 27.621 161.19892 19.78015 167.55501 13.42406 175.39586 13.42406 183.23671 13.42406 189.5928 19.78015 189.5928 27.621ZM175.39586 27.621" fill="#bfbfbf"/>
<path transform="matrix(1.00006,0,0,-1.00005,39.375406,188.25716)" stroke-width=".3985" stroke-linecap="butt" stroke-miterlimit="10" stroke-linejoin="miter" fill="none" stroke="#7f807f" d="M189.5928 27.621C189.5928 35.46184 183.23671 41.81795 175.39586 41.81795 167.55501 41.81795 161.19892 35.46184 161.19892 27.621 161.19892 19.78015 167.55501 13.42406 175.39586 13.42406 183.23671 13.42406 189.5928 19.78015 189.5928 27.621ZM175.39586 27.621"/>
<use data-text="E" xlink:href="#font_2_49" transform="matrix(5.977933,0,0,-5.9778735,212.62055,162.66738)"/>
<path transform="matrix(1.00006,0,0,-1.00005,39.375406,188.25716)" d="M221.48299 27.621C221.48299 35.46184 215.12688 41.81795 207.28604 41.81795 199.44519 41.81795 193.0891 35.46184 193.0891 27.621 193.0891 19.78015 199.44519 13.42406 207.28604 13.42406 215.12688 13.42406 221.48299 19.78015 221.48299 27.621ZM207.28604 27.621" fill="#bfbfbf"/>
<path transform="matrix(1.00006,0,0,-1.00005,39.375406,188.25716)" stroke-width=".3985" stroke-linecap="butt" stroke-miterlimit="10" stroke-linejoin="miter" fill="none" stroke="#7f807f" d="M221.48299 27.621C221.48299 35.46184 215.12688 41.81795 207.28604 41.81795 199.44519 41.81795 193.0891 35.46184 193.0891 27.621 193.0891 19.78015 199.44519 13.42406 207.28604 13.42406 215.12688 13.42406 221.48299 19.78015 221.48299 27.621ZM207.28604 27.621"/>
<use data-text="G" xlink:href="#font_2_58" transform="matrix(5.977933,0,0,-5.9778735,244.18141,162.67638)"/>
<path transform="matrix(1.00006,0,0,-1.00005,39.375406,188.25716)" d="M253.37313 27.621C253.37313 35.46184 247.01703 41.81795 239.17618 41.81795 231.33535 41.81795 224.97924 35.46184 224.97924 27.621 224.97924 19.78015 231.33535 13.42406 239.17618 13.42406 247.01703 13.42406 253.37313 19.78015 253.37313 27.621ZM239.17618 27.621" fill="#f2f2f2"/>
<path transform="matrix(1.00006,0,0,-1.00005,39.375406,188.25716)" stroke-width=".3985" stroke-linecap="butt" stroke-miterlimit="10" stroke-linejoin="miter" fill="none" stroke="#7f807f" d="M253.37313 27.621C253.37313 35.46184 247.01703 41.81795 239.17618 41.81795 231.33535 41.81795 224.97924 35.46184 224.97924 27.621 224.97924 19.78015 231.33535 13.42406 239.17618 13.42406 247.01703 13.42406 253.37313 19.78015 253.37313 27.621ZM239.17618 27.621"/>
<use data-text="B" xlink:href="#font_2_34" transform="matrix(5.977933,0,0,-5.9778735,275.08326,162.87639)"/>
<use data-text="&#x266d;" xlink:href="#font_3_1" transform="matrix(5.977933,0,0,-5.9778735,279.57905,162.87639)"/>
<path transform="matrix(1.00006,0,0,-1.00005,39.375406,188.25716)" d="M285.26329 27.621C285.26329 35.46184 278.9072 41.81795 271.06636 41.81795 263.2255 41.81795 256.8694 35.46184 256.8694 27.621 256.8694 19.78015 263.2255 13.42406 271.06636 13.42406 278.9072 13.42406 285.26329 19.78015 285.26329 27.621ZM271.06636 27.621" fill="#f2f2f2"/>
<path transform="matrix(1.00006,0,0,-1.00005,39.375406,188.25716)" stroke-width=".3985" stroke-linecap="butt" stroke-miterlimit="10" stroke-linejoin="miter" fill="none" stroke="#7f807f" d="M285.26329 27.621C285.26329 35.46184 278.9072 41.81795 271.06636 41.81795 263.2255 41.81795 256.8694 35.46184 256.8694 27.621 256.8694 19.78015 263.2255 13.42406 271.06636 13.42406 278.9072 13.42406 285.26329 19.78015 285.26329 27.621ZM271.06636 27.621"/>
<use data-text="C" xlink:href="#font_2_42" transform="matrix(5.977933,0,0,-5.9778735,306.93019,162.15735)"/>
<use data-text="&#x266f;" xlink:href="#font_3_2" transform="matrix(5.977933,0,0,-5.9778735,311.5152,162.15735)"/>
<path transform="matrix(1.00006,0,0,-1.00005,39.375406,188.25716)" d="M46.08708 55.242C46.08708 63.08286 39.73099 69.43895 31.89014 69.43895 24.0493 69.43895 17.69319 63.08286 17.69319 55.242 17.69319 47.40115 24.0493 41.04506 31.89014 41.04506 39.73099 41.04506 46.08708 47.40115 46.08708 55.242ZM31.89014 55.242" fill="#f2f2f2"/>
<path transform="matrix(1.00006,0,0,-1.00005,39.375406,188.25716)" stroke-width=".3985" stroke-linecap="butt" stroke-miterlimit="10" stroke-linejoin="miter" fill="none" stroke="#7f807f" d="M46.08708 55.242C46.08708 63.08286 39.73099 69.43895 31.89014 69.43895 24.0493 69.43895 17.69319 63.08286 17.69319 55.242 17.69319 47.40115 24.0493 41.04506 31.89014 41.04506 39.73099 41.04506 46.08708 47.40115 46.08708 55.242ZM31.89014 55.242"/>
<use data-text="D" xlink:href="#font_2_46" transform="matrix(5.977933,0,0,-5.9778735,68.84291,135.054)"/>
<path transform="matrix(1.00006,0,0,-1.00005,39.375406,188.25716)" d="M77.97725 55.242C77.97725 63.08286 71.62115 69.43895 63.7803 69.43895 55.93945 69.43895 49.58336 63.08286 49.58336 55.242 49.58336 47.40115 55.93945 41.04506 63.7803 41.04506 71.62115 41.04506 77.97725 47.40115 77.97725 55.242ZM63.7803 55.242" fill="#f2f2f2"/>
<path transform="matrix(1.00006,0,0,-1.00005,39.375406,188.25716)" stroke-width=".3985" stroke-linecap="butt" stroke-miterlimit="10" stroke-linejoin="miter" fill="none" stroke="#7f807f" d="M77.97725 55.242C77.97725 63.08286 71.62115 69.43895 63.7803 69.43895 55.93945 69.43895 49.58336 63.08286 49.58336 55.242 49.58336 47.40115 55.93945 41.04506 63.7803 41.04506 71.62115 41.04506 77.97725 47.40115 77.97725 55.242ZM63.7803 55.242"/>
<use data-text="F" xlink:href="#font_2_54" transform="matrix(5.977933,0,0,-5.9778735,101.087848,135.045)"/>
<path transform="matrix(1.00006,0,0,-1.00005,39.375406,188.25716)" d="M109.86742 55.242C109.86742 63.08286 103.5113 69.43895 95.67047 69.43895 87.82962 69.43895 81.47353 63.08286 81.47353 55.242 81.47353 47.40115 87.82962 41.04506 95.67047 41.04506 103.5113 41.04506 109.86742 47.40115 109.86742 55.242ZM95.67047 55.242" fill="#f2f2f2"/>
<path transform="matrix(1.00006,0,0,-1.00005,39.375406,188.25716)" stroke-width=".3985" stroke-linecap="butt" stroke-miterlimit="10" stroke-linejoin="miter" fill="none" stroke="#7f807f" d="M109.86742 55.242C109.86742 63.08286 103.5113 69.43895 95.67047 69.43895 87.82962 69.43895 81.47353 63.08286 81.47353 55.242 81.47353 47.40115 87.82962 41.04506 95.67047 41.04506 103.5113 41.04506 109.86742 47.40115 109.86742 55.242ZM95.67047 55.242"/>
<use data-text="A" xlink:href="#font_2_27" transform="matrix(5.977933,0,0,-5.9778735,131.43767,135.25402)"/>
<use data-text="&#x266d;" xlink:href="#font_3_1" transform="matrix(5.977933,0,0,-5.9778735,136.19596,135.25402)"/>
<path transform="matrix(1.00006,0,0,-1.00005,39.375406,188.25716)" d="M141.75757 55.242C141.75757 63.08286 135.40148 69.43895 127.56062 69.43895 119.71979 69.43895 113.36368 63.08286 113.36368 55.242 113.36368 47.40115 119.71979 41.04506 127.56062 41.04506 135.40148 41.04506 141.75757 47.40115 141.75757 55.242ZM127.56062 55.242" fill="#f2f2f2"/>
<path transform="matrix(1.00006,0,0,-1.00005,39.375406,188.25716)" stroke-width=".3985" stroke-linecap="butt" stroke-miterlimit="10" stroke-linejoin="miter" fill="none" stroke="#7f807f" d="M141.75757 55.242C141.75757 63.08286 135.40148 69.43895 127.56062 69.43895 119.71979 69.43895 113.36368 63.08286 113.36368 55.242 113.36368 47.40115 119.71979 41.04506 127.56062 41.04506 135.40148 41.04506 141.75757 47.40115 141.75757 55.242ZM127.56062 55.242"/>
<use data-text="B" xlink:href="#font_2_34" transform="matrix(5.977933,0,0,-5.9778735,164.69568,135.054)"/>
<path transform="matrix(1.00006,0,0,-1.00005,39.375406,188.25716)" d="M173.64774 55.242C173.64774 63.08286 167.29164 69.43895 159.45079 69.43895 151.60994 69.43895 145.25385 63.08286 145.25385 55.242 145.25385 47.40115 151.60994 41.04506 159.45079 41.04506 167.29164 41.04506 173.64774 47.40115 173.64774 55.242ZM159.45079 55.242" fill="#f2f2f2"/>
<path transform="matrix(1.00006,0,0,-1.00005,39.375406,188.25716)" stroke-width=".3985" stroke-linecap="butt" stroke-miterlimit="10" stroke-linejoin="miter" fill="none" stroke="#7f807f" d="M173.64774 55.242C173.64774 63.08286 167.29164 69.43895 159.45079 69.43895 151.60994 69.43895 145.25385 63.08286 145.25385 55.242 145.25385 47.40115 151.60994 41.04506 159.45079 41.04506 167.29164 41.04506 173.64774 47.40115 173.64774 55.242ZM159.45079 55.242"/>
<use data-text="D" xlink:href="#font_2_46" transform="matrix(5.977933,0,0,-5.9778735,196.41156,135.054)"/>
<path transform="matrix(1.00006,0,0,-1.00005,39.375406,188.25716)" d="M205.5379 55.242C205.5379 63.08286 199.18181 69.43895 191.34096 69.43895 183.5001 69.43895 177.14402 63.08286 177.14402 55.242 177.14402 47.40115 183.5001 41.04506 191.34096 41.04506 199.18181 41.04506 205.5379 47.40115 205.5379 55.242ZM191.34096 55.242" fill="#f2f2f2"/>
<path transform="matrix(1.00006,0,0,-1.00005,39.375406,188.25716)" stroke-width=".3985" stroke-linecap="butt" stroke-miterlimit="10" stroke-linejoin="miter" fill="none" stroke="#7f807f" d="M205.5379 55.242C205.5379 63.08286 199.18181 69.43895 191.34096 69.43895 183.5001 69.43895 177.14402 63.08286 177.14402 55.242 177.14402 47.40115 183.5001 41.04506 191.34096 41.04506 199.18181 41.04506 205.5379 47.40115 205.5379 55.242ZM191.34096 55.242"/>
<use data-text="F" xlink:href="#font_2_54" transform="matrix(5.977933,0,0,-5.9778735,228.65651,135.045)"/>
<path transform="matrix(1.00006,0,0,-1.00005,39.375406,188.25716)" d="M237.42806 55.242C237.42806 63.08286 231.07195 69.43895 223.23111 69.43895 215.39026 69.43895 209.03417 63.08286 209.03417 55.242 209.03417 47.40115 215.39026 41.04506 223.23111 41.04506 231.07195 41.04506 237.42806 47.40115 237.42806 55.242ZM223.23111 55.242" fill="#f2f2f2"/>
<path transform="matrix(1.00006,0,0,-1.00005,39.375406,188.25716)" stroke-width=".3985" stroke-linecap="butt" stroke-miterlimit="10" stroke-linejoin="miter" fill="none" stroke="#7f807f" d="M237.42806 55.242C237.42806 63.08286 231.07195 69.43895 223.23111 69.43895 215.39026 69.43895 209.03417 63.08286 209.03417 55.242 209.03417 47.40115 215.39026 41.04506 223.23111 41.04506 231.07195 41.04506 237.42806 47.40115 237.42806 55.242ZM223.23111 55.242"/>
<use data-text="A" xlink:href="#font_2_27" transform="matrix(5.977933,0,0,-5.9778735,259.0053,135.25402)"/>
<use data-text="&#x266d;" xlink:href="#font_3_1" transform="matrix(5.977933,0,0,-5.9778735,263.7636,135.25402)"/>
<path transform="matrix(1.00006,0,0,-1.00005,39.375406,188.25716)" d="M269.3182 55.242C269.3182 63.08286 262.96214 69.43895 255.12128 69.43895 247.28044 69.43895 240.92433 63.08286 240.92433 55.242 240.92433 47.40115 247.28044 41.04506 255.12128 41.04506 262.96214 41.04506 269.3182 47.40115 269.3182 55.242ZM255.12128 55.242" fill="#f2f2f2"/>
<path transform="matrix(1.00006,0,0,-1.00005,39.375406,188.25716)" stroke-width=".3985" stroke-linecap="butt" stroke-miterlimit="10" stroke-linejoin="miter" fill="none" stroke="#7f807f" d="M269.3182 55.242C269.3182 63.08286 262.96214 69.43895 255.12128 69.43895 247.28044 69.43895 240.92433 63.08286 240.92433 55.242 240.92433 47.40115 247.28044 41.04506 255.12128 41.04506 262.96214 41.04506 269.3182 47.40115 269.3182 55.242ZM255.12128 55.242"/>
<use data-text="B" xlink:href="#font_2_34" transform="matrix(5.977933,0,0,-5.9778735,292.26429,135.054)"/>
<path transform="matrix(1.00006,0,0,-1.00005,39.375406,188.25716)" d="M301.20838 55.242C301.20838 63.08286 294.8523 69.43895 287.01145 69.43895 279.1706 69.43895 272.81449 63.08286 272.81449 55.242 272.81449 47.40115 279.1706 41.04506 287.01145 41.04506 294.8523 41.04506 301.20838 47.40115 301.20838 55.242ZM287.01145 55.242" fill="#f2f2f2"/>
<path transform="matrix(1.00006,0,0,-1.00005,39.375406,188.25716)" stroke-width=".3985" stroke-linecap="butt" stroke-miterlimit="10" stroke-linejoin="miter" fill="none" stroke="#7f807f" d="M301.20838 55.242C301.20838 63.08286 294.8523 69.43895 287.01145 69.43895 279.1706 69.43895 272.81449 63.08286 272.81449 55.242 272.81449 47.40115 279.1706 41.04506 287.01145 41.04506 294.8523 41.04506 301.20838 47.40115 301.20838 55.242ZM287.01145 55.242"/>
<use data-text="D" xlink:href="#font_2_46" transform="matrix(5.977933,0,0,-5.9778735,323.98023,135.054)"/>
<path transform="matrix(1.00006,0,0,-1.00005,39.375406,188.25716)" d="M62.03217 82.863C62.03217 90.70386 55.67607 97.05995 47.83522 97.05995 39.99437 97.05995 33.63828 90.70386 33.63828 82.863 33.63828 75.02217 39.99437 68.66606 47.83522 68.66606 55.67607 68.66606 62.03217 75.02217 62.03217 82.863ZM47.83522 82.863" fill="#f2f2f2"/>
<path transform="matrix(1.00006,0,0,-1.00005,39.375406,188.25716)" stroke-width=".3985" stroke-linecap="butt" stroke-miterlimit="10" stroke-linejoin="miter" fill="none" stroke="#7f807f" d="M62.03217 82.863C62.03217 90.70386 55.67607 97.05995 47.83522 97.05995 39.99437 97.05995 33.63828 90.70386 33.63828 82.863 33.63828 75.02217 39.99437 68.66606 47.83522 68.66606 55.67607 68.66606 62.03217 75.02217 62.03217 82.863ZM47.83522 82.863"/>
<use data-text="E" xlink:href="#font_2_49" transform="matrix(5.977933,0,0,-5.9778735,83.81781,107.63163)"/>
<use data-text="&#x266d;" xlink:href="#font_3_1" transform="matrix(5.977933,0,0,-5.9778735,88.14032,107.63163)"/>
<path transform="matrix(1.00006,0,0,-1.00005,39.375406,188.25716)" d="M93.92233 82.863C93.92233 90.70386 87.56622 97.05995 79.72539 97.05995 71.88454 97.05995 65.52844 90.70386 65.52844 82.863 65.52844 75.02217 71.88454 68.66606 79.72539 68.66606 87.56622 68.66606 93.92233 75.02217 93.92233 82.863ZM79.72539 82.863" fill="#f2f2f2"/>
<path transform="matrix(1.00006,0,0,-1.00005,39.375406,188.25716)" stroke-width=".3985" stroke-linecap="butt" stroke-miterlimit="10" stroke-linejoin="miter" fill="none" stroke="#7f807f" d="M93.92233 82.863C93.92233 90.70386 87.56622 97.05995 79.72539 97.05995 71.88454 97.05995 65.52844 90.70386 65.52844 82.863 65.52844 75.02217 71.88454 68.66606 79.72539 68.66606 87.56622 68.66606 93.92233 75.02217 93.92233 82.863ZM79.72539 82.863"/>
<use data-text="F" xlink:href="#font_2_54" transform="matrix(5.977933,0,0,-5.9778735,115.79873,106.88459)"/>
<use data-text="&#x266f;" xlink:href="#font_3_2" transform="matrix(5.977933,0,0,-5.9778735,119.94122,106.88459)"/>
<path transform="matrix(1.00006,0,0,-1.00005,39.375406,188.25716)" d="M125.8125 82.863C125.8125 90.70386 119.45639 97.05995 111.61555 97.05995 103.7747 97.05995 97.41861 90.70386 97.41861 82.863 97.41861 75.02217 103.7747 68.66606 111.61555 68.66606 119.45639 68.66606 125.8125 75.02217 125.8125 82.863ZM111.61555 82.863" fill="#f2f2f2"/>
<path transform="matrix(1.00006,0,0,-1.00005,39.375406,188.25716)" stroke-width=".3985" stroke-linecap="butt" stroke-miterlimit="10" stroke-linejoin="miter" fill="none" stroke="#7f807f" d="M125.8125 82.863C125.8125 90.70386 119.45639 97.05995 111.61555 97.05995 103.7747 97.05995 97.41861 90.70386 97.41861 82.863 97.41861 75.02217 103.7747 68.66606 111.61555 68.66606 119.45639 68.66606 125.8125 75.02217 125.8125 82.863ZM111.61555 82.863"/>
<use data-text="A" xlink:href="#font_2_27" transform="matrix(5.977933,0,0,-5.9778735,148.61869,107.52362)"/>
<path transform="matrix(1.00006,0,0,-1.00005,39.375406,188.25716)" d="M157.70265 82.863C157.70265 90.70386 151.34656 97.05995 143.5057 97.05995 135.66487 97.05995 129.30876 90.70386 129.30876 82.863 129.30876 75.02217 135.66487 68.66606 143.5057 68.66606 151.34656 68.66606 157.70265 75.02217 157.70265 82.863ZM143.5057 82.863" fill="#bfbfbf"/>
<path transform="matrix(1.00006,0,0,-1.00005,39.375406,188.25716)" stroke-width=".3985" stroke-linecap="butt" stroke-miterlimit="10" stroke-linejoin="miter" fill="none" stroke="#7f807f" d="M157.70265 82.863C157.70265 90.70386 151.34656 97.05995 143.5057 97.05995 135.66487 97.05995 129.30876 90.70386 129.30876 82.863 129.30876 75.02217 135.66487 68.66606 143.5057 68.66606 151.34656 68.66606 157.70265 75.02217 157.70265 82.863ZM143.5057 82.863"/>
<use data-text="C" xlink:href="#font_2_42" transform="matrix(5.977933,0,0,-5.9778735,180.59763,107.431629)"/>
<path transform="matrix(1.00006,0,0,-1.00005,39.375406,188.25716)" d="M189.5928 82.863C189.5928 90.70386 183.23671 97.05995 175.39586 97.05995 167.55501 97.05995 161.19892 90.70386 161.19892 82.863 161.19892 75.02217 167.55501 68.66606 175.39586 68.66606 183.23671 68.66606 189.5928 75.02217 189.5928 82.863ZM175.39586 82.863" fill="#f2f2f2"/>
<path transform="matrix(1.00006,0,0,-1.00005,39.375406,188.25716)" stroke-width=".3985" stroke-linecap="butt" stroke-miterlimit="10" stroke-linejoin="miter" fill="none" stroke="#7f807f" d="M189.5928 82.863C189.5928 90.70386 183.23671 97.05995 175.39586 97.05995 167.55501 97.05995 161.19892 90.70386 161.19892 82.863 161.19892 75.02217 167.55501 68.66606 175.39586 68.66606 183.23671 68.66606 189.5928 75.02217 189.5928 82.863ZM175.39586 82.863"/>
<use data-text="E" xlink:href="#font_2_49" transform="matrix(5.977933,0,0,-5.9778735,211.38547,107.63163)"/>
<use data-text="&#x266d;" xlink:href="#font_3_1" transform="matrix(5.977933,0,0,-5.9778735,215.70798,107.63163)"/>
<path transform="matrix(1.00006,0,0,-1.00005,39.375406,188.25716)" d="M221.48299 82.863C221.48299 90.70386 215.12688 97.05995 207.28604 97.05995 199.44519 97.05995 193.0891 90.70386 193.0891 82.863 193.0891 75.02217 199.44519 68.66606 207.28604 68.66606 215.12688 68.66606 221.48299 75.02217 221.48299 82.863ZM207.28604 82.863" fill="#f2f2f2"/>
<path transform="matrix(1.00006,0,0,-1.00005,39.375406,188.25716)" stroke-width=".3985" stroke-linecap="butt" stroke-miterlimit="10" stroke-linejoin="miter" fill="none" stroke="#7f807f" d="M221.48299 82.863C221.48299 90.70386 215.12688 97.05995 207.28604 97.05995 199.44519 97.05995 193.0891 90.70386 193.0891 82.863 193.0891 75.02217 199.44519 68.66606 207.28604 68.66606 215.12688 68.66606 221.48299 75.02217 221.48299 82.863ZM207.28604 82.863"/>
<use data-text="F" xlink:href="#font_2_54" transform="matrix(5.977933,0,0,-5.9778735,243.36739,106.88459)"/>
<use data-text="&#x266f;" xlink:href="#font_3_2" transform="matrix(5.977933,0,0,-5.9778735,247.50989,106.88459)"/>
<path transform="matrix(1.00006,0,0,-1.00005,39.375406,188.25716)" d="M253.37313 82.863C253.37313 90.70386 247.01703 97.05995 239.17618 97.05995 231.33535 97.05995 224.97924 90.70386 224.97924 82.863 224.97924 75.02217 231.33535 68.66606 239.17618 68.66606 247.01703 68.66606 253.37313 75.02217 253.37313 82.863ZM239.17618 82.863" fill="#f2f2f2"/>
<path transform="matrix(1.00006,0,0,-1.00005,39.375406,188.25716)" stroke-width=".3985" stroke-linecap="butt" stroke-miterlimit="10" stroke-linejoin="miter" fill="none" stroke="#7f807f" d="M253.37313 82.863C253.37313 90.70386 247.01703 97.05995 239.17618 97.05995 231.33535 97.05995 224.97924 90.70386 224.97924 82.863 224.97924 75.02217 231.33535 68.66606 239.17618 68.66606 247.01703 68.66606 253.37313 75.02217 253.37313 82.863ZM239.17618 82.863"/>
<use data-text="A" xlink:href="#font_2_27" transform="matrix(5.977933,0,0,-5.9778735,276.18635,107.52362)"/>
<path transform="matrix(1.00006,0,0,-1.00005,39.375406,188.25716)" d="M285.26329 82.863C285.26329 90.70386 278.9072 97.05995 271.06636 97.05995 263.2255 97.05995 256.8694 90.70386 256.8694 82.863 256.8694 75.02217 263.2255 68.66606 271.06636 68.66606 278.9072 68.66606 285.26329 75.02217 285.26329 82.863ZM271.06636 82.863" fill="#bfbfbf"/>
<path transform="matrix(1.00006,0,0,-1.00005,39.375406,188.25716)" stroke-width=".3985" stroke-linecap="butt" stroke-miterlimit="10" stroke-linejoin="miter" fill="none" stroke="#7f807f" d="M285.26329 82.863C285.26329 90.70386 278.9072 97.05995 271.06636 97.05995 263.2255 97.05995 256.8694 90.70386 256.8694 82.863 256.8694 75.02217 263.2255 68.66606 271.06636 68.66606 278.9072 68.66606 285.26329 75.02217 285.26329 82.863ZM271.06636 82.863"/>
<use data-text="C" xlink:href="#font_2_42" transform="matrix(5.977933,0,0,-5.9778735,308.16529,107.431629)"/>
<path transform="matrix(1.00006,0,0,-1.00005,39.375406,188.25716)" d="M77.97725 110.48402C77.97725 118.32486 71.62115 124.68097 63.7803 124.68097 55.93945 124.68097 49.58336 118.32486 49.58336 110.48402 49.58336 102.64317 55.93945 96.28708 63.7803 96.28708 71.62115 96.28708 77.97725 102.64317 77.97725 110.48402ZM63.7803 110.48402" fill="#bfbfbf"/>
<path transform="matrix(1.00006,0,0,-1.00005,39.375406,188.25716)" stroke-width=".3985" stroke-linecap="butt" stroke-miterlimit="10" stroke-linejoin="miter" fill="none" stroke="#7f807f" d="M77.97725 110.48402C77.97725 118.32486 71.62115 124.68097 63.7803 124.68097 55.93945 124.68097 49.58336 118.32486 49.58336 110.48402 49.58336 102.64317 55.93945 96.28708 63.7803 96.28708 71.62115 96.28708 77.97725 102.64317 77.97725 110.48402ZM63.7803 110.48402"/>
<use data-text="E" xlink:href="#font_2_49" transform="matrix(5.977933,0,0,-5.9778735,100.99884,79.80024)"/>
<path transform="matrix(1.00006,0,0,-1.00005,39.375406,188.25716)" d="M109.86742 110.48402C109.86742 118.32486 103.5113 124.68097 95.67047 124.68097 87.82962 124.68097 81.47353 118.32486 81.47353 110.48402 81.47353 102.64317 87.82962 96.28708 95.67047 96.28708 103.5113 96.28708 109.86742 102.64317 109.86742 110.48402ZM95.67047 110.48402" fill="#bfbfbf"/>
<path transform="matrix(1.00006,0,0,-1.00005,39.375406,188.25716)" stroke-width=".3985" stroke-linecap="butt" stroke-miterlimit="10" stroke-linejoin="miter" fill="none" stroke="#7f807f" d="M109.86742 110.48402C109.86742 118.32486 103.5113 124.68097 95.67047 124.68097 87.82962 124.68097 81.47353 118.32486 81.47353 110.48402 81.47353 102.64317 87.82962 96.28708 95.67047 96.28708 103.5113 96.28708 109.86742 102.64317 109.86742 110.48402ZM95.67047 110.48402"/>
<use data-text="G" xlink:href="#font_2_58" transform="matrix(5.977933,0,0,-5.9778735,132.55875,79.80924)"/>
<path transform="matrix(1.00006,0,0,-1.00005,39.375406,188.25716)" d="M141.75757 110.48402C141.75757 118.32486 135.40148 124.68097 127.56062 124.68097 119.71979 124.68097 113.36368 118.32486 113.36368 110.48402 113.36368 102.64317 119.71979 96.28708 127.56062 96.28708 135.40148 96.28708 141.75757 102.64317 141.75757 110.48402ZM127.56062 110.48402" fill="#f2f2f2"/>
<path transform="matrix(1.00006,0,0,-1.00005,39.375406,188.25716)" stroke-width=".3985" stroke-linecap="butt" stroke-miterlimit="10" stroke-linejoin="miter" fill="none" stroke="#7f807f" d="M141.75757 110.48402C141.75757 118.32486 135.40148 124.68097 127.56062 124.68097 119.71979 124.68097 113.36368 118.32486 113.36368 110.48402 113.36368 102.64317 119.71979 96.28708 127.56062 96.28708 135.40148 96.28708 141.75757 102.64317 141.75757 110.48402ZM127.56062 110.48402"/>
<use data-text="B" xlink:href="#font_2_34" transform="matrix(5.977933,0,0,-5.9778735,163.4606,80.00925)"/>
<use data-text="&#x266d;" xlink:href="#font_3_1" transform="matrix(5.977933,0,0,-5.9778735,167.95636,80.00925)"/>
<path transform="matrix(1.00006,0,0,-1.00005,39.375406,188.25716)" d="M173.64774 110.48402C173.64774 118.32486 167.29164 124.68097 159.45079 124.68097 151.60994 124.68097 145.25385 118.32486 145.25385 110.48402 145.25385 102.64317 151.60994 96.28708 159.45079 96.28708 167.29164 96.28708 173.64774 102.64317 173.64774 110.48402ZM159.45079 110.48402" fill="#f2f2f2"/>
<path transform="matrix(1.00006,0,0,-1.00005,39.375406,188.25716)" stroke-width=".3985" stroke-linecap="butt" stroke-miterlimit="10" stroke-linejoin="miter" fill="none" stroke="#7f807f" d="M173.64774 110.48402C173.64774 118.32486 167.29164 124.68097 159.45079 124.68097 151.60994 124.68097 145.25385 118.32486 145.25385 110.48402 145.25385 102.64317 151.60994 96.28708 159.45079 96.28708 167.29164 96.28708 173.64774 102.64317 173.64774 110.48402ZM159.45079 110.48402"/>
<use data-text="C" xlink:href="#font_2_42" transform="matrix(5.977933,0,0,-5.9778735,195.3085,79.290218)"/>
<use data-text="&#x266f;" xlink:href="#font_3_2" transform="matrix(5.977933,0,0,-5.9778735,199.89353,79.290218)"/>
<path transform="matrix(1.00006,0,0,-1.00005,39.375406,188.25716)" d="M205.5379 110.48402C205.5379 118.32486 199.18181 124.68097 191.34096 124.68097 183.5001 124.68097 177.14402 118.32486 177.14402 110.48402 177.14402 102.64317 183.5001 96.28708 191.34096 96.28708 199.18181 96.28708 205.5379 102.64317 205.5379 110.48402ZM191.34096 110.48402" fill="#bfbfbf"/>
<path transform="matrix(1.00006,0,0,-1.00005,39.375406,188.25716)" stroke-width=".3985" stroke-linecap="butt" stroke-miterlimit="10" stroke-linejoin="miter" fill="none" stroke="#7f807f" d="M205.5379 110.48402C205.5379 118.32486 199.18181 124.68097 191.34096 124.68097 183.5001 124.68097 177.14402 118.32486 177.14402 110.48402 177.14402 102.64317 183.5001 96.28708 191.34096 96.28708 199.18181 96.28708 205.5379 102.64317 205.5379 110.48402ZM191.34096 110.48402"/>
<use data-text="E" xlink:href="#font_2_49" transform="matrix(5.977933,0,0,-5.9778735,228.56649,79.80024)"/>
<path transform="matrix(1.00006,0,0,-1.00005,39.375406,188.25716)" d="M237.42806 110.48402C237.42806 118.32486 231.07195 124.68097 223.23111 124.68097 215.39026 124.68097 209.03417 118.32486 209.03417 110.48402 209.03417 102.64317 215.39026 96.28708 223.23111 96.28708 231.07195 96.28708 237.42806 102.64317 237.42806 110.48402ZM223.23111 110.48402" fill="#bfbfbf"/>
<path transform="matrix(1.00006,0,0,-1.00005,39.375406,188.25716)" stroke-width=".3985" stroke-linecap="butt" stroke-miterlimit="10" stroke-linejoin="miter" fill="none" stroke="#7f807f" d="M237.42806 110.48402C237.42806 118.32486 231.07195 124.68097 223.23111 124.68097 215.39026 124.68097 209.03417 118.32486 209.03417 110.48402 209.03417 102.64317 215.39026 96.28708 223.23111 96.28708 231.07195 96.28708 237.42806 102.64317 237.42806 110.48402ZM223.23111 110.48402"/>
<use data-text="G" xlink:href="#font_2_58" transform="matrix(5.977933,0,0,-5.9778735,260.12739,79.80924)"/>
<path transform="matrix(1.00006,0,0,-1.00005,39.375406,188.25716)" d="M269.3182 110.48402C269.3182 118.32486 262.96214 124.68097 255.12128 124.68097 247.28044 124.68097 240.92433 118.32486 240.92433 110.48402 240.92433 102.64317 247.28044 96.28708 255.12128 96.28708 262.96214 96.28708 269.3182 102.64317 269.3182 110.48402ZM255.12128 110.48402" fill="#f2f2f2"/>
<path transform="matrix(1.00006,0,0,-1.00005,39.375406,188.25716)" stroke-width=".3985" stroke-linecap="butt" stroke-miterlimit="10" stroke-linejoin="miter" fill="none" stroke="#7f807f" d="M269.3182 110.48402C269.3182 118.32486 262.96214 124.68097 255.12128 124.68097 247.28044 124.68097 240.92433 118.32486 240.92433 110.48402 240.92433 102.64317 247.28044 96.28708 255.12128 96.28708 262.96214 96.28708 269.3182 102.64317 269.3182 110.48402ZM255.12128 110.48402"/>
<use data-text="B" xlink:href="#font_2_34" transform="matrix(5.977933,0,0,-5.9778735,291.02925,80.00925)"/>
<use data-text="&#x266d;" xlink:href="#font_3_1" transform="matrix(5.977933,0,0,-5.9778735,295.525,80.00925)"/>
<path transform="matrix(1.00006,0,0,-1.00005,39.375406,188.25716)" d="M301.20838 110.48402C301.20838 118.32486 294.8523 124.68097 287.01145 124.68097 279.1706 124.68097 272.81449 118.32486 272.81449 110.48402 272.81449 102.64317 279.1706 96.28708 287.01145 96.28708 294.8523 96.28708 301.20838 102.64317 301.20838 110.48402ZM287.01145 110.48402" fill="#f2f2f2"/>
<path transform="matrix(1.00006,0,0,-1.00005,39.375406,188.25716)" stroke-width=".3985" stroke-linecap="butt" stroke-miterlimit="10" stroke-linejoin="miter" fill="none" stroke="#7f807f" d="M301.20838 110.48402C301.20838 118.32486 294.8523 124.68097 287.01145 124.68097 279.1706 124.68097 272.81449 118.32486 272.81449 110.48402 272.81449 102.64317 279.1706 96.28708 287.01145 96.28708 294.8523 96.28708 301.20838 102.64317 301.20838 110.48402ZM287.01145 110.48402"/>
<use data-text="C" xlink:href="#font_2_42" transform="matrix(5.977933,0,0,-5.9778735,322.87617,79.290218)"/>
<use data-text="&#x266f;" xlink:href="#font_3_2" transform="matrix(5.977933,0,0,-5.9778735,327.46119,79.290218)"/>
<use data-text="5" xlink:href="#font_4_56" transform="matrix(6.725203,0,0,-6.725136,1.3868713,79.93324)"/>
<use data-text="4" xlink:href="#font_4_57" transform="matrix(6.725203,0,0,-6.725136,1.3868713,107.66663)"/>
<use data-text="3" xlink:href="#font_4_106" transform="matrix(6.725203,0,0,-6.725136,1.3868713,135.17801)"/>
<use data-text="2" xlink:href="#font_4_107" transform="matrix(6.725203,0,0,-6.725136,1.3868713,162.87439)"/>
<use data-text="1" xlink:href="#font_4_82" transform="matrix(6.725203,0,0,-6.725136,1.3868713,190.49677)"/>
<use data-text="T" xlink:href="#font_5_104" transform="matrix(0,-6.725136,-6.725203,-0,12.979309,141.48609)"/>
<use data-text="O" xlink:href="#font_5_80" transform="matrix(0,-6.725136,-6.725203,-0,12.979309,135.9513)"/>
<use data-text="P" xlink:href="#font_5_83" transform="matrix(0,-6.725136,-6.725203,-0,12.979309,129.97264)"/>
<path transform="matrix(1.00006,0,0,-1.00005,39.375406,188.25716)" stroke-width=".3985" stroke-linecap="butt" stroke-miterlimit="10" stroke-linejoin="miter" fill="none" stroke="#000000" d="M-25.51204 153.00424H287.8617"/>
<path transform="matrix(1.00006,0,0,-1.00005,39.375406,188.25716)" stroke-width=".3985" stroke-linecap="butt" stroke-miterlimit="10" stroke-linejoin="miter" fill="none" stroke="#000000" d="M-25.51204 158.31926H287.8617"/>
<path transform="matrix(1.00006,0,0,-1.00005,39.375406,188.25716)" stroke-width=".3985" stroke-linecap="butt" stroke-miterlimit="10" stroke-linejoin="miter" fill="none" stroke="#000000" d="M-25.51204 163.63431H287.8617"/>
<path transform="matrix(1.00006,0,0,-1.00005,39.375406,188.25716)" stroke-width=".3985" stroke-linecap="butt" stroke-miterlimit="10" stroke-linejoin="miter" fill="none" stroke="#000000" d="M-25.51204 168.94933H287.8617"/>
<path transform="matrix(1.00006,0,0,-1.00005,39.375406,188.25716)" stroke-width=".3985" stroke-linecap="butt" stroke-miterlimit="10" stroke-linejoin="miter" fill="none" stroke="#000000" d="M-25.51204 174.26435H287.8617"/>
<use data-text="G" xlink:href="#font_6_1" transform="matrix(14.944871,0,0,-14.944721,14.861679,29.729485)"/>
<path transform="matrix(1.00006,0,0,-1.00005,39.375406,188.25716)" stroke-width=".3985" stroke-linecap="butt" stroke-miterlimit="10" stroke-linejoin="miter" fill="none" stroke="#000000" d="M-4.25194 147.68921H4.25194"/>
<path transform="matrix(1.00006,0,0,-1.00005,39.375406,188.25716)" d="M2.97638 147.68921C2.97638 148.74591 1.64381 149.60253 0 149.60253-1.64381 149.60253-2.97638 148.74591-2.97638 147.68921-2.97638 146.63249-1.64381 145.77588 0 145.77588 1.64381 145.77588 2.97638 146.63249 2.97638 147.68921ZM0 147.68921"/>
<path transform="matrix(1.00006,0,0,-1.00005,39.375406,188.25716)" stroke-width=".3985" stroke-linecap="butt" stroke-miterlimit="10" stroke-linejoin="miter" fill="none" stroke="#000000" d="M2.97638 147.68921C2.97638 148.74591 1.64381 149.60253 0 149.60253-1.64381 149.60253-2.97638 148.74591-2.97638 147.68921-2.97638 146.63249-1.64381 145.77588 0 145.77588 1.64381 145.77588 2.97638 146.63249 2.97638 147.68921ZM0 147.68921"/>
<path transform="matrix(1.00006,0,0,-1.00005,39.375406,188.25716)" stroke-width=".3985" stroke-linecap="butt" stroke-miterlimit="10" stroke-linejoin="miter" fill="none" stroke="#000000" d="M2.7639 147.68921V166.82318"/>
<path transform="matrix(1.00006,0,0,-1.00005,39.375406,188.25716)" d="M50.8116 153.00424C50.8116 154.06095 49.47903 154.91756 47.83522 154.91756 46.1914 154.91756 44.85884 154.06095 44.85884 153.00424 44.85884 151.94754 46.1914 151.09093 47.83522 151.09093 49.47903 151.09093 50.8116 151.94754 50.8116 153.00424ZM47.83522 153.00424"/>
<path transform="matrix(1.00006,0,0,-1.00005,39.375406,188.25716)" stroke-width=".3985" stroke-linecap="butt" stroke-miterlimit="10" stroke-linejoin="miter" fill="none" stroke="#000000" d="M50.8116 153.00424C50.8116 154.06095 49.47903 154.91756 47.83522 154.91756 46.1914 154.91756 44.85884 154.06095 44.85884 153.00424 44.85884 151.94754 46.1914 151.09093 47.83522 151.09093 49.47903 151.09093 50.8116 151.94754 50.8116 153.00424ZM47.83522 153.00424"/>
<path transform="matrix(1.00006,0,0,-1.00005,39.375406,188.25716)" stroke-width=".3985" stroke-linecap="butt" stroke-miterlimit="10" stroke-linejoin="miter" fill="none" stroke="#000000" d="M50.59914 153.00424V172.13822"/>
<path transform="matrix(1.00006,0,0,-1.00005,39.375406,188.25716)" d="M66.75668 153.00424C66.75668 154.06095 65.42412 154.91756 63.7803 154.91756 62.13649 154.91756 60.80392 154.06095 60.80392 153.00424 60.80392 151.94754 62.13649 151.09093 63.7803 151.09093 65.42412 151.09093 66.75668 151.94754 66.75668 153.00424ZM63.7803 153.00424"/>
<path transform="matrix(1.00006,0,0,-1.00005,39.375406,188.25716)" stroke-width=".3985" stroke-linecap="butt" stroke-miterlimit="10" stroke-linejoin="miter" fill="none" stroke="#000000" d="M66.75668 153.00424C66.75668 154.06095 65.42412 154.91756 63.7803 154.91756 62.13649 154.91756 60.80392 154.06095 60.80392 153.00424 60.80392 151.94754 62.13649 151.09093 63.7803 151.09093 65.42412 151.09093 66.75668 151.94754 66.75668 153.00424ZM63.7803 153.00424"/>
<path transform="matrix(1.00006,0,0,-1.00005,39.375406,188.25716)" stroke-width=".3985" stroke-linecap="butt" stroke-miterlimit="10" stroke-linejoin="miter" fill="none" stroke="#000000" d="M66.54422 153.00424V172.13822"/>
<path transform="matrix(1.00006,0,0,-1.00005,39.375406,188.25716)" d="M82.70177 158.31926C82.70177 159.37596 81.3692 160.23259 79.72539 160.23259 78.08156 160.23259 76.74901 159.37596 76.74901 158.31926 76.74901 157.26256 78.08156 156.40595 79.72539 156.40595 81.3692 156.40595 82.70177 157.26256 82.70177 158.31926ZM79.72539 158.31926"/>
<path transform="matrix(1.00006,0,0,-1.00005,39.375406,188.25716)" stroke-width=".3985" stroke-linecap="butt" stroke-miterlimit="10" stroke-linejoin="miter" fill="none" stroke="#000000" d="M82.70177 158.31926C82.70177 159.37596 81.3692 160.23259 79.72539 160.23259 78.08156 160.23259 76.74901 159.37596 76.74901 158.31926 76.74901 157.26256 78.08156 156.40595 79.72539 156.40595 81.3692 156.40595 82.70177 157.26256 82.70177 158.31926ZM79.72539 158.31926"/>
<path transform="matrix(1.00006,0,0,-1.00005,39.375406,188.25716)" stroke-width=".3985" stroke-linecap="butt" stroke-miterlimit="10" stroke-linejoin="miter" fill="none" stroke="#000000" d="M76.96147 158.31926V139.18529"/>
<path transform="matrix(1.00006,0,0,-1.00005,39.375406,188.25716)" d="M98.64685 158.31926C98.64685 159.37596 97.31429 160.23259 95.67047 160.23259 94.02664 160.23259 92.69409 159.37596 92.69409 158.31926 92.69409 157.26256 94.02664 156.40595 95.67047 156.40595 97.31429 156.40595 98.64685 157.26256 98.64685 158.31926ZM95.67047 158.31926"/>
<path transform="matrix(1.00006,0,0,-1.00005,39.375406,188.25716)" stroke-width=".3985" stroke-linecap="butt" stroke-miterlimit="10" stroke-linejoin="miter" fill="none" stroke="#000000" d="M98.64685 158.31926C98.64685 159.37596 97.31429 160.23259 95.67047 160.23259 94.02664 160.23259 92.69409 159.37596 92.69409 158.31926 92.69409 157.26256 94.02664 156.40595 95.67047 156.40595 97.31429 156.40595 98.64685 157.26256 98.64685 158.31926ZM95.67047 158.31926"/>
<path transform="matrix(1.00006,0,0,-1.00005,39.375406,188.25716)" stroke-width=".3985" stroke-linecap="butt" stroke-miterlimit="10" stroke-linejoin="miter" fill="none" stroke="#000000" d="M92.90656 158.31926V139.18529"/>
<path transform="matrix(1.00006,0,0,-1.00005,39.375406,188.25716)" d="M130.537 166.29181C130.537 167.34851 129.20446 168.20513 127.56062 168.20513 125.91681 168.20513 124.58424 167.34851 124.58424 166.29181 124.58424 165.23509 125.91681 164.37848 127.56062 164.37848 129.20446 164.37848 130.537 165.23509 130.537 166.29181ZM127.56062 166.29181"/>
<path transform="matrix(1.00006,0,0,-1.00005,39.375406,188.25716)" stroke-width=".3985" stroke-linecap="butt" stroke-miterlimit="10" stroke-linejoin="miter" fill="none" stroke="#000000" d="M130.537 166.29181C130.537 167.34851 129.20446 168.20513 127.56062 168.20513 125.91681 168.20513 124.58424 167.34851 124.58424 166.29181 124.58424 165.23509 125.91681 164.37848 127.56062 164.37848 129.20446 164.37848 130.537 165.23509 130.537 166.29181ZM127.56062 166.29181"/>
<path transform="matrix(1.00006,0,0,-1.00005,39.375406,188.25716)" stroke-width=".3985" stroke-linecap="butt" stroke-miterlimit="10" stroke-linejoin="miter" fill="none" stroke="#000000" d="M124.7967 166.29181V147.15785"/>
<path transform="matrix(1.00006,0,0,-1.00005,39.375406,188.25716)" d="M146.48209 166.29181C146.48209 167.34851 145.14954 168.20513 143.5057 168.20513 141.8619 168.20513 140.52933 167.34851 140.52933 166.29181 140.52933 165.23509 141.8619 164.37848 143.5057 164.37848 145.14954 164.37848 146.48209 165.23509 146.48209 166.29181ZM143.5057 166.29181"/>
<path transform="matrix(1.00006,0,0,-1.00005,39.375406,188.25716)" stroke-width=".3985" stroke-linecap="butt" stroke-miterlimit="10" stroke-linejoin="miter" fill="none" stroke="#000000" d="M146.48209 166.29181C146.48209 167.34851 145.14954 168.20513 143.5057 168.20513 141.8619 168.20513 140.52933 167.34851 140.52933 166.29181 140.52933 165.23509 141.8619 164.37848 143.5057 164.37848 145.14954 164.37848 146.48209 165.23509 146.48209 166.29181ZM143.5057 166.29181"/>
<path transform="matrix(1.00006,0,0,-1.00005,39.375406,188.25716)" stroke-width=".3985" stroke-linecap="butt" stroke-miterlimit="10" stroke-linejoin="miter" fill="none" stroke="#000000" d="M140.74178 166.29181V147.15785"/>
<path transform="matrix(1.00006,0,0,-1.00005,39.375406,188.25716)" d="M178.37224 171.60683C178.37224 172.66353 177.03968 173.52014 175.39586 173.52014 173.75205 173.52014 172.41948 172.66353 172.41948 171.60683 172.41948 170.55013 173.75205 169.69351 175.39586 169.69351 177.03968 169.69351 178.37224 170.55013 178.37224 171.60683ZM175.39586 171.60683"/>
<path transform="matrix(1.00006,0,0,-1.00005,39.375406,188.25716)" stroke-width=".3985" stroke-linecap="butt" stroke-miterlimit="10" stroke-linejoin="miter" fill="none" stroke="#000000" d="M178.37224 171.60683C178.37224 172.66353 177.03968 173.52014 175.39586 173.52014 173.75205 173.52014 172.41948 172.66353 172.41948 171.60683 172.41948 170.55013 173.75205 169.69351 175.39586 169.69351 177.03968 169.69351 178.37224 170.55013 178.37224 171.60683ZM175.39586 171.60683"/>
<path transform="matrix(1.00006,0,0,-1.00005,39.375406,188.25716)" stroke-width=".3985" stroke-linecap="butt" stroke-miterlimit="10" stroke-linejoin="miter" fill="none" stroke="#000000" d="M172.63196 171.60683V152.47286"/>
<path transform="matrix(1.00006,0,0,-1.00005,39.375406,188.25716)" d="M194.31734 171.60683C194.31734 172.66353 192.98477 173.52014 191.34096 173.52014 189.69713 173.52014 188.36458 172.66353 188.36458 171.60683 188.36458 170.55013 189.69713 169.69351 191.34096 169.69351 192.98477 169.69351 194.31734 170.55013 194.31734 171.60683ZM191.34096 171.60683"/>
<path transform="matrix(1.00006,0,0,-1.00005,39.375406,188.25716)" stroke-width=".3985" stroke-linecap="butt" stroke-miterlimit="10" stroke-linejoin="miter" fill="none" stroke="#000000" d="M194.31734 171.60683C194.31734 172.66353 192.98477 173.52014 191.34096 173.52014 189.69713 173.52014 188.36458 172.66353 188.36458 171.60683 188.36458 170.55013 189.69713 169.69351 191.34096 169.69351 192.98477 169.69351 194.31734 170.55013 194.31734 171.60683ZM191.34096 171.60683"/>
<path transform="matrix(1.00006,0,0,-1.00005,39.375406,188.25716)" stroke-width=".3985" stroke-linecap="butt" stroke-miterlimit="10" stroke-linejoin="miter" fill="none" stroke="#000000" d="M188.57703 171.60683V152.47286"/>
<path transform="matrix(1.00006,0,0,-1.00005,39.375406,188.25716)" d="M210.26242 176.92186C210.26242 177.97856 208.92986 178.83519 207.28604 178.83519 205.64221 178.83519 204.30966 177.97856 204.30966 176.92186 204.30966 175.86516 205.64221 175.00855 207.28604 175.00855 208.92986 175.00855 210.26242 175.86516 210.26242 176.92186ZM207.28604 176.92186"/>
<path transform="matrix(1.00006,0,0,-1.00005,39.375406,188.25716)" stroke-width=".3985" stroke-linecap="butt" stroke-miterlimit="10" stroke-linejoin="miter" fill="none" stroke="#000000" d="M210.26242 176.92186C210.26242 177.97856 208.92986 178.83519 207.28604 178.83519 205.64221 178.83519 204.30966 177.97856 204.30966 176.92186 204.30966 175.86516 205.64221 175.00855 207.28604 175.00855 208.92986 175.00855 210.26242 175.86516 210.26242 176.92186ZM207.28604 176.92186"/>
<path transform="matrix(1.00006,0,0,-1.00005,39.375406,188.25716)" stroke-width=".3985" stroke-linecap="butt" stroke-miterlimit="10" stroke-linejoin="miter" fill="none" stroke="#000000" d="M204.52211 176.92186V157.78789"/>
<path transform="matrix(1.00006,0,0,-1.00005,39.375406,188.25716)" d="M226.20749 176.92186C226.20749 177.97856 224.87493 178.83519 223.23111 178.83519 221.58728 178.83519 220.25473 177.97856 220.25473 176.92186 220.25473 175.86516 221.58728 175.00855 223.23111 175.00855 224.87493 175.00855 226.20749 175.86516 226.20749 176.92186ZM223.23111 176.92186"/>
<path transform="matrix(1.00006,0,0,-1.00005,39.375406,188.25716)" stroke-width=".3985" stroke-linecap="butt" stroke-miterlimit="10" stroke-linejoin="miter" fill="none" stroke="#000000" d="M226.20749 176.92186C226.20749 177.97856 224.87493 178.83519 223.23111 178.83519 221.58728 178.83519 220.25473 177.97856 220.25473 176.92186 220.25473 175.86516 221.58728 175.00855 223.23111 175.00855 224.87493 175.00855 226.20749 175.86516 226.20749 176.92186ZM223.23111 176.92186"/>
<path transform="matrix(1.00006,0,0,-1.00005,39.375406,188.25716)" stroke-width=".3985" stroke-linecap="butt" stroke-miterlimit="10" stroke-linejoin="miter" fill="none" stroke="#000000" d="M220.4672 176.92186V157.78789"/>
<path transform="matrix(1.00006,0,0,-1.00005,39.375406,188.25716)" stroke-width=".3985" stroke-linecap="butt" stroke-miterlimit="10" stroke-linejoin="miter" fill="none" stroke="#000000" d="M250.86931 179.57938H259.37324"/>
<path transform="matrix(1.00006,0,0,-1.00005,39.375406,188.25716)" stroke-width=".3985" stroke-linecap="butt" stroke-miterlimit="10" stroke-linejoin="miter" fill="none" stroke="#000000" d="M250.86931 184.89441H259.37324"/>
<path transform="matrix(1.00006,0,0,-1.00005,39.375406,188.25716)" d="M258.09767 184.89441C258.09767 185.95111 256.7651 186.80773 255.12128 186.80773 253.47747 186.80773 252.1449 185.95111 252.1449 184.89441 252.1449 183.83769 253.47747 182.98108 255.12128 182.98108 256.7651 182.98108 258.09767 183.83769 258.09767 184.89441ZM255.12128 184.89441"/>
<path transform="matrix(1.00006,0,0,-1.00005,39.375406,188.25716)" stroke-width=".3985" stroke-linecap="butt" stroke-miterlimit="10" stroke-linejoin="miter" fill="none" stroke="#000000" d="M258.09767 184.89441C258.09767 185.95111 256.7651 186.80773 255.12128 186.80773 253.47747 186.80773 252.1449 185.95111 252.1449 184.89441 252.1449 183.83769 253.47747 182.98108 255.12128 182.98108 256.7651 182.98108 258.09767 183.83769 258.09767 184.89441ZM255.12128 184.89441"/>
<path transform="matrix(1.00006,0,0,-1.00005,39.375406,188.25716)" stroke-width=".3985" stroke-linecap="butt" stroke-miterlimit="10" stroke-linejoin="miter" fill="none" stroke="#000000" d="M252.35735 184.89441V165.76044"/>
<path transform="matrix(1.00006,0,0,-1.00005,39.375406,188.25716)" stroke-width=".3985" stroke-linecap="butt" stroke-miterlimit="10" stroke-linejoin="miter" fill="none" stroke="#000000" d="M266.8144 179.57938H275.3183"/>
<path transform="matrix(1.00006,0,0,-1.00005,39.375406,188.25716)" stroke-width=".3985" stroke-linecap="butt" stroke-miterlimit="10" stroke-linejoin="miter" fill="none" stroke="#000000" d="M266.8144 184.89441H275.3183"/>
<path transform="matrix(1.00006,0,0,-1.00005,39.375406,188.25716)" d="M274.04273 184.89441C274.04273 185.95111 272.71018 186.80773 271.06636 186.80773 269.42253 186.80773 268.08998 185.95111 268.08998 184.89441 268.08998 183.83769 269.42253 182.98108 271.06636 182.98108 272.71018 182.98108 274.04273 183.83769 274.04273 184.89441ZM271.06636 184.89441"/>
<path transform="matrix(1.00006,0,0,-1.00005,39.375406,188.25716)" stroke-width=".3985" stroke-linecap="butt" stroke-miterlimit="10" stroke-linejoin="miter" fill="none" stroke="#000000" d="M274.04273 184.89441C274.04273 185.95111 272.71018 186.80773 271.06636 186.80773 269.42253 186.80773 268.08998 185.95111 268.08998 184.89441 268.08998 183.83769 269.42253 182.98108 271.06636 182.98108 272.71018 182.98108 274.04273 183.83769 274.04273 184.89441ZM271.06636 184.89441"/>
<path transform="matrix(1.00006,0,0,-1.00005,39.375406,188.25716)" stroke-width=".3985" stroke-linecap="butt" stroke-miterlimit="10" stroke-linejoin="miter" fill="none" stroke="#000000" d="M268.30244 184.89441V165.76044"/>
<path transform="matrix(1.00006,0,0,-1.00005,39.375406,188.25716)" stroke-width=".19925" stroke-linecap="butt" stroke-miterlimit="10" stroke-linejoin="miter" fill="none" stroke="#d9d9d9" d="M0 110.48402V142.58667"/>
<path transform="matrix(1.00006,0,0,-1.00005,39.375406,188.25716)" stroke-width=".19925" stroke-linecap="butt" stroke-miterlimit="10" stroke-linejoin="miter" fill="none" stroke="#d9d9d9" d="M15.94505 110.48402V142.58667"/>
<path transform="matrix(1.00006,0,0,-1.00005,39.375406,188.25716)" stroke-width=".19925" stroke-linecap="butt" stroke-miterlimit="10" stroke-linejoin="miter" fill="none" stroke="#d9d9d9" d="M31.89014 110.48402V142.58667"/>
<path transform="matrix(1.00006,0,0,-1.00005,39.375406,188.25716)" stroke-width=".19925" stroke-linecap="butt" stroke-miterlimit="10" stroke-linejoin="miter" fill="none" stroke="#d9d9d9" d="M47.83522 110.48402V142.58667"/>
<path transform="matrix(1.00006,0,0,-1.00005,39.375406,188.25716)" stroke-width=".19925" stroke-linecap="butt" stroke-miterlimit="10" stroke-linejoin="miter" fill="none" stroke="#d9d9d9" d="M63.7803 110.48402V142.58667"/>
<path transform="matrix(1.00006,0,0,-1.00005,39.375406,188.25716)" stroke-width=".19925" stroke-linecap="butt" stroke-miterlimit="10" stroke-linejoin="miter" fill="none" stroke="#d9d9d9" d="M79.72539 110.48402V142.58667"/>
<path transform="matrix(1.00006,0,0,-1.00005,39.375406,188.25716)" stroke-width=".19925" stroke-linecap="butt" stroke-miterlimit="10" stroke-linejoin="miter" fill="none" stroke="#d9d9d9" d="M95.67047 110.48402V142.58667"/>
<path transform="matrix(1.00006,0,0,-1.00005,39.375406,188.25716)" stroke-width=".19925" stroke-linecap="butt" stroke-miterlimit="10" stroke-linejoin="miter" fill="none" stroke="#d9d9d9" d="M111.61555 110.48402V142.58667"/>
<path transform="matrix(1.00006,0,0,-1.00005,39.375406,188.25716)" stroke-width=".19925" stroke-linecap="butt" stroke-miterlimit="10" stroke-linejoin="miter" fill="none" stroke="#d9d9d9" d="M127.56062 110.48402V142.58667"/>
<path transform="matrix(1.00006,0,0,-1.00005,39.375406,188.25716)" stroke-width=".19925" stroke-linecap="butt" stroke-miterlimit="10" stroke-linejoin="miter" fill="none" stroke="#d9d9d9" d="M143.5057 110.48402V142.58667"/>
<path transform="matrix(1.00006,0,0,-1.00005,39.375406,188.25716)" stroke-width=".19925" stroke-linecap="butt" stroke-miterlimit="10" stroke-linejoin="miter" fill="none" stroke="#d9d9d9" d="M159.45079 110.48402V142.58667"/>
<path transform="matrix(1.00006,0,0,-1.00005,39.375406,188.25716)" stroke-width=".19925" stroke-linecap="butt" stroke-miterlimit="10" stroke-linejoin="miter" fill="none" stroke="#d9d9d9" d="M175.39586 110.48402V142.58667"/>
<path transform="matrix(1.00006,0,0,-1.00005,39.375406,188.25716)" stroke-width=".19925" stroke-linecap="butt" stroke-miterlimit="10" stroke-linejoin="miter" fill="none" stroke="#d9d9d9" d="M191.34096 110.48402V142.58667"/>
<path transform="matrix(1.00006,0,0,-1.00005,39.375406,188.25716)" stroke-width=".19925" stroke-linecap="butt" stroke-miterlimit="10" stroke-linejoin="miter" fill="none" stroke="#d9d9d9" d="M207.28604 110.48402V142.58667"/>
<path transform="matrix(1.00006,0,0,-1.00005,39.375406,188.25716)" stroke-width=".19925" stroke-linecap="butt" stroke-miterlimit="10" stroke-linejoin="miter" fill="none" stroke="#d9d9d9" d="M223.23111 110.48402V142.58667"/>
<path transform="matrix(1.00006,0,0,-1.00005,39.375406,188.25716)" stroke-width=".19925" stroke-linecap="butt" stroke-miterlimit="10" stroke-linejoin="miter" fill="none" stroke="#d9d9d9" d="M239.17618 110.48402V142.58667"/>
<path transform="matrix(1.00006,0,0,-1.00005,39.375406,188.25716)" stroke-width=".19925" stroke-linecap="butt" stroke-miterlimit="10" stroke-linejoin="miter" fill="none" stroke="#d9d9d9" d="M255.12128 110.48402V142.58667"/>
<path transform="matrix(1.00006,0,0,-1.00005,39.375406,188.25716)" stroke-width=".19925" stroke-linecap="butt" stroke-miterlimit="10" stroke-linejoin="miter" fill="none" stroke="#d9d9d9" d="M271.06636 110.48402V142.58667"/>
<path transform="matrix(1.00006,0,0,-1.00005,39.375406,188.25716)" stroke-width=".19925" stroke-linecap="butt" stroke-miterlimit="10" stroke-linejoin="miter" fill="none" stroke="#d9d9d9" d="M287.01145 110.48402V142.58667"/>
</svg>
