<svg xmlns="http://www.w3.org/2000/svg" xmlns:xlink="http://www.w3.org/1999/xlink" version="1.2" width="70.00mm" height="30.00mm" viewBox="0.0000 -0.0000 49.7923 21.3396">
<style type="text/css">
<![CDATA[
tspan { white-space: pre; }
]]>
</style>
<g transform="translate(2.1340, 8.9100)">
<line stroke-linejoin="round" stroke-linecap="round" stroke-width="0.1164" stroke="currentColor" x1="0.0582" y1="0" x2="11.0603" y2="0"/>
</g>
<g transform="translate(2.1340, 7.9100)">
<line stroke-linejoin="round" stroke-linecap="round" stroke-width="0.1164" stroke="currentColor" x1="0.0582" y1="0" x2="11.0603" y2="0"/>
</g>
<g transform="translate(2.1340, 6.9100)">
<line stroke-linejoin="round" stroke-linecap="round" stroke-width="0.1164" stroke="currentColor" x1="0.0582" y1="0" x2="11.0603" y2="0"/>
</g>
<g transform="translate(2.1340, 5.9100)">
<line stroke-linejoin="round" stroke-linecap="round" stroke-width="0.1164" stroke="currentColor" x1="0.0582" y1="0" x2="11.0603" y2="0"/>
</g>
<g transform="translate(2.1340, 4.9100)">
<line stroke-linejoin="round" stroke-linecap="round" stroke-width="0.1164" stroke="currentColor" x1="0.0582" y1="0" x2="11.0603" y2="0"/>
</g>
<g transform="translate(12.5539, 6.9100)">
<rect x="0.0000" y="-2.0000" width="0.6986" height="4.0000" ry="0.0000" fill="currentColor"/>
</g>
<g transform="translate(11.9834, 6.9100)">
<rect x="0.0000" y="-2.0000" width="0.2212" height="4.0000" ry="0.0000" fill="currentColor"/>
</g>
<a style="color:inherit;" xlink:href="textedit:///workspaces/Page-Build/assets/notation/chord-a-minor.ly:18:12:13">
<g transform="translate(7.9340, 5.4100)">
<path transform="scale(0.0040, -0.0040)" d="M310 63c0 23 -19 40 -40 40c-4 0 -8 -1 -12 -2c-30 -8 -75 -38 -111 -61s-81 -52 -101 -76c-7 -8 -10 -17 -10 -27c0 -23 19 -40 40 -40c4 0 8 1 12 2c30 8 75 38 111 61s81 52 101 76c7 8 10 17 10 27zM256 138c50 0 90 -22 90 -77c0 -18 -5 -37 -10 -55
c-11 -38 -30 -74 -63 -96c-53 -35 -111 -48 -183 -48c-50 0 -90 22 -90 77c0 18 5 37 10 55c11 38 30 74 63 96c53 36 111 48 183 48z" fill="currentColor"/>
</g>
</a>
<a style="color:inherit;" xlink:href="textedit:///workspaces/Page-Build/assets/notation/chord-a-minor.ly:18:5:6">
<g transform="translate(7.9340, 7.4100)">
<path transform="scale(0.0040, -0.0040)" d="M310 63c0 23 -19 40 -40 40c-4 0 -8 -1 -12 -2c-30 -8 -75 -38 -111 -61s-81 -52 -101 -76c-7 -8 -10 -17 -10 -27c0 -23 19 -40 40 -40c4 0 8 1 12 2c30 8 75 38 111 61s81 52 101 76c7 8 10 17 10 27zM256 138c50 0 90 -22 90 -77c0 -18 -5 -37 -10 -55
c-11 -38 -30 -74 -63 -96c-53 -35 -111 -48 -183 -48c-50 0 -90 22 -90 77c0 18 5 37 10 55c11 38 30 74 63 96c53 36 111 48 183 48z" fill="currentColor"/>
</g>
</a>
<a style="color:inherit;" xlink:href="textedit:///workspaces/Page-Build/assets/notation/chord-a-minor.ly:18:8:9">
<g transform="translate(7.9340, 6.4100)">
<path transform="scale(0.0040, -0.0040)" d="M310 63c0 23 -19 40 -40 40c-4 0 -8 -1 -12 -2c-30 -8 -75 -38 -111 -61s-81 -52 -101 -76c-7 -8 -10 -17 -10 -27c0 -23 19 -40 40 -40c4 0 8 1 12 2c30 8 75 38 111 61s81 52 101 76c7 8 10 17 10 27zM256 138c50 0 90 -22 90 -77c0 -18 -5 -37 -10 -55
c-11 -38 -30 -74 -63 -96c-53 -35 -111 -48 -183 -48c-50 0 -90 22 -90 77c0 18 5 37 10 55c11 38 30 74 63 96c53 36 111 48 183 48z" fill="currentColor"/>
</g>
</a>
<g transform="translate(2.9340, 7.9100)">
<path transform="scale(0.0040, -0.0040)" d="M379 264c3 0 7 1 10 1c157 0 258 -129 258 -263c0 -77 -33 -155 -108 -211c-22 -16 -46 -29 -72 -37c3 -33 4 -66 4 -99c0 -21 0 -41 -1 -62c-7 -121 -91 -229 -211 -229c-108 0 -196 88 -196 197c0 58 54 103 113 103c54 0 95 -47 95 -103c0 -52 -43 -95 -95 -95
c-9 0 -18 1 -27 4c25 -37 66 -61 113 -61c95 0 156 93 162 191c1 19 2 38 2 57c0 29 -1 58 -3 87c-29 -5 -58 -8 -88 -8c-189 0 -333 173 -333 376c0 177 129 308 244 443c-20 62 -40 124 -48 189c-7 52 -7 105 -7 158c0 114 54 221 147 288c4 3 8 4 12 4c5 0 9 -2 13 -5
c72 -83 135 -243 135 -356c0 -142 -84 -255 -176 -364c21 -68 40 -136 57 -205zM463 -201c65 24 110 94 110 161c0 88 -64 175 -167 188c24 -114 44 -227 57 -349zM77 25c0 -133 128 -243 261 -243c27 0 55 1 81 5c-13 126 -35 244 -60 362c-79 -8 -124 -60 -124 -118
c0 -43 25 -88 80 -120c5 -5 7 -11 7 -17c0 -12 -10 -23 -23 -23c-3 0 -7 1 -10 2c-81 43 -118 115 -118 186c0 89 60 177 163 200c-14 57 -30 113 -47 169c-105 -122 -210 -243 -210 -403zM403 1038c-99 -46 -161 -145 -161 -254c0 -71 21 -130 39 -188
c78 97 142 199 142 324c0 51 -4 72 -20 118z" fill="currentColor"/>
</g>
<g transform="translate(8.0096, 6.9100)">
<rect x="-0.0757" y="-1.2544" width="0.1514" height="4.9211" ry="0.0500" fill="currentColor"/>
</g>
<g transform="translate(-5.8755, 18.7168)">
<a xlink:href="https://lilypond.org/">
<rect x="0.0000" y="-0.4888" width="61.5433" height="2.1602" fill="none" stroke="none" stroke-width="0.0"/>
</a>
</g>
<g transform="translate(-5.8755, 18.7168)">
<text font-family="serif" font-size="2.1999" text-anchor="start" fill="currentColor">
<tspan>Music engraving by LilyPond 2.24.4—www.lilypond.org</tspan>
</text>
</g>
</svg>
