<svg xmlns="http://www.w3.org/2000/svg" xmlns:xlink="http://www.w3.org/1999/xlink" version="1.2" width="42.00mm" height="50.00mm" viewBox="0.0000 -0.0000 19.9169 23.7106">
<style type="text/css">
<![CDATA[
tspan { white-space: pre; }
]]>
</style>
<g transform="translate(0.9484, 9.8969)">
<line stroke-linejoin="round" stroke-linecap="round" stroke-width="0.0890" stroke="currentColor" x1="0.0445" y1="0" x2="11.2105" y2="0"/>
</g>
<g transform="translate(0.9484, 8.8969)">
<line stroke-linejoin="round" stroke-linecap="round" stroke-width="0.0890" stroke="currentColor" x1="0.0445" y1="0" x2="11.2105" y2="0"/>
</g>
<g transform="translate(0.9484, 7.8969)">
<line stroke-linejoin="round" stroke-linecap="round" stroke-width="0.0890" stroke="currentColor" x1="0.0445" y1="0" x2="11.2105" y2="0"/>
</g>
<g transform="translate(0.9484, 6.8969)">
<line stroke-linejoin="round" stroke-linecap="round" stroke-width="0.0890" stroke="currentColor" x1="0.0445" y1="0" x2="11.2105" y2="0"/>
</g>
<g transform="translate(0.9484, 5.8969)">
<line stroke-linejoin="round" stroke-linecap="round" stroke-width="0.0890" stroke="currentColor" x1="0.0445" y1="0" x2="11.2105" y2="0"/>
</g>
<g transform="translate(11.6692, 7.8969)">
<rect x="0.0000" y="-2.0000" width="0.5343" height="4.0000" ry="0.0000" fill="currentColor"/>
</g>
<g transform="translate(11.2328, 7.8969)">
<rect x="0.0000" y="-2.0000" width="0.1692" height="4.0000" ry="0.0000" fill="currentColor"/>
</g>
<g transform="translate(8.0626, 7.8969)">
<rect x="-0.0579" y="-1.0000" width="0.1158" height="3.2316" ry="0.0333" fill="currentColor"/>
</g>
<g transform="translate(1.7484, 8.8969)">
<path transform="scale(0.0040, -0.0040)" d="M374 260c5 0 10 1 15 1c154 0 254 -127 254 -259c0 -76 -33 -153 -107 -208c-22 -17 -47 -29 -73 -37c3 -36 5 -72 5 -108c0 -19 0 -37 -1 -56c-7 -120 -88 -226 -206 -226c-108 0 -195 87 -195 195c0 58 53 104 112 104c54 0 95 -48 95 -104c0 -52 -43 -95 -95 -95
c-12 0 -24 4 -35 9c26 -41 70 -70 121 -70c96 0 157 93 163 193c1 18 2 35 2 53c0 32 -2 64 -5 96c-29 -5 -58 -8 -89 -8c-188 0 -333 171 -333 372c0 178 133 306 251 440c-18 63 -35 126 -42 191c-6 51 -7 102 -7 154c0 116 55 226 150 295c2 2 5 3 8 3s6 -1 8 -3
c70 -84 132 -246 132 -359c0 -144 -87 -256 -183 -365c20 -69 39 -138 55 -208zM459 -205c69 24 117 96 117 166c0 92 -69 184 -179 193c25 -117 48 -235 62 -359zM71 31c0 -136 131 -251 267 -251c28 0 55 2 82 6c-15 128 -38 247 -64 367c-79 -9 -125 -62 -125 -121
c0 -44 26 -92 82 -124c4 -4 7 -9 7 -14c0 -11 -9 -21 -20 -21c-3 0 -6 1 -9 2c-80 43 -116 114 -116 184c0 88 57 173 158 196c-14 60 -30 119 -46 178c-108 -121 -216 -242 -216 -402zM411 1050c-99 -50 -161 -151 -161 -262c0 -76 15 -137 33 -200c82 97 149 198 149 325
c0 58 -4 84 -21 137z" fill="currentColor"/>
</g>
<a style="color:inherit;" xlink:href="textedit:///workspaces/Page-Build/assets/notation/note-d4.ly:18:4:5">
<g transform="translate(6.7484, 10.3969)">
<path transform="scale(0.0040, -0.0040)" d="M316 67c0 25 -20 42 -42 42c-4 0 -9 -1 -13 -2c-31 -9 -79 -41 -117 -65s-86 -55 -107 -80c-7 -8 -10 -19 -10 -29c0 -25 20 -42 42 -42c4 0 9 1 13 2c31 9 79 41 117 65s86 55 107 80c7 8 10 19 10 29zM265 135c44 0 78 -21 78 -68c0 -19 -5 -39 -11 -57
c-12 -37 -33 -71 -65 -93c-53 -36 -114 -52 -189 -52c-44 0 -78 21 -78 68c0 19 5 39 11 57c12 37 33 71 65 93c53 36 114 52 189 52z" fill="currentColor"/>
</g>
</a>
<g transform="translate(-21.7806, 21.3250)">
<a xlink:href="https://lilypond.org/">
<rect x="0.0000" y="-0.4888" width="63.4781" height="2.1604" fill="none" stroke="none" stroke-width="0.0"/>
</a>
</g>
<g transform="translate(-21.7806, 21.3250)">
<text font-family="serif" font-size="2.2002" text-anchor="start" fill="currentColor">
<tspan>Music engraving by LilyPond 2.25.12—www.lilypond.org</tspan>
</text>
</g>
</svg>
