<svg xmlns="http://www.w3.org/2000/svg" xmlns:xlink="http://www.w3.org/1999/xlink" version="1.2" width="40.00mm" height="15.81mm" viewBox="0.0000 -0.0000 40.0000 15.8071">
<style type="text/css">
<![CDATA[
tspan { white-space: pre; }
]]>
</style>
<g transform="translate(3.1614, 8.0446)">
<line stroke-linejoin="round" stroke-linecap="round" stroke-width="0.0708" stroke="currentColor" x1="0.0354" y1="0" x2="12.6103" y2="0"/>
</g>
<g transform="translate(3.1614, 7.0446)">
<line stroke-linejoin="round" stroke-linecap="round" stroke-width="0.0708" stroke="currentColor" x1="0.0354" y1="0" x2="12.6103" y2="0"/>
</g>
<g transform="translate(3.1614, 6.0446)">
<line stroke-linejoin="round" stroke-linecap="round" stroke-width="0.0708" stroke="currentColor" x1="0.0354" y1="0" x2="12.6103" y2="0"/>
</g>
<g transform="translate(3.1614, 5.0446)">
<line stroke-linejoin="round" stroke-linecap="round" stroke-width="0.0708" stroke="currentColor" x1="0.0354" y1="0" x2="12.6103" y2="0"/>
</g>
<g transform="translate(3.1614, 4.0446)">
<line stroke-linejoin="round" stroke-linecap="round" stroke-width="0.0708" stroke="currentColor" x1="0.0354" y1="0" x2="12.6103" y2="0"/>
</g>
<g transform="translate(3.1614, 9.0446)">
<rect x="5.4570" y="-0.0854" width="2.0580" height="0.1708" ry="0.0854" fill="currentColor"/>
</g>
<g transform="translate(15.3823, 6.0446)">
<rect x="0.0000" y="-2.0000" width="0.4248" height="4.0000" ry="0.0000" fill="currentColor"/>
</g>
<g transform="translate(15.0354, 6.0446)">
<rect x="0.0000" y="-2.0000" width="0.1345" height="4.0000" ry="0.0000" fill="currentColor"/>
</g>
<a style="color:inherit;" xlink:href="textedit:///workspaces/Page-Build/assets/notation/staff-grid2.ly:23:14:15">
<g transform="translate(8.9614, 6.0446)">
<path transform="scale(0.0040, -0.0040)" d="M316 67c0 23 -18 42 -42 42c-40 0 -209 -113 -237 -147c-7 -8 -10 -19 -10 -29c0 -23 18 -42 42 -42c40 0 209 113 237 147c7 8 10 19 10 29zM265 135c38 0 78 -13 78 -68c0 -27 -19 -111 -76 -150c-19 -13 -85 -52 -189 -52c-38 0 -78 13 -78 68c0 27 19 111 76 150
c19 13 85 52 189 52z" fill="currentColor"/>
</g>
</a>
<a style="color:inherit;" xlink:href="textedit:///workspaces/Page-Build/assets/notation/staff-grid2.ly:23:5:6">
<g transform="translate(8.9614, 9.0446)">
<path transform="scale(0.0040, -0.0040)" d="M316 67c0 23 -18 42 -42 42c-40 0 -209 -113 -237 -147c-7 -8 -10 -19 -10 -29c0 -23 18 -42 42 -42c40 0 209 113 237 147c7 8 10 19 10 29zM265 135c38 0 78 -13 78 -68c0 -27 -19 -111 -76 -150c-19 -13 -85 -52 -189 -52c-38 0 -78 13 -78 68c0 27 19 111 76 150
c19 13 85 52 189 52z" fill="currentColor"/>
</g>
</a>
<a style="color:inherit;" xlink:href="textedit:///workspaces/Page-Build/assets/notation/staff-grid2.ly:23:8:9">
<g transform="translate(8.9614, 8.0446)">
<path transform="scale(0.0040, -0.0040)" d="M316 67c0 23 -18 42 -42 42c-40 0 -209 -113 -237 -147c-7 -8 -10 -19 -10 -29c0 -23 18 -42 42 -42c40 0 209 113 237 147c7 8 10 19 10 29zM265 135c38 0 78 -13 78 -68c0 -27 -19 -111 -76 -150c-19 -13 -85 -52 -189 -52c-38 0 -78 13 -78 68c0 27 19 111 76 150
c19 13 85 52 189 52z" fill="currentColor"/>
</g>
</a>
<a style="color:inherit;" xlink:href="textedit:///workspaces/Page-Build/assets/notation/staff-grid2.ly:23:11:12">
<g transform="translate(8.9614, 7.0446)">
<path transform="scale(0.0040, -0.0040)" d="M316 67c0 23 -18 42 -42 42c-40 0 -209 -113 -237 -147c-7 -8 -10 -19 -10 -29c0 -23 18 -42 42 -42c40 0 209 113 237 147c7 8 10 19 10 29zM265 135c38 0 78 -13 78 -68c0 -27 -19 -111 -76 -150c-19 -13 -85 -52 -189 -52c-38 0 -78 13 -78 68c0 27 19 111 76 150
c19 13 85 52 189 52z" fill="currentColor"/>
</g>
</a>
<g transform="translate(7.8114, 6.0446)">
<path transform="scale(0.0040, -0.0040)" d="M25 44l-1 -69c0 -4 -1 -7 -1 -11c0 -22 2 -44 4 -66c46 38 96 80 96 139c0 34 -14 69 -44 69c-31 0 -53 -29 -54 -62zM-25 463c8 4 16 7 25 7s17 -3 25 -7l-6 -349c26 19 56 30 88 30c53 0 93 -46 93 -100c0 -82 -90 -118 -153 -169c-14 -11 -22 -32 -40 -32
c-12 0 -21 9 -21 21z" fill="currentColor"/>
</g>
<g transform="translate(3.9614, 7.0446)">
<path transform="scale(0.0040, -0.0040)" d="M264 -594c47 0 165 26 165 246c0 32 -2 64 -5 96c-5 -1 -44 -8 -89 -8c-193 0 -333 178 -333 372c0 178 133 306 251 440c-27 93 -49 170 -49 345c0 116 55 226 150 295c5 4 11 4 16 0c67 -81 132 -246 132 -359c0 -144 -87 -256 -183 -365c20 -69 39 -138 55 -208
c2 0 7 1 15 1c154 0 254 -127 254 -259c0 -112 -73 -212 -180 -245c3 -36 5 -72 5 -108c0 -19 0 -37 -1 -56c-7 -120 -89 -226 -206 -226c-108 0 -195 87 -195 195c0 58 53 104 112 104c54 0 95 -48 95 -104c0 -52 -43 -95 -95 -95c-12 0 -24 4 -35 9c26 -41 70 -70 121 -70
zM459 -205c71 24 117 92 117 166c0 92 -69 184 -179 193c1 -5 45 -212 62 -359zM71 31c0 -146 142 -251 267 -251c1 0 46 0 82 6c-7 63 -28 201 -64 367c-79 -9 -125 -62 -125 -121c0 -44 26 -92 82 -124c4 -4 7 -9 7 -14c0 -11 -9 -21 -20 -21c-14 0 -125 62 -125 186
c0 88 57 173 158 196c-14 60 -30 119 -46 178c-108 -121 -216 -242 -216 -402zM411 1050c-99 -50 -161 -151 -161 -262c0 -59 11 -123 33 -200c82 97 149 198 149 325c0 35 0 69 -21 137z" fill="currentColor"/>
</g>
<g transform="translate(10.2874, 6.0446)">
<rect x="-0.0460" y="-3.3333" width="0.0920" height="6.0649" ry="0.0222" fill="currentColor"/>
</g>
</svg>
